<svg width="679" height="506" viewBox="0 0 679 506" fill="none" xmlns="http://www.w3.org/2000/svg">
<path d="M678.281 444.139H0V444.478H678.281V444.139Z" fill="#FAFAFA"/>
<path d="M574.125 458.898H540.441V459.237H574.125V458.898Z" fill="#E0E0E0"/>
<path d="M595.463 458.722H584.082V459.061H595.463V458.722Z" fill="#E0E0E0"/>
<path d="M450.42 461.001H379.892V461.34H450.42V461.001Z" fill="#E0E0E0"/>
<path d="M363.247 464.677H352.733V465.016H363.247V464.677Z" fill="#E0E0E0"/>
<path d="M151.867 453.947H133.744V454.286H151.867V453.947Z" fill="#E0E0E0"/>
<path d="M251.317 453.947H159.396V454.286H251.317V453.947Z" fill="#E0E0E0"/>
<path d="M172.962 462.14H109.013V462.48H172.962V462.14Z" fill="#E0E0E0"/>
<path d="M321.505 383.636H59.5666C57.5146 383.632 55.5479 382.815 54.0982 381.362C52.6485 379.91 51.8342 377.942 51.8342 375.89V7.67815C51.8521 5.63791 52.6742 3.68711 54.122 2.24948C55.5698 0.811846 57.5263 0.00349503 59.5666 0H321.505C323.56 0 325.53 0.816092 326.983 2.26874C328.435 3.7214 329.251 5.69161 329.251 7.74597V375.89C329.251 377.944 328.435 379.915 326.983 381.367C325.53 382.82 323.56 383.636 321.505 383.636ZM59.5666 0.271314C57.6046 0.274907 55.7241 1.05685 54.338 2.44551C52.9519 3.83417 52.1734 5.71608 52.1734 7.67815V375.89C52.1734 377.852 52.9519 379.734 54.338 381.123C55.7241 382.511 57.6046 383.293 59.5666 383.297H321.505C323.469 383.293 325.351 382.512 326.739 381.123C328.127 379.735 328.909 377.853 328.912 375.89V7.67815C328.909 5.71483 328.127 3.83296 326.739 2.44468C325.351 1.05641 323.469 0.2749 321.505 0.271314H59.5666Z" fill="#E0E0E0"/>
<path d="M614.943 383.636H352.991C350.938 383.632 348.97 382.815 347.518 381.363C346.066 379.911 345.249 377.943 345.245 375.89V7.67815C345.267 5.63667 346.092 3.68589 347.542 2.24863C348.992 0.811372 350.949 0.00345692 352.991 0H614.943C616.981 0.00706023 618.934 0.816989 620.379 2.25424C621.824 3.69149 622.644 5.64025 622.662 7.67815V375.89C622.662 377.94 621.85 379.906 620.403 381.358C618.956 382.81 616.993 383.629 614.943 383.636ZM352.991 0.271314C351.028 0.2749 349.146 1.05641 347.758 2.44468C346.369 3.83296 345.588 5.71483 345.584 7.67815V375.89C345.588 377.853 346.369 379.735 347.758 381.123C349.146 382.512 351.028 383.293 352.991 383.297H614.943C616.907 383.293 618.789 382.512 620.177 381.123C621.565 379.735 622.347 377.853 622.35 375.89V7.67815C622.347 5.71483 621.565 3.83296 620.177 2.44468C618.789 1.05641 616.907 0.2749 614.943 0.271314H352.991Z" fill="#E0E0E0"/>
<path d="M463.605 444.139H511.533V357.156H463.605V444.139Z" fill="#E0E0E0"/>
<path d="M568.712 357.156H511.533V444.139H568.712V357.156Z" fill="#EBEBEB"/>
<g style="mix-blend-mode:multiply" opacity="0.7">
<path d="M463.605 368.456H569.214V364.522H463.605V368.456Z" fill="#E0E0E0"/>
</g>
<path d="M460.96 366.163H511.533V348.04H460.96V366.163Z" fill="#E0E0E0"/>
<path d="M571.357 348.053H511.533V366.177H571.357V348.053Z" fill="#EBEBEB"/>
<path d="M263.254 25.7612H101.918V218.257H263.254V25.7612Z" fill="#E0E0E0"/>
<path d="M270.648 25.7612H105.378V218.257H270.648V25.7612Z" fill="#EBEBEB"/>
<path d="M263.254 218.257H101.918V231.972H263.254V218.257Z" fill="#E0E0E0"/>
<path d="M282.938 218.257H117.668V231.972H282.938V218.257Z" fill="#EBEBEB"/>
<path d="M260.311 207.92V36.0981L115.715 36.0981V207.92H260.311Z" fill="#F5F5F5"/>
<path d="M133.458 207.92L194.11 36.0981H222.734L162.096 207.92H133.458Z" fill="#FAFAFA"/>
<path d="M120.49 149.629C120.294 149.625 120.108 149.545 119.971 149.406C119.834 149.266 119.757 149.078 119.757 148.883V42.8131C119.757 42.6188 119.835 42.4325 119.972 42.2951C120.109 42.1577 120.296 42.0806 120.49 42.0806C120.685 42.0805 120.873 42.1573 121.013 42.2943C121.152 42.4313 121.232 42.6176 121.236 42.8131V148.883C121.236 149.081 121.157 149.27 121.017 149.41C120.878 149.55 120.688 149.629 120.49 149.629Z" fill="#EBEBEB"/>
<path d="M168.241 207.92L228.893 36.0981H240.057L179.405 207.92H168.241Z" fill="#FAFAFA"/>
<path d="M260.297 207.92V36.0981H258.982V207.92H260.297Z" fill="#E0E0E0"/>
<path d="M273.076 49.311H111.754L110.804 40.1135H272.127L273.076 49.311Z" fill="#E0E0E0"/>
<path d="M273.076 56.0531H111.754L110.804 46.842H272.127L273.076 56.0531Z" fill="#E0E0E0"/>
<path d="M273.076 64.1383H111.754L110.804 54.9272H272.127L273.076 64.1383Z" fill="#E0E0E0"/>
<path d="M273.076 73.1323H111.754L110.804 63.9348H272.127L273.076 73.1323Z" fill="#E0E0E0"/>
<path d="M273.076 83.9169H111.754L110.804 74.7058H272.127L273.076 83.9169Z" fill="#E0E0E0"/>
<path d="M273.076 96.031H111.754L110.804 86.8335H272.127L273.076 96.031Z" fill="#E0E0E0"/>
<path d="M556.679 25.7612H395.343V218.257H556.679V25.7612Z" fill="#E0E0E0"/>
<path d="M564.059 25.7612H398.789V218.257H564.059V25.7612Z" fill="#EBEBEB"/>
<path d="M556.679 218.257H395.343V231.972H556.679V218.257Z" fill="#E0E0E0"/>
<path d="M576.363 218.257H411.093V231.972H576.363V218.257Z" fill="#EBEBEB"/>
<path d="M553.735 207.92V36.0981L409.139 36.0981V207.92H553.735Z" fill="#F5F5F5"/>
<path d="M426.883 207.92L487.535 36.0981H516.159L455.507 207.92H426.883Z" fill="#FAFAFA"/>
<path d="M413.914 149.629C413.719 149.625 413.533 149.545 413.396 149.406C413.259 149.266 413.182 149.078 413.182 148.883V42.8131C413.182 42.6188 413.259 42.4325 413.396 42.2951C413.534 42.1577 413.72 42.0806 413.914 42.0806C414.109 42.0806 414.295 42.1577 414.432 42.2951C414.57 42.4325 414.647 42.6188 414.647 42.8131V148.883C414.647 149.078 414.57 149.266 414.433 149.406C414.296 149.545 414.11 149.625 413.914 149.629Z" fill="#EBEBEB"/>
<path d="M461.666 207.92L522.317 36.0981H533.468L472.83 207.92H461.666Z" fill="#FAFAFA"/>
<path d="M553.722 207.92V36.0981H552.406V207.92H553.722Z" fill="#E0E0E0"/>
<path d="M566.501 49.311H405.178L404.215 40.1135H565.551L566.501 49.311Z" fill="#E0E0E0"/>
<path d="M566.501 56.0531H405.178L404.215 46.842H565.551L566.501 56.0531Z" fill="#E0E0E0"/>
<path d="M566.501 64.1383H405.178L404.215 54.9272H565.551L566.501 64.1383Z" fill="#E0E0E0"/>
<path d="M566.501 73.1323H405.178L404.215 63.9348H565.551L566.501 73.1323Z" fill="#E0E0E0"/>
<path d="M566.501 83.9169H405.178L404.215 74.7058H565.551L566.501 83.9169Z" fill="#E0E0E0"/>
<path d="M566.501 96.031H405.178L404.215 86.8335H565.551L566.501 96.031Z" fill="#E0E0E0"/>
<path d="M431.441 322.129H399.223V444.139H431.441V322.129Z" fill="#E0E0E0"/>
<path d="M425.31 444.139H431.428V429.189H418.893L425.31 444.139Z" fill="#F5F5F5"/>
<path d="M118.781 322.129H86.5623V444.139H118.781V322.129Z" fill="#E0E0E0"/>
<path d="M431.441 322.129H113.436V435.918H431.441V322.129Z" fill="#F5F5F5"/>
<path d="M274.487 327.827V409.085H426.693V327.827H274.487Z" fill="#E0E0E0"/>
<path d="M118.184 327.827V409.085H270.39V327.827H118.184Z" fill="#E0E0E0"/>
<path d="M426.68 426.259V417.211H274.473V426.259H426.68Z" fill="#E0E0E0"/>
<path d="M270.376 426.273V417.224H118.17V426.273H270.376Z" fill="#E0E0E0"/>
<path d="M247.885 332.683H140.716C138.337 332.685 135.981 332.205 133.792 331.273C131.603 330.34 129.625 328.974 127.978 327.257H260.677C259.023 328.981 257.037 330.351 254.838 331.283C252.639 332.216 250.273 332.692 247.885 332.683Z" fill="#F5F5F5"/>
<path d="M404.758 332.683H297.589C295.21 332.685 292.854 332.205 290.665 331.273C288.476 330.34 286.498 328.974 284.851 327.257H417.55C415.899 328.985 413.913 330.357 411.714 331.29C409.514 332.223 407.147 332.697 404.758 332.683Z" fill="#F5F5F5"/>
<path d="M119.554 444.139H113.422V429.189H125.957L119.554 444.139Z" fill="#F5F5F5"/>
<g style="mix-blend-mode:multiply" opacity="0.4">
<path d="M346.683 247.22H310.816V322.129H346.683V247.22Z" fill="#E0E0E0"/>
</g>
<path d="M376.812 322.129H316.106L310.395 241.238H371.088L376.812 322.129Z" fill="#E0E0E0"/>
<path d="M383.717 322.129H317.829L312.118 241.238H377.993L383.717 322.129Z" fill="#F5F5F5"/>
<path d="M320.882 319.036L315.604 244.331H374.954L380.245 319.036H320.882Z" fill="#FAFAFA"/>
<path d="M335.247 302.31L332.331 261.057H360.588L363.505 302.31H335.247Z" fill="#F5F5F5"/>
<path d="M216.168 308.849C224.874 308.849 231.932 301.791 231.932 293.085C231.932 284.379 224.874 277.322 216.168 277.322C207.462 277.322 200.405 284.379 200.405 293.085C200.405 301.791 207.462 308.849 216.168 308.849Z" fill="#EBEBEB"/>
<path d="M243.164 316.364C251.87 316.364 258.927 309.306 258.927 300.601C258.927 291.895 251.87 284.837 243.164 284.837C234.458 284.837 227.401 291.895 227.401 300.601C227.401 309.306 234.458 316.364 243.164 316.364Z" fill="#EBEBEB"/>
<path d="M269.987 303.74C275.356 301.529 277.915 295.384 275.703 290.015C273.491 284.646 267.346 282.087 261.978 284.299C256.609 286.511 254.05 292.656 256.261 298.024C258.473 303.393 264.618 305.952 269.987 303.74Z" fill="#EBEBEB"/>
<path d="M242.338 285.241C243.266 279.509 239.372 274.11 233.64 273.182C227.909 272.253 222.51 276.147 221.581 281.879C220.653 287.611 224.547 293.01 230.279 293.938C236.01 294.866 241.409 290.972 242.338 285.241Z" fill="#EBEBEB"/>
<path d="M190.963 297.779C190.963 297.779 192.198 322.129 239.501 322.129C286.805 322.129 288.039 297.779 288.039 297.779H190.963Z" fill="#E0E0E0"/>
<path d="M147.282 313.786C147.282 313.786 131.871 287.225 153.251 266.076C153.251 266.076 158.826 269.712 158.677 274.609C158.528 279.506 152.695 280.727 153.956 284.81C155.218 288.894 160.739 292.95 157.144 296.273C153.549 299.597 157.728 302.636 157.483 306.773C157.239 310.911 147.282 313.786 147.282 313.786Z" fill="#E0E0E0"/>
<path d="M148.449 316.215C148.449 316.215 154.689 286.154 127.734 272.805C127.734 272.805 123.583 278.028 125.211 282.64C126.839 287.252 132.807 286.56 132.902 290.779C132.997 294.998 128.968 300.601 133.499 302.649C138.03 304.698 134.951 308.889 136.484 312.729C138.017 316.568 148.449 316.215 148.449 316.215Z" fill="#E0E0E0"/>
<path d="M124.804 302.31C124.804 302.31 125.319 322.129 144.962 322.129C164.605 322.129 165.121 302.31 165.121 302.31H124.804Z" fill="#EBEBEB"/>
<path d="M339.141 505.401C484.405 505.401 602.165 498.526 602.165 490.045C602.165 481.564 484.405 474.688 339.141 474.688C193.877 474.688 76.1167 481.564 76.1167 490.045C76.1167 498.526 193.877 505.401 339.141 505.401Z" fill="#F5F5F5"/>
<path d="M244.792 294.971C243.988 294.919 243.234 294.562 242.683 293.974C242.132 293.385 241.825 292.61 241.825 291.804C241.825 290.998 242.132 290.222 242.683 289.634C243.234 289.045 243.988 288.689 244.792 288.636C252.551 288.636 259.09 277.526 259.09 264.367C259.143 263.563 259.499 262.809 260.088 262.258C260.676 261.707 261.452 261.4 262.258 261.4C263.064 261.4 263.839 261.707 264.428 262.258C265.016 262.809 265.373 263.563 265.425 264.367C265.425 281.528 256.391 294.971 244.792 294.971Z" fill="#6750A4"/>
<path d="M292.665 294.971C291.861 294.919 291.107 294.562 290.556 293.974C290.005 293.385 289.698 292.61 289.698 291.804C289.698 290.998 290.005 290.222 290.556 289.634C291.107 289.045 291.861 288.689 292.665 288.636C300.425 288.636 306.963 277.526 306.963 264.367C307.016 263.563 307.372 262.809 307.961 262.258C308.549 261.707 309.325 261.4 310.131 261.4C310.937 261.4 311.712 261.707 312.301 262.258C312.889 262.809 313.246 263.563 313.298 264.367C313.366 281.528 304.236 294.971 292.665 294.971Z" fill="#6750A4"/>
<path d="M340.497 294.971C339.693 294.918 338.939 294.562 338.388 293.974C337.837 293.385 337.53 292.61 337.53 291.804C337.53 290.998 337.837 290.222 338.388 289.634C338.939 289.045 339.693 288.689 340.497 288.636C348.243 288.636 354.795 277.526 354.795 264.367C354.795 263.529 355.128 262.725 355.721 262.132C356.314 261.539 357.118 261.206 357.956 261.206C358.794 261.206 359.598 261.539 360.191 262.132C360.784 262.725 361.117 263.529 361.117 264.367C361.158 281.528 352.109 294.971 340.497 294.971Z" fill="#6750A4"/>
<path d="M388.411 294.971C387.978 295 387.543 294.939 387.134 294.792C386.725 294.646 386.351 294.417 386.034 294.12C385.717 293.823 385.464 293.465 385.291 293.066C385.118 292.668 385.029 292.238 385.029 291.804C385.029 291.369 385.118 290.94 385.291 290.541C385.464 290.143 385.717 289.784 386.034 289.487C386.351 289.19 386.725 288.961 387.134 288.815C387.543 288.668 387.978 288.608 388.411 288.636C396.157 288.636 402.709 277.526 402.709 264.367C402.709 263.529 403.042 262.725 403.635 262.132C404.228 261.539 405.032 261.206 405.87 261.206C406.708 261.206 407.512 261.539 408.105 262.132C408.698 262.725 409.031 263.529 409.031 264.367C409.031 281.528 399.969 294.971 388.411 294.971Z" fill="#6750A4"/>
<path d="M436.271 294.971C435.466 294.919 434.712 294.562 434.161 293.974C433.61 293.385 433.304 292.61 433.304 291.804C433.304 290.998 433.61 290.222 434.161 289.634C434.712 289.045 435.466 288.689 436.271 288.636C444.03 288.636 450.569 277.526 450.569 264.367C450.621 263.563 450.978 262.809 451.566 262.258C452.155 261.707 452.93 261.4 453.736 261.4C454.542 261.4 455.318 261.707 455.906 262.258C456.495 262.809 456.851 263.563 456.904 264.367C456.904 281.528 447.842 294.971 436.271 294.971Z" fill="#6750A4"/>
<path d="M484.144 294.971C483.339 294.919 482.585 294.562 482.034 293.974C481.483 293.385 481.177 292.61 481.177 291.804C481.177 290.998 481.483 290.222 482.034 289.634C482.585 289.045 483.339 288.689 484.144 288.636C491.89 288.636 498.442 277.526 498.442 264.367C498.495 263.563 498.851 262.809 499.439 262.258C500.028 261.707 500.803 261.4 501.609 261.4C502.415 261.4 503.191 261.707 503.78 262.258C504.368 262.809 504.724 263.563 504.777 264.367C504.777 281.528 495.715 294.971 484.144 294.971Z" fill="#6750A4"/>
<g opacity="0.3">
<path d="M244.792 294.971C243.988 294.919 243.234 294.562 242.683 293.974C242.132 293.385 241.825 292.61 241.825 291.804C241.825 290.998 242.132 290.222 242.683 289.634C243.234 289.045 243.988 288.689 244.792 288.636C252.551 288.636 259.09 277.526 259.09 264.367C259.143 263.563 259.499 262.809 260.088 262.258C260.676 261.707 261.452 261.4 262.258 261.4C263.064 261.4 263.839 261.707 264.428 262.258C265.016 262.809 265.373 263.563 265.425 264.367C265.425 281.528 256.391 294.971 244.792 294.971Z" fill="black"/>
<path d="M292.665 294.971C291.861 294.919 291.107 294.562 290.556 293.974C290.005 293.385 289.698 292.61 289.698 291.804C289.698 290.998 290.005 290.222 290.556 289.634C291.107 289.045 291.861 288.689 292.665 288.636C300.425 288.636 306.963 277.526 306.963 264.367C307.016 263.563 307.372 262.809 307.961 262.258C308.549 261.707 309.325 261.4 310.131 261.4C310.937 261.4 311.712 261.707 312.301 262.258C312.889 262.809 313.246 263.563 313.298 264.367C313.366 281.528 304.236 294.971 292.665 294.971Z" fill="black"/>
<path d="M340.497 294.971C339.693 294.918 338.939 294.562 338.388 293.974C337.837 293.385 337.53 292.61 337.53 291.804C337.53 290.998 337.837 290.222 338.388 289.634C338.939 289.045 339.693 288.689 340.497 288.636C348.243 288.636 354.795 277.526 354.795 264.367C354.795 263.529 355.128 262.725 355.721 262.132C356.314 261.539 357.118 261.206 357.956 261.206C358.794 261.206 359.598 261.539 360.191 262.132C360.784 262.725 361.117 263.529 361.117 264.367C361.158 281.528 352.109 294.971 340.497 294.971Z" fill="black"/>
<path d="M388.411 294.971C387.978 295 387.543 294.939 387.134 294.792C386.725 294.646 386.351 294.417 386.034 294.12C385.717 293.823 385.464 293.465 385.291 293.066C385.118 292.668 385.029 292.238 385.029 291.804C385.029 291.369 385.118 290.94 385.291 290.541C385.464 290.143 385.717 289.784 386.034 289.487C386.351 289.19 386.725 288.961 387.134 288.815C387.543 288.668 387.978 288.608 388.411 288.636C396.157 288.636 402.709 277.526 402.709 264.367C402.709 263.529 403.042 262.725 403.635 262.132C404.228 261.539 405.032 261.206 405.87 261.206C406.708 261.206 407.512 261.539 408.105 262.132C408.698 262.725 409.031 263.529 409.031 264.367C409.031 281.528 399.969 294.971 388.411 294.971Z" fill="black"/>
<path d="M436.271 294.971C435.466 294.919 434.712 294.562 434.161 293.974C433.61 293.385 433.304 292.61 433.304 291.804C433.304 290.998 433.61 290.222 434.161 289.634C434.712 289.045 435.466 288.689 436.271 288.636C444.03 288.636 450.569 277.526 450.569 264.367C450.621 263.563 450.978 262.809 451.566 262.258C452.155 261.707 452.93 261.4 453.736 261.4C454.542 261.4 455.318 261.707 455.906 262.258C456.495 262.809 456.851 263.563 456.904 264.367C456.904 281.528 447.842 294.971 436.271 294.971Z" fill="black"/>
<path d="M484.144 294.971C483.339 294.919 482.585 294.562 482.034 293.974C481.483 293.385 481.177 292.61 481.177 291.804C481.177 290.998 481.483 290.222 482.034 289.634C482.585 289.045 483.339 288.689 484.144 288.636C491.89 288.636 498.442 277.526 498.442 264.367C498.495 263.563 498.851 262.809 499.439 262.258C500.028 261.707 500.803 261.4 501.609 261.4C502.415 261.4 503.191 261.707 503.78 262.258C504.368 262.809 504.724 263.563 504.777 264.367C504.777 281.528 495.715 294.971 484.144 294.971Z" fill="black"/>
</g>
<path d="M214.798 267.609H522.982C527.114 267.692 531.074 269.28 534.119 272.075C537.163 274.87 539.083 278.679 539.519 282.789L556.584 475.191C556.792 477.121 556.587 479.074 555.984 480.919C555.38 482.765 554.392 484.461 553.084 485.896C551.776 487.331 550.178 488.472 548.396 489.243C546.614 490.015 544.689 490.399 542.747 490.371H234.55C230.419 490.282 226.463 488.692 223.419 485.899C220.376 483.105 218.454 479.298 218.013 475.191L200.961 282.789C200.751 280.858 200.955 278.905 201.557 277.058C202.16 275.212 203.148 273.514 204.457 272.079C205.765 270.643 207.364 269.503 209.147 268.732C210.93 267.961 212.856 267.579 214.798 267.609Z" fill="#6750A4"/>
<path opacity="0.4" d="M214.798 267.609H522.982C527.114 267.692 531.074 269.28 534.119 272.075C537.163 274.87 539.083 278.679 539.519 282.789L556.584 475.191C556.792 477.121 556.587 479.074 555.984 480.919C555.38 482.765 554.392 484.461 553.084 485.896C551.776 487.331 550.178 488.472 548.396 489.243C546.614 490.015 544.689 490.399 542.747 490.371H234.55C230.419 490.282 226.463 488.692 223.419 485.899C220.376 483.105 218.454 479.298 218.013 475.191L200.961 282.789C200.751 280.858 200.955 278.905 201.557 277.058C202.16 275.212 203.148 273.514 204.457 272.079C205.765 270.643 207.364 269.503 209.147 268.732C210.93 267.961 212.856 267.579 214.798 267.609Z" fill="#FAFAFA"/>
<path d="M520.418 267.609H212.221C208.144 267.658 204.238 269.252 201.292 272.07C198.346 274.888 196.579 278.719 196.349 282.789L187.667 475.191C187.564 477.151 187.861 479.111 188.542 480.952C189.223 482.793 190.272 484.476 191.626 485.897C192.98 487.318 194.61 488.448 196.416 489.217C198.221 489.986 200.165 490.379 202.128 490.371H510.353C514.429 490.322 518.335 488.728 521.281 485.91C524.228 483.092 525.994 479.261 526.224 475.191L534.92 282.789C535.022 280.826 534.721 278.863 534.037 277.02C533.353 275.178 532.3 273.494 530.942 272.073C529.584 270.651 527.951 269.522 526.141 268.755C524.331 267.987 522.384 267.598 520.418 267.609Z" fill="#6750A4"/>
<path opacity="0.2" d="M520.418 267.609H212.221C208.144 267.658 204.238 269.252 201.292 272.07C198.346 274.888 196.579 278.719 196.349 282.789L187.667 475.191C187.564 477.151 187.861 479.111 188.542 480.952C189.223 482.793 190.272 484.476 191.626 485.897C192.98 487.318 194.61 488.448 196.416 489.217C198.221 489.986 200.165 490.379 202.128 490.371H510.353C514.429 490.322 518.335 488.728 521.281 485.91C524.228 483.092 525.994 479.261 526.224 475.191L534.92 282.789C535.022 280.826 534.721 278.863 534.037 277.02C533.353 275.178 532.3 273.494 530.942 272.073C529.584 270.651 527.951 269.522 526.141 268.755C524.331 267.987 522.384 267.598 520.418 267.609Z" fill="#FAFAFA"/>
<path d="M217.877 439.527L225.054 280.632C225.14 279.074 225.816 277.606 226.945 276.528C228.073 275.45 229.57 274.841 231.131 274.826H500.856C501.608 274.822 502.353 274.971 503.046 275.264C503.738 275.557 504.363 275.989 504.883 276.533C505.402 277.077 505.805 277.721 506.067 278.426C506.329 279.13 506.444 279.881 506.405 280.632L499.215 439.527C499.129 441.085 498.453 442.553 497.324 443.631C496.195 444.709 494.699 445.318 493.138 445.333H223.426C222.674 445.337 221.929 445.188 221.237 444.895C220.544 444.601 219.919 444.17 219.4 443.626C218.88 443.082 218.477 442.438 218.215 441.733C217.954 441.029 217.839 440.278 217.877 439.527Z" fill="#6750A4"/>
<path opacity="0.1" d="M217.877 439.527L225.054 280.632C225.14 279.074 225.816 277.606 226.945 276.528C228.073 275.45 229.57 274.841 231.131 274.826H500.856C501.608 274.822 502.353 274.971 503.046 275.264C503.738 275.557 504.363 275.989 504.883 276.533C505.402 277.077 505.805 277.721 506.067 278.426C506.329 279.13 506.444 279.881 506.405 280.632L499.215 439.527C499.129 441.085 498.453 442.553 497.324 443.631C496.195 444.709 494.699 445.318 493.138 445.333H223.426C222.674 445.337 221.929 445.188 221.237 444.895C220.544 444.601 219.919 444.17 219.4 443.626C218.88 443.082 218.477 442.438 218.215 441.733C217.954 441.029 217.839 440.278 217.877 439.527Z" fill="#FAFAFA"/>
<path opacity="0.1" d="M210.267 452.495L217.796 285.638C217.883 284.001 218.591 282.46 219.776 281.328C220.961 280.196 222.533 279.559 224.172 279.547H507.422C508.212 279.54 508.994 279.695 509.721 280.003C510.448 280.31 511.105 280.763 511.65 281.334C512.195 281.904 512.618 282.581 512.892 283.321C513.165 284.061 513.285 284.85 513.242 285.638L505.7 452.495C505.613 454.131 504.908 455.672 503.726 456.806C502.544 457.94 500.975 458.581 499.337 458.6H216.06C215.271 458.605 214.49 458.448 213.764 458.139C213.038 457.83 212.383 457.375 211.84 456.803C211.298 456.231 210.878 455.553 210.607 454.812C210.337 454.071 210.221 453.283 210.267 452.495Z" fill="black"/>
<path d="M203.267 465.952L211.122 291.905C211.227 290.203 211.97 288.604 213.202 287.425C214.434 286.246 216.064 285.574 217.769 285.543H513.242C514.066 285.536 514.883 285.698 515.643 286.019C516.402 286.34 517.087 286.814 517.657 287.41C518.226 288.006 518.667 288.712 518.953 289.485C519.239 290.259 519.364 291.082 519.319 291.905L511.424 465.952C511.319 467.654 510.576 469.254 509.344 470.433C508.113 471.612 506.482 472.284 504.777 472.315H209.345C208.52 472.323 207.702 472.162 206.942 471.842C206.182 471.522 205.495 471.049 204.926 470.452C204.356 469.856 203.915 469.148 203.629 468.374C203.344 467.6 203.221 466.776 203.267 465.952Z" fill="#FAFAFA"/>
<path d="M484.103 295.975C483.548 295.976 482.998 295.863 482.487 295.644C481.977 295.424 481.517 295.102 481.136 294.698C480.754 294.294 480.46 293.816 480.27 293.294C480.081 292.771 480 292.216 480.033 291.661C480.085 290.573 480.551 289.545 481.335 288.789C482.119 288.032 483.163 287.604 484.252 287.592C484.808 287.591 485.358 287.703 485.868 287.923C486.379 288.143 486.839 288.464 487.22 288.869C487.601 289.273 487.896 289.751 488.085 290.273C488.275 290.795 488.355 291.351 488.322 291.905C488.27 292.994 487.805 294.021 487.02 294.778C486.236 295.534 485.193 295.963 484.103 295.975Z" fill="#6750A4"/>
<path d="M436.23 295.975C435.674 295.976 435.124 295.863 434.614 295.644C434.104 295.424 433.644 295.102 433.262 294.698C432.881 294.294 432.586 293.816 432.397 293.294C432.207 292.771 432.127 292.216 432.16 291.661C432.212 290.573 432.678 289.545 433.462 288.789C434.246 288.032 435.29 287.604 436.379 287.592C436.935 287.591 437.485 287.703 437.995 287.923C438.505 288.143 438.965 288.464 439.347 288.869C439.728 289.273 440.022 289.751 440.212 290.273C440.402 290.795 440.482 291.351 440.449 291.905C440.4 292.995 439.936 294.024 439.151 294.781C438.366 295.539 437.32 295.966 436.23 295.975Z" fill="#6750A4"/>
<path d="M388.357 295.975C387.801 295.976 387.251 295.863 386.741 295.644C386.231 295.424 385.77 295.102 385.389 294.698C385.008 294.294 384.713 293.816 384.524 293.294C384.334 292.771 384.254 292.216 384.287 291.661C384.342 290.574 384.809 289.548 385.592 288.793C386.376 288.037 387.418 287.607 388.506 287.592C389.062 287.591 389.612 287.703 390.122 287.923C390.632 288.143 391.092 288.464 391.474 288.869C391.855 289.273 392.149 289.751 392.339 290.273C392.528 290.795 392.609 291.351 392.576 291.905C392.527 292.995 392.063 294.024 391.278 294.781C390.493 295.539 389.447 295.966 388.357 295.975Z" fill="#6750A4"/>
<path d="M340.497 295.975C339.942 295.976 339.392 295.863 338.881 295.644C338.371 295.424 337.911 295.102 337.53 294.698C337.149 294.294 336.854 293.816 336.665 293.294C336.475 292.771 336.394 292.216 336.428 291.661C336.486 290.573 336.956 289.547 337.741 288.792C338.527 288.036 339.57 287.607 340.66 287.592C341.216 287.591 341.766 287.703 342.276 287.923C342.787 288.143 343.247 288.464 343.628 288.869C344.009 289.273 344.304 289.751 344.493 290.273C344.683 290.795 344.763 291.351 344.73 291.905C344.681 292.997 344.215 294.029 343.427 294.786C342.639 295.544 341.59 295.969 340.497 295.975Z" fill="#6750A4"/>
<path d="M292.624 295.975C292.069 295.976 291.519 295.863 291.008 295.644C290.498 295.424 290.038 295.102 289.657 294.698C289.275 294.294 288.981 293.816 288.791 293.294C288.602 292.771 288.521 292.216 288.555 291.661C288.607 290.573 289.072 289.545 289.856 288.789C290.641 288.032 291.684 287.604 292.774 287.592C293.329 287.591 293.879 287.703 294.39 287.923C294.9 288.143 295.36 288.464 295.741 288.869C296.122 289.273 296.417 289.751 296.606 290.273C296.796 290.795 296.877 291.351 296.843 291.905C296.791 292.994 296.326 294.021 295.542 294.778C294.757 295.534 293.714 295.963 292.624 295.975Z" fill="#6750A4"/>
<path d="M244.751 295.975C244.196 295.976 243.646 295.863 243.135 295.644C242.625 295.424 242.165 295.102 241.784 294.698C241.402 294.294 241.108 293.816 240.918 293.294C240.729 292.771 240.648 292.216 240.682 291.661C240.733 290.573 241.199 289.545 241.983 288.789C242.767 288.032 243.811 287.604 244.901 287.592C245.456 287.591 246.006 287.703 246.517 287.923C247.027 288.143 247.487 288.464 247.868 288.869C248.249 289.273 248.544 289.751 248.733 290.273C248.923 290.795 249.004 291.351 248.97 291.905C248.922 292.995 248.457 294.024 247.672 294.781C246.887 295.539 245.842 295.966 244.751 295.975Z" fill="#6750A4"/>
<g opacity="0.1">
<path d="M484.103 295.975C483.548 295.976 482.998 295.863 482.487 295.644C481.977 295.424 481.517 295.102 481.136 294.698C480.755 294.294 480.46 293.816 480.271 293.294C480.081 292.771 480 292.216 480.034 291.661C480.086 290.573 480.551 289.545 481.335 288.789C482.12 288.032 483.163 287.604 484.253 287.592C484.808 287.591 485.358 287.703 485.869 287.923C486.379 288.143 486.839 288.464 487.22 288.869C487.602 289.273 487.896 289.751 488.086 290.273C488.275 290.795 488.356 291.351 488.322 291.905C488.271 292.994 487.805 294.021 487.021 294.778C486.236 295.534 485.193 295.963 484.103 295.975Z" fill="#FAFAFA"/>
<path d="M436.23 295.975C435.675 295.976 435.125 295.863 434.614 295.644C434.104 295.424 433.644 295.102 433.263 294.698C432.881 294.294 432.587 293.816 432.397 293.294C432.208 292.771 432.127 292.216 432.161 291.661C432.212 290.573 432.678 289.545 433.462 288.789C434.246 288.032 435.29 287.604 436.38 287.592C436.935 287.591 437.485 287.703 437.996 287.923C438.506 288.143 438.966 288.464 439.347 288.869C439.728 289.273 440.023 289.751 440.212 290.273C440.402 290.795 440.483 291.351 440.449 291.905C440.401 292.995 439.936 294.024 439.151 294.781C438.366 295.539 437.321 295.966 436.23 295.975Z" fill="#FAFAFA"/>
<path d="M388.357 295.975C387.801 295.976 387.251 295.863 386.741 295.644C386.231 295.424 385.771 295.102 385.389 294.698C385.008 294.294 384.714 293.816 384.524 293.294C384.335 292.771 384.254 292.216 384.287 291.661C384.342 290.574 384.809 289.548 385.593 288.793C386.376 288.037 387.418 287.607 388.506 287.592C389.062 287.591 389.612 287.703 390.122 287.923C390.633 288.143 391.093 288.464 391.474 288.869C391.855 289.273 392.15 289.751 392.339 290.273C392.529 290.795 392.609 291.351 392.576 291.905C392.527 292.995 392.063 294.024 391.278 294.781C390.493 295.539 389.448 295.966 388.357 295.975Z" fill="#FAFAFA"/>
<path d="M340.497 295.975C339.942 295.976 339.392 295.863 338.881 295.644C338.371 295.424 337.911 295.102 337.53 294.698C337.149 294.294 336.854 293.816 336.665 293.294C336.475 292.771 336.394 292.216 336.428 291.661C336.486 290.573 336.956 289.547 337.741 288.792C338.527 288.036 339.57 287.607 340.66 287.592C341.216 287.591 341.766 287.703 342.276 287.923C342.787 288.143 343.247 288.464 343.628 288.869C344.009 289.273 344.304 289.751 344.493 290.273C344.683 290.795 344.763 291.351 344.73 291.905C344.681 292.997 344.215 294.029 343.427 294.786C342.639 295.544 341.59 295.969 340.497 295.975Z" fill="#FAFAFA"/>
<path d="M292.624 295.975C292.069 295.976 291.519 295.863 291.008 295.644C290.498 295.424 290.038 295.102 289.657 294.698C289.275 294.294 288.981 293.816 288.791 293.294C288.602 292.771 288.521 292.216 288.555 291.661C288.607 290.573 289.072 289.545 289.856 288.789C290.641 288.032 291.684 287.604 292.774 287.592C293.329 287.591 293.879 287.703 294.39 287.923C294.9 288.143 295.36 288.464 295.741 288.869C296.122 289.273 296.417 289.751 296.606 290.273C296.796 290.795 296.877 291.351 296.843 291.905C296.791 292.994 296.326 294.021 295.542 294.778C294.757 295.534 293.714 295.963 292.624 295.975Z" fill="#FAFAFA"/>
<path d="M244.751 295.975C244.196 295.976 243.646 295.863 243.135 295.644C242.625 295.424 242.165 295.102 241.784 294.698C241.402 294.294 241.108 293.816 240.918 293.294C240.729 292.771 240.648 292.216 240.682 291.661C240.733 290.573 241.199 289.545 241.983 288.789C242.767 288.032 243.811 287.604 244.901 287.592C245.456 287.591 246.006 287.703 246.517 287.923C247.027 288.143 247.487 288.464 247.868 288.869C248.249 289.273 248.544 289.751 248.733 290.273C248.923 290.795 249.004 291.351 248.97 291.905C248.922 292.995 248.457 294.024 247.672 294.781C246.887 295.539 245.842 295.966 244.751 295.975Z" fill="#FAFAFA"/>
</g>
<path d="M256.716 311.141H232.637C232.288 311.144 231.942 311.075 231.621 310.937C231.301 310.799 231.012 310.597 230.773 310.342C230.535 310.087 230.352 309.785 230.236 309.456C230.12 309.126 230.074 308.776 230.1 308.428C230.127 307.717 230.422 307.043 230.925 306.54C231.428 306.037 232.103 305.742 232.814 305.715H256.893C257.242 305.712 257.588 305.782 257.908 305.92C258.229 306.057 258.518 306.26 258.756 306.515C258.995 306.77 259.178 307.072 259.294 307.401C259.409 307.73 259.456 308.08 259.429 308.428C259.402 309.139 259.108 309.814 258.605 310.317C258.102 310.82 257.427 311.115 256.716 311.141Z" fill="#6750A4"/>
<path d="M304.589 311.141H280.51C280.161 311.144 279.815 311.075 279.494 310.937C279.174 310.799 278.885 310.597 278.646 310.342C278.408 310.087 278.225 309.785 278.109 309.456C277.993 309.126 277.947 308.776 277.973 308.428C278.001 307.706 278.305 307.022 278.823 306.517C279.34 306.012 280.032 305.725 280.754 305.715H304.82C305.169 305.712 305.516 305.782 305.837 305.92C306.159 306.057 306.448 306.26 306.688 306.514C306.927 306.769 307.112 307.071 307.229 307.4C307.346 307.729 307.395 308.079 307.37 308.428C307.342 309.151 307.038 309.835 306.521 310.34C306.004 310.845 305.312 311.132 304.589 311.141Z" fill="#6750A4"/>
<path d="M352.462 311.141H328.383C328.034 311.144 327.687 311.075 327.366 310.937C327.044 310.799 326.755 310.597 326.515 310.342C326.276 310.087 326.091 309.786 325.974 309.457C325.857 309.127 325.808 308.777 325.833 308.428C325.861 307.706 326.164 307.022 326.682 306.517C327.199 306.012 327.891 305.725 328.614 305.715H352.706C353.055 305.712 353.401 305.782 353.722 305.92C354.043 306.057 354.332 306.26 354.57 306.515C354.809 306.77 354.991 307.072 355.107 307.401C355.223 307.73 355.269 308.08 355.243 308.428C355.219 309.152 354.916 309.838 354.398 310.343C353.879 310.849 353.186 311.135 352.462 311.141Z" fill="#6750A4"/>
<path d="M400.322 311.141H376.243C375.894 311.144 375.548 311.075 375.227 310.937C374.906 310.799 374.617 310.597 374.379 310.342C374.14 310.087 373.958 309.785 373.842 309.456C373.726 309.126 373.68 308.776 373.706 308.428C373.733 307.717 374.027 307.043 374.53 306.54C375.033 306.037 375.708 305.742 376.419 305.715H400.498C400.847 305.712 401.193 305.782 401.514 305.92C401.835 306.057 402.123 306.26 402.362 306.515C402.6 306.77 402.783 307.072 402.899 307.401C403.015 307.73 403.061 308.08 403.035 308.428C403.008 309.139 402.713 309.814 402.21 310.317C401.707 310.82 401.033 311.115 400.322 311.141Z" fill="#6750A4"/>
<path d="M448.195 311.141H424.116C423.767 311.144 423.421 311.075 423.1 310.937C422.779 310.799 422.491 310.597 422.252 310.342C422.014 310.087 421.831 309.785 421.715 309.456C421.599 309.126 421.553 308.776 421.579 308.428C421.607 307.706 421.911 307.022 422.428 306.517C422.946 306.012 423.637 305.725 424.36 305.715H448.439C448.788 305.712 449.134 305.782 449.455 305.92C449.776 306.057 450.065 306.26 450.303 306.515C450.541 306.77 450.724 307.072 450.84 307.401C450.956 307.73 451.002 308.08 450.976 308.428C450.948 309.151 450.644 309.835 450.127 310.34C449.609 310.845 448.918 311.132 448.195 311.141Z" fill="#6750A4"/>
<path d="M496.068 311.141H471.989C471.64 311.144 471.294 311.075 470.973 310.937C470.652 310.799 470.364 310.597 470.125 310.342C469.887 310.087 469.704 309.785 469.588 309.456C469.472 309.126 469.426 308.776 469.452 308.428C469.48 307.706 469.784 307.022 470.301 306.517C470.819 306.012 471.51 305.725 472.233 305.715H496.299C496.648 305.712 496.995 305.782 497.316 305.92C497.638 306.057 497.927 306.26 498.167 306.514C498.406 306.769 498.59 307.071 498.708 307.4C498.825 307.729 498.873 308.079 498.849 308.428C498.821 309.151 498.517 309.835 498 310.34C497.482 310.845 496.791 311.132 496.068 311.141Z" fill="#6750A4"/>
<g opacity="0.3">
<path d="M256.716 311.141H232.637C232.288 311.144 231.942 311.075 231.621 310.937C231.301 310.799 231.012 310.597 230.773 310.342C230.535 310.087 230.352 309.785 230.236 309.456C230.12 309.126 230.074 308.776 230.1 308.428C230.127 307.717 230.422 307.043 230.925 306.54C231.428 306.037 232.103 305.742 232.814 305.715H256.893C257.242 305.712 257.588 305.782 257.908 305.92C258.229 306.057 258.518 306.26 258.756 306.515C258.995 306.77 259.178 307.072 259.294 307.401C259.409 307.73 259.456 308.08 259.429 308.428C259.402 309.139 259.108 309.814 258.605 310.317C258.102 310.82 257.427 311.115 256.716 311.141Z" fill="black"/>
<path d="M304.589 311.141H280.51C280.161 311.144 279.815 311.075 279.494 310.937C279.174 310.799 278.885 310.597 278.646 310.342C278.408 310.087 278.225 309.785 278.109 309.456C277.993 309.126 277.947 308.776 277.973 308.428C278.001 307.706 278.305 307.022 278.823 306.517C279.34 306.012 280.032 305.725 280.754 305.715H304.82C305.169 305.712 305.516 305.782 305.837 305.92C306.159 306.057 306.448 306.26 306.688 306.514C306.927 306.769 307.112 307.071 307.229 307.4C307.346 307.729 307.395 308.079 307.37 308.428C307.342 309.151 307.038 309.835 306.521 310.34C306.004 310.845 305.312 311.132 304.589 311.141Z" fill="black"/>
<path d="M352.462 311.141H328.383C328.034 311.144 327.687 311.075 327.366 310.937C327.044 310.799 326.755 310.597 326.515 310.342C326.276 310.087 326.092 309.786 325.974 309.457C325.857 309.127 325.809 308.777 325.833 308.428C325.861 307.706 326.165 307.022 326.682 306.517C327.2 306.012 327.891 305.725 328.614 305.715H352.707C353.056 305.712 353.402 305.782 353.722 305.92C354.043 306.057 354.332 306.26 354.57 306.515C354.809 306.77 354.992 307.072 355.108 307.401C355.223 307.73 355.27 308.08 355.243 308.428C355.219 309.152 354.916 309.838 354.398 310.343C353.88 310.849 353.186 311.135 352.462 311.141Z" fill="black"/>
<path d="M400.322 311.141H376.243C375.894 311.144 375.548 311.075 375.227 310.937C374.906 310.799 374.618 310.597 374.379 310.342C374.141 310.087 373.958 309.785 373.842 309.456C373.726 309.126 373.68 308.776 373.706 308.428C373.733 307.717 374.027 307.043 374.531 306.54C375.034 306.037 375.708 305.742 376.419 305.715H400.498C400.847 305.712 401.193 305.782 401.514 305.92C401.835 306.057 402.124 306.26 402.362 306.515C402.6 306.77 402.783 307.072 402.899 307.401C403.015 307.73 403.061 308.08 403.035 308.428C403.008 309.139 402.714 309.814 402.211 310.317C401.707 310.82 401.033 311.115 400.322 311.141Z" fill="black"/>
<path d="M448.195 311.141H424.116C423.767 311.144 423.421 311.075 423.1 310.937C422.78 310.799 422.491 310.597 422.252 310.342C422.014 310.087 421.831 309.785 421.715 309.456C421.599 309.126 421.553 308.776 421.579 308.428C421.607 307.706 421.911 307.022 422.429 306.517C422.946 306.012 423.638 305.725 424.36 305.715H448.439C448.788 305.712 449.134 305.782 449.455 305.92C449.776 306.057 450.065 306.26 450.303 306.515C450.542 306.77 450.725 307.072 450.84 307.401C450.956 307.73 451.002 308.08 450.976 308.428C450.948 309.151 450.644 309.835 450.127 310.34C449.61 310.845 448.918 311.132 448.195 311.141Z" fill="black"/>
<path d="M496.068 311.141H471.989C471.64 311.144 471.294 311.075 470.973 310.937C470.653 310.799 470.364 310.597 470.125 310.342C469.887 310.087 469.704 309.785 469.588 309.456C469.472 309.126 469.426 308.776 469.452 308.428C469.48 307.706 469.784 307.022 470.302 306.517C470.819 306.012 471.511 305.725 472.233 305.715H496.299C496.649 305.712 496.995 305.782 497.316 305.92C497.638 306.057 497.927 306.26 498.167 306.514C498.406 306.769 498.591 307.071 498.708 307.4C498.825 307.729 498.874 308.079 498.849 308.428C498.821 309.151 498.517 309.835 498 310.34C497.483 310.845 496.791 311.132 496.068 311.141Z" fill="black"/>
</g>
<path d="M258.045 362.379H226.682C225.994 362.382 225.313 362.244 224.68 361.975C224.047 361.705 223.475 361.31 223.001 360.812C222.526 360.314 222.157 359.725 221.918 359.08C221.678 358.435 221.573 357.748 221.608 357.061L222.965 325.697C223.047 324.272 223.667 322.93 224.699 321.944C225.731 320.957 227.099 320.398 228.527 320.38H259.89C260.578 320.377 261.259 320.514 261.892 320.784C262.525 321.053 263.097 321.449 263.571 321.947C264.046 322.444 264.415 323.034 264.654 323.679C264.894 324.323 264.999 325.01 264.964 325.697L263.607 357.061C263.522 358.486 262.901 359.825 261.87 360.811C260.838 361.798 259.472 362.357 258.045 362.379Z" fill="#6750A4"/>
<path d="M305.919 362.379H274.555C273.867 362.384 273.184 362.247 272.551 361.979C271.917 361.71 271.345 361.314 270.869 360.816C270.394 360.318 270.026 359.728 269.787 359.082C269.548 358.436 269.444 357.749 269.481 357.061L270.838 325.697C270.92 324.272 271.54 322.93 272.572 321.944C273.604 320.957 274.972 320.398 276.4 320.38H307.804C308.493 320.377 309.175 320.515 309.808 320.784C310.442 321.053 311.014 321.449 311.49 321.946C311.966 322.443 312.336 323.033 312.576 323.678C312.817 324.322 312.925 325.01 312.891 325.697L311.467 357.061C311.388 358.486 310.771 359.827 309.741 360.814C308.711 361.801 307.345 362.36 305.919 362.379Z" fill="#6750A4"/>
<path d="M353.778 362.379H322.428C321.739 362.381 321.058 362.244 320.424 361.975C319.79 361.705 319.218 361.31 318.742 360.812C318.266 360.315 317.897 359.726 317.656 359.081C317.415 358.436 317.308 357.749 317.341 357.061L318.697 325.697C318.78 324.272 319.399 322.93 320.431 321.943C321.464 320.957 322.831 320.398 324.259 320.38H355.61C356.298 320.375 356.98 320.511 357.614 320.78C358.248 321.049 358.82 321.444 359.295 321.942C359.77 322.44 360.139 323.03 360.377 323.676C360.616 324.322 360.72 325.01 360.683 325.697L359.326 357.061C359.244 358.484 358.627 359.824 357.597 360.81C356.568 361.797 355.204 362.357 353.778 362.379Z" fill="#6750A4"/>
<path d="M401.651 362.379H370.342C369.653 362.383 368.97 362.247 368.335 361.979C367.701 361.71 367.128 361.315 366.652 360.817C366.175 360.319 365.806 359.729 365.566 359.083C365.325 358.437 365.22 357.749 365.255 357.061L366.611 325.697C366.69 324.273 367.307 322.932 368.337 321.945C369.367 320.957 370.733 320.398 372.16 320.38H403.523C404.211 320.377 404.892 320.514 405.525 320.784C406.158 321.053 406.73 321.449 407.204 321.947C407.679 322.444 408.048 323.034 408.287 323.679C408.526 324.323 408.632 325.01 408.597 325.697L407.24 357.061C407.158 358.491 406.534 359.837 405.496 360.824C404.458 361.812 403.084 362.367 401.651 362.379Z" fill="#6750A4"/>
<path d="M449.524 362.379H418.161C417.473 362.381 416.792 362.244 416.159 361.974C415.526 361.705 414.954 361.309 414.48 360.812C414.005 360.314 413.636 359.725 413.397 359.08C413.157 358.435 413.052 357.748 413.087 357.061L414.444 325.697C414.526 324.272 415.146 322.93 416.178 321.943C417.21 320.957 418.578 320.398 420.006 320.38H451.356C452.045 320.375 452.727 320.511 453.362 320.78C453.997 321.048 454.57 321.444 455.046 321.942C455.522 322.439 455.892 323.029 456.132 323.675C456.372 324.321 456.478 325.009 456.443 325.697L455.086 357.061C455.001 358.485 454.38 359.825 453.349 360.811C452.317 361.797 450.951 362.357 449.524 362.379Z" fill="#6750A4"/>
<path d="M497.384 362.379H466.034C465.345 362.384 464.663 362.247 464.029 361.979C463.396 361.71 462.823 361.314 462.348 360.816C461.873 360.318 461.505 359.728 461.266 359.082C461.027 358.436 460.923 357.749 460.96 357.061L462.317 325.697C462.399 324.272 463.019 322.93 464.051 321.944C465.083 320.957 466.451 320.398 467.879 320.38H499.229C499.917 320.377 500.599 320.515 501.233 320.784C501.866 321.053 502.439 321.449 502.914 321.946C503.39 322.443 503.76 323.033 504.001 323.678C504.242 324.322 504.349 325.01 504.316 325.697L502.892 357.061C502.813 358.479 502.202 359.814 501.181 360.8C500.159 361.786 498.803 362.35 497.384 362.379Z" fill="#6750A4"/>
<g opacity="0.8">
<path d="M258.045 362.379H226.682C225.994 362.381 225.313 362.244 224.68 361.974C224.047 361.705 223.475 361.309 223.001 360.812C222.526 360.314 222.157 359.725 221.918 359.08C221.678 358.435 221.573 357.748 221.608 357.061L222.965 325.697C223.047 324.272 223.667 322.93 224.699 321.943C225.731 320.957 227.099 320.398 228.527 320.379H259.89C260.578 320.377 261.259 320.514 261.892 320.784C262.525 321.053 263.097 321.449 263.571 321.946C264.046 322.444 264.415 323.033 264.654 323.678C264.894 324.323 264.999 325.01 264.964 325.697L263.607 357.061C263.522 358.485 262.901 359.825 261.87 360.811C260.838 361.797 259.472 362.357 258.045 362.379Z" fill="#FAFAFA"/>
<path d="M305.918 362.379H274.555C273.866 362.383 273.184 362.247 272.55 361.978C271.916 361.71 271.344 361.314 270.869 360.816C270.394 360.318 270.026 359.728 269.787 359.082C269.548 358.436 269.444 357.748 269.481 357.061L270.838 325.697C270.92 324.272 271.54 322.93 272.572 321.943C273.604 320.957 274.972 320.398 276.4 320.379H307.804C308.493 320.377 309.174 320.514 309.808 320.784C310.442 321.053 311.014 321.448 311.49 321.946C311.966 322.443 312.335 323.032 312.576 323.677C312.817 324.322 312.924 325.009 312.891 325.697L311.467 357.061C311.388 358.485 310.771 359.827 309.741 360.814C308.711 361.801 307.345 362.36 305.918 362.379Z" fill="#FAFAFA"/>
<path d="M353.778 362.379H322.428C321.739 362.381 321.058 362.244 320.424 361.975C319.79 361.705 319.218 361.31 318.742 360.812C318.266 360.315 317.897 359.726 317.656 359.081C317.415 358.436 317.308 357.749 317.341 357.061L318.697 325.697C318.78 324.272 319.399 322.93 320.431 321.943C321.464 320.957 322.831 320.398 324.259 320.38H355.61C356.298 320.375 356.98 320.511 357.614 320.78C358.248 321.049 358.82 321.444 359.295 321.942C359.77 322.44 360.139 323.03 360.377 323.676C360.616 324.322 360.72 325.01 360.683 325.697L359.326 357.061C359.244 358.484 358.627 359.824 357.597 360.81C356.568 361.797 355.204 362.357 353.778 362.379Z" fill="#FAFAFA"/>
<path d="M401.651 362.379H370.342C369.653 362.383 368.97 362.247 368.335 361.978C367.701 361.71 367.128 361.314 366.652 360.816C366.175 360.319 365.806 359.729 365.566 359.083C365.325 358.437 365.22 357.749 365.255 357.061L366.611 325.697C366.69 324.273 367.307 322.931 368.337 321.944C369.367 320.957 370.733 320.398 372.16 320.379H403.523C404.211 320.377 404.892 320.514 405.525 320.784C406.158 321.053 406.73 321.449 407.204 321.946C407.679 322.444 408.048 323.033 408.287 323.678C408.526 324.323 408.632 325.01 408.597 325.697L407.24 357.061C407.158 358.491 406.534 359.836 405.496 360.824C404.458 361.811 403.084 362.367 401.651 362.379Z" fill="#FAFAFA"/>
<path d="M449.524 362.379H418.161C417.473 362.381 416.792 362.244 416.159 361.974C415.526 361.705 414.954 361.309 414.48 360.812C414.005 360.314 413.636 359.725 413.397 359.08C413.157 358.435 413.052 357.748 413.087 357.061L414.444 325.697C414.526 324.272 415.146 322.93 416.178 321.943C417.21 320.957 418.578 320.398 420.006 320.38H451.356C452.045 320.375 452.727 320.511 453.362 320.78C453.997 321.048 454.57 321.444 455.046 321.942C455.522 322.439 455.892 323.029 456.132 323.675C456.372 324.321 456.478 325.009 456.443 325.697L455.086 357.061C455.001 358.485 454.38 359.825 453.349 360.811C452.317 361.797 450.951 362.357 449.524 362.379Z" fill="#FAFAFA"/>
<path d="M497.384 362.379H466.034C465.345 362.383 464.663 362.247 464.029 361.978C463.395 361.71 462.823 361.314 462.348 360.816C461.873 360.318 461.504 359.728 461.266 359.082C461.027 358.436 460.923 357.748 460.96 357.061L462.317 325.697C462.399 324.272 463.018 322.93 464.051 321.943C465.083 320.957 466.451 320.398 467.878 320.379H499.229C499.917 320.377 500.599 320.514 501.232 320.784C501.866 321.053 502.438 321.448 502.914 321.946C503.39 322.443 503.76 323.032 504.001 323.677C504.242 324.322 504.349 325.009 504.316 325.697L502.891 357.061C502.813 358.478 502.202 359.814 501.181 360.8C500.159 361.786 498.803 362.35 497.384 362.379Z" fill="#FAFAFA"/>
</g>
<path d="M255.848 411.039H224.484C223.796 411.042 223.115 410.904 222.482 410.635C221.849 410.365 221.278 409.969 220.803 409.472C220.328 408.974 219.96 408.385 219.72 407.74C219.481 407.095 219.376 406.408 219.411 405.721L220.767 374.357C220.853 372.933 221.473 371.593 222.505 370.607C223.536 369.621 224.902 369.061 226.329 369.04H257.747C258.435 369.037 259.116 369.174 259.749 369.444C260.382 369.713 260.953 370.109 261.428 370.607C261.903 371.104 262.271 371.694 262.511 372.339C262.75 372.983 262.856 373.67 262.821 374.357L261.464 405.721C261.378 407.155 260.75 408.502 259.707 409.49C258.664 410.477 257.284 411.031 255.848 411.039Z" fill="#6750A4"/>
<path d="M303.721 411.039H272.357C271.669 411.041 270.988 410.904 270.355 410.634C269.722 410.365 269.151 409.969 268.676 409.472C268.201 408.974 267.833 408.385 267.593 407.74C267.354 407.095 267.249 406.408 267.284 405.721L268.64 374.357C268.723 372.932 269.342 371.59 270.374 370.603C271.406 369.617 272.774 369.058 274.202 369.039H305.552C306.247 369.035 306.935 369.172 307.574 369.444C308.213 369.716 308.789 370.116 309.267 370.619C309.746 371.123 310.115 371.719 310.354 372.372C310.592 373.024 310.694 373.718 310.653 374.411L309.296 405.721C309.217 407.15 308.597 408.495 307.561 409.483C306.525 410.471 305.152 411.027 303.721 411.039Z" fill="#6750A4"/>
<path d="M351.58 411.039H320.23C319.542 411.043 318.86 410.907 318.226 410.638C317.592 410.37 317.02 409.974 316.545 409.476C316.069 408.978 315.701 408.388 315.462 407.742C315.224 407.096 315.12 406.408 315.157 405.721L316.513 374.357C316.596 372.932 317.215 371.59 318.247 370.603C319.279 369.616 320.647 369.058 322.075 369.039H353.425C354.114 369.035 354.796 369.171 355.43 369.44C356.064 369.708 356.636 370.104 357.111 370.602C357.586 371.1 357.955 371.69 358.193 372.336C358.432 372.982 358.536 373.67 358.499 374.357L357.142 405.721C357.06 407.146 356.44 408.488 355.408 409.475C354.376 410.462 353.008 411.02 351.58 411.039Z" fill="#6750A4"/>
<path d="M399.454 411.039H368.103C367.415 411.041 366.733 410.904 366.1 410.634C365.466 410.365 364.894 409.97 364.418 409.472C363.942 408.975 363.572 408.386 363.331 407.741C363.09 407.096 362.983 406.408 363.016 405.721L364.373 374.357C364.452 372.933 365.069 371.591 366.099 370.604C367.129 369.617 368.495 369.058 369.921 369.039H401.285C401.983 369.027 402.677 369.159 403.322 369.428C403.966 369.696 404.549 370.095 405.032 370.6C405.515 371.105 405.888 371.704 406.128 372.36C406.368 373.016 406.47 373.714 406.426 374.411L405.07 405.775C404.974 407.2 404.341 408.536 403.298 409.513C402.256 410.49 400.882 411.035 399.454 411.039Z" fill="#6750A4"/>
<path d="M447.327 411.039H415.963C415.275 411.041 414.594 410.904 413.961 410.634C413.328 410.365 412.757 409.969 412.282 409.472C411.807 408.974 411.439 408.385 411.199 407.74C410.96 407.095 410.854 406.408 410.889 405.721L412.246 374.357C412.318 372.921 412.935 371.566 413.971 370.568C415.006 369.57 416.383 369.004 417.821 368.985H449.185C449.873 368.982 450.554 369.12 451.187 369.389C451.82 369.659 452.391 370.054 452.866 370.552C453.341 371.05 453.71 371.639 453.949 372.284C454.188 372.929 454.294 373.616 454.259 374.303L452.902 405.667C452.83 407.103 452.213 408.458 451.177 409.456C450.142 410.454 448.765 411.02 447.327 411.039Z" fill="#6750A4"/>
<path d="M495.146 411.039H463.836C463.148 411.043 462.466 410.907 461.832 410.638C461.198 410.37 460.626 409.974 460.151 409.476C459.675 408.978 459.307 408.388 459.068 407.742C458.83 407.096 458.726 406.408 458.763 405.721L460.119 374.357C460.202 372.932 460.821 371.59 461.853 370.603C462.885 369.617 464.253 369.058 465.681 369.04H497.031C497.72 369.037 498.402 369.174 499.035 369.444C499.669 369.713 500.241 370.108 500.717 370.606C501.193 371.103 501.563 371.693 501.803 372.337C502.044 372.982 502.152 373.67 502.118 374.357L500.694 405.721C500.615 407.145 499.998 408.487 498.968 409.474C497.938 410.461 496.572 411.02 495.146 411.039Z" fill="#6750A4"/>
<g opacity="0.8">
<path d="M255.848 411.039H224.484C223.796 411.041 223.115 410.904 222.482 410.634C221.849 410.365 221.278 409.969 220.803 409.471C220.328 408.974 219.96 408.384 219.72 407.74C219.481 407.095 219.376 406.408 219.411 405.721L220.767 374.357C220.853 372.933 221.473 371.593 222.505 370.607C223.536 369.621 224.902 369.061 226.329 369.039H257.747C258.435 369.037 259.116 369.174 259.749 369.444C260.382 369.713 260.953 370.109 261.428 370.606C261.903 371.104 262.271 371.693 262.511 372.338C262.75 372.983 262.856 373.67 262.821 374.357L261.464 405.721C261.378 407.155 260.75 408.502 259.707 409.489C258.664 410.477 257.284 411.031 255.848 411.039Z" fill="#FAFAFA"/>
<path d="M303.721 411.039H272.357C271.669 411.041 270.988 410.904 270.355 410.634C269.722 410.365 269.151 409.969 268.676 409.472C268.201 408.974 267.833 408.385 267.593 407.74C267.354 407.095 267.249 406.408 267.284 405.721L268.64 374.357C268.723 372.932 269.342 371.59 270.374 370.603C271.406 369.617 272.774 369.058 274.202 369.039H305.552C306.247 369.035 306.935 369.172 307.574 369.444C308.213 369.716 308.789 370.116 309.267 370.619C309.746 371.123 310.115 371.719 310.354 372.372C310.592 373.024 310.694 373.718 310.653 374.411L309.296 405.721C309.217 407.15 308.597 408.495 307.561 409.483C306.525 410.471 305.152 411.027 303.721 411.039Z" fill="#FAFAFA"/>
<path d="M351.58 411.039H320.23C319.542 411.043 318.86 410.907 318.226 410.638C317.592 410.37 317.02 409.974 316.545 409.476C316.069 408.978 315.701 408.388 315.462 407.742C315.224 407.096 315.12 406.408 315.157 405.721L316.513 374.357C316.596 372.932 317.215 371.59 318.247 370.603C319.279 369.616 320.647 369.058 322.075 369.039H353.425C354.114 369.035 354.796 369.171 355.43 369.44C356.064 369.708 356.636 370.104 357.111 370.602C357.586 371.1 357.955 371.69 358.193 372.336C358.432 372.982 358.536 373.67 358.499 374.357L357.142 405.721C357.06 407.146 356.44 408.488 355.408 409.475C354.376 410.462 353.008 411.02 351.58 411.039Z" fill="#FAFAFA"/>
<path d="M399.454 411.039H368.103C367.415 411.041 366.733 410.904 366.1 410.634C365.466 410.365 364.894 409.97 364.418 409.472C363.942 408.975 363.572 408.386 363.331 407.741C363.09 407.096 362.983 406.408 363.016 405.721L364.373 374.357C364.452 372.933 365.069 371.591 366.099 370.604C367.129 369.617 368.495 369.058 369.921 369.039H401.285C401.983 369.027 402.677 369.159 403.322 369.428C403.966 369.696 404.549 370.095 405.032 370.6C405.515 371.105 405.888 371.704 406.128 372.36C406.368 373.016 406.47 373.714 406.426 374.411L405.07 405.775C404.974 407.2 404.341 408.536 403.298 409.513C402.256 410.49 400.882 411.035 399.454 411.039Z" fill="#FAFAFA"/>
<path d="M447.327 411.039H415.963C415.275 411.041 414.594 410.904 413.961 410.634C413.328 410.365 412.757 409.969 412.282 409.472C411.807 408.974 411.439 408.385 411.199 407.74C410.96 407.095 410.854 406.408 410.889 405.721L412.246 374.357C412.318 372.921 412.935 371.566 413.971 370.568C415.006 369.57 416.383 369.004 417.821 368.985H449.185C449.873 368.982 450.554 369.12 451.187 369.389C451.82 369.659 452.391 370.054 452.866 370.552C453.341 371.05 453.71 371.639 453.949 372.284C454.188 372.929 454.294 373.616 454.259 374.303L452.902 405.667C452.83 407.103 452.213 408.458 451.177 409.456C450.142 410.454 448.765 411.02 447.327 411.039Z" fill="#FAFAFA"/>
<path d="M495.146 411.039H463.836C463.148 411.043 462.466 410.907 461.832 410.638C461.198 410.369 460.626 409.974 460.151 409.476C459.675 408.978 459.307 408.388 459.068 407.742C458.83 407.096 458.726 406.408 458.763 405.721L460.119 374.357C460.202 372.931 460.821 371.59 461.853 370.603C462.885 369.616 464.253 369.058 465.681 369.039H497.031C497.72 369.037 498.402 369.174 499.035 369.443C499.669 369.713 500.241 370.108 500.717 370.606C501.193 371.103 501.563 371.692 501.803 372.337C502.044 372.982 502.152 373.669 502.118 374.357L500.694 405.721C500.615 407.145 499.998 408.487 498.968 409.474C497.938 410.461 496.572 411.02 495.146 411.039Z" fill="#FAFAFA"/>
</g>
<path d="M253.677 459.685H222.286C221.598 459.69 220.916 459.553 220.282 459.285C219.648 459.016 219.076 458.62 218.601 458.122C218.126 457.624 217.757 457.034 217.519 456.388C217.28 455.742 217.176 455.055 217.213 454.367L218.569 423.017C218.652 421.591 219.271 420.25 220.303 419.263C221.336 418.276 222.703 417.718 224.131 417.699H255.495C256.184 417.695 256.866 417.831 257.499 418.1C258.133 418.368 258.705 418.764 259.181 419.262C259.656 419.76 260.024 420.35 260.263 420.996C260.502 421.642 260.606 422.33 260.569 423.017L259.212 454.367C259.133 455.789 258.518 457.129 257.491 458.115C256.464 459.102 255.101 459.663 253.677 459.685Z" fill="#6750A4"/>
<path d="M301.523 459.685H270.159C269.471 459.69 268.789 459.554 268.155 459.285C267.521 459.016 266.949 458.62 266.474 458.122C265.999 457.624 265.63 457.034 265.392 456.388C265.153 455.743 265.049 455.055 265.086 454.367L266.442 423.017C266.522 421.59 267.14 420.247 268.173 419.26C269.206 418.272 270.576 417.714 272.004 417.699H303.355C304.044 417.693 304.728 417.828 305.363 418.096C305.999 418.364 306.572 418.759 307.049 419.257C307.526 419.756 307.895 420.346 308.135 420.993C308.374 421.64 308.479 422.329 308.442 423.017L307.085 454.367C307.009 455.795 306.391 457.14 305.358 458.128C304.324 459.117 302.953 459.673 301.523 459.685Z" fill="#6750A4"/>
<path d="M349.383 459.685H318.033C317.344 459.69 316.662 459.553 316.028 459.285C315.395 459.016 314.822 458.62 314.347 458.122C313.872 457.624 313.504 457.034 313.265 456.388C313.026 455.742 312.922 455.055 312.959 454.367L314.316 423.017C314.395 421.59 315.014 420.247 316.046 419.26C317.079 418.272 318.449 417.714 319.878 417.699H351.35C352.039 417.695 352.722 417.831 353.356 418.1C353.991 418.368 354.564 418.763 355.04 419.261C355.516 419.759 355.886 420.349 356.126 420.995C356.366 421.641 356.472 422.329 356.437 423.017L355.013 454.367C354.933 455.806 354.305 457.159 353.257 458.148C352.21 459.137 350.823 459.687 349.383 459.685Z" fill="#6750A4"/>
<path d="M397.256 459.685H365.906C365.217 459.69 364.534 459.553 363.899 459.285C363.265 459.016 362.692 458.621 362.216 458.123C361.739 457.625 361.37 457.035 361.129 456.389C360.889 455.743 360.783 455.055 360.819 454.367L362.175 423.017C362.251 421.592 362.867 420.248 363.897 419.261C364.928 418.273 366.296 417.715 367.723 417.699H399.087C399.776 417.695 400.458 417.831 401.092 418.1C401.725 418.368 402.298 418.764 402.773 419.262C403.248 419.76 403.616 420.35 403.855 420.996C404.094 421.642 404.198 422.33 404.161 423.017L402.804 454.367C402.725 455.792 402.108 457.133 401.079 458.12C400.049 459.107 398.682 459.666 397.256 459.685Z" fill="#6750A4"/>
<path d="M445.129 459.685H413.752C413.063 459.69 412.381 459.553 411.747 459.285C411.113 459.016 410.541 458.62 410.066 458.122C409.591 457.624 409.223 457.034 408.984 456.388C408.745 455.742 408.641 455.055 408.678 454.367L410.035 423.017C410.117 421.591 410.737 420.25 411.769 419.263C412.801 418.276 414.169 417.718 415.597 417.699H446.96C447.649 417.695 448.331 417.831 448.965 418.1C449.599 418.368 450.171 418.764 450.646 419.262C451.121 419.76 451.49 420.35 451.728 420.996C451.967 421.642 452.071 422.33 452.034 423.017L450.677 454.367C450.595 455.791 449.978 457.13 448.948 458.116C447.919 459.103 446.555 459.663 445.129 459.685Z" fill="#6750A4"/>
<path d="M493.002 459.685H461.638C460.95 459.69 460.268 459.553 459.634 459.285C459 459.016 458.428 458.62 457.953 458.122C457.478 457.624 457.109 457.034 456.871 456.388C456.632 455.742 456.528 455.055 456.565 454.367L457.921 423.017C458.001 421.59 458.619 420.247 459.652 419.26C460.685 418.272 462.055 417.714 463.483 417.699H494.834C495.523 417.695 496.205 417.831 496.84 418.1C497.474 418.368 498.047 418.763 498.524 419.261C499 419.759 499.37 420.349 499.61 420.995C499.85 421.641 499.956 422.329 499.921 423.017L498.496 454.367C498.421 455.784 497.813 457.119 496.794 458.105C495.775 459.092 494.42 459.656 493.002 459.685Z" fill="#6750A4"/>
<g opacity="0.8">
<path d="M253.677 459.685H222.286C221.598 459.69 220.916 459.553 220.282 459.285C219.648 459.016 219.076 458.62 218.601 458.122C218.126 457.624 217.757 457.034 217.519 456.388C217.28 455.742 217.176 455.055 217.213 454.367L218.569 423.017C218.652 421.591 219.271 420.25 220.303 419.263C221.336 418.276 222.703 417.718 224.131 417.699H255.495C256.184 417.695 256.866 417.831 257.499 418.1C258.133 418.368 258.705 418.764 259.181 419.262C259.656 419.76 260.024 420.35 260.263 420.996C260.502 421.642 260.606 422.33 260.569 423.017L259.212 454.367C259.133 455.789 258.518 457.129 257.491 458.115C256.464 459.102 255.101 459.663 253.677 459.685Z" fill="#FAFAFA"/>
<path d="M301.523 459.685H270.159C269.471 459.69 268.789 459.554 268.155 459.285C267.521 459.016 266.949 458.62 266.474 458.122C265.999 457.624 265.63 457.034 265.392 456.388C265.153 455.743 265.049 455.055 265.086 454.367L266.442 423.017C266.522 421.59 267.14 420.247 268.173 419.26C269.206 418.272 270.576 417.714 272.004 417.699H303.355C304.044 417.693 304.728 417.828 305.363 418.096C305.999 418.364 306.572 418.759 307.049 419.257C307.526 419.756 307.895 420.346 308.135 420.993C308.374 421.64 308.479 422.329 308.442 423.017L307.085 454.367C307.009 455.795 306.391 457.14 305.358 458.128C304.324 459.117 302.953 459.673 301.523 459.685Z" fill="#FAFAFA"/>
<path d="M349.383 459.685H318.033C317.344 459.69 316.662 459.553 316.028 459.285C315.394 459.016 314.822 458.62 314.347 458.122C313.872 457.624 313.503 457.034 313.265 456.388C313.026 455.742 312.922 455.055 312.959 454.367L314.316 423.017C314.395 421.59 315.013 420.247 316.046 419.26C317.079 418.272 318.449 417.714 319.877 417.699H351.35C352.039 417.695 352.721 417.831 353.356 418.1C353.99 418.368 354.563 418.763 355.04 419.261C355.516 419.759 355.886 420.349 356.126 420.995C356.366 421.641 356.472 422.329 356.437 423.017L355.012 454.367C354.933 455.806 354.304 457.159 353.257 458.148C352.21 459.137 350.823 459.687 349.383 459.685Z" fill="#FAFAFA"/>
<path d="M397.256 459.685H365.906C365.217 459.69 364.534 459.553 363.899 459.285C363.265 459.016 362.692 458.621 362.216 458.123C361.739 457.625 361.37 457.035 361.129 456.389C360.889 455.743 360.783 455.055 360.819 454.367L362.175 423.017C362.251 421.592 362.867 420.248 363.897 419.261C364.928 418.273 366.296 417.715 367.723 417.699H399.087C399.776 417.695 400.458 417.831 401.092 418.1C401.725 418.368 402.298 418.764 402.773 419.262C403.248 419.76 403.616 420.35 403.855 420.996C404.094 421.642 404.198 422.33 404.161 423.017L402.804 454.367C402.725 455.792 402.108 457.133 401.079 458.12C400.049 459.107 398.682 459.666 397.256 459.685Z" fill="#FAFAFA"/>
<path d="M445.129 459.685H413.752C413.063 459.69 412.381 459.553 411.747 459.285C411.113 459.016 410.541 458.62 410.066 458.122C409.591 457.624 409.223 457.034 408.984 456.388C408.745 455.742 408.641 455.055 408.678 454.367L410.035 423.017C410.117 421.591 410.737 420.25 411.769 419.263C412.801 418.276 414.169 417.718 415.597 417.699H446.96C447.649 417.695 448.331 417.831 448.965 418.1C449.599 418.368 450.171 418.764 450.646 419.262C451.121 419.76 451.49 420.35 451.728 420.996C451.967 421.642 452.071 422.33 452.034 423.017L450.677 454.367C450.595 455.791 449.978 457.13 448.948 458.116C447.919 459.103 446.555 459.663 445.129 459.685Z" fill="#FAFAFA"/>
<path d="M493.002 459.685H461.638C460.95 459.69 460.268 459.553 459.634 459.285C459 459.016 458.428 458.62 457.953 458.122C457.478 457.624 457.109 457.034 456.871 456.388C456.632 455.742 456.528 455.055 456.565 454.367L457.921 423.017C458.001 421.59 458.619 420.247 459.652 419.26C460.685 418.272 462.055 417.714 463.483 417.699H494.834C495.523 417.695 496.205 417.831 496.84 418.1C497.474 418.368 498.047 418.763 498.524 419.261C499 419.759 499.37 420.349 499.61 420.995C499.85 421.641 499.956 422.329 499.921 423.017L498.496 454.367C498.421 455.784 497.813 457.119 496.794 458.105C495.775 459.092 494.42 459.656 493.002 459.685Z" fill="#FAFAFA"/>
</g>
<path d="M244.792 294.971C233.234 294.971 224.172 281.528 224.172 264.367C224.172 247.207 233.234 233.777 244.792 233.777C256.35 233.777 265.425 247.22 265.425 264.367C265.373 265.171 265.016 265.925 264.428 266.476C263.839 267.027 263.064 267.334 262.258 267.334C261.452 267.334 260.676 267.027 260.088 266.476C259.499 265.925 259.143 265.171 259.09 264.367C259.09 251.222 252.551 240.098 244.792 240.098C237.032 240.098 230.494 251.222 230.494 264.367C230.494 277.512 237.046 288.636 244.792 288.636C245.225 288.608 245.66 288.668 246.069 288.815C246.478 288.961 246.852 289.19 247.169 289.487C247.486 289.784 247.739 290.143 247.912 290.541C248.085 290.94 248.174 291.369 248.174 291.804C248.174 292.238 248.085 292.668 247.912 293.066C247.739 293.465 247.486 293.823 247.169 294.12C246.852 294.417 246.478 294.646 246.069 294.792C245.66 294.939 245.225 295 244.792 294.971Z" fill="#6750A4"/>
<path d="M292.665 294.971C281.107 294.971 272.045 281.528 272.045 264.367C272.045 247.207 281.107 233.777 292.665 233.777C304.223 233.777 313.366 247.22 313.366 264.367C313.313 265.171 312.957 265.925 312.369 266.476C311.78 267.027 311.004 267.334 310.198 267.334C309.393 267.334 308.617 267.027 308.028 266.476C307.44 265.925 307.084 265.171 307.031 264.367C307.031 251.222 300.492 240.098 292.733 240.098C284.973 240.098 278.435 251.222 278.435 264.367C278.435 277.512 284.987 288.636 292.733 288.636C293.537 288.689 294.291 289.045 294.842 289.634C295.393 290.222 295.7 290.998 295.7 291.804C295.7 292.61 295.393 293.385 294.842 293.974C294.291 294.562 293.537 294.919 292.733 294.971H292.665Z" fill="#6750A4"/>
<path d="M340.497 294.971C328.926 294.971 319.864 281.528 319.864 264.367C319.864 247.207 328.926 233.777 340.497 233.777C352.069 233.777 361.117 247.22 361.117 264.367C361.117 265.205 360.784 266.009 360.191 266.602C359.599 267.195 358.795 267.528 357.956 267.528C357.118 267.528 356.314 267.195 355.721 266.602C355.129 266.009 354.796 265.205 354.796 264.367C354.796 251.222 348.243 240.098 340.497 240.098C332.751 240.098 326.199 251.222 326.199 264.367C326.199 277.512 332.751 288.636 340.497 288.636C341.302 288.689 342.056 289.045 342.607 289.634C343.158 290.222 343.464 290.998 343.464 291.804C343.464 292.61 343.158 293.385 342.607 293.974C342.056 294.562 341.302 294.919 340.497 294.971Z" fill="#6750A4"/>
<path d="M388.411 294.971C376.84 294.971 367.778 281.528 367.778 264.367C367.778 247.207 376.84 233.777 388.411 233.777C399.983 233.777 409.031 247.22 409.031 264.367C409.031 265.205 408.698 266.009 408.105 266.602C407.512 267.195 406.708 267.528 405.87 267.528C405.032 267.528 404.228 267.195 403.635 266.602C403.042 266.009 402.709 265.205 402.709 264.367C402.709 251.222 396.157 240.098 388.411 240.098C380.665 240.098 374.113 251.222 374.113 264.367C374.113 277.512 380.652 288.636 388.411 288.636C389.215 288.689 389.97 289.045 390.521 289.634C391.072 290.222 391.378 290.998 391.378 291.804C391.378 292.61 391.072 293.385 390.521 293.974C389.97 294.562 389.215 294.919 388.411 294.971Z" fill="#6750A4"/>
<path d="M436.271 294.971C424.713 294.971 415.651 281.528 415.651 264.367C415.651 247.207 424.713 233.777 436.271 233.777C447.829 233.777 456.904 247.22 456.904 264.367C456.851 265.171 456.495 265.925 455.906 266.476C455.318 267.027 454.542 267.334 453.736 267.334C452.93 267.334 452.155 267.027 451.566 266.476C450.978 265.925 450.621 265.171 450.569 264.367C450.569 251.222 444.03 240.098 436.271 240.098C428.511 240.098 421.972 251.222 421.972 264.367C421.972 277.512 428.525 288.636 436.271 288.636C436.704 288.608 437.139 288.668 437.548 288.815C437.957 288.961 438.331 289.19 438.648 289.487C438.965 289.784 439.218 290.143 439.391 290.541C439.563 290.94 439.652 291.369 439.652 291.804C439.652 292.238 439.563 292.668 439.391 293.066C439.218 293.465 438.965 293.823 438.648 294.12C438.331 294.417 437.957 294.646 437.548 294.792C437.139 294.939 436.704 295 436.271 294.971Z" fill="#6750A4"/>
<path d="M484.144 294.971C472.586 294.971 463.524 281.528 463.524 264.367C463.524 247.207 472.586 233.777 484.144 233.777C495.702 233.777 504.777 247.22 504.777 264.367C504.724 265.171 504.368 265.925 503.779 266.476C503.191 267.027 502.415 267.334 501.609 267.334C500.803 267.334 500.028 267.027 499.439 266.476C498.851 265.925 498.495 265.171 498.442 264.367C498.442 251.222 491.89 240.098 484.144 240.098C476.398 240.098 469.846 251.222 469.846 264.367C469.846 277.512 476.398 288.636 484.144 288.636C484.948 288.689 485.702 289.045 486.253 289.634C486.804 290.222 487.111 290.998 487.111 291.804C487.111 292.61 486.804 293.385 486.253 293.974C485.702 294.562 484.948 294.919 484.144 294.971Z" fill="#6750A4"/>
<g opacity="0.3">
<path d="M244.792 294.971C233.234 294.971 224.172 281.528 224.172 264.367C224.172 247.207 233.234 233.777 244.792 233.777C256.35 233.777 265.425 247.22 265.425 264.367C265.373 265.171 265.016 265.925 264.428 266.476C263.839 267.027 263.064 267.334 262.258 267.334C261.452 267.334 260.676 267.027 260.088 266.476C259.499 265.925 259.143 265.171 259.09 264.367C259.09 251.222 252.551 240.098 244.792 240.098C237.032 240.098 230.494 251.222 230.494 264.367C230.494 277.512 237.046 288.636 244.792 288.636C245.225 288.608 245.66 288.668 246.069 288.815C246.478 288.961 246.852 289.19 247.169 289.487C247.486 289.784 247.739 290.143 247.912 290.541C248.085 290.94 248.174 291.369 248.174 291.804C248.174 292.238 248.085 292.668 247.912 293.066C247.739 293.465 247.486 293.823 247.169 294.12C246.852 294.417 246.478 294.646 246.069 294.792C245.66 294.939 245.225 295 244.792 294.971Z" fill="black"/>
<path d="M292.665 294.971C281.107 294.971 272.045 281.528 272.045 264.367C272.045 247.207 281.107 233.777 292.665 233.777C304.223 233.777 313.366 247.22 313.366 264.367C313.313 265.171 312.957 265.925 312.369 266.476C311.78 267.027 311.004 267.334 310.198 267.334C309.393 267.334 308.617 267.027 308.028 266.476C307.44 265.925 307.084 265.171 307.031 264.367C307.031 251.222 300.492 240.098 292.733 240.098C284.973 240.098 278.435 251.222 278.435 264.367C278.435 277.512 284.987 288.636 292.733 288.636C293.537 288.689 294.291 289.045 294.842 289.634C295.393 290.222 295.7 290.998 295.7 291.804C295.7 292.61 295.393 293.385 294.842 293.974C294.291 294.562 293.537 294.919 292.733 294.971H292.665Z" fill="black"/>
<path d="M340.497 294.971C328.926 294.971 319.864 281.528 319.864 264.367C319.864 247.207 328.926 233.777 340.497 233.777C352.069 233.777 361.117 247.22 361.117 264.367C361.117 265.205 360.784 266.009 360.191 266.602C359.599 267.195 358.795 267.528 357.956 267.528C357.118 267.528 356.314 267.195 355.721 266.602C355.129 266.009 354.796 265.205 354.796 264.367C354.796 251.222 348.243 240.098 340.497 240.098C332.751 240.098 326.199 251.222 326.199 264.367C326.199 277.512 332.751 288.636 340.497 288.636C341.302 288.689 342.056 289.045 342.607 289.634C343.158 290.222 343.464 290.998 343.464 291.804C343.464 292.61 343.158 293.385 342.607 293.974C342.056 294.562 341.302 294.919 340.497 294.971Z" fill="black"/>
<path d="M388.411 294.971C376.84 294.971 367.778 281.528 367.778 264.367C367.778 247.207 376.84 233.777 388.411 233.777C399.983 233.777 409.031 247.22 409.031 264.367C409.031 265.205 408.698 266.009 408.105 266.602C407.512 267.195 406.708 267.528 405.87 267.528C405.032 267.528 404.228 267.195 403.635 266.602C403.042 266.009 402.709 265.205 402.709 264.367C402.709 251.222 396.157 240.098 388.411 240.098C380.665 240.098 374.113 251.222 374.113 264.367C374.113 277.512 380.652 288.636 388.411 288.636C389.215 288.689 389.97 289.045 390.521 289.634C391.072 290.222 391.378 290.998 391.378 291.804C391.378 292.61 391.072 293.385 390.521 293.974C389.97 294.562 389.215 294.919 388.411 294.971Z" fill="black"/>
<path d="M436.271 294.971C424.713 294.971 415.651 281.528 415.651 264.367C415.651 247.207 424.713 233.777 436.271 233.777C447.829 233.777 456.904 247.22 456.904 264.367C456.851 265.171 456.495 265.925 455.906 266.476C455.318 267.027 454.542 267.334 453.736 267.334C452.93 267.334 452.155 267.027 451.566 266.476C450.978 265.925 450.621 265.171 450.569 264.367C450.569 251.222 444.03 240.098 436.271 240.098C428.511 240.098 421.972 251.222 421.972 264.367C421.972 277.512 428.525 288.636 436.271 288.636C436.704 288.608 437.139 288.668 437.548 288.815C437.957 288.961 438.331 289.19 438.648 289.487C438.965 289.784 439.218 290.143 439.391 290.541C439.563 290.94 439.652 291.369 439.652 291.804C439.652 292.238 439.563 292.668 439.391 293.066C439.218 293.465 438.965 293.823 438.648 294.12C438.331 294.417 437.957 294.646 437.548 294.792C437.139 294.939 436.704 295 436.271 294.971Z" fill="black"/>
<path d="M484.144 294.971C472.586 294.971 463.524 281.528 463.524 264.367C463.524 247.207 472.586 233.777 484.144 233.777C495.702 233.777 504.777 247.22 504.777 264.367C504.724 265.171 504.368 265.925 503.779 266.476C503.191 267.027 502.415 267.334 501.609 267.334C500.803 267.334 500.028 267.027 499.439 266.476C498.851 265.925 498.495 265.171 498.442 264.367C498.442 251.222 491.89 240.098 484.144 240.098C476.398 240.098 469.846 251.222 469.846 264.367C469.846 277.512 476.398 288.636 484.144 288.636C484.948 288.689 485.702 289.045 486.253 289.634C486.804 290.222 487.111 290.998 487.111 291.804C487.111 292.61 486.804 293.385 486.253 293.974C485.702 294.562 484.948 294.919 484.144 294.971Z" fill="black"/>
</g>
<path d="M391.613 364.129C380.543 361.931 368.117 364.495 363.681 376.161C360.113 385.549 364.685 395.723 374.534 398.206C383.216 400.39 398.192 397.717 401.285 387.706C404.826 376.256 390.432 372.539 382.361 371.861C379.933 371.658 379.946 375.456 382.361 375.659C386.037 375.971 390.243 376.175 393.498 378.196C400.281 382.442 397.487 389.252 391.708 392.508C385.929 395.764 377.07 396.578 371.359 392.969C365.119 388.994 364.915 380.258 368.646 374.561C373.543 367.032 382.483 366.191 390.541 367.778C392.929 368.253 393.946 364.59 391.545 364.115L391.613 364.129Z" fill="#6750A4"/>
<path opacity="0.1" d="M391.613 364.129C380.543 361.931 368.117 364.495 363.681 376.161C360.113 385.549 364.685 395.723 374.534 398.206C383.216 400.39 398.192 397.717 401.285 387.706C404.826 376.256 390.432 372.539 382.361 371.861C379.933 371.658 379.946 375.456 382.361 375.659C386.037 375.971 390.243 376.175 393.498 378.196C400.281 382.442 397.487 389.252 391.708 392.508C385.929 395.764 377.07 396.578 371.359 392.969C365.119 388.994 364.915 380.258 368.646 374.561C373.543 367.032 382.483 366.191 390.541 367.778C392.929 368.253 393.946 364.59 391.545 364.115L391.613 364.129Z" fill="#FAFAFA"/>
<path d="M269.481 320.434C280.067 334.468 291.87 347.541 304.752 359.503C306.542 361.172 309.242 358.486 307.465 356.79C294.804 345.065 283.197 332.25 272.778 318.494C271.326 316.568 268.03 318.494 269.508 320.407L269.481 320.434Z" fill="#6750A4"/>
<path d="M273.402 357.916C281.405 343.685 295.419 331.544 308.672 322.251C310.653 320.895 308.767 317.558 306.76 318.969C292.977 328.654 278.489 341.162 270.132 355.989C269.903 356.421 269.849 356.925 269.982 357.396C270.115 357.866 270.424 358.268 270.846 358.516C271.267 358.764 271.768 358.84 272.244 358.728C272.72 358.617 273.135 358.325 273.402 357.916Z" fill="#6750A4"/>
<g opacity="0.2">
<path d="M269.481 320.434C280.067 334.468 291.87 347.541 304.752 359.503C306.542 361.172 309.242 358.486 307.465 356.79C294.804 345.065 283.197 332.25 272.778 318.494C271.326 316.568 268.03 318.494 269.508 320.407L269.481 320.434Z" fill="black"/>
<path d="M273.402 357.916C281.405 343.685 295.419 331.544 308.672 322.252C310.653 320.895 308.767 317.558 306.76 318.969C292.977 328.655 278.489 341.162 270.132 355.989C269.903 356.421 269.849 356.925 269.982 357.396C270.115 357.867 270.424 358.268 270.846 358.516C271.267 358.764 271.768 358.841 272.244 358.729C272.72 358.617 273.135 358.326 273.402 357.916Z" fill="black"/>
</g>
<path d="M420.358 332.575H445.115C445.59 332.535 446.032 332.318 446.354 331.968C446.676 331.617 446.854 331.159 446.854 330.683C446.854 330.207 446.676 329.748 446.354 329.398C446.032 329.047 445.59 328.83 445.115 328.79H420.358C419.884 328.83 419.442 329.047 419.12 329.398C418.798 329.748 418.619 330.207 418.619 330.683C418.619 331.159 418.798 331.617 419.12 331.968C419.442 332.318 419.884 332.535 420.358 332.575Z" fill="#6750A4"/>
<path d="M420.073 339.616H434.426C434.93 339.616 435.413 339.415 435.769 339.059C436.125 338.703 436.325 338.22 436.325 337.716C436.325 337.213 436.125 336.73 435.769 336.373C435.413 336.017 434.93 335.817 434.426 335.817H420.073C419.57 335.817 419.087 336.017 418.731 336.373C418.374 336.73 418.174 337.213 418.174 337.716C418.174 338.22 418.374 338.703 418.731 339.059C419.087 339.415 419.57 339.616 420.073 339.616Z" fill="#6750A4"/>
<g opacity="0.1">
<path d="M420.358 332.575H445.116C445.59 332.535 446.032 332.318 446.354 331.968C446.676 331.617 446.855 331.159 446.855 330.683C446.855 330.207 446.676 329.748 446.354 329.398C446.032 329.047 445.59 328.83 445.116 328.79H420.358C419.884 328.83 419.442 329.047 419.12 329.398C418.798 329.748 418.62 330.207 418.62 330.683C418.62 331.159 418.798 331.617 419.12 331.968C419.442 332.318 419.884 332.535 420.358 332.575Z" fill="#FAFAFA"/>
<path d="M420.073 339.616H434.426C434.93 339.616 435.413 339.416 435.769 339.06C436.125 338.703 436.325 338.22 436.325 337.717C436.325 337.213 436.125 336.73 435.769 336.374C435.413 336.017 434.93 335.817 434.426 335.817H420.073C419.57 335.817 419.087 336.017 418.731 336.374C418.374 336.73 418.174 337.213 418.174 337.717C418.174 338.22 418.374 338.703 418.731 339.06C419.087 339.416 419.57 339.616 420.073 339.616Z" fill="#FAFAFA"/>
</g>
<path d="M272.073 429.759H293.303C293.806 429.759 294.289 429.559 294.646 429.203C295.002 428.847 295.202 428.364 295.202 427.86C295.202 427.356 295.002 426.873 294.646 426.517C294.289 426.161 293.806 425.961 293.303 425.961H272.073C271.569 425.961 271.086 426.161 270.73 426.517C270.373 426.873 270.173 427.356 270.173 427.86C270.173 428.364 270.373 428.847 270.73 429.203C271.086 429.559 271.569 429.759 272.073 429.759Z" fill="#6750A4"/>
<path d="M271.313 437.912H298.851C299.355 437.912 299.838 437.712 300.194 437.356C300.55 437 300.75 436.517 300.75 436.013C300.75 435.509 300.55 435.026 300.194 434.67C299.838 434.314 299.355 434.114 298.851 434.114H271.313C270.809 434.114 270.326 434.314 269.97 434.67C269.614 435.026 269.414 435.509 269.414 436.013C269.414 436.517 269.614 437 269.97 437.356C270.326 437.712 270.809 437.912 271.313 437.912Z" fill="#6750A4"/>
<path d="M271.313 446.309H285.082C285.586 446.309 286.069 446.109 286.425 445.753C286.781 445.397 286.981 444.914 286.981 444.41C286.981 443.906 286.781 443.423 286.425 443.067C286.069 442.711 285.586 442.511 285.082 442.511H271.313C270.809 442.511 270.326 442.711 269.97 443.067C269.614 443.423 269.414 443.906 269.414 444.41C269.414 444.914 269.614 445.397 269.97 445.753C270.326 446.109 270.809 446.309 271.313 446.309Z" fill="#6750A4"/>
<g opacity="0.1">
<path d="M272.073 429.759H293.303C293.806 429.759 294.289 429.559 294.646 429.203C295.002 428.847 295.202 428.364 295.202 427.86C295.202 427.356 295.002 426.873 294.646 426.517C294.289 426.161 293.806 425.961 293.303 425.961H272.073C271.569 425.961 271.086 426.161 270.73 426.517C270.373 426.873 270.173 427.356 270.173 427.86C270.173 428.364 270.373 428.847 270.73 429.203C271.086 429.559 271.569 429.759 272.073 429.759Z" fill="#FAFAFA"/>
<path d="M271.313 437.912H298.851C299.355 437.912 299.838 437.712 300.194 437.356C300.55 437 300.75 436.517 300.75 436.013C300.75 435.509 300.55 435.026 300.194 434.67C299.838 434.314 299.355 434.114 298.851 434.114H271.313C270.809 434.114 270.326 434.314 269.97 434.67C269.614 435.026 269.414 435.509 269.414 436.013C269.414 436.517 269.614 437 269.97 437.356C270.326 437.712 270.809 437.912 271.313 437.912Z" fill="#FAFAFA"/>
<path d="M271.313 446.309H285.082C285.586 446.309 286.069 446.109 286.425 445.753C286.781 445.397 286.981 444.914 286.981 444.41C286.981 443.906 286.781 443.423 286.425 443.067C286.069 442.711 285.586 442.511 285.082 442.511H271.313C270.809 442.511 270.326 442.711 269.97 443.067C269.614 443.423 269.414 443.906 269.414 444.41C269.414 444.914 269.614 445.397 269.97 445.753C270.326 446.109 270.809 446.309 271.313 446.309Z" fill="#FAFAFA"/>
</g>
<path d="M122.348 216.765L128.765 216.48L125.862 228.689C123.572 227.122 121.485 225.276 119.649 223.195C119.119 222.573 118.856 221.766 118.917 220.951C118.978 220.136 119.358 219.378 119.974 218.841L122.348 216.765Z" fill="#E4897B"/>
<path d="M136.212 223.06L133.336 232.99L125.862 228.662L128.765 216.48L136.212 223.06Z" fill="#E4897B"/>
<path d="M134.947 164.109L121.817 165.324L151.931 490.553L165.06 489.337L134.947 164.109Z" fill="#6750A4"/>
<path opacity="0.3" d="M134.947 164.109L121.817 165.324L151.931 490.553L165.06 489.337L134.947 164.109Z" fill="black"/>
<path d="M161.212 161.67L148.083 162.886L178.196 488.115L191.325 486.899L161.212 161.67Z" fill="#6750A4"/>
<path opacity="0.3" d="M161.212 161.67L148.083 162.886L178.196 488.115L191.325 486.899L161.212 161.67Z" fill="black"/>
<path d="M148.086 162.89L134.957 164.105L165.07 489.334L178.2 488.118L148.086 162.89Z" fill="#6750A4"/>
<path opacity="0.1" d="M148.086 162.89L134.957 164.105L165.07 489.334L178.2 488.118L148.086 162.89Z" fill="black"/>
<path d="M145.315 140.146L133.499 141.245L121.819 165.324L161.214 161.675L145.315 140.146Z" fill="#6750A4"/>
<g opacity="0.8">
<path d="M145.315 140.146L133.499 141.245L121.819 165.324L161.214 161.675L145.315 140.146Z" fill="#FAFAFA"/>
</g>
<path d="M138.505 130.922L133.499 141.245L145.315 140.147L138.505 130.922Z" fill="#263238"/>
<path d="M237.778 149.303C239.135 150.66 240.261 151.949 241.427 153.373C242.594 154.797 243.706 156.086 244.819 157.443C247.057 160.156 249.146 163.018 251.181 165.935C255.376 171.865 258.914 178.233 261.735 184.927C262.074 185.795 262.386 186.704 262.712 187.64L263.2 188.996C263.469 189.808 263.66 190.644 263.77 191.492C264.064 194.192 263.706 196.923 262.725 199.455C261.261 203.194 259.21 206.674 256.648 209.765C252.119 215.309 246.904 220.254 241.129 224.484L236.015 219.058C240.04 214.026 243.72 208.728 247.03 203.199C248.48 200.838 249.594 198.285 250.34 195.616C250.546 194.961 250.57 194.262 250.408 193.595L249.947 192.591C249.634 191.926 249.363 191.235 249.024 190.583C246.153 185.011 242.793 179.705 238.985 174.725C237.086 172.134 235.079 169.611 233.044 167.088C232.026 165.84 230.995 164.592 229.937 163.371L226.844 159.803L237.778 149.303Z" fill="#E4897B"/>
<path d="M227.808 223.195L233.587 234.631L239.243 229.761L234.604 221.635L227.808 223.195Z" fill="#E4897B"/>
<path d="M184.275 156.005C180.757 162.706 177.104 169.331 173.314 175.878C171.456 179.175 169.502 182.417 167.603 185.686L164.687 190.57L163.954 191.791C163.588 192.374 163.181 193.066 162.815 193.527C162.448 193.988 162.082 194.545 161.729 194.965C161.377 195.386 160.997 195.861 160.644 196.254C157.904 199.239 154.986 202.057 151.908 204.692C148.937 207.229 145.966 209.697 142.9 212.044C136.836 216.779 130.61 221.188 124.153 225.393L119.5 219.533L135.575 203.701C138.207 200.988 140.865 198.438 143.375 195.752C145.841 193.224 148.164 190.561 150.334 187.775C150.596 187.45 150.827 187.138 151.026 186.839C151.257 186.514 151.419 186.242 151.582 185.971C151.723 185.753 151.849 185.526 151.962 185.293L152.586 184.031L155.096 178.917C156.819 175.539 158.501 172.134 160.251 168.784C163.714 162.028 167.332 155.349 171.103 148.747L184.275 156.005Z" fill="#E4897B"/>
<path d="M222.354 110.18C222.178 110.967 222.463 111.713 222.965 111.848C223.467 111.984 224.023 111.442 224.199 110.655C224.375 109.868 224.077 109.122 223.575 108.986C223.073 108.85 222.476 109.393 222.354 110.18Z" fill="#263238"/>
<path d="M222.381 111.699C222.806 114.345 223.582 116.923 224.687 119.364C224.063 119.611 223.392 119.718 222.722 119.679C222.052 119.639 221.398 119.453 220.808 119.133L222.381 111.699Z" fill="#DE5753"/>
<path d="M224.43 105.405C224.333 105.405 224.239 105.377 224.158 105.323C223.657 105.017 223.089 104.837 222.503 104.8C221.917 104.762 221.33 104.867 220.794 105.106C220.677 105.152 220.547 105.151 220.43 105.103C220.314 105.055 220.221 104.964 220.17 104.849C220.124 104.731 220.126 104.601 220.174 104.485C220.222 104.369 220.313 104.275 220.428 104.225C221.113 103.93 221.86 103.806 222.604 103.863C223.348 103.919 224.068 104.155 224.701 104.55C224.752 104.584 224.797 104.628 224.831 104.68C224.865 104.731 224.888 104.789 224.9 104.85C224.911 104.911 224.91 104.973 224.897 105.033C224.884 105.094 224.859 105.151 224.823 105.201C224.779 105.265 224.72 105.316 224.652 105.352C224.583 105.387 224.507 105.405 224.43 105.405Z" fill="#263238"/>
<path d="M194.911 113.178C196.62 120.476 198.56 133.825 193.649 138.695C193.649 138.695 195.928 146.088 209.481 146.088C224.403 146.088 216.263 138.695 216.263 138.695C208.056 136.755 208.029 130.718 209.223 125.061L194.911 113.178Z" fill="#E4897B"/>
<path d="M191.804 141.232C190.638 138.898 189.362 136.212 191.804 135.371C194.436 134.449 209.046 133.513 214.16 135.236C215.523 135.6 216.69 136.481 217.414 137.692C218.139 138.902 218.363 140.347 218.04 141.72L191.804 141.232Z" fill="#6750A4"/>
<path opacity="0.6" d="M191.804 141.232C190.638 138.898 189.362 136.212 191.804 135.371C194.436 134.449 209.046 133.513 214.16 135.236C215.523 135.6 216.69 136.481 217.414 137.692C218.139 138.902 218.363 140.347 218.04 141.72L191.804 141.232Z" fill="#FAFAFA"/>
<path d="M172.283 481.58C171.408 481.575 170.535 481.48 169.679 481.295C169.635 481.287 169.594 481.266 169.563 481.235C169.531 481.203 169.51 481.163 169.502 481.119C169.493 481.073 169.498 481.026 169.514 480.983C169.531 480.939 169.56 480.902 169.597 480.874C169.706 480.793 172.311 478.921 173.83 479.246C173.994 479.275 174.15 479.34 174.286 479.436C174.422 479.532 174.535 479.658 174.617 479.803C174.739 479.965 174.805 480.163 174.805 480.366C174.805 480.569 174.739 480.766 174.617 480.929C174.291 481.458 173.301 481.58 172.283 481.58ZM170.344 480.956C171.836 481.2 173.871 481.2 174.278 480.644C174.278 480.644 174.44 480.427 174.21 480.033C174.16 479.947 174.092 479.873 174.009 479.816C173.927 479.76 173.833 479.723 173.735 479.708C172.503 479.787 171.323 480.231 170.344 480.983V480.956Z" fill="#FAFAFA"/>
<path d="M169.733 481.336H169.611C169.576 481.315 169.547 481.285 169.527 481.249C169.508 481.213 169.5 481.173 169.502 481.132C169.502 481.01 169.625 478.134 170.751 477.184C170.886 477.063 171.045 476.973 171.218 476.919C171.392 476.865 171.574 476.849 171.754 476.872C171.937 476.872 172.115 476.936 172.256 477.052C172.397 477.169 172.493 477.33 172.528 477.51C172.745 478.622 170.845 480.793 169.815 481.349L169.733 481.336ZM171.592 477.266C171.397 477.268 171.209 477.34 171.063 477.469C170.397 478.381 170.028 479.475 170.004 480.603C170.981 479.83 172.188 478.188 172.066 477.537C172.066 477.469 172.066 477.307 171.7 477.266H171.592Z" fill="#FAFAFA"/>
<path d="M232.135 481.58C231.106 481.579 230.08 481.484 229.069 481.295C229.022 481.287 228.978 481.264 228.944 481.23C228.91 481.196 228.887 481.152 228.879 481.105C228.872 481.058 228.878 481.01 228.897 480.967C228.916 480.923 228.948 480.886 228.988 480.861C229.49 480.576 233.912 478.039 234.984 479.789C235.091 479.942 235.149 480.124 235.149 480.311C235.149 480.498 235.091 480.681 234.984 480.833C234.685 481.43 233.41 481.58 232.135 481.58ZM229.815 480.942C231.687 481.213 234.21 481.173 234.645 480.562C234.645 480.562 234.78 480.372 234.577 480.033C233.98 479.07 231.294 480.223 229.815 480.969V480.942Z" fill="#FAFAFA"/>
<path d="M229.11 481.336C229.066 481.348 229.019 481.348 228.974 481.336C228.94 481.311 228.913 481.278 228.897 481.24C228.88 481.202 228.874 481.16 228.879 481.119C228.879 481.01 229.042 478.324 230.236 477.279C230.417 477.114 230.633 476.991 230.868 476.921C231.102 476.85 231.35 476.834 231.592 476.872C232.257 476.94 232.447 477.279 232.488 477.551C232.678 478.704 230.412 480.806 229.218 481.349L229.11 481.336ZM231.389 477.266C231.088 477.262 230.797 477.374 230.575 477.578C229.862 478.451 229.448 479.531 229.395 480.657C230.589 479.925 232.108 478.256 232.013 477.564C232.013 477.497 232.013 477.32 231.525 477.266H231.389Z" fill="#FAFAFA"/>
<path d="M218.149 481.092H228.12L228.215 458.016H218.257L218.149 481.092Z" fill="#E4897B"/>
<path d="M158.311 481.092H168.282L172.405 458.016H162.435L158.311 481.092Z" fill="#E4897B"/>
<path d="M168.946 479.938H157.755C157.557 479.936 157.364 480.004 157.213 480.131C157.061 480.258 156.959 480.435 156.927 480.63L155.299 489.488C155.266 489.708 155.28 489.933 155.342 490.146C155.404 490.36 155.512 490.557 155.658 490.725C155.804 490.893 155.984 491.027 156.187 491.118C156.39 491.209 156.61 491.255 156.832 491.252C160.739 491.184 162.625 490.954 167.549 490.954C170.574 490.954 176.828 491.279 181.02 491.279C185.211 491.279 185.578 487.209 183.855 486.762C176.109 485.08 173.124 482.76 170.588 480.562C170.135 480.161 169.551 479.939 168.946 479.938Z" fill="#263238"/>
<path d="M228.011 479.938H217.158C216.96 479.936 216.768 480.004 216.616 480.131C216.465 480.258 216.363 480.435 216.331 480.63L214.703 489.488C214.665 489.707 214.676 489.931 214.734 490.144C214.793 490.358 214.898 490.556 215.041 490.724C215.185 490.893 215.364 491.027 215.566 491.118C215.768 491.21 215.987 491.255 216.209 491.252C220.129 491.184 225.786 490.954 230.724 490.954C236.503 490.954 241.495 491.279 248.264 491.279C252.334 491.279 253.324 487.209 251.601 486.762C243.733 485.053 237.358 484.876 230.466 480.725C229.737 480.239 228.887 479.966 228.011 479.938Z" fill="#263238"/>
<path d="M174.644 140.947C165.378 143.09 155.652 168.553 155.652 168.553L174.901 181.413C179.321 174.712 183.195 167.667 186.487 160.346C191.574 148.693 184.099 138.763 174.644 140.947Z" fill="#6750A4"/>
<path opacity="0.7" d="M174.644 140.947C165.378 143.09 155.652 168.553 155.652 168.553L174.901 181.413C179.321 174.712 183.195 167.667 186.487 160.346C191.574 148.693 184.099 138.763 174.644 140.947Z" fill="black"/>
<path d="M181.956 157.185L173.993 180.803L174.902 181.413C174.902 181.413 178.537 175.987 182.403 168.756L181.956 157.185Z" fill="#6750A4"/>
<path opacity="0.8" d="M181.956 157.185L173.993 180.803L174.902 181.413C174.902 181.413 178.537 175.987 182.403 168.756L181.956 157.185Z" fill="black"/>
<path d="M236.815 185.469C236.734 196.593 236.069 210.43 234.414 227.604H181.101C180.409 219.465 184.018 179.5 174.644 140.947C180.508 139.81 186.439 139.058 192.401 138.695C199.946 138.261 207.511 138.261 215.056 138.695C220.259 139.201 225.416 140.108 230.48 141.408C230.48 141.408 235.038 146.346 236.422 169.502C236.693 174.128 236.842 179.392 236.815 185.469Z" fill="#6750A4"/>
<path opacity="0.7" d="M236.815 185.469C236.734 196.593 236.069 210.43 234.414 227.604H181.101C180.409 219.465 184.018 179.5 174.644 140.947C180.508 139.81 186.439 139.058 192.401 138.695C199.946 138.261 207.511 138.261 215.056 138.695C220.259 139.201 225.416 140.108 230.48 141.408C230.48 141.408 235.038 146.346 236.422 169.502C236.693 174.128 236.842 179.392 236.815 185.469Z" fill="black"/>
<path d="M236.815 185.469C233.587 179.582 227.726 167.766 228.554 161.051L236.422 169.57C236.693 174.128 236.842 179.392 236.815 185.469Z" fill="#6750A4"/>
<path opacity="0.8" d="M236.815 185.469C233.587 179.582 227.726 167.766 228.554 161.051L236.422 169.57C236.693 174.128 236.842 179.392 236.815 185.469Z" fill="black"/>
<path d="M220.034 150.47C219.193 159.966 240.722 182.81 240.722 182.81L257.977 168.756C253.458 161.13 248.043 154.071 241.848 147.73C231.755 137.976 220.984 139.835 220.034 150.47Z" fill="#6750A4"/>
<path opacity="0.7" d="M220.034 150.47C219.193 159.966 240.722 182.81 240.722 182.81L257.977 168.756C253.458 161.13 248.043 154.071 241.848 147.73C231.755 137.976 220.984 139.835 220.034 150.47Z" fill="black"/>
<path d="M228.215 458.03L228.16 469.913H218.203L218.244 458.03H228.215Z" fill="#CE6F64"/>
<path d="M162.435 458.03H172.405L170.276 469.913H160.305L162.435 458.03Z" fill="#CE6F64"/>
<path d="M196.702 101.945C195.25 111.767 193.907 117.41 197.678 123.65C198.877 125.671 200.606 127.326 202.678 128.434C204.75 129.542 207.086 130.062 209.432 129.938C211.778 129.814 214.046 129.049 215.989 127.728C217.932 126.407 219.477 124.579 220.455 122.443C224.348 114.304 226.085 99.5986 217.525 93.3856C215.719 91.9909 213.577 91.0964 211.315 90.7921C209.054 90.4878 206.752 90.7844 204.641 91.652C202.531 92.5196 200.686 93.9277 199.292 95.7347C197.898 97.5416 197.005 99.6837 196.702 101.945Z" fill="#E4897B"/>
<path d="M226.207 97.2926C223.271 98.896 220.041 99.8882 216.711 100.209C214.228 111.564 207.622 124.627 196.932 120.87C192.862 119.513 188.793 109.651 188.372 100.901C187.667 101.756 187.192 102.868 186.826 103.329C186.216 99.4407 186.656 95.4598 188.101 91.7985C191.058 83.415 193.025 88.9769 196.24 83.8897C198.316 80.5255 202.006 78.7891 208.449 78.572C206.645 79.508 206.306 81.0138 208.978 80.7968C211.651 80.5797 223.06 79.9557 229.707 84.4459C225.216 85.4634 227.957 92.5853 233.953 88.7869C231.769 92.3276 229.056 95.6918 226.207 97.2926Z" fill="#263238"/>
<path d="M209.033 108.023C209.071 110.521 209.907 112.94 211.42 114.928C213.442 117.532 215.761 116.284 216.318 113.354C216.806 110.75 216.318 106.246 213.794 104.672C211.271 103.099 209.019 105.039 209.033 108.023Z" fill="#E4897B"/>
<path d="M196.878 84.9479C195.524 84.862 194.212 84.4463 193.055 83.7369C191.899 83.0276 190.934 82.0461 190.244 80.8782C190.244 80.8782 190.068 88.8276 196.878 84.9479Z" fill="#1E2A4C"/>
<path d="M215.49 227.604C215.49 227.604 207.133 303.762 202.019 332.29C196.43 363.491 174.888 467.621 174.888 467.621H156.574C156.574 467.621 169.57 366.055 172.283 335.071C175.2 301.496 181.155 227.55 181.155 227.55L215.49 227.604Z" fill="#6750A4"/>
<path opacity="0.6" d="M215.49 227.604C215.49 227.604 207.133 303.762 202.019 332.29C196.43 363.491 174.888 467.621 174.888 467.621H156.574C156.574 467.621 169.57 366.055 172.283 335.071C175.2 301.496 181.155 227.55 181.155 227.55L215.49 227.604Z" fill="#FAFAFA"/>
<path d="M177.479 460.892C177.56 460.892 175.865 467.906 175.865 467.906H155.34L155.475 461.652L177.479 460.892Z" fill="#6750A4"/>
<path opacity="0.1" d="M177.479 460.892C177.56 460.892 175.865 467.906 175.865 467.906H155.34L155.475 461.652L177.479 460.892Z" fill="#FAFAFA"/>
<path d="M209.399 254.735C196.416 257.299 199.686 306.068 202.223 331.151C205.316 313.42 209.521 279.303 212.356 255.088C211.438 254.641 210.396 254.516 209.399 254.735Z" fill="#6750A4"/>
<path opacity="0.4" d="M209.399 254.735C196.416 257.299 199.686 306.068 202.223 331.151C205.316 313.42 209.521 279.303 212.356 255.088C211.438 254.641 210.396 254.516 209.399 254.735Z" fill="#FAFAFA"/>
<path d="M234.4 227.604C234.4 227.604 238.66 302.106 238.741 332.507C238.836 364.115 231.796 467.621 231.796 467.621H214.907C214.907 467.621 210.362 365.96 208.409 334.922C206.292 301.075 199.36 227.604 199.36 227.604H234.4Z" fill="#6750A4"/>
<path opacity="0.6" d="M234.4 227.604C234.4 227.604 238.66 302.106 238.741 332.507C238.836 364.115 231.796 467.621 231.796 467.621H214.907C214.907 467.621 210.362 365.96 208.409 334.922C206.292 301.075 199.36 227.604 199.36 227.604H234.4Z" fill="#FAFAFA"/>
<path d="M238.484 218.027L233.749 218.406C233.363 218.439 232.99 218.557 232.655 218.752C232.321 218.946 232.034 219.213 231.816 219.533C231.598 219.853 231.453 220.217 231.394 220.599C231.334 220.982 231.36 221.373 231.47 221.744L233.424 228.323C233.588 228.858 233.88 229.344 234.274 229.742C234.667 230.14 235.151 230.436 235.684 230.607C236.216 230.777 236.783 230.817 237.334 230.721C237.885 230.626 238.405 230.399 238.85 230.059C241.295 227.783 243.049 224.863 243.91 221.635L238.484 218.027Z" fill="#E4897B"/>
<path d="M227.794 455.493C227.748 455.487 227.707 455.464 227.677 455.429C227.647 455.394 227.631 455.349 227.631 455.303C229.503 426.666 233.844 357.359 233.763 332.507C233.763 307.072 230.67 250.177 229.693 233.342C229.691 233.32 229.694 233.297 229.701 233.276C229.709 233.255 229.72 233.235 229.736 233.218C229.751 233.202 229.77 233.189 229.79 233.18C229.811 233.171 229.833 233.166 229.856 233.166C229.9 233.166 229.943 233.183 229.976 233.213C230.009 233.243 230.029 233.284 230.032 233.329C230.955 250.164 233.98 307.058 234.102 332.507C234.183 357.373 229.842 426.68 227.97 455.33C227.97 455.353 227.966 455.375 227.957 455.396C227.948 455.417 227.934 455.435 227.918 455.45C227.901 455.466 227.882 455.478 227.86 455.485C227.839 455.492 227.816 455.495 227.794 455.493Z" fill="#6750A4"/>
<path opacity="0.3" d="M227.794 455.493C227.748 455.487 227.707 455.464 227.677 455.429C227.647 455.394 227.631 455.349 227.631 455.303C229.503 426.666 233.844 357.359 233.763 332.507C233.763 307.072 230.67 250.177 229.693 233.342C229.691 233.32 229.694 233.297 229.701 233.276C229.709 233.255 229.72 233.235 229.736 233.218C229.751 233.202 229.77 233.189 229.79 233.18C229.811 233.171 229.833 233.166 229.856 233.166C229.9 233.166 229.943 233.183 229.976 233.213C230.009 233.243 230.029 233.284 230.032 233.329C230.955 250.164 233.98 307.058 234.102 332.507C234.183 357.373 229.842 426.68 227.97 455.33C227.97 455.353 227.966 455.375 227.957 455.396C227.948 455.417 227.934 455.435 227.918 455.45C227.901 455.466 227.882 455.478 227.86 455.485C227.839 455.492 227.816 455.495 227.794 455.493Z" fill="#FAFAFA"/>
<path d="M234.78 460.892C234.862 460.892 234.102 467.906 234.102 467.906H213.564L212.763 461.652L234.78 460.892Z" fill="#6750A4"/>
<path opacity="0.1" d="M234.78 460.892C234.862 460.892 234.102 467.906 234.102 467.906H213.564L212.763 461.652L234.78 460.892Z" fill="#FAFAFA"/>
</svg>
