<svg width="767" height="572" viewBox="0 0 767 572" fill="none" xmlns="http://www.w3.org/2000/svg">
<path d="M766.61 501.977H0V502.36H766.61V501.977Z" fill="#EBEBEB"/>
<path d="M511.835 515.27H461.055V515.653H511.835V515.27Z" fill="#EBEBEB"/>
<path d="M619.253 527.658H605.929V528.041H619.253V527.658Z" fill="#EBEBEB"/>
<path d="M543.956 521.908H514.534V522.292H543.956V521.908Z" fill="#EBEBEB"/>
<path d="M146.653 514.994H80.4329V515.377H146.653V514.994Z" fill="#EBEBEB"/>
<path d="M384.838 514.994H375.133V515.377H384.838V514.994Z" fill="#EBEBEB"/>
<path d="M286.712 521.663H217.242V522.046H286.712V521.663Z" fill="#EBEBEB"/>
<path d="M363.373 433.595H67.3238C65.0046 433.591 62.7817 432.667 61.1432 431.025C59.5047 429.384 58.5845 427.159 58.5845 424.84V8.67803C58.6047 6.37211 59.5338 4.16726 61.1702 2.54242C62.8065 0.917569 65.0178 0.00395017 67.3238 0H363.373C365.695 0 367.922 0.922367 369.564 2.56419C371.206 4.20601 372.128 6.4328 372.128 8.75469V424.84C372.128 427.162 371.206 429.389 369.564 431.031C367.922 432.673 365.695 433.595 363.373 433.595ZM67.3238 0.306645C65.1063 0.310707 62.9809 1.19448 61.4143 2.76398C59.8477 4.33348 58.9678 6.46045 58.9678 8.67803V424.84C58.9678 427.058 59.8477 429.185 61.4143 430.754C62.9809 432.324 65.1063 433.208 67.3238 433.212H363.373C365.592 433.208 367.719 432.324 369.288 430.755C370.858 429.186 371.741 427.059 371.745 424.84V8.67803C371.741 6.45905 370.858 4.3321 369.288 2.76304C367.719 1.19398 365.592 0.310698 363.373 0.306645H67.3238Z" fill="#EBEBEB"/>
<path d="M695.024 433.595H398.959C396.639 433.591 394.414 432.667 392.773 431.026C391.132 429.385 390.209 427.161 390.205 424.84V8.67803C390.229 6.37071 391.161 4.16588 392.8 2.54146C394.439 0.917033 396.652 0.00390709 398.959 0H695.024C697.328 0.00797964 699.535 0.923381 701.168 2.5478C702.801 4.17221 703.728 6.37475 703.748 8.67803V424.84C703.748 427.157 702.83 429.379 701.195 431.02C699.56 432.661 697.341 433.587 695.024 433.595ZM398.959 0.306645C396.74 0.310698 394.613 1.19398 393.044 2.76304C391.475 4.3321 390.592 6.45905 390.588 8.67803V424.84C390.592 427.059 391.475 429.186 393.044 430.755C394.613 432.324 396.74 433.208 398.959 433.212H695.024C697.243 433.208 699.37 432.324 700.939 430.755C702.508 429.186 703.392 427.059 703.396 424.84V8.67803C703.392 6.45905 702.508 4.3321 700.939 2.76304C699.37 1.19398 697.243 0.310698 695.024 0.306645H398.959Z" fill="#EBEBEB"/>
<path d="M329.367 48.3884H112.17V293.075H329.367V48.3884Z" fill="#EBEBEB"/>
<path d="M317.883 61.3289H123.67V280.135H317.883V61.3289Z" fill="#FAFAFA"/>
<path d="M190.963 280.135H158.136L189.046 61.3289H221.872L190.963 280.135Z" fill="white"/>
<path d="M258.102 280.135H241.682L272.591 61.3289H289.012L258.102 280.135Z" fill="white"/>
<path d="M228.511 61.3289H213.041V280.135H228.511V61.3289Z" fill="#EBEBEB"/>
<path d="M228.511 280.135H231.961L231.961 61.3288H228.511L228.511 280.135Z" fill="#E0E0E0"/>
<path d="M329.366 293.075H331.835L331.835 48.3885H329.366L329.366 293.075Z" fill="#E0E0E0"/>
<path d="M122.458 318.051H112.6C102.439 318.051 94.2012 326.289 94.2012 336.45V462.849C94.2012 473.01 102.439 481.247 112.6 481.247H122.458C132.62 481.247 140.857 473.01 140.857 462.849V336.45C140.857 326.289 132.62 318.051 122.458 318.051Z" fill="#F5F5F5"/>
<path d="M132.424 323.51H129.373C121.507 323.51 115.13 329.887 115.13 337.753V461.561C115.13 469.427 121.507 475.804 129.373 475.804H132.424C140.291 475.804 146.668 469.427 146.668 461.561V337.753C146.668 329.887 140.291 323.51 132.424 323.51Z" fill="#EBEBEB"/>
<path d="M156.358 318.051H146.499C136.338 318.051 128.101 326.289 128.101 336.45V462.849C128.101 473.01 136.338 481.247 146.499 481.247H156.358C166.519 481.247 174.757 473.01 174.757 462.849V336.45C174.757 326.289 166.519 318.051 156.358 318.051Z" fill="#F5F5F5"/>
<path d="M166.293 323.51H163.257C155.391 323.51 149.014 329.887 149.014 337.753V461.561C149.014 469.427 155.391 475.804 163.257 475.804H166.293C174.16 475.804 180.537 469.427 180.537 461.561V337.753C180.537 329.887 174.16 323.51 166.293 323.51Z" fill="#EBEBEB"/>
<path d="M190.242 318.051H180.384C170.222 318.051 161.985 326.289 161.985 336.45V462.849C161.985 473.01 170.222 481.247 180.384 481.247H190.242C200.403 481.247 208.641 473.01 208.641 462.849V336.45C208.641 326.289 200.403 318.051 190.242 318.051Z" fill="#F5F5F5"/>
<path d="M200.177 323.51H197.142C189.275 323.51 182.898 329.887 182.898 337.753V461.561C182.898 469.427 189.275 475.804 197.142 475.804H200.177C208.044 475.804 214.421 469.427 214.421 461.561V337.753C214.421 329.887 208.044 323.51 200.177 323.51Z" fill="#EBEBEB"/>
<path d="M224.126 318.051H214.268C204.106 318.051 195.869 326.289 195.869 336.45V462.849C195.869 473.01 204.106 481.247 214.268 481.247H224.126C234.288 481.247 242.525 473.01 242.525 462.849V336.45C242.525 326.289 234.288 318.051 224.126 318.051Z" fill="#F5F5F5"/>
<path d="M234.062 323.51H231.026C223.159 323.51 216.782 329.887 216.782 337.753V461.561C216.782 469.427 223.159 475.804 231.026 475.804H234.062C241.928 475.804 248.305 469.427 248.305 461.561V337.753C248.305 329.887 241.928 323.51 234.062 323.51Z" fill="#EBEBEB"/>
<path d="M258.01 318.051H248.152C237.991 318.051 229.753 326.289 229.753 336.45V462.849C229.753 473.01 237.991 481.247 248.152 481.247H258.01C268.172 481.247 276.409 473.01 276.409 462.849V336.45C276.409 326.289 268.172 318.051 258.01 318.051Z" fill="#F5F5F5"/>
<path d="M267.976 323.51H264.925C257.059 323.51 250.682 329.887 250.682 337.753V461.561C250.682 469.427 257.059 475.804 264.925 475.804H267.976C275.843 475.804 282.22 469.427 282.22 461.561V337.753C282.22 329.887 275.843 323.51 267.976 323.51Z" fill="#EBEBEB"/>
<path d="M291.91 318.051H282.051C271.89 318.051 263.653 326.289 263.653 336.45V462.849C263.653 473.01 271.89 481.247 282.051 481.247H291.91C302.071 481.247 310.309 473.01 310.309 462.849V336.45C310.309 326.289 302.071 318.051 291.91 318.051Z" fill="#F5F5F5"/>
<path d="M301.861 323.51H298.809C290.943 323.51 284.566 329.887 284.566 337.753V461.561C284.566 469.427 290.943 475.804 298.809 475.804H301.861C309.727 475.804 316.104 469.427 316.104 461.561V337.753C316.104 329.887 309.727 323.51 301.861 323.51Z" fill="#EBEBEB"/>
<path d="M325.794 318.051H315.936C305.774 318.051 297.537 326.289 297.537 336.45V462.849C297.537 473.01 305.774 481.247 315.936 481.247H325.794C335.955 481.247 344.193 473.01 344.193 462.849V336.45C344.193 326.289 335.955 318.051 325.794 318.051Z" fill="#F5F5F5"/>
<path d="M347.321 463.125H306.721C305.908 463.125 305.128 462.802 304.553 462.226C303.977 461.651 303.654 460.871 303.654 460.058C303.654 459.245 303.977 458.465 304.553 457.89C305.128 457.315 305.908 456.992 306.721 456.992H347.321C348.134 456.992 348.914 457.315 349.489 457.89C350.064 458.465 350.387 459.245 350.387 460.058C350.387 460.871 350.064 461.651 349.489 462.226C348.914 462.802 348.134 463.125 347.321 463.125Z" fill="#F5F5F5"/>
<path d="M347.321 346.339H306.721C305.908 346.339 305.128 346.016 304.553 345.441C303.977 344.866 303.654 344.086 303.654 343.273C303.654 342.46 303.977 341.68 304.553 341.105C305.128 340.53 305.908 340.207 306.721 340.207H347.321C348.134 340.207 348.914 340.53 349.489 341.105C350.064 341.68 350.387 342.46 350.387 343.273C350.387 344.086 350.064 344.866 349.489 345.441C348.914 346.016 348.134 346.339 347.321 346.339Z" fill="#F5F5F5"/>
<path d="M678.282 229.646H555.624L566.495 128.791H667.411L678.282 229.646Z" fill="#EBEBEB"/>
<path d="M651.358 229.646H630.276L625.815 128.791H645.271L651.358 229.646Z" fill="#F5F5F5"/>
<path d="M623.086 229.646H610.82V501.976H623.086V229.646Z" fill="#F0F0F0"/>
<path d="M622.978 331.82H610.927C607.93 331.82 605.5 334.25 605.5 337.247V349.299C605.5 352.296 607.93 354.726 610.927 354.726H622.978C625.976 354.726 628.406 352.296 628.406 349.299V337.247C628.406 334.25 625.976 331.82 622.978 331.82Z" fill="#F0F0F0"/>
<path d="M636.363 501.977H597.527C597.527 499.781 598.399 497.675 599.952 496.122C601.505 494.57 603.61 493.697 605.806 493.697H628.099C629.186 493.697 630.262 493.912 631.265 494.328C632.269 494.744 633.181 495.354 633.948 496.123C634.716 496.892 635.324 497.805 635.739 498.809C636.153 499.814 636.365 500.89 636.363 501.977Z" fill="#F0F0F0"/>
<path d="M623.086 229.646H610.82V237.143H623.086V229.646Z" fill="#E0E0E0"/>
<path d="M519.624 65.4226H426.956V272.576H519.624V65.4226Z" fill="#F0F0F0"/>
<path d="M519.624 272.561H522.69V65.4073H519.624V272.561Z" fill="#E0E0E0"/>
<path d="M503.97 76.6611H442.641V261.322H503.97V76.6611Z" fill="#FAFAFA"/>
<path d="M484.13 167.121C484.496 169.265 484.219 171.469 483.333 173.454C482.446 175.44 480.991 177.119 479.151 178.277C477.31 179.436 475.168 180.022 472.994 179.963C470.82 179.904 468.713 179.201 466.938 177.943C465.164 176.686 463.802 174.931 463.026 172.9C462.249 170.868 462.092 168.652 462.575 166.532C463.058 164.412 464.159 162.482 465.739 160.988C467.319 159.493 469.306 158.501 471.45 158.136C474.322 157.652 477.269 158.325 479.646 160.009C482.023 161.693 483.635 164.251 484.13 167.121Z" fill="#F0F0F0"/>
<path d="M476.832 124.314C477.195 126.457 476.915 128.66 476.026 130.645C475.138 132.629 473.681 134.305 471.84 135.461C469.998 136.617 467.856 137.202 465.683 137.14C463.509 137.079 461.403 136.374 459.63 135.116C457.857 133.858 456.497 132.102 455.722 130.071C454.947 128.039 454.792 125.824 455.276 123.704C455.76 121.585 456.861 119.656 458.441 118.163C460.021 116.669 462.009 115.678 464.152 115.314C465.576 115.07 467.034 115.109 468.442 115.43C469.851 115.75 471.182 116.346 472.36 117.182C473.538 118.018 474.539 119.078 475.306 120.302C476.074 121.526 476.592 122.889 476.832 124.314Z" fill="#F0F0F0"/>
<path d="M491.413 210.051C491.777 212.195 491.497 214.399 490.608 216.384C489.719 218.369 488.261 220.046 486.419 221.202C484.577 222.359 482.434 222.943 480.26 222.88C478.086 222.818 475.979 222.112 474.207 220.853C472.434 219.593 471.074 217.835 470.301 215.803C469.527 213.77 469.373 211.554 469.86 209.434C470.346 207.314 471.45 205.386 473.032 203.894C474.614 202.402 476.604 201.413 478.748 201.051C480.171 200.807 481.628 200.847 483.036 201.168C484.443 201.489 485.773 202.084 486.95 202.92C488.127 203.757 489.127 204.817 489.893 206.041C490.658 207.264 491.175 208.627 491.413 210.051Z" fill="#F0F0F0"/>
<path d="M383.305 571.217C547.486 571.217 680.582 563.446 680.582 553.861C680.582 544.275 547.486 536.505 383.305 536.505C219.124 536.505 86.0291 544.275 86.0291 553.861C86.0291 563.446 219.124 571.217 383.305 571.217Z" fill="#F5F5F5"/>
<path d="M466.268 157.431C466.682 156.283 467.429 155.285 468.414 154.564C468.069 153.911 467.864 153.194 467.811 152.458C467.758 151.721 467.859 150.982 468.108 150.286C468.348 149.617 468.718 149.001 469.197 148.475C469.676 147.948 470.254 147.522 470.898 147.22C470.305 146.513 469.934 145.646 469.832 144.728C469.731 143.81 469.903 142.883 470.328 142.063C470.753 141.243 471.41 140.567 472.219 140.121C473.027 139.674 473.949 139.477 474.869 139.554C474.829 139.038 474.881 138.519 475.022 138.021C475.363 136.92 476.118 135.995 477.128 135.44C478.137 134.886 479.323 134.744 480.435 135.046C480.066 134.144 480.017 133.143 480.297 132.21C480.637 131.093 481.405 130.157 482.434 129.605C483.462 129.054 484.667 128.932 485.786 129.266H485.954C485.956 128.856 486.013 128.449 486.123 128.055C486.463 126.938 487.231 126 488.259 125.446C489.287 124.892 490.492 124.766 491.612 125.096C491.932 125.202 492.24 125.341 492.532 125.51C492.452 124.685 492.644 123.856 493.079 123.15C493.513 122.444 494.166 121.9 494.939 121.6C495.711 121.299 496.561 121.26 497.358 121.487C498.155 121.714 498.856 122.195 499.355 122.857C499.627 122.177 500.09 121.589 500.688 121.166C501.286 120.742 501.993 120.501 502.725 120.47C503.458 120.439 504.183 120.621 504.815 120.992C505.446 121.364 505.957 121.911 506.285 122.566C506.59 122.33 506.948 122.172 507.327 122.106C507.666 122.039 508.014 122.04 508.352 122.109C508.69 122.179 509.011 122.314 509.296 122.508C509.581 122.702 509.825 122.95 510.014 123.239C510.202 123.528 510.331 123.852 510.394 124.191C510.424 124.399 510.424 124.611 510.394 124.82C510.939 124.297 511.618 123.935 512.356 123.776C513.094 123.616 513.862 123.665 514.574 123.916C515.286 124.167 515.915 124.611 516.389 125.198C516.864 125.786 517.166 126.493 517.263 127.242L517.569 127.165C518.806 127.013 520.053 127.354 521.04 128.114C522.028 128.875 522.676 129.994 522.844 131.228C522.905 131.661 522.905 132.099 522.844 132.532C522.91 132.523 522.977 132.523 523.043 132.532C524.28 132.375 525.53 132.714 526.518 133.476C527.506 134.237 528.153 135.358 528.317 136.595C528.447 137.624 528.226 138.667 527.689 139.554C528.913 139.423 530.141 139.774 531.111 140.532C532.081 141.29 532.718 142.397 532.886 143.617C533.025 144.724 532.764 145.844 532.15 146.775C533.127 146.89 534.043 147.308 534.77 147.972C535.496 148.635 535.995 149.51 536.196 150.473C536.398 151.436 536.292 152.438 535.894 153.337C535.495 154.236 534.824 154.987 533.975 155.484C534.625 155.908 535.157 156.489 535.522 157.174C535.886 157.859 536.072 158.625 536.061 159.4C536.051 160.176 535.844 160.937 535.46 161.611C535.077 162.285 534.529 162.852 533.867 163.257C534.756 164.001 535.33 165.052 535.477 166.201C535.634 167.436 535.297 168.684 534.539 169.671C533.781 170.659 532.663 171.308 531.43 171.476C530.361 171.603 529.28 171.365 528.363 170.801C528.184 171.646 527.774 172.425 527.18 173.052C526.586 173.68 525.831 174.131 524.997 174.356C524.163 174.581 523.283 174.572 522.454 174.328C521.625 174.085 520.879 173.618 520.298 172.978C520.05 173.852 519.553 174.634 518.868 175.231C518.183 175.827 517.34 176.212 516.44 176.339C515.541 176.465 514.624 176.328 513.801 175.944C512.978 175.56 512.285 174.945 511.804 174.174C511.047 175.124 509.945 175.736 508.738 175.876C508.066 175.967 507.382 175.908 506.735 175.704C506.088 175.5 505.495 175.156 504.997 174.695C504.623 175.827 503.832 176.774 502.785 177.344C501.738 177.914 500.513 178.064 499.359 177.763C498.206 177.462 497.21 176.734 496.574 175.726C495.938 174.717 495.71 173.505 495.936 172.334C495.384 172.72 494.756 172.982 494.094 173.103C493.433 173.224 492.752 173.201 492.1 173.035C491.448 172.869 490.84 172.565 490.316 172.142C489.793 171.719 489.366 171.189 489.067 170.586C488.441 171.232 487.643 171.684 486.768 171.888C485.892 172.092 484.976 172.039 484.13 171.736C483.276 171.417 482.533 170.857 481.989 170.126C481.445 169.394 481.123 168.521 481.063 167.612C480.469 168.061 479.775 168.36 479.04 168.482C478.305 168.604 477.551 168.545 476.844 168.312C476.137 168.078 475.497 167.676 474.979 167.14C474.461 166.604 474.082 165.95 473.873 165.235C472.783 165.571 471.622 165.596 470.519 165.308C469.417 165.021 468.416 164.431 467.629 163.607C466.843 162.782 466.302 161.754 466.066 160.639C465.831 159.524 465.912 158.365 466.298 157.293L466.268 157.431Z" fill="#263238"/>
<path d="M478.365 206.709C478.365 208.763 478.365 210.557 478.196 212.458C478.028 214.36 477.951 216.184 477.782 218.055C477.445 221.765 476.893 225.46 476.249 229.14C475.023 236.574 473.093 243.874 470.484 250.942L469.993 252.276C469.809 252.751 469.733 253.027 469.319 253.947C468.555 255.62 467.379 257.071 465.9 258.164C464.536 259.169 462.964 259.855 461.3 260.172C459.985 260.444 458.639 260.542 457.298 260.464C453.118 260.1 449.034 259.005 445.232 257.229C438.406 254.113 431.96 250.224 426.021 245.637L429.363 240.363C432.43 241.896 435.726 243.353 438.93 244.687C442.081 246.044 445.306 247.221 448.59 248.213C451.438 249.19 454.425 249.708 457.436 249.746C458.617 249.746 459.276 249.286 459.077 249.302C458.878 249.317 458.924 249.424 458.924 249.302L459.552 247.217C461.483 240.64 462.939 233.932 463.907 227.147C464.397 223.728 464.75 220.293 465.072 216.859C465.394 213.424 465.593 209.867 465.7 206.678L478.365 206.709Z" fill="#FFB573"/>
<path d="M468.736 192.281C463.769 193.937 461.729 215.05 461.729 215.05L476.387 223.528C476.387 223.528 488.239 201.527 483.946 196.237C479.653 190.947 475.988 189.859 468.736 192.281Z" fill="#6750A4"/>
<path opacity="0.7" d="M468.736 192.281C463.769 193.937 461.729 215.05 461.729 215.05L476.387 223.528C476.387 223.528 488.239 201.527 483.946 196.237C479.653 190.947 475.988 189.859 468.736 192.281Z" fill="black"/>
<path opacity="0.2" d="M469.533 196.912L467.172 218.208L475.406 222.961L469.533 196.912Z" fill="black"/>
<path d="M431.571 241.053L423.169 229.83L419.781 241.896C419.781 241.896 425.438 247.447 430.329 245.913L431.571 241.053Z" fill="#FFB573"/>
<path d="M414.874 225.997L410.535 235.579L419.811 241.896L423.2 229.83L414.874 225.997Z" fill="#FFB573"/>
<path d="M514.825 541.273H502.498L499.631 512.725H511.958L514.825 541.273Z" fill="#FFB573"/>
<path d="M613.457 489.634L603.108 496.334L584.264 474.547L594.598 467.832L613.457 489.634Z" fill="#FFB573"/>
<path d="M600.685 495.062L611.065 485.862C611.242 485.704 611.472 485.616 611.709 485.616C611.947 485.616 612.176 485.704 612.353 485.862L620.786 493.038C620.995 493.222 621.162 493.449 621.276 493.702C621.391 493.956 621.45 494.231 621.45 494.51C621.45 494.788 621.391 495.063 621.276 495.317C621.162 495.571 620.995 495.797 620.786 495.982C617.121 499.125 615.19 500.443 610.621 504.476C607.815 506.96 603.966 510.869 600.103 514.304C596.239 517.738 592.621 514.074 593.97 512.31C599.827 504.353 599.075 501.195 599.704 496.978C599.798 496.245 600.145 495.567 600.685 495.062Z" fill="#263238"/>
<path d="M501.056 539.847H514.855C515.093 539.845 515.324 539.929 515.505 540.084C515.685 540.239 515.803 540.455 515.837 540.69L517.37 551.638C517.4 551.915 517.372 552.195 517.286 552.461C517.2 552.726 517.059 552.97 516.872 553.177C516.686 553.384 516.457 553.549 516.202 553.662C515.947 553.774 515.671 553.832 515.392 553.83C510.562 553.753 508.232 553.462 502.145 553.462C498.404 553.462 487.641 553.861 482.474 553.861C477.307 553.861 477.016 548.74 479.177 548.28C488.837 546.195 495.644 543.343 498.895 540.614C499.5 540.106 500.267 539.834 501.056 539.847Z" fill="#263238"/>
<g opacity="0.2">
<path d="M499.631 512.74L501.102 527.444H513.445L511.958 512.74H499.631Z" fill="black"/>
<path d="M594.614 467.847L584.264 474.547L593.985 485.786L604.334 479.07L594.614 467.847Z" fill="black"/>
</g>
<path d="M468.736 192.281C468.736 192.281 463.033 194.719 480.005 266.044L529.927 262.426C527.612 242.157 526.677 229.63 533.362 187.298C526.247 186.359 519.072 185.944 511.896 186.056C504.308 186.059 496.73 186.608 489.22 187.697C479.607 189.215 468.736 192.281 468.736 192.281Z" fill="#6750A4"/>
<path opacity="0.7" d="M468.736 192.281C468.736 192.281 463.033 194.719 480.005 266.044L529.927 262.426C527.612 242.157 526.677 229.63 533.362 187.298C526.247 186.359 519.072 185.944 511.896 186.056C504.308 186.059 496.73 186.608 489.22 187.697C479.607 189.215 468.736 192.281 468.736 192.281Z" fill="black"/>
<path d="M507.849 160.605C506.959 168.01 506.499 181.472 511.958 185.98C511.958 185.98 510.424 193.523 496.947 194.504C482.045 195.593 489.281 187.62 489.281 187.62C497.285 185.091 496.626 179.065 494.801 173.499L507.849 160.605Z" fill="#FFB573"/>
<path opacity="0.2" d="M502.528 165.864L494.862 173.53C495.316 174.82 495.65 176.149 495.859 177.501C498.925 176.826 502.958 173.101 503.05 169.835C503.12 168.49 502.944 167.144 502.528 165.864Z" fill="black"/>
<path d="M516.19 148.293C513.399 160.206 512.479 165.312 505.334 170.448C494.602 178.114 480.588 172.135 479.776 159.716C479.04 148.462 483.731 130.876 496.319 128.101C499.085 127.479 501.965 127.574 504.685 128.374C507.405 129.175 509.876 130.655 511.864 132.676C513.853 134.697 515.294 137.192 516.051 139.924C516.807 142.657 516.855 145.537 516.19 148.293Z" fill="#FFB573"/>
<path d="M480.005 266.045C480.005 266.045 477.2 361.457 480.726 398.883C484.39 437.811 498.465 524.607 498.465 524.607H515.162C515.162 524.607 512.878 438.026 511.559 399.634C510.118 357.762 516.588 263.392 516.588 263.392L480.005 266.045Z" fill="#6750A4"/>
<path d="M516.573 525.205H497.009L495.583 518.965L517.477 518.198L516.573 525.205Z" fill="#263238"/>
<path opacity="0.2" d="M503.249 288.046C492.777 313.605 505.856 357.9 511.406 374.321C511.804 349.007 513.322 318.005 514.595 295.222C511.82 282.588 508.079 276.256 503.249 288.046Z" fill="black"/>
<path d="M493.191 265.094C493.191 265.094 511.59 362.714 522.491 393.7C535.355 430.498 589.953 485.004 589.953 485.004L604.058 475.804C604.058 475.804 564.379 413.034 555.195 393.823C535.585 352.84 545.167 288.935 529.942 262.365L493.191 265.094Z" fill="#6750A4"/>
<path d="M606.144 475.559L588.649 486.89L583.222 482.597L603.2 468.323L606.144 475.559Z" fill="#263238"/>
<path d="M495.66 148.217C495.491 149.198 494.847 149.903 494.203 149.75C493.559 149.596 493.176 148.753 493.344 147.772C493.513 146.791 494.172 146.085 494.878 146.239C495.583 146.392 495.828 147.189 495.66 148.217Z" fill="#263238"/>
<path d="M484.59 146.331C484.421 147.312 483.762 148.017 483.133 147.864C482.505 147.711 482.106 146.883 482.275 145.901C482.443 144.92 483.087 144.215 483.731 144.368C484.375 144.521 484.758 145.349 484.59 146.331Z" fill="#263238"/>
<path d="M484.007 144.46L481.769 143.372C481.769 143.372 482.658 145.426 484.007 144.46Z" fill="#263238"/>
<path d="M488.499 148.722C487.229 150.808 485.682 152.711 483.9 154.38C484.34 154.822 484.871 155.164 485.456 155.381C486.041 155.598 486.666 155.686 487.288 155.637L488.499 148.722Z" fill="#ED893E"/>
<path d="M491.995 160.329C491.507 160.327 491.019 160.28 490.539 160.191C490.473 160.169 490.418 160.124 490.382 160.065C490.347 160.006 490.333 159.937 490.344 159.868C490.355 159.8 490.39 159.738 490.443 159.694C490.495 159.649 490.562 159.624 490.631 159.624C491.847 159.862 493.102 159.808 494.294 159.467C495.485 159.126 496.578 158.507 497.484 157.661C497.541 157.61 497.615 157.581 497.691 157.581C497.768 157.581 497.842 157.61 497.898 157.661C497.925 157.688 497.947 157.721 497.962 157.756C497.977 157.792 497.984 157.83 497.984 157.868C497.984 157.907 497.977 157.945 497.962 157.98C497.947 158.016 497.925 158.048 497.898 158.075C497.114 158.825 496.187 159.41 495.174 159.797C494.16 160.184 493.08 160.365 491.995 160.329Z" fill="#263238"/>
<path d="M481.431 133.145L501.961 125.632C502.34 126.046 502.623 126.538 502.789 127.073C503.173 126.601 503.657 126.219 504.205 125.954C504.754 125.689 505.354 125.548 505.963 125.54C506.487 125.529 507.009 125.623 507.496 125.816C508.352 125.919 509.145 126.321 509.735 126.951C510.251 127.508 510.587 128.208 510.7 128.959C511.458 129.278 512.105 129.814 512.56 130.498C513.015 131.182 513.259 131.986 513.261 132.808C513.269 132.925 513.269 133.043 513.261 133.16C513.681 133.179 514.096 133.267 514.488 133.421C515.468 133.81 516.265 134.556 516.717 135.509C517.17 136.462 517.244 137.552 516.925 138.557C517.719 139.092 518.305 139.884 518.584 140.8C518.863 141.715 518.819 142.699 518.459 143.586L518.382 143.74C518.979 144.326 519.388 145.076 519.557 145.895C519.726 146.714 519.648 147.565 519.332 148.339C518.974 149.209 518.338 149.937 517.523 150.409C517.523 150.593 517.615 150.792 517.646 150.992C518.197 150.976 518.745 151.076 519.256 151.283C520.223 151.736 520.981 152.54 521.376 153.532C521.771 154.524 521.774 155.63 521.383 156.623C520.993 157.617 520.238 158.425 519.274 158.883C518.309 159.34 517.206 159.413 516.189 159.087C515.496 158.816 514.889 158.362 514.433 157.773C513.977 157.185 513.688 156.484 513.598 155.745C513.042 155.747 512.49 155.643 511.973 155.438C511.047 155.068 510.284 154.38 509.82 153.498C509.356 152.615 509.222 151.596 509.443 150.624C508.764 150.851 508.038 150.899 507.335 150.764C506.632 150.63 505.976 150.316 505.429 149.854C504.882 149.392 504.463 148.797 504.213 148.126C503.963 147.455 503.89 146.731 504 146.024L503.571 145.901C502.535 145.485 501.706 144.676 501.267 143.65C500.827 142.623 500.812 141.465 501.225 140.428C501.415 139.965 501.685 139.54 502.022 139.171C501.409 138.965 500.852 138.62 500.394 138.162C499.936 137.704 499.591 137.147 499.385 136.533C499.275 136.682 499.152 136.821 499.017 136.947C498.392 137.535 497.584 137.892 496.729 137.959C495.873 138.026 495.02 137.799 494.31 137.315L494.05 137.607C493.61 138.033 493.071 138.344 492.483 138.513C491.894 138.681 491.272 138.702 490.673 138.573C490.074 138.444 489.517 138.17 489.049 137.774C488.582 137.378 488.219 136.873 487.993 136.303C487.447 136.874 486.735 137.257 485.958 137.4C485.181 137.542 484.379 137.436 483.666 137.096C482.953 136.757 482.365 136.201 481.986 135.508C481.607 134.815 481.456 134.021 481.554 133.237L481.431 133.145Z" fill="#263238"/>
<path d="M517.569 159.884C516.978 160.907 516.19 161.802 515.251 162.518C514.311 163.234 513.239 163.756 512.096 164.055C509.029 164.837 507.603 162.107 508.508 159.271C509.321 156.726 511.881 153.245 514.902 153.721C515.558 153.835 516.175 154.111 516.699 154.523C517.222 154.935 517.634 155.471 517.899 156.083C518.163 156.694 518.272 157.361 518.214 158.025C518.157 158.689 517.935 159.328 517.569 159.884Z" fill="#FFB573"/>
<path d="M500.489 146.714C500.366 146.715 500.247 146.674 500.15 146.599C500.053 146.524 499.983 146.419 499.953 146.3C499.155 143.724 495.859 142.62 495.828 142.605C495.682 142.556 495.56 142.452 495.488 142.314C495.417 142.177 495.401 142.017 495.445 141.869C495.494 141.723 495.599 141.602 495.737 141.533C495.875 141.464 496.034 141.452 496.181 141.501C496.35 141.501 500.091 142.804 501.072 145.963C501.111 146.113 501.092 146.273 501.018 146.409C500.944 146.546 500.82 146.649 500.673 146.699L500.489 146.714Z" fill="#263238"/>
<path d="M482.137 140.642C482.008 140.643 481.883 140.601 481.78 140.523C481.678 140.445 481.605 140.335 481.571 140.21C481.538 140.086 481.547 139.954 481.596 139.835C481.646 139.717 481.733 139.618 481.845 139.554C482.638 139.07 483.536 138.785 484.462 138.724C485.389 138.662 486.316 138.826 487.166 139.201C487.234 139.235 487.295 139.283 487.345 139.341C487.395 139.398 487.434 139.466 487.458 139.538C487.482 139.611 487.492 139.687 487.486 139.764C487.481 139.84 487.46 139.915 487.426 139.983C487.392 140.052 487.345 140.113 487.287 140.163C487.229 140.213 487.162 140.251 487.089 140.275C487.017 140.3 486.94 140.309 486.864 140.304C486.787 140.298 486.713 140.278 486.644 140.244C485.967 139.956 485.231 139.836 484.497 139.892C483.763 139.948 483.054 140.179 482.428 140.566C482.338 140.612 482.238 140.639 482.137 140.642Z" fill="#263238"/>
<path d="M540.154 201.128C542.208 208.457 543.818 215.709 545.229 223.13C545.965 226.825 546.563 230.566 547.084 234.322C547.36 236.193 547.574 238.094 547.789 239.98L548.065 242.847V243.568V244.012C548.065 244.365 548.065 244.733 548.065 245.085C547.98 246.764 547.368 248.373 546.317 249.685C545.474 250.673 544.428 251.467 543.251 252.016C542.484 252.368 541.682 252.64 540.859 252.828C539.614 253.1 538.346 253.254 537.072 253.288C534.971 253.333 532.871 253.225 530.786 252.966C526.942 252.489 523.128 251.793 519.363 250.881C515.663 249.971 512.014 248.99 508.416 247.937C504.813 246.803 501.271 245.683 497.683 244.349L499.339 238.324C502.927 238.922 506.561 239.581 510.179 240.118C513.798 240.654 517.401 241.237 520.988 241.651C524.576 242.065 528.133 242.448 531.552 242.556C533.153 242.618 534.756 242.577 536.351 242.433C536.93 242.38 537.501 242.262 538.053 242.08C538.268 242.08 538.314 241.958 538.268 241.973C537.945 242.127 537.662 242.352 537.44 242.632C536.962 243.228 536.678 243.956 536.627 244.717C536.62 244.845 536.62 244.973 536.627 245.101C536.621 245.019 536.621 244.937 536.627 244.855L536.52 244.196L536.091 241.544L535.109 236.239C534.419 232.697 533.653 229.155 532.886 225.598C532.12 222.041 531.246 218.515 530.387 214.973C529.528 211.431 528.639 207.859 527.796 204.394L540.154 201.128Z" fill="#FFB573"/>
<path d="M533.362 187.222C538.467 188.387 545.735 205.176 545.735 205.176L527.336 220.508C527.336 220.508 519.21 206.709 520.85 200.024C522.552 193.078 527.52 185.903 533.362 187.222Z" fill="#6750A4"/>
<path opacity="0.7" d="M533.362 187.222C538.467 188.387 545.735 205.176 545.735 205.176L527.336 220.508C527.336 220.508 519.21 206.709 520.85 200.024C522.552 193.078 527.52 185.903 533.362 187.222Z" fill="black"/>
<path d="M596.914 500.535H596.76C596.475 500.527 596.196 500.445 595.952 500.297C595.707 500.149 595.505 499.941 595.365 499.692C595.265 499.548 595.202 499.382 595.184 499.207C595.165 499.033 595.19 498.857 595.258 498.695C595.902 497.27 600.317 496.595 600.808 496.518C600.864 496.513 600.92 496.524 600.97 496.549C601.021 496.574 601.063 496.612 601.093 496.66C601.123 496.707 601.14 496.762 601.141 496.818C601.142 496.874 601.128 496.93 601.099 496.978C600.179 498.297 598.447 500.428 596.914 500.535ZM600.195 497.208C598.447 497.53 596.132 498.174 595.794 498.941C595.751 499.004 595.729 499.079 595.729 499.155C595.729 499.232 595.751 499.307 595.794 499.37C595.884 499.538 596.016 499.681 596.177 499.783C596.339 499.885 596.524 499.943 596.714 499.953C597.604 499.968 598.876 498.956 600.195 497.208Z" fill="#6750A4"/>
<path d="M600.471 497.162C598.937 497.27 596.086 496.748 595.442 495.629C595.326 495.428 595.283 495.194 595.319 494.965C595.355 494.736 595.469 494.527 595.641 494.372C595.787 494.202 595.968 494.065 596.172 493.973C596.376 493.88 596.598 493.833 596.822 493.835C598.615 493.835 600.977 496.488 601.069 496.595C601.093 496.64 601.105 496.69 601.105 496.741C601.105 496.792 601.093 496.842 601.069 496.886C601.052 496.935 601.024 496.979 600.987 497.013C600.949 497.048 600.904 497.073 600.854 497.086L600.471 497.162ZM596.73 494.449C596.604 494.455 596.48 494.487 596.367 494.542C596.254 494.598 596.153 494.675 596.07 494.771C595.825 495.047 595.871 495.23 595.948 495.353C596.377 496.089 598.753 496.672 600.241 496.595C599.413 495.752 597.895 494.433 596.822 494.433L596.73 494.449Z" fill="#6750A4"/>
<path d="M496.426 541.994C495.373 542.095 494.317 541.829 493.436 541.242C493.239 541.066 493.088 540.843 492.997 540.595C492.906 540.346 492.878 540.079 492.915 539.816C492.923 539.657 492.973 539.503 493.059 539.368C493.145 539.234 493.265 539.124 493.406 539.05C494.939 538.222 499.83 540.721 500.382 541.012C500.435 541.042 500.478 541.088 500.505 541.142C500.533 541.197 500.543 541.258 500.535 541.319C500.527 541.379 500.5 541.434 500.459 541.478C500.418 541.522 500.364 541.552 500.305 541.564C499.028 541.824 497.73 541.967 496.426 541.994ZM494.234 539.449C494.044 539.437 493.854 539.474 493.682 539.556C493.622 539.584 493.572 539.63 493.539 539.688C493.506 539.745 493.492 539.812 493.498 539.878C493.47 540.048 493.485 540.223 493.541 540.386C493.597 540.549 493.693 540.696 493.82 540.813C494.571 541.472 496.595 541.595 499.339 541.15C497.746 540.299 496.02 539.723 494.234 539.449Z" fill="#6750A4"/>
<path d="M500.244 541.564H500.121C498.665 540.905 495.752 538.253 495.982 536.857C495.982 536.52 496.273 536.106 497.07 536.029C497.361 535.997 497.656 536.025 497.936 536.112C498.216 536.199 498.474 536.343 498.695 536.535C500.229 537.823 500.52 541.135 500.535 541.273C500.544 541.326 500.537 541.38 500.515 541.429C500.493 541.478 500.458 541.52 500.413 541.549C500.359 541.57 500.301 541.575 500.244 541.564ZM497.316 536.627H497.132C496.61 536.627 496.564 536.888 496.564 536.965C496.426 537.793 498.389 539.893 499.891 540.798C499.793 539.401 499.257 538.07 498.358 536.995C498.068 536.747 497.697 536.616 497.316 536.627Z" fill="#6750A4"/>
<path d="M495.077 146.346L492.839 145.273C492.839 145.273 493.697 147.312 495.077 146.346Z" fill="#263238"/>
<path d="M530.494 259.436L532.028 263.806C532.227 264.143 531.828 264.527 531.261 264.573L479.898 268.314C479.453 268.314 479.07 268.145 479.024 267.869L478.242 263.423C478.242 263.116 478.564 262.825 479.055 262.794L529.651 259.114C529.807 259.091 529.967 259.108 530.115 259.165C530.263 259.221 530.393 259.315 530.494 259.436Z" fill="white"/>
<path d="M524.086 265.585L525.435 265.477C525.711 265.477 525.91 265.309 525.879 265.14L524.821 259.375C524.821 259.206 524.546 259.099 524.27 259.114L522.92 259.206C522.644 259.206 522.445 259.39 522.476 259.559L523.534 265.309C523.564 265.477 523.81 265.6 524.086 265.585Z" fill="#6750A4"/>
<path d="M483.762 268.513L485.111 268.421C485.387 268.421 485.586 268.237 485.556 268.068L484.498 262.319C484.498 262.15 484.222 262.027 483.946 262.043L482.597 262.135C482.321 262.135 482.121 262.319 482.152 262.487L483.21 268.237C483.241 268.406 483.486 268.528 483.762 268.513Z" fill="#6750A4"/>
<path d="M503.924 267.041L505.273 266.949C505.549 266.949 505.748 266.78 505.718 266.612L504.66 260.847C504.66 260.678 504.384 260.556 504.108 260.571L502.758 260.678C502.482 260.678 502.283 260.847 502.314 261.016L503.372 266.78C503.402 266.949 503.648 267.072 503.924 267.041Z" fill="#6750A4"/>
<path d="M429.179 192.634L496.794 211.355L468.568 303.394L400.937 284.673L429.179 192.634Z" fill="#6750A4"/>
<g opacity="0.3">
<path d="M429.179 192.634L496.794 211.355L468.568 303.394L400.937 284.673L429.179 192.634Z" fill="black"/>
</g>
<path d="M428.689 192.496L496.319 211.216L468.092 303.256L400.462 284.535L428.689 192.496Z" fill="#6750A4"/>
<path d="M492.271 213.455L467.556 294.056L406.12 277.053L430.835 196.452L492.271 213.455Z" fill="white"/>
<path d="M442.472 200.009C443.614 198.712 445.103 197.771 446.763 197.295C448.424 196.82 450.186 196.83 451.84 197.326L454.523 198.062C455.004 198.225 455.519 198.252 456.014 198.141C456.509 198.031 456.964 197.785 457.329 197.433C458.227 196.583 459.338 195.992 460.544 195.722C461.751 195.452 463.008 195.513 464.183 195.9C465.373 196.16 466.465 196.751 467.333 197.606C468.202 198.46 468.81 199.543 469.089 200.729C469.204 201.211 469.454 201.65 469.81 201.995C470.165 202.34 470.612 202.576 471.097 202.677L473.781 203.428C475.428 203.829 476.917 204.716 478.054 205.974C479.191 207.231 479.924 208.801 480.159 210.481C480.189 210.591 480.189 210.707 480.159 210.818C480.091 211.041 479.94 211.228 479.737 211.343C479.535 211.457 479.296 211.489 479.07 211.431L442.947 201.435C442.799 201.402 442.662 201.332 442.549 201.231C442.436 201.13 442.352 201.001 442.304 200.857C442.256 200.713 442.246 200.559 442.276 200.411C442.305 200.262 442.373 200.123 442.472 200.009Z" fill="#6750A4"/>
<path opacity="0.4" d="M442.472 200.009C443.614 198.712 445.103 197.771 446.763 197.295C448.424 196.82 450.186 196.83 451.84 197.326L454.523 198.062C455.004 198.225 455.519 198.252 456.014 198.141C456.509 198.031 456.964 197.785 457.329 197.433C458.227 196.583 459.338 195.992 460.544 195.722C461.751 195.452 463.008 195.513 464.183 195.9C465.373 196.16 466.465 196.751 467.333 197.606C468.202 198.46 468.81 199.543 469.089 200.729C469.204 201.211 469.454 201.65 469.81 201.995C470.165 202.34 470.612 202.576 471.097 202.677L473.781 203.428C475.428 203.829 476.917 204.716 478.054 205.974C479.191 207.231 479.924 208.801 480.159 210.481C480.189 210.591 480.189 210.707 480.159 210.818C480.091 211.041 479.94 211.228 479.737 211.343C479.535 211.457 479.296 211.489 479.07 211.431L442.947 201.435C442.799 201.402 442.662 201.332 442.549 201.231C442.436 201.13 442.352 201.001 442.304 200.857C442.256 200.713 442.246 200.559 442.276 200.411C442.305 200.262 442.373 200.123 442.472 200.009Z" fill="#FAFAFA"/>
<path d="M485.448 220.247L484.559 223.13L431.878 208.549L432.767 205.666L485.448 220.247Z" fill="#E0E0E0"/>
<path d="M483.302 227.223L482.428 230.106L432.675 216.337L433.549 213.44L483.302 227.223Z" fill="#E0E0E0"/>
<path d="M481.171 234.199L480.281 237.082L453.941 229.784L454.83 226.901L481.171 234.199Z" fill="#E0E0E0"/>
<path d="M450.583 225.721L449.694 228.619L435.772 224.755L436.646 221.873L450.583 225.721Z" fill="#E0E0E0"/>
<path d="M479.024 241.16L478.15 244.058L425.453 229.477L426.343 226.579L479.024 241.16Z" fill="#E0E0E0"/>
<path d="M476.893 248.136L476.004 251.034L430.13 238.324L431.019 235.441L476.893 248.136Z" fill="#E0E0E0"/>
<path d="M472.615 262.089L471.726 264.971L419.045 250.39L419.934 247.508L472.615 262.089Z" fill="#E0E0E0"/>
<path d="M470.469 269.065L469.595 271.947L425.07 259.636L425.959 256.738L470.469 269.065Z" fill="#E0E0E0"/>
<path d="M434.392 281.208C426.051 281.208 422.663 276.608 421.344 273.542C418.447 266.872 420.746 256.906 426.174 252.613C429.608 249.915 433.564 249.976 437.321 252.797C437.423 252.866 437.51 252.955 437.577 253.058C437.644 253.161 437.69 253.277 437.71 253.399C437.731 253.52 437.726 253.645 437.697 253.764C437.668 253.884 437.614 253.997 437.54 254.095C437.466 254.193 437.372 254.275 437.265 254.336C437.158 254.397 437.039 254.436 436.917 254.449C436.794 254.462 436.671 254.451 436.553 254.415C436.435 254.378 436.326 254.319 436.232 254.239C432.338 251.31 429.225 252.506 427.293 254.039C422.924 257.489 420.148 266.305 423 272.821C424.533 276.486 428.52 280.487 438.179 279.077C440.757 278.817 443.21 277.843 445.264 276.264C447.317 274.684 448.889 272.563 449.801 270.138C450.756 267.34 450.976 264.343 450.439 261.435C449.902 258.527 448.626 255.806 446.734 253.533C445.245 251.793 443.298 250.504 441.114 249.813C438.93 249.122 436.596 249.056 434.377 249.624C434.145 249.674 433.903 249.632 433.702 249.506C433.501 249.38 433.358 249.18 433.303 248.949C433.253 248.713 433.297 248.467 433.426 248.264C433.555 248.06 433.759 247.915 433.993 247.861C436.526 247.216 439.188 247.293 441.679 248.084C444.169 248.876 446.388 250.349 448.084 252.338C450.175 254.858 451.585 257.873 452.181 261.094C452.777 264.314 452.538 267.634 451.487 270.736C450.472 273.471 448.712 275.868 446.406 277.656C444.101 279.444 441.342 280.552 438.44 280.855C437.101 281.07 435.748 281.188 434.392 281.208Z" fill="#6750A4"/>
<path d="M435.435 277.697C435.308 277.694 435.184 277.668 435.067 277.62C434.958 277.572 434.86 277.503 434.778 277.417C434.695 277.331 434.631 277.229 434.589 277.118C434.546 277.007 434.525 276.888 434.529 276.769C434.532 276.65 434.558 276.533 434.607 276.425C437.437 270.389 439.626 264.073 441.138 257.581C441.23 257.091 441.338 256.539 441.414 256.048C437.673 262.439 432.31 267.729 425.867 271.38C425.657 271.498 425.41 271.528 425.178 271.465C424.946 271.402 424.747 271.25 424.626 271.043C424.566 270.94 424.529 270.826 424.514 270.707C424.5 270.589 424.51 270.469 424.542 270.355C424.575 270.241 424.631 270.134 424.706 270.042C424.781 269.949 424.873 269.872 424.978 269.816C431.481 266.113 436.819 260.664 440.387 254.086C440.549 253.763 440.819 253.508 441.149 253.365C441.48 253.222 441.851 253.2 442.196 253.304C442.531 253.393 442.825 253.594 443.031 253.872C443.237 254.151 443.343 254.491 443.331 254.837C443.266 255.868 443.123 256.894 442.902 257.903C441.358 264.511 439.128 270.94 436.247 277.084C436.187 277.255 436.078 277.404 435.934 277.513C435.789 277.622 435.616 277.686 435.435 277.697Z" fill="#6750A4"/>
<path d="M440.847 270.905C440.627 270.902 440.414 270.821 440.249 270.675C436.459 267.389 432.448 264.366 428.244 261.629C428.045 261.495 427.907 261.288 427.858 261.053C427.809 260.818 427.854 260.574 427.983 260.372C428.118 260.173 428.324 260.034 428.559 259.986C428.794 259.937 429.038 259.982 429.241 260.111C433.535 262.892 437.634 265.966 441.506 269.31C441.683 269.469 441.792 269.691 441.809 269.928C441.826 270.165 441.75 270.4 441.598 270.583C441.508 270.693 441.393 270.779 441.262 270.835C441.131 270.891 440.989 270.915 440.847 270.905Z" fill="#6750A4"/>
<path d="M501.011 238.554L491.029 229.753L490.753 242.28C490.753 242.28 497.592 246.251 501.961 243.552L501.011 238.554Z" fill="#FFB573"/>
<path d="M480.68 229.14L481.017 239.642L490.753 242.28L491.029 229.753L480.68 229.14Z" fill="#FFB573"/>
<path d="M278.77 80.6626C282.757 84.787 286.743 96.3782 283.37 101.882C276.777 95.2896 275.811 79.2368 278.77 80.6626Z" fill="#263238"/>
<path d="M319.861 531.246L332.172 528.409L329.183 499.201L316.855 502.023L319.861 531.246Z" fill="#FFB573"/>
<path d="M231.409 540.982H244.027L247.6 511.774H234.981L231.409 540.982Z" fill="#FFB573"/>
<path d="M245.668 539.525H230.336C230.086 539.526 229.844 539.611 229.649 539.767C229.454 539.923 229.318 540.14 229.263 540.384L226.656 551.592C226.593 551.863 226.592 552.146 226.655 552.417C226.718 552.689 226.842 552.943 227.019 553.159C227.195 553.375 227.418 553.548 227.672 553.664C227.925 553.781 228.202 553.837 228.481 553.83C233.433 553.753 237.036 553.462 243.276 553.462C247.109 553.462 258.608 553.861 263.959 553.861C269.31 553.861 270 548.617 267.838 548.142C258.133 546.026 250.85 543.098 247.753 540.292C247.178 539.785 246.435 539.511 245.668 539.525Z" fill="#263238"/>
<path d="M331.774 527.014L318.327 530.08C318.081 530.139 317.861 530.277 317.703 530.474C317.545 530.672 317.457 530.916 317.453 531.169V542.653C317.45 542.93 317.51 543.205 317.629 543.456C317.748 543.706 317.924 543.926 318.142 544.098C318.36 544.27 318.614 544.389 318.886 544.447C319.157 544.505 319.438 544.5 319.707 544.431C324.537 543.235 331.482 541.365 337.585 539.939C344.714 538.299 351.568 536.873 359.924 534.91C364.983 533.76 365.259 528.333 362.99 528.348C352.886 528.471 344.361 530.479 334.901 527.275C333.903 526.9 332.82 526.81 331.774 527.014Z" fill="#263238"/>
<path d="M306.644 151.958C308.346 155.024 309.941 158.274 311.551 161.448C313.16 164.622 314.755 167.811 316.304 171.015C319.37 177.424 322.436 183.879 325.35 190.441C326.883 193.722 328.201 197.019 329.612 200.453C329.939 201.368 330.318 202.264 330.746 203.136C331.068 203.765 331.237 203.98 331.39 204.24C331.544 204.501 331.958 204.777 332.832 204.823C333.958 204.882 335.085 204.737 336.159 204.394C337.542 203.992 338.891 203.48 340.191 202.86C340.881 202.538 341.586 202.186 342.276 201.818L344.254 200.745L351 207.383C350.28 208.349 349.728 209.085 349.038 209.867C348.382 210.654 347.68 211.401 346.937 212.106C345.407 213.607 343.727 214.948 341.924 216.107C339.853 217.448 337.581 218.448 335.193 219.067C333.786 219.402 332.346 219.582 330.9 219.603C329.296 219.583 327.702 219.346 326.162 218.898C323.131 217.955 320.399 216.237 318.235 213.915C316.478 212.014 315.001 209.871 313.85 207.552C312.317 204.486 310.661 201.419 309.051 198.353L299.223 179.647C295.993 173.341 292.794 167.024 289.625 160.697L306.644 151.958Z" fill="#FFB573"/>
<path d="M284.213 152.433C280.733 164.009 304.452 195.486 304.452 195.486L328.707 179.877C324.232 169.868 318.685 160.373 312.164 151.559C302.367 138.986 288.031 139.722 284.213 152.433Z" fill="#6750A4"/>
<path opacity="0.2" d="M299.76 168.271C305.893 171.077 312.47 181.472 313.436 189.736L304.452 195.516C298.792 187.891 293.708 179.855 289.242 171.475C291.097 168.501 292.738 165.067 299.76 168.271Z" fill="black"/>
<path opacity="0.2" d="M329.183 499.201L330.731 514.258L318.404 517.094L316.855 502.038L329.183 499.201Z" fill="black"/>
<path opacity="0.2" d="M234.982 511.774H247.6L245.745 526.83H233.126L234.982 511.774Z" fill="black"/>
<path d="M228.021 147.496C231.693 161.078 234.342 174.915 235.947 188.893C237.113 198.659 237.803 207.981 238.232 216.491C239.244 236.315 238.769 251.433 239.351 256.539L306.66 251.341C315.982 179.525 298.564 142.697 298.564 142.697C293.241 141.745 287.865 141.12 282.465 140.826C281.315 140.826 280.165 140.734 278.985 140.719C269.409 140.904 259.851 141.641 250.36 142.927C248.566 143.157 246.741 143.433 244.978 143.739C235.963 145.242 228.021 147.496 228.021 147.496Z" fill="#6750A4"/>
<path d="M272.039 153.077C276.01 162.69 272.806 163.641 276.102 176.566C278.05 179.111 279.89 181.687 281.637 184.232C282.527 181.4 283.293 178.59 283.937 175.799C281.039 162.859 276.792 159.118 275.964 152.249" fill="#263238"/>
<path d="M275.428 158.075L277.927 151.574L273.235 149.934L269.97 152.279L275.428 158.075Z" fill="#263238"/>
<path opacity="0.5" d="M244.978 143.709C259.896 156.91 272.285 170.418 281.637 184.263C286.39 169.298 287.479 154.794 284.014 140.888C288.893 141.212 293.75 141.806 298.564 142.666C298.564 142.666 315.982 179.464 306.66 251.31L239.351 256.508C238.769 251.402 239.244 236.285 238.232 216.46C237.803 208.012 237.113 198.69 235.947 188.862C234.342 174.885 231.693 161.047 228.021 147.465C228.021 147.465 235.963 145.242 244.978 143.709Z" fill="black"/>
<path d="M251.034 110.484C253.457 119.545 256.401 136.257 250.375 142.896C253.418 145.636 257.017 147.686 260.925 148.906C264.834 150.125 268.96 150.487 273.021 149.964C280.932 149.167 280.963 143.617 278.985 140.688C268.544 139.032 268.252 131.397 269.602 124.114L251.034 110.484Z" fill="#FFB573"/>
<path d="M273.235 149.934C273.235 149.934 265.462 156.327 263.055 162.629C257.612 160.313 247.523 148.983 247.416 142.099C248.643 140.759 250.123 139.676 251.77 138.91C258.298 143.694 265.543 147.415 273.235 149.934Z" fill="#6750A4"/>
<path opacity="0.2" d="M273.235 149.934C273.235 149.934 265.462 156.327 263.055 162.629C257.612 160.313 247.523 148.983 247.416 142.099C248.643 140.759 250.123 139.676 251.77 138.91C258.298 143.694 265.543 147.415 273.235 149.934Z" fill="#FAFAFA"/>
<path d="M273.235 149.934C273.235 149.934 282.573 154.089 286.743 161.372C292.217 159.056 283.677 141.317 279.675 139.676C278.024 138.698 276.078 138.339 274.186 138.665C274.186 138.665 279.046 147.941 273.235 149.934Z" fill="#6750A4"/>
<path opacity="0.2" d="M273.235 149.934C273.235 149.934 282.573 154.089 286.743 161.372C292.217 159.056 283.677 141.317 279.675 139.676C278.024 138.698 276.078 138.339 274.186 138.665C274.186 138.665 279.046 147.941 273.235 149.934Z" fill="#FAFAFA"/>
<path opacity="0.2" d="M258.608 116.05L269.602 124.099C269.266 125.796 269.087 127.521 269.065 129.251C265.094 128.99 259.421 125.096 258.731 121.033C258.381 119.394 258.34 117.704 258.608 116.05Z" fill="black"/>
<path d="M248.995 96.7308C250.528 109.119 250.912 116.463 257.643 122.382C267.762 131.259 282.772 124.359 284.903 111.649C286.82 100.242 283.876 81.8892 271.334 77.9182C268.555 77.0291 265.596 76.8595 262.734 77.4253C259.871 77.991 257.199 79.2736 254.968 81.1531C252.736 83.0326 251.017 85.4475 249.973 88.1719C248.928 90.8962 248.592 93.841 248.995 96.7308Z" fill="#FFB573"/>
<path d="M278.924 82.4719C275.627 84.9404 266.183 84.1431 260.372 82.4719C254.561 80.8007 250.344 92.0085 254.913 98.6474C259.482 105.286 261.353 105.746 255.665 109.38C249.976 113.014 234 97.2215 241.866 85.5537C241.452 75.7104 261.874 69.1329 272.791 73.7325C283.707 78.3322 278.924 82.4719 278.924 82.4719Z" fill="#263238"/>
<path d="M244.901 107.433C245.472 108.877 246.324 110.193 247.409 111.304C248.493 112.415 249.788 113.298 251.218 113.903C255.051 115.436 257.505 112.17 256.891 108.261C256.339 104.75 253.671 99.7053 249.593 99.7667C248.703 99.7964 247.834 100.047 247.064 100.495C246.294 100.944 245.648 101.576 245.183 102.336C244.717 103.096 244.448 103.959 244.399 104.849C244.35 105.739 244.523 106.626 244.901 107.433Z" fill="#FFB573"/>
<path d="M334.717 510.363L313.85 515.162C313.85 515.162 299.852 439.283 296.249 400.171C295.145 388.273 292.033 371.729 288.123 354.021C283.171 331.697 276.961 307.58 271.871 288.706C266.504 268.774 262.411 254.729 262.411 254.729L306.644 251.31C306.644 251.31 333.23 355.677 334.442 394.145C335.775 434.132 334.717 510.363 334.717 510.363Z" fill="#263238"/>
<path opacity="0.2" d="M288.123 354.021C283.171 331.697 276.961 307.579 271.871 288.706L276.471 278.77C287.433 291.726 290.285 332.065 288.123 354.021Z" fill="black"/>
<path d="M282.787 253.15C282.787 253.15 277.774 361.166 272.361 397.779C266.443 437.873 251.602 523.917 251.602 523.917H228.45C228.45 523.917 228.067 442.656 235.395 403.866C243.736 359.617 239.29 256.523 239.29 256.523L282.787 253.15Z" fill="#263238"/>
<path d="M254.377 524.423H227.162L227.254 516.297L257.658 515.76L254.377 524.423Z" fill="#6750A4"/>
<path d="M337.447 510.241L312.593 515.96L310.815 507.941L338.505 501.133L337.447 510.241Z" fill="#6750A4"/>
<path d="M268.145 98.7395C268.145 99.7514 268.804 100.533 269.464 100.487C270.123 100.441 270.614 99.5674 270.537 98.5555C270.46 97.5435 269.878 96.7616 269.218 96.8076C268.559 96.8536 268.068 97.7275 268.145 98.7395Z" fill="#263238"/>
<path d="M279.614 97.8501C279.614 98.862 280.273 99.6439 280.947 99.5979C281.622 99.5519 282.082 98.678 282.021 97.6661C281.959 96.6541 281.361 95.8722 280.687 95.9182C280.012 95.9642 279.552 96.8381 279.614 97.8501Z" fill="#263238"/>
<path d="M276.731 107.816C275.169 107.49 273.549 107.576 272.03 108.065C270.512 108.554 269.146 109.43 268.068 110.607C272.423 111.557 283.707 110.453 283.707 110.453C283.057 109.247 281.993 108.316 280.712 107.832C279.43 107.347 278.017 107.342 276.731 107.816Z" fill="#263238"/>
<path d="M275.98 98.6475C277.439 101.546 279.291 104.229 281.484 106.62C280.819 107.145 280.05 107.523 279.228 107.729C278.406 107.936 277.55 107.965 276.716 107.816L275.98 98.6475Z" fill="#ED893E"/>
<path d="M270.706 114.823C271.144 114.861 271.585 114.861 272.024 114.823C272.101 114.823 272.175 114.792 272.23 114.738C272.285 114.683 272.315 114.609 272.315 114.532C272.315 114.454 272.285 114.38 272.23 114.326C272.175 114.271 272.101 114.24 272.024 114.24C270.767 114.366 269.497 114.192 268.32 113.734C267.142 113.276 266.089 112.546 265.247 111.603C265.22 111.576 265.188 111.554 265.152 111.539C265.117 111.524 265.079 111.517 265.04 111.517C265.002 111.517 264.964 111.524 264.928 111.539C264.893 111.554 264.86 111.576 264.833 111.603C264.777 111.66 264.746 111.738 264.746 111.818C264.746 111.898 264.777 111.975 264.833 112.032C265.575 112.867 266.478 113.544 267.486 114.023C268.495 114.503 269.59 114.775 270.706 114.823Z" fill="#263238"/>
<path d="M264.358 95.3203C264.463 95.3216 264.567 95.2972 264.661 95.2491C264.754 95.201 264.835 95.1307 264.895 95.0443C265.288 94.4034 265.825 93.8631 266.464 93.4665C267.103 93.0699 267.826 92.8279 268.574 92.7598C268.733 92.7598 268.885 92.6968 268.997 92.5847C269.109 92.4726 269.172 92.3205 269.172 92.1619C269.174 92.0828 269.16 92.0041 269.131 91.9306C269.102 91.8571 269.058 91.7903 269.002 91.7344C268.946 91.6784 268.879 91.6344 268.806 91.6051C268.732 91.5758 268.653 91.5618 268.574 91.5639C267.639 91.6412 266.734 91.9384 265.935 92.4313C265.136 92.9242 264.464 93.5989 263.975 94.4004C263.887 94.5326 263.856 94.694 263.888 94.8492C263.919 95.0045 264.011 95.1408 264.143 95.2283C264.211 95.268 264.283 95.2989 264.358 95.3203Z" fill="#263238"/>
<path d="M284.29 93.5265C284.4 93.5564 284.517 93.5564 284.627 93.5265C284.766 93.4461 284.868 93.3143 284.911 93.1595C284.954 93.0047 284.935 92.8391 284.857 92.6985C284.402 91.864 283.754 91.1502 282.968 90.6168C282.181 90.0834 281.278 89.7458 280.334 89.6321C280.177 89.6277 280.023 89.6842 279.906 89.7898C279.789 89.8955 279.717 90.0421 279.706 90.1994C279.699 90.2784 279.709 90.3578 279.735 90.4329C279.76 90.508 279.801 90.577 279.854 90.6359C279.907 90.6947 279.971 90.7421 280.044 90.7751C280.116 90.8082 280.194 90.8261 280.273 90.828C281.017 90.9151 281.729 91.1827 282.346 91.6076C282.963 92.0325 283.467 92.6017 283.815 93.2658C283.868 93.3436 283.938 93.4078 284.021 93.4531C284.104 93.4984 284.196 93.5235 284.29 93.5265Z" fill="#263238"/>
<path d="M249.823 541.718C250.685 541.788 251.546 541.56 252.261 541.074C252.481 540.887 252.653 540.651 252.763 540.384C252.872 540.117 252.916 539.828 252.89 539.54C252.888 539.367 252.841 539.198 252.752 539.05C252.663 538.901 252.536 538.78 252.384 538.697C251.004 537.977 246.91 540.491 246.45 540.767C246.398 540.798 246.357 540.843 246.332 540.898C246.308 540.953 246.301 541.015 246.312 541.074C246.317 541.132 246.341 541.187 246.379 541.231C246.418 541.275 246.469 541.306 246.527 541.319C247.607 541.576 248.713 541.71 249.823 541.718ZM251.724 539.111C251.856 539.108 251.987 539.134 252.108 539.188C252.168 539.224 252.216 539.276 252.249 539.338C252.281 539.401 252.296 539.47 252.292 539.54C252.318 539.742 252.294 539.947 252.222 540.137C252.15 540.327 252.031 540.496 251.878 540.629C251.188 541.196 249.532 541.273 247.401 540.844C248.718 539.995 250.186 539.407 251.724 539.111Z" fill="#6750A4"/>
<path d="M246.603 541.227C246.648 541.241 246.696 541.241 246.741 541.227C248.06 540.522 250.605 537.747 250.344 536.351C250.308 536.131 250.193 535.93 250.022 535.787C249.85 535.644 249.633 535.566 249.409 535.569C249.182 535.534 248.949 535.55 248.729 535.616C248.509 535.682 248.306 535.797 248.136 535.953C246.603 537.149 246.312 540.782 246.297 540.936C246.295 540.989 246.306 541.043 246.33 541.091C246.354 541.139 246.39 541.181 246.435 541.212C246.488 541.232 246.547 541.238 246.603 541.227ZM249.194 536.121H249.332C249.716 536.121 249.746 536.351 249.762 536.428C249.915 537.256 248.228 539.341 246.971 540.338C247.079 538.896 247.613 537.52 248.504 536.382C248.701 536.229 248.946 536.153 249.194 536.167V536.121Z" fill="#6750A4"/>
<path d="M333.368 528.425C335.438 528.425 339.087 528.041 340.176 526.539C340.332 526.319 340.434 526.066 340.474 525.8C340.514 525.533 340.49 525.261 340.406 525.006C340.362 524.848 340.278 524.705 340.163 524.589C340.047 524.474 339.904 524.39 339.746 524.346C338.06 523.84 333.614 527.505 333.169 527.919C333.136 527.969 333.118 528.027 333.118 528.087C333.118 528.147 333.136 528.206 333.169 528.256C333.184 528.299 333.211 528.337 333.246 528.367C333.281 528.397 333.323 528.416 333.368 528.425ZM339.501 524.883H339.624C339.688 524.901 339.747 524.936 339.792 524.985C339.838 525.033 339.87 525.093 339.884 525.159C339.941 525.328 339.957 525.507 339.93 525.683C339.904 525.859 339.835 526.026 339.731 526.171C339.118 527.014 337.125 527.597 334.304 527.781C336.036 526.416 338.489 524.775 339.486 524.883H339.501Z" fill="#6750A4"/>
<path d="M333.368 528.425C333.438 528.45 333.514 528.45 333.583 528.425C334.917 527.428 337.278 524.086 336.741 522.752C336.619 522.43 336.297 522.092 335.484 522.184C335.182 522.218 334.891 522.312 334.627 522.463C334.363 522.613 334.133 522.816 333.951 523.058C332.663 524.699 333.062 528.087 333.092 528.225C333.096 528.277 333.113 528.328 333.143 528.371C333.173 528.414 333.213 528.449 333.261 528.471L333.368 528.425ZM335.852 522.706C336.113 522.706 336.174 522.859 336.189 522.92C336.511 523.718 334.963 526.263 333.644 527.52C333.482 526.086 333.76 524.637 334.442 523.365C334.568 523.185 334.733 523.034 334.923 522.922C335.114 522.811 335.326 522.743 335.545 522.721L335.852 522.706Z" fill="#6750A4"/>
<path d="M237.649 166.569C235.641 169.866 233.494 173.438 231.516 176.918C229.539 180.399 227.53 183.956 225.675 187.498C223.82 191.039 222.01 194.566 220.431 198.108C218.865 201.477 217.548 204.956 216.491 208.518C216.083 209.933 215.791 211.379 215.617 212.842C215.617 213.394 215.617 213.838 215.617 214.007H215.51C215.433 214.007 215.433 214.114 215.51 214.329C215.782 214.644 216.103 214.913 216.46 215.126C217.695 215.828 219.014 216.369 220.385 216.736C223.956 217.657 227.606 218.237 231.286 218.469C233.234 218.622 235.211 218.714 237.205 218.806C239.198 218.898 241.268 218.883 243.154 218.929L244.886 228.235C242.648 229.002 240.593 229.539 238.401 230.06C236.231 230.601 234.036 231.031 231.823 231.348C227.16 232.098 222.421 232.258 217.717 231.823C214.951 231.564 212.236 230.913 209.653 229.891C208.088 229.262 206.601 228.455 205.222 227.484C202.709 225.692 200.74 223.241 199.533 220.401C199.131 219.44 198.818 218.444 198.598 217.426C198.237 215.759 198.063 214.057 198.077 212.351C198.121 209.637 198.445 206.934 199.043 204.286C200.103 199.731 201.518 195.266 203.274 190.932C204.961 186.777 206.77 182.775 208.702 178.866C210.634 174.956 212.673 171.2 214.835 167.412C216.997 163.625 219.143 160.022 221.627 156.281L237.649 166.569Z" fill="#FFB573"/>
<path d="M228.021 147.496C216.475 151.083 202.354 184.293 202.354 184.293L230.443 197.249C235.825 188.069 240.366 178.421 244.012 168.424C249.578 152.325 242.004 143.141 228.021 147.496Z" fill="#6750A4"/>
<path d="M240.24 220.078L250.268 212.152L253.978 227.898C253.978 227.898 243.951 232.727 240.823 227.652L240.24 220.078Z" fill="#FFB573"/>
<path d="M260.755 212.09L263.208 225.261L253.978 227.898L250.268 212.152L260.755 212.09Z" fill="#FFB573"/>
<path d="M343.748 200.699L354.082 193.032L356.796 207.031C356.796 207.031 347.167 213.286 344.147 208.196L343.748 200.699Z" fill="#FFB573"/>
<path d="M366.762 191.913L365.014 204.746L356.796 207.061L354.082 193.063L366.762 191.913Z" fill="#FFB573"/>
</svg>
