<svg width="767" height="572" viewBox="0 0 767 572" fill="none" xmlns="http://www.w3.org/2000/svg">
<path d="M766.61 501.977H0V502.36H766.61V501.977Z" fill="#EBEBEB"/>
<path d="M665.096 518.29H614.316V518.673H665.096V518.29Z" fill="#EBEBEB"/>
<path d="M480.006 518.106H466.682V518.489H480.006V518.106Z" fill="#EBEBEB"/>
<path d="M689.796 526.646H660.374V527.029H689.796V526.646Z" fill="#EBEBEB"/>
<path d="M175.707 531.736H109.487V532.12H175.707V531.736Z" fill="#EBEBEB"/>
<path d="M170.019 514.994H160.313V515.377H170.019V514.994Z" fill="#EBEBEB"/>
<path d="M380.929 516.634H287.556V517.017H380.929V516.634Z" fill="#EBEBEB"/>
<path d="M363.373 433.595H67.3238C65.0046 433.591 62.7817 432.667 61.1432 431.025C59.5047 429.384 58.5845 427.159 58.5845 424.84V8.67803C58.6047 6.37211 59.5338 4.16726 61.1702 2.54242C62.8065 0.917569 65.0178 0.00395017 67.3238 0H363.373C365.695 0 367.922 0.922367 369.564 2.56419C371.206 4.20601 372.128 6.4328 372.128 8.75469V424.84C372.128 427.162 371.206 429.389 369.564 431.031C367.922 432.673 365.695 433.595 363.373 433.595ZM67.3238 0.306645C65.1063 0.310707 62.9809 1.19448 61.4143 2.76398C59.8477 4.33348 58.9678 6.46045 58.9678 8.67803V424.84C58.9678 427.058 59.8477 429.185 61.4143 430.754C62.9809 432.324 65.1063 433.208 67.3238 433.212H363.373C365.592 433.208 367.719 432.324 369.288 430.755C370.858 429.186 371.741 427.059 371.745 424.84V8.67803C371.741 6.45905 370.858 4.3321 369.288 2.76304C367.719 1.19398 365.592 0.310698 363.373 0.306645H67.3238Z" fill="#EBEBEB"/>
<path d="M695.024 433.595H398.96C396.639 433.591 394.414 432.667 392.774 431.026C391.133 429.385 390.209 427.161 390.205 424.84V8.67803C390.229 6.37071 391.162 4.16588 392.8 2.54146C394.439 0.917033 396.652 0.00390709 398.96 0H695.024C697.328 0.00797964 699.535 0.923381 701.168 2.5478C702.801 4.17221 703.728 6.37475 703.749 8.67803V424.84C703.749 427.157 702.83 429.379 701.195 431.02C699.56 432.661 697.341 433.587 695.024 433.595ZM398.96 0.306645C396.741 0.310698 394.614 1.19398 393.045 2.76304C391.475 4.3321 390.592 6.45905 390.588 8.67803V424.84C390.592 427.059 391.475 429.186 393.045 430.755C394.614 432.324 396.741 433.208 398.96 433.212H695.024C697.243 433.208 699.37 432.324 700.939 430.755C702.509 429.186 703.392 427.059 703.396 424.84V8.67803C703.392 6.45905 702.509 4.3321 700.939 2.76304C699.37 1.19398 697.243 0.310698 695.024 0.306645H398.96Z" fill="#EBEBEB"/>
<path d="M657.583 63.368H109.027V291.649H657.583V63.368Z" fill="#F0F0F0"/>
<path d="M646.851 280.932V74.1158L119.76 74.1158V280.932H646.851Z" fill="#FAFAFA"/>
<path d="M189.154 280.917L243.215 74.1006H283.079L229.017 280.917H189.154Z" fill="white"/>
<path d="M238.217 280.917L292.278 74.1006H310.109L256.048 280.917H238.217Z" fill="white"/>
<path d="M325.457 280.917L379.533 74.1006H419.397L365.321 280.917H325.457Z" fill="white"/>
<path d="M425.975 280.917L480.036 74.1006H497.883L443.806 280.917H425.975Z" fill="white"/>
<path d="M260.969 280.932V74.1158H258.24V280.932H260.969Z" fill="#E0E0E0"/>
<path d="M122.489 280.932L122.489 74.116H119.76L119.76 280.932H122.489Z" fill="#E0E0E0"/>
<path d="M258.24 280.932V74.1158H247.508V280.932H258.24Z" fill="#F0F0F0"/>
<path d="M394.038 280.932V74.1158H391.309V280.932H394.038Z" fill="#E0E0E0"/>
<path d="M391.309 280.932V74.1158H380.576V280.932H391.309Z" fill="#F0F0F0"/>
<path d="M527.167 280.917V74.1006H524.438V280.917H527.167Z" fill="#E0E0E0"/>
<path d="M524.438 280.917V74.1006H513.706V280.917H524.438Z" fill="#F0F0F0"/>
<path d="M660.312 291.649V63.368H657.583V291.649H660.312Z" fill="#E0E0E0"/>
<path d="M666.445 47.6985H100.165C99.5363 47.6945 98.9341 47.4428 98.4893 46.998C98.0445 46.5532 97.7928 45.951 97.7888 45.322C97.7888 44.6903 98.0387 44.0842 98.4839 43.6361C98.9292 43.188 99.5336 42.9342 100.165 42.9302H666.445C667.077 42.9342 667.681 43.188 668.127 43.6361C668.572 44.0842 668.822 44.6903 668.822 45.322C668.818 45.951 668.566 46.5532 668.121 46.998C667.676 47.4428 667.074 47.6945 666.445 47.6985Z" fill="#E0E0E0"/>
<g opacity="0.6">
<path d="M218.239 38.3306H102.388V454.861H218.239V38.3306Z" fill="#F5F5F5"/>
<path d="M165.158 458.265H155.453L158.182 41.7344H162.521L165.158 458.265Z" fill="#E6E6E6"/>
<path d="M133.007 458.265H128.315L129.634 41.7344H131.734L133.007 458.265Z" fill="#E6E6E6"/>
<path d="M197.402 458.265H192.71L194.029 41.7344H196.13L197.402 458.265Z" fill="#E6E6E6"/>
</g>
<g opacity="0.6">
<path d="M662.842 38.3306H546.992V454.861H662.842V38.3306Z" fill="#F5F5F5"/>
<path d="M592.391 458.265H582.685L585.414 41.7344H589.753L592.391 458.265Z" fill="#E6E6E6"/>
<path d="M570.971 458.265H566.295L567.598 41.7344H569.699L570.971 458.265Z" fill="#E6E6E6"/>
<path d="M620.541 458.265H615.864L617.183 41.7344H619.268L620.541 458.265Z" fill="#E6E6E6"/>
<path d="M644.398 458.265H639.721L641.024 41.7344H643.125L644.398 458.265Z" fill="#E6E6E6"/>
</g>
<path d="M498.619 499.37H520.391V374.597H498.619V499.37Z" fill="#E6E6E6"/>
<path d="M246.22 499.37L507.005 499.37V374.597H246.22V499.37Z" fill="#F0F0F0"/>
<path d="M501.149 499.37H493.299H257.474V501.977H493.299H501.149H509.137V499.37H501.149Z" fill="#E0E0E0"/>
<path opacity="0.5" d="M253.656 432.752L499.569 432.752V382.401H253.656V432.752Z" fill="#FAFAFA"/>
<path opacity="0.5" d="M253.656 491.229L499.569 491.229V440.878H253.656V491.229Z" fill="#FAFAFA"/>
<path d="M290.929 407.576C290.929 408.671 290.604 409.741 289.996 410.651C289.388 411.561 288.523 412.271 287.512 412.69C286.501 413.109 285.388 413.218 284.314 413.005C283.24 412.791 282.254 412.264 281.48 411.49C280.706 410.716 280.179 409.73 279.965 408.656C279.752 407.582 279.861 406.469 280.28 405.458C280.699 404.447 281.409 403.582 282.319 402.974C283.229 402.366 284.299 402.041 285.394 402.041C286.121 402.041 286.84 402.184 287.512 402.463C288.183 402.741 288.794 403.148 289.308 403.662C289.822 404.176 290.229 404.787 290.507 405.458C290.786 406.13 290.929 406.849 290.929 407.576Z" fill="#E0E0E0"/>
<path d="M473.351 407.576C473.351 408.671 473.027 409.741 472.419 410.651C471.81 411.561 470.946 412.271 469.935 412.69C468.923 413.109 467.81 413.218 466.737 413.005C465.663 412.791 464.677 412.264 463.903 411.49C463.129 410.716 462.601 409.73 462.388 408.656C462.174 407.582 462.284 406.469 462.703 405.458C463.122 404.447 463.831 403.582 464.741 402.974C465.652 402.366 466.722 402.041 467.816 402.041C468.543 402.041 469.263 402.184 469.935 402.463C470.606 402.741 471.216 403.148 471.73 403.662C472.244 404.176 472.652 404.787 472.93 405.458C473.208 406.13 473.351 406.849 473.351 407.576Z" fill="#E0E0E0"/>
<path d="M285.394 471.588C288.451 471.588 290.929 469.11 290.929 466.053C290.929 462.996 288.451 460.518 285.394 460.518C282.337 460.518 279.859 462.996 279.859 466.053C279.859 469.11 282.337 471.588 285.394 471.588Z" fill="#E0E0E0"/>
<path d="M473.351 466.099C473.351 467.194 473.027 468.264 472.419 469.174C471.81 470.084 470.946 470.794 469.935 471.213C468.923 471.632 467.81 471.741 466.737 471.528C465.663 471.314 464.677 470.787 463.903 470.013C463.129 469.239 462.601 468.253 462.388 467.179C462.174 466.105 462.284 464.992 462.703 463.981C463.122 462.97 463.831 462.105 464.741 461.497C465.652 460.889 466.722 460.564 467.816 460.564C469.284 460.564 470.692 461.147 471.73 462.185C472.768 463.223 473.351 464.631 473.351 466.099Z" fill="#E0E0E0"/>
<path d="M382.14 407.576C382.14 408.671 381.815 409.741 381.207 410.651C380.599 411.561 379.734 412.271 378.723 412.69C377.712 413.109 376.599 413.218 375.525 413.005C374.452 412.791 373.465 412.264 372.691 411.49C371.917 410.716 371.39 409.73 371.176 408.656C370.963 407.582 371.072 406.469 371.491 405.458C371.91 404.447 372.62 403.582 373.53 402.974C374.44 402.366 375.51 402.041 376.605 402.041C377.332 402.041 378.052 402.184 378.723 402.463C379.395 402.741 380.005 403.148 380.519 403.662C381.033 404.176 381.44 404.787 381.719 405.458C381.997 406.13 382.14 406.849 382.14 407.576Z" fill="#E0E0E0"/>
<path d="M376.605 471.588C379.662 471.588 382.14 469.11 382.14 466.053C382.14 462.996 379.662 460.518 376.605 460.518C373.548 460.518 371.07 462.996 371.07 466.053C371.07 469.11 373.548 471.588 376.605 471.588Z" fill="#E0E0E0"/>
<path d="M490.876 353.407C490.876 359.027 488.644 364.417 484.67 368.39C480.696 372.364 475.307 374.597 469.687 374.597C464.067 374.597 458.678 372.364 454.704 368.39C450.73 364.417 448.498 359.027 448.498 353.407H490.876Z" fill="#F0F0F0"/>
<path d="M323.341 349.574C323.341 356.199 320.71 362.551 316.026 367.235C311.342 371.919 304.989 374.551 298.365 374.551C291.741 374.551 285.388 371.919 280.704 367.235C276.02 362.551 273.389 356.199 273.389 349.574H323.341Z" fill="#F0F0F0"/>
<path d="M430.712 359.893C430.712 363.793 429.163 367.533 426.406 370.29C423.648 373.047 419.908 374.597 416.009 374.597C412.109 374.597 408.369 373.047 405.612 370.29C402.854 367.533 401.305 363.793 401.305 359.893H430.712Z" fill="#F0F0F0"/>
<path d="M383.305 571.217C547.486 571.217 680.582 563.446 680.582 553.861C680.582 544.275 547.486 536.505 383.305 536.505C219.124 536.505 86.0291 544.275 86.0291 553.861C86.0291 563.446 219.124 571.217 383.305 571.217Z" fill="#F5F5F5"/>
<path d="M533.791 92.5452C530.525 89.2794 524.239 76.9064 530.265 71.0801C536.29 65.2539 541.656 70.5435 542.07 73.3799C542.484 76.2164 541.38 100.119 533.791 92.5452Z" fill="#263238"/>
<path d="M532.411 537.624L518.719 537.747L514.994 506.101L528.67 505.978L532.411 537.624Z" fill="#FF8B7B"/>
<path d="M518.704 536.167L533.638 536.029C533.913 536.033 534.18 536.125 534.401 536.29C534.621 536.455 534.783 536.686 534.864 536.949L538.483 549.077C538.579 549.359 538.606 549.661 538.561 549.955C538.516 550.25 538.4 550.53 538.224 550.77C538.048 551.011 537.817 551.206 537.549 551.338C537.282 551.47 536.987 551.536 536.689 551.53C531.307 551.53 523.488 551.239 516.757 551.3C508.845 551.3 505.319 551.852 496.028 551.944C490.416 551.944 488.362 546.333 490.738 545.811C501.271 543.373 506.714 543.051 515.53 537.271C516.458 536.602 517.561 536.218 518.704 536.167Z" fill="#263238"/>
<path opacity="0.2" d="M514.994 506.116L516.925 522.43L530.602 522.307L528.685 505.993L514.994 506.116Z" fill="black"/>
<path d="M513.047 538.605C514.523 538.579 515.992 538.399 517.432 538.068C517.5 538.058 517.562 538.026 517.61 537.976C517.657 537.926 517.686 537.861 517.692 537.792C517.698 537.726 517.684 537.66 517.651 537.602C517.618 537.545 517.568 537.499 517.508 537.47C516.864 537.149 511.115 534.404 509.535 535.37C509.389 535.463 509.27 535.593 509.19 535.746C509.109 535.899 509.07 536.071 509.076 536.244C509.072 536.539 509.136 536.831 509.264 537.097C509.392 537.363 509.579 537.595 509.811 537.777C510.77 538.399 511.907 538.69 513.047 538.605ZM516.328 537.624C513.369 538.145 511.115 538.038 510.195 537.302C510.035 537.177 509.909 537.016 509.826 536.832C509.743 536.647 509.707 536.446 509.719 536.244C509.71 536.181 509.72 536.117 509.747 536.06C509.775 536.002 509.818 535.955 509.873 535.922C510.731 535.401 513.982 536.627 516.328 537.624Z" fill="#6750A4"/>
<path d="M517.37 538.16C517.443 538.155 517.512 538.128 517.569 538.084C517.616 538.049 517.651 538.001 517.67 537.947C517.689 537.892 517.691 537.833 517.677 537.777C517.677 537.532 516.603 531.644 513.353 532.012C512.494 532.104 512.249 532.549 512.203 532.886C511.973 534.419 515.484 537.394 517.232 538.13L517.37 538.16ZM513.629 532.641C515.592 532.641 516.573 535.845 516.91 537.24C515.101 536.229 512.709 533.898 512.847 532.978C512.847 532.978 512.847 532.717 513.43 532.656L513.629 532.641Z" fill="#6750A4"/>
<path d="M522.736 161.647L521.326 163.181L520.007 164.484C519.133 165.342 518.229 166.155 517.324 166.952C515.525 168.567 513.685 170.101 511.805 171.552C508.009 174.569 504.014 177.324 499.845 179.801C497.745 181.043 495.583 182.223 493.391 183.343C491.198 184.462 488.883 185.428 486.552 186.409C481.773 188.316 476.795 189.678 471.711 190.472L470.576 190.641C469.839 190.736 469.096 190.782 468.353 190.779C466.646 190.763 464.956 190.43 463.37 189.797C461.797 189.166 460.357 188.245 459.123 187.084C458.14 186.147 457.285 185.085 456.578 183.925C455.599 182.243 454.861 180.431 454.385 178.544C454.014 177.082 453.742 175.596 453.573 174.097C453.294 171.506 453.217 168.896 453.343 166.293C453.45 163.809 453.65 161.417 453.925 159.072C454.508 154.365 455.336 149.872 456.348 145.273C457.36 140.673 458.51 136.426 459.997 131.98L470.07 133.973C469.702 142.59 469.288 151.421 469.564 159.762C469.615 163.635 470.025 167.495 470.791 171.291C470.942 171.993 471.152 172.68 471.42 173.346C471.634 173.867 471.895 174.189 471.879 174.051C471.79 173.818 471.649 173.608 471.466 173.438C471.048 173.034 470.56 172.712 470.024 172.487C469.473 172.256 468.888 172.116 468.292 172.073C468.016 172.073 467.893 172.073 467.724 172.073H467.893L468.215 171.981C471.847 171.048 475.38 169.765 478.764 168.148C482.304 166.44 485.73 164.504 489.021 162.353C492.348 160.145 495.629 157.753 498.788 155.223C500.321 153.966 501.931 152.647 503.387 151.314L505.626 149.29L506.699 148.293L507.634 147.404L522.736 161.647Z" fill="#FF8B7B"/>
<path d="M530.847 156.235C530.326 141.777 518.459 136.748 503.587 146.606C497.03 150.763 490.718 155.294 484.682 160.175L494.295 191.055C494.295 191.055 512.694 185.213 523.334 173.745C530.495 165.956 531.031 161.157 530.847 156.235Z" fill="#263238"/>
<path opacity="0.2" d="M512.74 162.399C512.74 162.399 503.863 175.094 500.719 188.586C505.084 186.725 509.289 184.51 513.292 181.963L512.74 162.399Z" fill="black"/>
<path d="M469.564 138.557L474.716 126.92L460.135 122.658C460.135 122.658 457.636 128.223 459.062 137.775L469.564 138.557Z" fill="#FF8B7B"/>
<path d="M476.265 113.274L463.585 114.792L460.135 122.658L474.716 126.92L476.265 113.274Z" fill="#FF8B7B"/>
<path d="M512.832 261.046C512.832 261.046 503.418 339.946 502.375 382.171C501.302 426.036 509.903 514.518 509.903 514.518L534.603 513.997C534.603 513.997 537.578 419.274 541.166 375.869C545.06 328.554 554.873 260.188 554.873 260.188L512.832 261.046Z" fill="#6750A4"/>
<path opacity="0.6" d="M512.832 261.046C512.832 261.046 503.418 339.946 502.375 382.171C501.302 426.036 509.903 514.518 509.903 514.518L534.603 513.997C534.603 513.997 537.578 419.274 541.166 375.869C545.06 328.554 554.873 260.188 554.873 260.188L512.832 261.046Z" fill="white"/>
<path opacity="0.2" d="M542.254 283.385C531.215 307.717 534.174 362.07 540.445 385.375C540.675 381.987 540.92 378.782 541.166 375.823C543.726 344.637 548.832 304.329 552.067 280.457C549.062 276.102 545.704 275.765 542.254 283.385Z" fill="black"/>
<path d="M537.639 515.055L508.6 515.638L506.454 505.994L537.287 505.917L537.639 515.055Z" fill="#6750A4"/>
<path d="M593.418 537.624L579.742 537.747L576.016 506.101L589.692 505.978L593.418 537.624Z" fill="#FF8B7B"/>
<path d="M579.711 536.167L594.66 536.029C594.935 536.036 595.201 536.128 595.421 536.293C595.641 536.458 595.803 536.687 595.886 536.949L599.505 549.077C599.597 549.359 599.621 549.659 599.575 549.953C599.528 550.246 599.413 550.524 599.237 550.764C599.062 551.004 598.832 551.198 598.567 551.331C598.301 551.465 598.008 551.533 597.711 551.53C592.314 551.53 584.51 551.239 577.779 551.3C569.868 551.3 566.326 551.852 557.05 551.944C551.438 551.944 549.384 546.333 551.76 545.811C562.278 543.373 567.721 543.051 576.553 537.271C577.475 536.602 578.573 536.219 579.711 536.167Z" fill="#263238"/>
<path opacity="0.2" d="M576.016 506.116L577.932 522.43L591.624 522.307L589.708 505.993L576.016 506.116Z" fill="black"/>
<path d="M574.069 538.605C575.545 538.577 577.014 538.397 578.454 538.068C578.52 538.058 578.581 538.025 578.626 537.974C578.67 537.924 578.696 537.86 578.699 537.792C578.709 537.728 578.698 537.662 578.667 537.604C578.637 537.546 578.589 537.499 578.53 537.47C577.871 537.149 572.121 534.404 570.557 535.37C570.409 535.461 570.288 535.59 570.207 535.744C570.126 535.898 570.088 536.07 570.098 536.244C570.094 536.537 570.158 536.828 570.282 537.093C570.407 537.359 570.59 537.592 570.818 537.777C571.784 538.397 572.924 538.688 574.069 538.605ZM577.35 537.624C574.391 538.145 572.137 538.038 571.217 537.302C571.058 537.176 570.932 537.014 570.847 536.831C570.761 536.647 570.72 536.446 570.726 536.244C570.717 536.181 570.727 536.117 570.754 536.06C570.781 536.002 570.825 535.955 570.879 535.922C571.738 535.401 574.958 536.627 577.35 537.624Z" fill="#6750A4"/>
<path d="M578.377 538.16C578.424 538.159 578.47 538.147 578.513 538.126C578.555 538.106 578.593 538.076 578.623 538.04C578.654 538.004 578.676 537.962 578.689 537.917C578.702 537.871 578.706 537.824 578.699 537.777C578.699 537.532 577.626 531.644 574.375 532.012C573.517 532.104 573.271 532.549 573.21 532.886C572.995 534.419 576.507 537.394 578.254 538.13L578.377 538.16ZM574.651 532.641C576.599 532.641 577.595 535.845 577.932 537.24C576.123 536.229 573.716 533.898 573.854 532.978C573.854 532.978 573.854 532.717 574.437 532.656L574.651 532.641Z" fill="#6750A4"/>
<path d="M536.934 260.525C536.934 260.525 543.757 345.419 548.74 387.307C553.907 430.881 570.926 514.472 570.926 514.472L595.626 513.951C595.626 513.951 588.849 419.045 586.227 375.562C583.36 328.109 582.624 259.482 582.624 259.482L536.934 260.525Z" fill="#6750A4"/>
<path opacity="0.6" d="M536.934 260.525C536.934 260.525 543.757 345.419 548.74 387.307C553.907 430.881 570.926 514.472 570.926 514.472L595.626 513.951C595.626 513.951 588.849 419.045 586.227 375.562C583.36 328.109 582.624 259.482 582.624 259.482L536.934 260.525Z" fill="white"/>
<path d="M598.662 515.055L569.607 515.638L567.476 505.994L598.309 505.917L598.662 515.055Z" fill="#6750A4"/>
<path d="M511.13 142.819C511.13 142.819 501.026 180.322 512.832 261.046C534.879 260.571 571.907 259.712 582.624 259.513C582.9 248.274 574.605 193.17 584.311 140.044C577.328 138.839 570.266 138.152 563.183 137.99C552.814 137.611 542.432 137.836 532.089 138.664C525.005 139.503 517.998 140.892 511.13 142.819Z" fill="#263238"/>
<path opacity="0.2" d="M580.079 177.854L568.656 168.394C569.408 175.784 576.093 193.891 579.619 203.06C579.558 195.026 579.634 186.547 580.079 177.854Z" fill="black"/>
<path d="M539.219 164.561L526.753 189.23C526.49 189.748 526.398 190.336 526.49 190.91C526.583 191.484 526.855 192.013 527.267 192.422C527.68 192.832 528.212 193.099 528.786 193.187C529.361 193.274 529.948 193.177 530.464 192.91L538.605 188.433C539.048 188.195 539.548 188.086 540.05 188.118C540.551 188.151 541.034 188.324 541.442 188.617L549.46 194.397C549.921 194.732 550.477 194.91 551.047 194.905C551.616 194.899 552.169 194.71 552.623 194.366C553.077 194.023 553.408 193.542 553.567 192.995C553.727 192.448 553.706 191.865 553.508 191.331L544.14 164.99C543.977 164.489 543.671 164.047 543.258 163.719C542.846 163.391 542.346 163.192 541.822 163.146C541.297 163.1 540.77 163.21 540.307 163.461C539.844 163.713 539.466 164.095 539.219 164.561Z" fill="white"/>
<path d="M559.35 102.971C557.602 113.029 556.038 131.397 563.183 137.913C563.183 137.913 561.098 147.021 542.07 150.179C529.283 146.07 532.089 138.649 532.089 138.649C543.19 135.736 542.714 127.472 540.614 119.745L559.35 102.971Z" fill="#FF8B7B"/>
<path opacity="0.2" d="M551.714 109.794L540.614 119.668C541.13 121.468 541.49 123.31 541.687 125.172C545.949 124.467 551.699 119.653 552.052 115.191C552.269 113.386 552.155 111.557 551.714 109.794Z" fill="black"/>
<path d="M565.437 90.598C561.742 103.661 560.254 111.496 552.098 116.847C539.832 124.881 524.791 115.314 524.5 101.377C524.224 88.8655 530.295 69.5929 544.432 67.1397C547.537 66.5889 550.731 66.84 553.712 67.8692C556.693 68.8985 559.361 70.6718 561.465 73.0211C563.568 75.3704 565.037 78.218 565.733 81.2939C566.428 84.3699 566.326 87.5724 565.437 90.598Z" fill="#FF8B7B"/>
<path d="M557.571 98.6013C555.854 94.431 554.612 80.6933 561.772 77.3202C568.932 73.9472 576.369 82.1806 574.483 86.0749C571.585 92.1158 561.558 108.261 557.571 98.6013Z" fill="#263238"/>
<path d="M561.849 82.1652C560.086 77.5656 539.065 74.9591 536.121 70.0068C532.626 64.1192 546.961 63.4139 556.82 66.4037C565.483 69.0409 571.263 71.586 570.251 78.0255C569.684 81.6746 561.849 82.1652 561.849 82.1652Z" fill="#263238"/>
<path d="M566.418 77.4276C566.418 77.4276 571.018 78.6849 573.532 75.3118C572.735 78.6542 568.825 82.0273 566.418 77.4276Z" fill="#263238"/>
<path d="M545.367 63.2453C539.05 58.339 530.449 64.1039 531.261 70.4974C532.074 76.891 553.37 81.7513 553.37 81.7513C553.37 81.7513 553.753 69.7615 545.367 63.2453Z" fill="#263238"/>
<path d="M531.277 70.5281C532.243 75.0051 535.508 78.5162 542.116 81.1226C538.292 78.2945 535.394 74.3934 533.791 69.9148L531.277 70.5281Z" fill="#263238"/>
<path d="M544.539 89.9387C544.309 91.0273 543.558 91.7786 542.852 91.6253C542.147 91.4719 541.764 90.46 541.994 89.3868C542.224 88.3135 542.99 87.5622 543.696 87.7155C544.401 87.8689 544.784 88.9268 544.539 89.9387Z" fill="#263238"/>
<path d="M532.365 87.3016C532.12 88.3748 531.368 89.1261 530.663 88.9728C529.958 88.8195 529.575 87.8229 529.805 86.7496C530.035 85.6764 530.801 84.9251 531.506 85.0631C532.212 85.2011 532.595 86.2283 532.365 87.3016Z" fill="#263238"/>
<path d="M536.122 88.6814C534.12 91.6975 531.71 94.4218 528.961 96.7768C530.495 98.9693 533.914 98.862 533.914 98.862L536.122 88.6814Z" fill="#FF5652"/>
<path d="M536.398 102.526C537.837 102.884 539.342 102.888 540.784 102.538C542.225 102.189 543.561 101.495 544.677 100.518C544.708 100.488 544.732 100.452 544.748 100.413C544.765 100.373 544.774 100.331 544.774 100.288C544.774 100.245 544.765 100.203 544.748 100.163C544.732 100.124 544.708 100.088 544.677 100.058C544.614 99.9998 544.532 99.9674 544.447 99.9674C544.362 99.9674 544.279 99.9998 544.217 100.058C543.17 100.939 541.932 101.563 540.6 101.88C539.269 102.197 537.882 102.197 536.551 101.882C536.465 101.864 536.376 101.881 536.303 101.928C536.23 101.975 536.178 102.05 536.16 102.135C536.142 102.221 536.158 102.31 536.205 102.383C536.253 102.457 536.327 102.508 536.413 102.526H536.398Z" fill="#263238"/>
<path d="M549.062 86.8109C549.179 86.8344 549.301 86.8254 549.414 86.7848C549.527 86.7442 549.627 86.6736 549.703 86.5805C549.778 86.4874 549.827 86.3754 549.844 86.2566C549.861 86.1378 549.845 86.0167 549.798 85.9063C549.384 84.962 548.75 84.13 547.95 83.4794C547.15 82.8288 546.207 82.3783 545.198 82.1652C545.028 82.1432 544.855 82.1886 544.718 82.2917C544.58 82.3948 544.489 82.5474 544.462 82.7172C544.449 82.8008 544.453 82.8861 544.472 82.9683C544.492 83.0505 544.528 83.128 544.578 83.1963C544.628 83.2647 544.691 83.3225 544.763 83.3666C544.835 83.4107 544.915 83.4401 544.999 83.4532C545.794 83.628 546.536 83.9906 547.163 84.5107C547.79 85.0308 548.283 85.6933 548.602 86.4429C548.645 86.5357 548.709 86.6173 548.788 86.6811C548.868 86.745 548.962 86.7894 549.062 86.8109Z" fill="#263238"/>
<path d="M527.919 81.9506C528.039 81.9839 528.167 81.9797 528.284 81.9386C528.402 81.8975 528.505 81.8215 528.578 81.7206C529.063 81.0693 529.695 80.5413 530.422 80.1791C531.149 79.8169 531.951 79.6307 532.764 79.6355C532.935 79.6517 533.105 79.5995 533.237 79.4902C533.369 79.3809 533.453 79.2236 533.469 79.0528C533.485 78.882 533.433 78.7118 533.324 78.5795C533.215 78.4472 533.057 78.3638 532.886 78.3475C531.858 78.317 530.837 78.5353 529.911 78.9837C528.984 79.4321 528.18 80.0975 527.566 80.9234C527.512 80.9889 527.471 81.0649 527.447 81.1466C527.423 81.2283 527.416 81.3141 527.426 81.3987C527.436 81.4833 527.463 81.565 527.505 81.6387C527.548 81.7125 527.605 81.7769 527.673 81.828C527.743 81.8894 527.828 81.9317 527.919 81.9506Z" fill="#263238"/>
<path d="M587.653 150.501C590.443 155.377 592.774 160.099 595.196 164.959C597.619 169.82 599.796 174.711 601.866 179.709C603.936 184.707 605.944 189.782 607.692 195.041C609.51 200.286 611.045 205.624 612.292 211.033L613.227 215.218C613.636 217.184 613.811 219.191 613.748 221.198C613.618 224.926 612.791 228.598 611.311 232.022C608.707 237.793 605.005 243 600.409 247.355C596.311 251.312 591.844 254.87 587.07 257.98C584.755 259.513 582.363 260.924 579.956 262.273C577.549 263.622 575.157 264.864 572.474 266.045L567.384 257.137C569.239 255.603 571.278 254.07 573.179 252.414C575.081 250.758 576.936 249.072 578.776 247.385C582.328 244.089 585.624 240.527 588.634 236.729C591.311 233.473 593.388 229.766 594.767 225.782C595.242 224.298 595.429 222.737 595.319 221.182C595.274 220.557 595.156 219.94 594.966 219.343L593.924 215.908C590.826 206.382 587.139 197.057 582.885 187.988C580.784 183.389 578.546 178.789 576.307 174.189C574.069 169.59 571.707 164.99 569.423 160.62L587.653 150.501Z" fill="#FF8B7B"/>
<path d="M584.832 140.121C597.619 142.881 606.512 176.244 606.512 176.244L583.651 196.988C576.383 188.902 570.666 179.547 566.786 169.39C560.73 152.693 571.156 137.147 584.832 140.121Z" fill="#263238"/>
<path d="M570.159 255.557L555.455 255.711L564.655 270.537C564.655 270.537 575.127 267.946 576.062 262.687L570.159 255.557Z" fill="#FF8B7B"/>
<path d="M546.302 264.465L554.413 276.363L564.578 270.537L555.455 255.711L546.302 264.465Z" fill="#FF8B7B"/>
<path d="M569.454 102.557C567.82 105.563 565.065 107.801 561.788 108.782C557.433 110.055 555.21 106.176 556.375 102.051C557.433 98.3408 560.975 93.2045 565.329 93.7411C569.684 94.2778 571.401 98.8621 569.454 102.557Z" fill="#FF8B7B"/>
<path d="M439.135 356.238L422.788 357.425L422.899 358.954L439.246 357.768L439.135 356.238Z" fill="#6750A4"/>
<path d="M453.824 355.179L445.796 355.762L445.907 357.291L453.935 356.708L453.824 355.179Z" fill="#6750A4"/>
<path d="M524.362 175.201L253.656 194.719C248.022 195.159 242.789 197.802 239.091 202.076C235.394 206.35 233.532 211.91 233.908 217.549L243.108 345.143C243.543 350.786 246.19 356.028 250.471 359.729C254.752 363.431 260.322 365.291 265.968 364.907L281.3 363.803C282.414 363.722 283.514 364.087 284.359 364.818C285.205 365.548 285.725 366.583 285.808 367.697L287.525 391.339C287.553 391.797 287.717 392.236 287.997 392.6C288.276 392.964 288.658 393.236 289.093 393.381C289.528 393.526 289.997 393.537 290.439 393.414C290.881 393.291 291.276 393.038 291.573 392.689L317.239 363.021C318.318 361.778 319.845 361.012 321.486 360.89L536.627 345.389C542.264 344.953 547.502 342.311 551.202 338.036C554.902 333.762 556.767 328.2 556.391 322.559L547.191 194.964C546.756 189.328 544.114 184.09 539.839 180.39C535.565 176.689 530.003 174.825 524.362 175.201Z" fill="#6750A4"/>
<path d="M293.198 253.288L307.825 252.23L309.021 268.789L324.997 267.639L323.801 251.08L338.489 250.007L341.908 297.322L327.22 298.38L325.84 279.246L309.864 280.411L311.244 299.545L296.632 300.603L293.198 253.288Z" fill="white"/>
<path opacity="0.2" d="M253.656 194.719C248.022 195.159 242.789 197.802 239.091 202.076C235.394 206.35 233.532 211.91 233.908 217.549L243.108 345.143C243.543 350.786 246.19 356.028 250.471 359.729C254.752 363.431 260.322 365.291 265.968 364.907L268.222 364.738C271.967 364.467 275.517 362.968 278.323 360.473C281.128 357.978 283.032 354.627 283.738 350.939L314.571 190.319L253.656 194.719Z" fill="black"/>
<path d="M387.798 280.058L361.457 281.959C361.659 283.666 362.375 285.27 363.511 286.559C364.163 287.244 364.964 287.77 365.853 288.095C366.741 288.419 367.692 288.534 368.632 288.429C369.924 288.337 371.169 287.915 372.251 287.203C373.097 286.562 373.819 285.772 374.382 284.872L387.414 285.133C385.996 288.346 383.694 291.09 380.775 293.045C378.097 294.741 374.142 295.763 368.908 296.111C365.249 296.537 361.542 296.144 358.053 294.961C355.256 293.787 352.856 291.834 351.138 289.334C349.169 286.488 348.037 283.147 347.872 279.69C347.599 277.289 347.831 274.858 348.555 272.553C349.278 270.247 350.477 268.119 352.074 266.305C355.263 262.748 359.862 260.75 365.873 260.31C369.851 259.837 373.886 260.31 377.648 261.69C380.528 262.921 382.955 265.015 384.593 267.685C386.469 271.001 387.52 274.718 387.66 278.525L387.798 280.058ZM373.999 274.722C373.812 272.729 372.952 270.858 371.561 269.418C370.86 268.878 370.056 268.488 369.198 268.273C368.34 268.057 367.447 268.02 366.575 268.164C365.702 268.308 364.868 268.629 364.125 269.109C363.382 269.588 362.745 270.215 362.254 270.951C361.436 272.393 361.022 274.03 361.058 275.688L373.999 274.722Z" fill="white"/>
<path d="M391.861 246.159L405.031 245.208L408.45 292.508L395.28 293.458L391.861 246.159Z" fill="white"/>
<path d="M413.862 244.564L427.033 243.614L430.452 290.913L417.297 291.864L413.862 244.564Z" fill="white"/>
<path d="M436.002 273.389C435.753 270.989 436.012 268.564 436.763 266.271C437.513 263.978 438.737 261.869 440.356 260.08C443.638 256.431 448.283 254.387 454.293 253.947C461.142 253.457 466.467 255.072 470.27 258.792C473.428 262.123 475.252 266.498 475.397 271.086C475.541 275.673 473.994 280.154 471.052 283.677C467.801 287.295 463.089 289.339 456.915 289.809C452.119 290.385 447.274 289.244 443.239 286.59C441.093 285.1 439.322 283.132 438.066 280.841C436.81 278.551 436.103 275.999 436.002 273.389ZM449.172 272.407C449.148 274.828 449.979 277.179 451.518 279.046C452.139 279.682 452.891 280.175 453.722 280.492C454.552 280.808 455.441 280.94 456.328 280.879C457.215 280.818 458.078 280.565 458.857 280.137C459.636 279.709 460.313 279.117 460.84 278.402C462.079 276.268 462.545 273.772 462.159 271.334C462.174 268.963 461.354 266.661 459.844 264.833C459.253 264.186 458.521 263.683 457.705 263.364C456.889 263.044 456.01 262.918 455.137 262.993C454.226 263.036 453.337 263.287 452.54 263.729C451.742 264.17 451.057 264.789 450.537 265.539C449.302 267.601 448.84 270.036 449.234 272.407H449.172Z" fill="white"/>
<path d="M479.546 239.811L493.575 238.799L494.357 249.532L493.207 271.38L484.529 272.009L480.312 250.544L479.546 239.811ZM482.612 275.505L495.706 274.554L496.549 286.145L483.44 287.08L482.612 275.505Z" fill="white"/>
<path d="M249.915 152.709C249.846 154.953 249.964 157.199 250.268 159.424C236.375 164.064 221.558 165.238 207.108 162.843C207.801 160.221 208.223 157.534 208.365 154.825C207.881 157.552 206.932 160.177 205.559 162.583C202.83 162.061 201.297 161.617 201.297 161.617C201.297 161.617 204.087 146.53 199.058 135.552C194.029 124.574 196.544 118.441 200.346 116.709C207.399 95.029 233.908 98.4481 242.878 107.249C254.254 118.411 254.315 149.857 256.339 157.048C254.668 157.768 253.028 158.428 251.387 159.01C250.565 157.001 250.068 154.874 249.915 152.709Z" fill="#263238"/>
<path d="M260.878 186.455L262.258 190.825C262.764 192.358 263.269 193.891 263.791 195.348C264.818 198.414 265.891 201.481 267.041 204.424C268.191 207.368 269.295 210.465 270.491 213.47L272.269 218.07L272.714 219.205L272.821 219.465C272.632 219.299 272.414 219.169 272.177 219.082C271.84 218.959 271.702 219.082 271.917 219.082C272.286 219.08 272.653 219.024 273.005 218.913C274.204 218.533 275.356 218.019 276.44 217.38C279.055 215.856 281.555 214.145 283.922 212.259C286.406 210.327 288.844 208.257 291.235 206.126C293.627 203.995 296.034 201.772 298.35 199.595L303.057 203.581C301.094 206.402 299.024 208.978 296.924 211.6C294.823 214.222 292.462 216.675 290.039 219.113C287.546 221.658 284.832 223.977 281.929 226.043C280.268 227.206 278.484 228.183 276.608 228.956C275.418 229.433 274.171 229.753 272.898 229.906C271.17 230.122 269.416 229.884 267.808 229.216C266.055 228.469 264.561 227.221 263.515 225.629C263.285 225.276 263.07 224.923 262.901 224.601L262.488 223.774L261.936 222.654C261.215 221.121 260.402 219.588 259.774 218.147C258.378 215.08 256.983 212.014 255.711 208.947C254.438 205.881 253.196 202.722 252.016 199.564C251.464 198.031 250.912 196.36 250.39 194.75C249.869 193.14 249.363 191.561 248.857 189.675L260.878 186.455Z" fill="#FFC3BD"/>
<path d="M257.244 172.84C262.533 174.189 266.228 195.93 266.228 195.93L251.663 205.835C251.663 205.835 237.71 183.895 241.774 178.084C246.005 172.043 249.532 170.877 257.244 172.84Z" fill="#6750A4"/>
<path d="M257.244 172.84C262.533 174.189 266.228 195.93 266.228 195.93L251.663 205.835C251.663 205.835 237.71 183.895 241.774 178.084C246.005 172.043 249.532 170.877 257.244 172.84Z" fill="#6750A4"/>
<path opacity="0.4" d="M257.244 172.84C262.533 174.189 266.228 195.93 266.228 195.93L251.663 205.835C251.663 205.835 237.71 183.895 241.774 178.084C246.005 172.043 249.532 170.877 257.244 172.84Z" fill="white"/>
<path opacity="0.3" d="M256.768 177.7L260.831 199.61L252.644 205.16L256.768 177.7Z" fill="black"/>
<path d="M298.104 200.116L302.965 188.402L308.959 200.116C308.959 200.116 305.065 205.942 299.929 204.516L298.104 200.116Z" fill="#FFC3BD"/>
<path d="M308.315 187.191L316.012 190.288L308.959 200.116L302.949 188.402L308.315 187.191Z" fill="#FFC3BD"/>
<path d="M228.649 538.85H241.482L242.341 509.152H229.508L228.649 538.85Z" fill="#FFC3BD"/>
<path d="M142.605 500.597L154.395 505.626L169.835 479.929L158.029 474.9L142.605 500.597Z" fill="#FFC3BD"/>
<path d="M156.665 503.878L144.399 496.334C144.189 496.199 143.937 496.147 143.691 496.186C143.445 496.226 143.222 496.355 143.065 496.549L135.69 505.395C135.507 505.627 135.375 505.895 135.304 506.182C135.232 506.468 135.223 506.767 135.277 507.058C135.331 507.348 135.446 507.624 135.615 507.866C135.784 508.108 136.003 508.311 136.257 508.462C140.581 511.022 142.789 512.034 148.186 515.346C151.513 517.401 156.143 520.712 160.728 523.533C165.312 526.355 168.394 522 166.692 520.39C159.256 513.292 159.47 509.918 158.075 505.717C157.843 504.954 157.342 504.3 156.665 503.878Z" fill="#263238"/>
<path d="M241.912 537.363H227.515C227.267 537.361 227.026 537.447 226.838 537.608C226.649 537.769 226.525 537.992 226.488 538.237L224.847 549.644C224.807 549.937 224.831 550.235 224.917 550.517C225.004 550.8 225.15 551.06 225.347 551.28C225.544 551.5 225.786 551.675 226.057 551.792C226.328 551.91 226.622 551.967 226.917 551.96C231.946 551.883 234.368 551.576 240.716 551.576C244.61 551.576 252.675 551.99 258.057 551.99C263.438 551.99 263.714 546.67 261.476 546.179C251.433 544.018 247.477 541.043 244.089 538.207C243.489 537.672 242.715 537.372 241.912 537.363Z" fill="#263238"/>
<path opacity="0.2" d="M242.326 509.167L241.896 524.469H229.063L229.508 509.167H242.326Z" fill="black"/>
<path opacity="0.2" d="M158.029 474.915L169.82 479.929L161.862 493.176L150.072 488.147L158.029 474.915Z" fill="black"/>
<path d="M257.244 172.84C257.244 172.84 263.377 174.986 251.111 250.222H198.981C199.855 229.033 199.886 215.97 189.782 172.472C197.071 170.966 204.46 169.992 211.891 169.559C219.767 168.991 227.673 168.991 235.549 169.559C245.729 170.479 257.244 172.84 257.244 172.84Z" fill="#6750A4"/>
<path opacity="0.4" d="M257.244 172.84C257.244 172.84 263.377 174.986 251.111 250.222H198.981C199.855 229.033 199.886 215.97 189.782 172.472C197.071 170.966 204.46 169.992 211.891 169.559C219.767 168.991 227.673 168.991 235.549 169.559C245.729 170.479 257.244 172.84 257.244 172.84Z" fill="white"/>
<path d="M211.922 169.544C219.798 168.991 227.703 168.991 235.579 169.544C236.852 169.666 238.155 169.804 239.443 169.958C239.979 170.763 240.323 171.681 240.448 172.641C240.573 173.601 240.476 174.576 240.164 175.492C238.492 179.617 232.498 180.092 228.143 180.092C212.029 180.092 209.3 170.678 209.193 170.28L209.039 169.712L211.922 169.544Z" fill="white"/>
<path d="M214.268 142.927C215.801 150.593 217.257 164.484 211.922 169.559C211.922 169.559 214.007 177.225 228.143 177.225C243.69 177.225 235.579 169.559 235.579 169.559C227.085 167.535 227.315 161.234 228.787 155.331L214.268 142.927Z" fill="#FFC3BD"/>
<path d="M215.816 137.515C213.992 143.54 216.521 157.799 220.278 163.319C212.872 159.072 210.373 146.131 210.373 146.131L215.816 137.515Z" fill="#263238"/>
<path opacity="0.2" d="M220.186 147.986L228.787 155.315C228.41 156.689 228.164 158.096 228.051 159.516C224.816 159.041 220.385 155.484 220.017 152.095C219.827 150.727 219.884 149.335 220.186 147.986Z" fill="black"/>
<path d="M207.245 129.342C210.22 141.716 211.201 147.021 218.653 152.341C229.86 160.329 244.411 153.981 245.193 140.964C245.898 129.25 240.93 110.99 227.821 108.169C224.933 107.531 221.93 107.642 219.096 108.491C216.263 109.34 213.694 110.9 211.632 113.021C209.571 115.142 208.086 117.755 207.318 120.612C206.55 123.468 206.525 126.474 207.245 129.342Z" fill="#FFC3BD"/>
<path d="M251.126 250.222C251.126 250.222 261.23 348.992 260.326 388.089C259.452 428.75 244.549 521.479 244.549 521.479H227.223C227.223 521.479 229.968 431.096 228.435 391.155C226.763 347.612 212.934 250.191 212.934 250.191L251.126 250.222Z" fill="#6750A4"/>
<path opacity="0.4" d="M251.126 250.222C251.126 250.222 261.23 348.992 260.326 388.089C259.452 428.75 244.549 521.479 244.549 521.479H227.223C227.223 521.479 229.968 431.096 228.435 391.155C226.763 347.612 212.934 250.191 212.934 250.191L251.126 250.222Z" fill="black"/>
<path d="M225.782 522.123H246.113L247.615 515.638L224.832 514.84L225.782 522.123Z" fill="#6750A4"/>
<path opacity="0.2" d="M228.665 274.799C241.452 300.527 231.225 347.458 226.702 364.922C224.387 338.704 220.477 306.659 217.426 283.094C219.358 269.847 222.762 262.932 228.665 274.799Z" fill="black"/>
<path d="M237.373 250.222C237.373 250.222 225.567 352.948 216.659 385.866C206.096 425.009 165.879 491.658 165.879 491.658L149.796 484.82C149.796 484.82 174.68 409.14 182.775 388.518C200.024 344.515 185.259 278.939 199.043 250.222H237.373Z" fill="#6750A4"/>
<path opacity="0.4" d="M237.373 250.222C237.373 250.222 225.567 352.948 216.659 385.866C206.096 425.009 165.879 491.658 165.879 491.658L149.796 484.82C149.796 484.82 174.68 409.14 182.775 388.518C200.024 344.515 185.259 278.939 199.043 250.222H237.373Z" fill="black"/>
<path d="M147.573 484.866L167.535 493.36L172.334 487.993L149.305 476.939L147.573 484.866Z" fill="#6750A4"/>
<path d="M226.917 129.511C227.101 130.523 227.775 131.259 228.45 131.136C229.125 131.014 229.508 130.094 229.324 129.082C229.14 128.07 228.465 127.334 227.791 127.441C227.116 127.549 226.656 128.484 226.917 129.511Z" fill="#263238"/>
<path d="M238.354 127.487C238.523 128.499 239.213 129.235 239.888 129.113C240.562 128.99 240.961 128.07 240.777 127.058C240.593 126.046 239.918 125.31 239.244 125.418C238.569 125.525 238.17 126.46 238.354 127.487Z" fill="#263238"/>
<path d="M238.952 125.54L241.268 124.39C241.268 124.39 240.348 126.521 238.952 125.54Z" fill="#263238"/>
<path d="M235.61 129.772C236.926 131.936 238.536 133.907 240.394 135.629C239.939 136.089 239.389 136.446 238.783 136.673C238.177 136.901 237.528 136.995 236.883 136.947L235.61 129.772Z" fill="#ED847E"/>
<path d="M232.268 141.746C232.849 141.745 233.428 141.694 234 141.593C234.044 141.591 234.087 141.58 234.126 141.56C234.165 141.541 234.2 141.513 234.227 141.479C234.254 141.444 234.274 141.405 234.285 141.362C234.296 141.32 234.297 141.275 234.29 141.232C234.282 141.189 234.265 141.148 234.24 141.112C234.215 141.076 234.183 141.046 234.145 141.023C234.108 141.001 234.066 140.987 234.022 140.982C233.979 140.977 233.935 140.981 233.893 140.995C232.63 141.247 231.326 141.196 230.087 140.847C228.848 140.498 227.709 139.86 226.763 138.986C226.706 138.93 226.629 138.899 226.549 138.899C226.468 138.899 226.391 138.93 226.334 138.986C226.304 139.014 226.281 139.047 226.264 139.084C226.248 139.121 226.24 139.161 226.24 139.201C226.24 139.241 226.248 139.281 226.264 139.318C226.281 139.355 226.304 139.388 226.334 139.416C227.934 140.933 230.062 141.769 232.268 141.746Z" fill="#263238"/>
<path d="M211.585 122.09C211.92 125.351 212.432 128.591 213.118 131.796C213.118 131.796 220.784 122.09 222.056 116.893C221.752 118.939 221.159 120.932 220.293 122.811C220.293 122.811 230.612 120.557 231.624 113.75C231.606 116.797 231.267 119.835 230.612 122.811C230.612 122.811 240.455 118.947 239.551 112.416C238.646 105.884 223.528 103.354 216.552 105.562C209.576 107.77 202.753 114.93 204.808 124.774C206.862 134.617 210.803 138.312 210.803 138.312C210.803 138.312 207.966 128.392 211.585 122.09Z" fill="#263238"/>
<path d="M206.709 138.664C207.655 140.936 209.464 142.739 211.738 143.678C214.804 144.905 216.629 142.283 216.092 139.247C215.617 136.503 213.455 132.578 210.281 132.639C209.587 132.67 208.911 132.873 208.315 133.23C207.718 133.588 207.22 134.088 206.866 134.686C206.511 135.284 206.311 135.961 206.284 136.655C206.257 137.35 206.403 138.04 206.709 138.664Z" fill="#FFC3BD"/>
<path d="M213.44 117.368C211.907 123.501 215.096 137.607 219.113 142.927C211.447 139.048 208.38 126.23 208.38 126.23L213.44 117.368Z" fill="#263238"/>
<path d="M222.716 126.015C222.794 125.992 222.868 125.952 222.931 125.899C222.994 125.847 223.046 125.782 223.084 125.709C223.407 125.017 223.889 124.412 224.492 123.943C225.094 123.474 225.799 123.154 226.549 123.01C226.707 122.987 226.851 122.905 226.951 122.779C227.051 122.654 227.099 122.495 227.085 122.336C227.078 122.255 227.054 122.178 227.016 122.107C226.978 122.036 226.925 121.974 226.862 121.924C226.799 121.874 226.727 121.837 226.649 121.815C226.572 121.794 226.491 121.788 226.411 121.799C225.46 121.964 224.562 122.355 223.794 122.939C223.025 123.524 222.408 124.284 221.995 125.157C221.943 125.263 221.923 125.383 221.937 125.501C221.952 125.618 222 125.729 222.076 125.82C222.153 125.911 222.254 125.978 222.367 126.013C222.481 126.047 222.602 126.048 222.716 126.015Z" fill="#263238"/>
<path d="M242.54 121.262C242.617 121.266 242.694 121.252 242.766 121.223C242.837 121.194 242.901 121.15 242.954 121.094C243.067 120.979 243.13 120.825 243.13 120.664C243.13 120.504 243.067 120.35 242.954 120.235C242.301 119.528 241.489 118.984 240.586 118.648C239.683 118.313 238.714 118.194 237.757 118.303C237.677 118.318 237.601 118.348 237.533 118.393C237.465 118.437 237.407 118.494 237.361 118.561C237.315 118.628 237.283 118.704 237.267 118.783C237.251 118.862 237.25 118.944 237.266 119.024C237.299 119.179 237.391 119.315 237.523 119.404C237.654 119.492 237.815 119.527 237.971 119.499C238.726 119.415 239.49 119.51 240.202 119.776C240.913 120.043 241.551 120.473 242.065 121.032C242.122 121.104 242.194 121.161 242.277 121.201C242.359 121.241 242.449 121.262 242.54 121.262Z" fill="#263238"/>
<path d="M196.145 190.671C194.014 197.402 191.975 204.47 190.242 211.431C188.498 218.303 187.223 225.285 186.424 232.329L186.302 233.617C186.302 234.031 186.302 234.123 186.302 234.491C186.319 235.214 186.375 235.936 186.47 236.653C186.666 238.332 186.947 240 187.314 241.651C188.034 245.07 188.847 248.596 189.89 252.092C190.932 255.588 191.821 259.145 192.864 262.671L195.93 273.251L190.242 275.596C186.746 268.912 183.711 262.104 180.874 255.082C179.51 251.556 178.176 247.998 177.072 244.242C176.52 242.372 175.999 240.455 175.539 238.37C175.32 237.266 175.167 236.15 175.079 235.027C175.079 234.46 175.079 233.617 175.079 233.111V231.578C175.209 227.671 175.567 223.775 176.152 219.91C176.658 216.077 177.409 212.336 178.222 208.61C179.817 201.148 181.865 193.791 184.355 186.578L196.145 190.671Z" fill="#FFC3BD"/>
<path d="M189.813 172.472C184.6 174.005 178.329 192.021 178.329 192.021L198.567 206.494C198.567 206.494 205.957 191.499 203.765 184.753C201.48 177.731 195.777 170.663 189.813 172.472Z" fill="#6750A4"/>
<path opacity="0.4" d="M189.813 172.472C184.6 174.005 178.329 192.021 178.329 192.021L198.567 206.494C198.567 206.494 205.957 191.499 203.765 184.753C201.48 177.731 195.777 170.663 189.813 172.472Z" fill="white"/>
<path d="M161.847 508.753C162.096 508.666 162.323 508.524 162.511 508.339C162.699 508.153 162.844 507.928 162.935 507.68C163.024 507.521 163.071 507.341 163.071 507.159C163.071 506.976 163.024 506.797 162.935 506.638C162.016 505.288 157.37 505.396 156.803 505.411C156.744 505.412 156.687 505.43 156.638 505.462C156.589 505.495 156.55 505.541 156.527 505.595C156.497 505.643 156.481 505.699 156.481 505.756C156.481 505.813 156.497 505.869 156.527 505.917C157.738 507.128 160.007 509.106 161.602 508.799L161.847 508.753ZM157.539 505.963C159.394 505.963 161.878 506.224 162.368 506.944C162.41 507.014 162.432 507.093 162.432 507.174C162.432 507.255 162.41 507.335 162.368 507.404C162.3 507.589 162.188 507.755 162.041 507.886C161.894 508.017 161.716 508.109 161.525 508.155C160.682 508.37 159.21 507.496 157.539 505.963Z" fill="#6750A4"/>
<path d="M158.903 505.641C160.314 505.196 161.816 504.414 162.138 503.54C162.218 503.313 162.219 503.065 162.141 502.837C162.063 502.609 161.911 502.414 161.709 502.283C161.53 502.134 161.32 502.028 161.094 501.972C160.868 501.916 160.633 501.913 160.406 501.961C158.581 502.283 156.618 505.411 156.542 505.549C156.515 505.596 156.501 505.648 156.501 505.702C156.501 505.756 156.515 505.809 156.542 505.856C156.569 505.901 156.608 505.938 156.653 505.965C156.698 505.991 156.75 506.007 156.802 506.009C157.517 505.989 158.224 505.865 158.903 505.641ZM160.314 502.575H160.513C160.657 502.545 160.806 502.547 160.949 502.581C161.092 502.616 161.226 502.682 161.341 502.774C161.647 503.019 161.617 503.203 161.571 503.341C161.264 504.184 158.934 505.196 157.385 505.396C158.09 504.217 159.102 503.252 160.314 502.605V502.575Z" fill="#6750A4"/>
<path d="M246.726 539.602C247.807 539.69 248.886 539.415 249.792 538.82C250.003 538.629 250.164 538.389 250.26 538.122C250.356 537.855 250.385 537.568 250.344 537.286C250.332 537.12 250.278 536.96 250.187 536.82C250.096 536.681 249.971 536.567 249.823 536.489C248.29 535.631 243.154 538.237 242.571 538.528C242.515 538.551 242.467 538.591 242.433 538.641C242.399 538.692 242.381 538.751 242.381 538.812C242.381 538.873 242.399 538.932 242.433 538.983C242.467 539.033 242.515 539.072 242.571 539.096C243.935 539.404 245.327 539.574 246.726 539.602ZM249.011 536.949C249.206 536.937 249.401 536.974 249.578 537.056C249.638 537.09 249.689 537.138 249.724 537.198C249.759 537.257 249.777 537.325 249.777 537.394C249.806 537.57 249.79 537.751 249.731 537.919C249.672 538.088 249.572 538.239 249.44 538.36C248.658 539.065 246.542 539.188 243.706 538.712C245.361 537.828 247.155 537.232 249.011 536.949Z" fill="#6750A4"/>
<path d="M242.755 539.157H242.878C244.411 538.467 247.477 535.707 247.201 534.251C247.201 533.898 246.895 533.484 246.051 533.392C245.749 533.358 245.444 533.387 245.154 533.477C244.863 533.567 244.595 533.715 244.365 533.913C242.832 535.263 242.464 538.712 242.448 538.85C242.446 538.904 242.458 538.958 242.482 539.006C242.506 539.054 242.542 539.096 242.586 539.126C242.636 539.158 242.697 539.169 242.755 539.157ZM245.821 533.959H246.005C246.557 533.959 246.603 534.251 246.603 534.312C246.757 535.186 244.702 537.378 243.138 538.314C243.261 536.857 243.834 535.474 244.779 534.358C245.06 534.102 245.426 533.96 245.806 533.959H245.821Z" fill="#6750A4"/>
<path d="M198.261 247.171L196.942 251.77C196.758 252.123 197.188 252.491 197.785 252.491H251.448C251.924 252.491 252.307 252.261 252.337 251.97L252.813 247.37C252.813 247.048 252.429 246.772 251.924 246.772H199.119C198.954 246.759 198.788 246.789 198.638 246.859C198.488 246.929 198.358 247.036 198.261 247.171Z" fill="#263238"/>
<path d="M205.344 253.058H203.918C203.642 253.058 203.428 252.92 203.443 252.736L204.102 246.603C204.102 246.435 204.378 246.281 204.654 246.281H206.065C206.356 246.281 206.556 246.435 206.54 246.603L205.881 252.736C205.881 252.981 205.636 253.058 205.344 253.058Z" fill="#6750A4"/>
<path opacity="0.4" d="M205.344 253.058H203.918C203.642 253.058 203.428 252.92 203.443 252.736L204.102 246.603C204.102 246.435 204.378 246.281 204.654 246.281H206.065C206.356 246.281 206.556 246.435 206.54 246.603L205.881 252.736C205.881 252.981 205.636 253.058 205.344 253.058Z" fill="black"/>
<path d="M247.401 253.058H245.99C245.714 253.058 245.499 252.92 245.515 252.736L246.189 246.603C246.189 246.435 246.45 246.281 246.726 246.281H248.136C248.428 246.281 248.642 246.435 248.612 246.603L247.953 252.736C247.937 252.981 247.692 253.058 247.401 253.058Z" fill="#6750A4"/>
<path opacity="0.4" d="M247.401 253.058H245.99C245.714 253.058 245.499 252.92 245.515 252.736L246.189 246.603C246.189 246.435 246.45 246.281 246.726 246.281H248.136C248.428 246.281 248.642 246.435 248.612 246.603L247.953 252.736C247.937 252.981 247.692 253.058 247.401 253.058Z" fill="black"/>
<path d="M226.38 253.058H224.969C224.678 253.058 224.463 252.92 224.494 252.736L225.153 246.603C225.153 246.435 225.414 246.281 225.705 246.281H227.116C227.392 246.281 227.607 246.435 227.591 246.603L226.932 252.736C226.917 252.981 226.656 253.058 226.38 253.058Z" fill="#6750A4"/>
<path opacity="0.4" d="M226.38 253.058H224.969C224.678 253.058 224.463 252.92 224.494 252.736L225.153 246.603C225.153 246.435 225.414 246.281 225.705 246.281H227.116C227.392 246.281 227.607 246.435 227.591 246.603L226.932 252.736C226.917 252.981 226.656 253.058 226.38 253.058Z" fill="black"/>
<path d="M227.438 127.549L229.753 126.414C229.753 126.414 228.833 128.545 227.438 127.549Z" fill="#263238"/>
<path d="M195.501 271.518L206.494 279.951L193.753 282.757C193.753 282.757 188.341 276.624 190.211 271.564L195.501 271.518Z" fill="#FFC3BD"/>
<path d="M209.193 290.392L198.399 292.155L192.511 281.085L206.494 279.951L209.193 290.392Z" fill="#FFC3BD"/>
</svg>
