<svg width="767" height="572" viewBox="0 0 767 572" fill="none" xmlns="http://www.w3.org/2000/svg">
<path d="M766.61 501.977H0V502.36H766.61V501.977Z" fill="#E6E6E6"/>
<path d="M643.631 520.482H590.888V520.866H643.631V520.482Z" fill="#E6E6E6"/>
<path d="M407.668 521.188H391.907V521.571H407.668V521.188Z" fill="#E6E6E6"/>
<path d="M574.866 515.024H545.183V515.407H574.866V515.024Z" fill="#E6E6E6"/>
<path d="M150.44 515.929H111.067V516.312H150.44V515.929Z" fill="#E6E6E6"/>
<path d="M109.533 521.372H82.6406V521.755H109.533V521.372Z" fill="#E6E6E6"/>
<path d="M349.758 512.05H206.126V512.433H349.758V512.05Z" fill="#E6E6E6"/>
<path d="M363.373 433.595H67.3237C65.0045 433.591 62.7816 432.667 61.1431 431.025C59.5046 429.384 58.5843 427.159 58.5844 424.84V8.67803C58.6045 6.37211 59.5337 4.16726 61.17 2.54242C62.8064 0.917569 65.0177 0.00395017 67.3237 0H363.373C365.695 0 367.922 0.922367 369.564 2.56419C371.206 4.20601 372.128 6.4328 372.128 8.75469V424.84C372.128 427.162 371.206 429.389 369.564 431.031C367.922 432.673 365.695 433.595 363.373 433.595ZM67.3237 0.306645C65.1061 0.310707 62.9808 1.19448 61.4142 2.76398C59.8475 4.33348 58.9677 6.46045 58.9677 8.67803V424.84C58.9677 427.058 59.8475 429.185 61.4142 430.754C62.9808 432.324 65.1061 433.208 67.3237 433.212H363.373C365.592 433.208 367.719 432.324 369.288 430.755C370.857 429.186 371.741 427.059 371.745 424.84V8.67803C371.741 6.45905 370.857 4.3321 369.288 2.76304C367.719 1.19398 365.592 0.310698 363.373 0.306645H67.3237Z" fill="#E6E6E6"/>
<path d="M695.024 433.595H398.959C396.639 433.591 394.414 432.667 392.773 431.026C391.132 429.385 390.209 427.161 390.205 424.84V8.67803C390.229 6.37071 391.161 4.16588 392.8 2.54146C394.439 0.917033 396.652 0.00390709 398.959 0H695.024C697.328 0.00797964 699.535 0.923381 701.168 2.5478C702.801 4.17221 703.728 6.37475 703.748 8.67803V424.84C703.748 427.157 702.83 429.379 701.195 431.02C699.56 432.661 697.341 433.587 695.024 433.595ZM398.959 0.306645C396.74 0.310698 394.613 1.19398 393.044 2.76304C391.475 4.3321 390.592 6.45905 390.588 8.67803V424.84C390.592 427.059 391.475 429.186 393.044 430.755C394.613 432.324 396.74 433.208 398.959 433.212H695.024C697.243 433.208 699.37 432.324 700.939 430.755C702.508 429.186 703.392 427.059 703.396 424.84V8.67803C703.392 6.45905 702.508 4.3321 700.939 2.76304C699.37 1.19398 697.243 0.310698 695.024 0.306645H398.959Z" fill="#E6E6E6"/>
<path d="M440.479 312.287L443.898 310.493L447.302 312.287V501.977H440.479V312.287Z" fill="#F0F0F0"/>
<path d="M479.883 312.287L483.302 310.493L486.706 312.287V501.977H479.883V312.287Z" fill="#F0F0F0"/>
<path d="M519.287 312.287L522.706 310.493L526.109 312.287V501.977H519.287V312.287Z" fill="#F0F0F0"/>
<path d="M558.69 312.287L562.109 310.493L565.513 312.287V501.977H558.69V312.287Z" fill="#F0F0F0"/>
<path d="M598.109 312.287L601.513 310.493L604.932 312.287V501.977H598.109V312.287Z" fill="#F0F0F0"/>
<path d="M637.513 312.287L640.917 310.493L644.336 312.287V501.977H637.513V312.287Z" fill="#F0F0F0"/>
<path d="M676.917 312.287L680.321 310.493L683.74 312.287V501.977H676.917V312.287Z" fill="#F0F0F0"/>
<path d="M443.898 342.721L680.321 342.721V336.588L443.898 336.588V342.721Z" fill="#F0F0F0"/>
<path d="M443.898 471.511L680.321 471.511V465.379L443.898 465.379V471.511Z" fill="#F0F0F0"/>
<path d="M356.29 65.5605H188.004V437.765H356.29V65.5605Z" fill="#EBEBEB"/>
<path d="M356.305 65.5605H195.992V437.765H356.305V65.5605Z" fill="#FAFAFA"/>
<path d="M347.873 429.317V74.0085L204.44 74.0085L204.44 429.317H347.873Z" fill="#FAFAFA"/>
<path d="M335.898 135.077V96.271L216.384 96.271V135.077H335.898Z" fill="#EBEBEB"/>
<path d="M335.898 407.223V322.344H216.384V407.223H335.898Z" fill="#EBEBEB"/>
<path d="M216.384 311.397H270.384V145.733H216.384L216.384 311.397Z" fill="#EBEBEB"/>
<path d="M281.898 311.397H335.898V145.733H281.898V311.397Z" fill="#EBEBEB"/>
<path d="M347.857 429.317V74.0085H345.665V429.317H347.857Z" fill="#F0F0F0"/>
<path d="M335.898 236.269C335.898 237.692 335.476 239.082 334.686 240.264C333.896 241.447 332.773 242.369 331.459 242.913C330.145 243.457 328.699 243.6 327.304 243.322C325.909 243.045 324.628 242.36 323.623 241.354C322.617 240.348 321.932 239.067 321.655 237.672C321.377 236.277 321.519 234.832 322.064 233.518C322.608 232.204 323.53 231.081 324.712 230.29C325.895 229.5 327.285 229.079 328.707 229.079C330.613 229.083 332.44 229.842 333.787 231.189C335.135 232.537 335.894 234.364 335.898 236.269Z" fill="#E0E0E0"/>
<path d="M338.719 234.782C338.722 236.209 338.302 237.604 337.511 238.791C336.72 239.979 335.595 240.905 334.278 241.452C332.96 241.999 331.51 242.143 330.111 241.866C328.712 241.588 327.426 240.902 326.418 239.893C325.409 238.884 324.722 237.599 324.445 236.2C324.167 234.8 324.311 233.35 324.858 232.033C325.406 230.715 326.332 229.59 327.519 228.799C328.706 228.009 330.102 227.588 331.528 227.591C333.435 227.591 335.264 228.349 336.613 229.697C337.962 231.046 338.719 232.875 338.719 234.782Z" fill="#FAFAFA"/>
<path d="M220.109 437.765H188.004V469.871H220.109V437.765Z" fill="#EBEBEB"/>
<path d="M220.109 469.855H388.472V437.75H220.109V469.855Z" fill="#FAFAFA"/>
<path d="M252.215 469.871H188.004V501.977H252.215V469.871Z" fill="#EBEBEB"/>
<path d="M252.215 501.977H420.578V469.871H252.215V501.977Z" fill="#FAFAFA"/>
<path d="M483.348 65.5605H407.668V264.205H483.348V65.5605Z" fill="#E0E0E0"/>
<path d="M487.963 65.5605H412.283V264.205H487.963V65.5605Z" fill="#F5F5F5"/>
<path d="M479.668 254.867V74.8672H420.593V254.867H479.668Z" fill="white"/>
<path d="M479.668 254.883V74.8826H476.172V254.883H479.668Z" fill="#E0E0E0"/>
<path d="M484.528 198.935H415.718V211.447H484.528V198.935Z" fill="#F5F5F5"/>
<path d="M585.384 65.5605H509.704V264.205H585.384V65.5605Z" fill="#E0E0E0"/>
<path d="M589.999 65.5605H514.319V264.205H589.999V65.5605Z" fill="#F5F5F5"/>
<path d="M581.704 254.867V74.8672H522.629V254.867H581.704Z" fill="white"/>
<path d="M581.704 254.883V74.8826H578.208V254.883H581.704Z" fill="#E0E0E0"/>
<path d="M586.564 198.935H517.753V211.447H586.564V198.935Z" fill="#F5F5F5"/>
<path d="M687.404 65.5605H611.724V264.205H687.404V65.5605Z" fill="#E0E0E0"/>
<path d="M692.035 65.5605H616.355V264.205H692.035V65.5605Z" fill="#F5F5F5"/>
<path d="M683.74 254.883V74.8826H624.665V254.883H683.74Z" fill="white"/>
<path d="M683.725 254.883V74.8824H680.229V254.883H683.725Z" fill="#E0E0E0"/>
<path d="M688.6 198.935H619.789V211.447H688.6V198.935Z" fill="#F5F5F5"/>
<path d="M158.32 65.5605H82.6406V264.205H158.32V65.5605Z" fill="#E0E0E0"/>
<path d="M162.951 65.5605H87.271V264.205H162.951V65.5605Z" fill="#F5F5F5"/>
<path d="M154.656 254.883V74.8826H95.581L95.581 254.883H154.656Z" fill="white"/>
<path d="M154.641 254.883V74.8826H151.145V254.883H154.641Z" fill="#E0E0E0"/>
<path d="M159.516 198.935H90.7053V211.447H159.516V198.935Z" fill="#F5F5F5"/>
<path d="M188.019 29.8978V49.8297H200.852L188.019 29.8978Z" fill="#EBEBEB"/>
<path d="M356.305 29.8978H188.019L200.852 49.8297H369.138L356.305 29.8978Z" fill="#FAFAFA"/>
<path d="M383.305 571.217C547.486 571.217 680.582 563.446 680.582 553.861C680.582 544.275 547.486 536.505 383.305 536.505C219.124 536.505 86.0291 544.275 86.0291 553.861C86.0291 563.446 219.124 571.217 383.305 571.217Z" fill="#F5F5F5"/>
<path d="M390.772 525.987L518.459 531.537L500.045 114.394L372.343 108.843L390.772 525.987Z" fill="#6750A4"/>
<path opacity="0.6" d="M390.772 525.987L518.459 531.537L500.045 114.394L372.343 108.843L390.772 525.987Z" fill="black"/>
<path d="M264.358 549.399L390.772 525.987L372.343 108.843L245.929 132.256L264.358 549.399Z" fill="#6750A4"/>
<path opacity="0.6" d="M264.358 549.399L390.772 525.987L372.343 108.843L245.929 132.256L264.358 549.399Z" fill="black"/>
<path d="M136.656 543.849L264.358 549.399L245.929 132.256L118.227 126.705L136.656 543.849Z" fill="#6750A4"/>
<path opacity="0.6" d="M136.656 543.849L264.358 549.399L245.929 132.256L118.227 126.705L136.656 543.849Z" fill="black"/>
<path d="M177.982 121.596L177.92 123.021L203.409 124.129L203.471 122.704L177.982 121.596Z" fill="#6750A4"/>
<path d="M120.512 310.481L119.088 310.544L119.521 320.348L120.946 320.285L120.512 310.481Z" fill="#6750A4"/>
<path d="M121.294 327.515L119.87 327.578L120.844 349.635L122.269 349.572L121.294 327.515Z" fill="#6750A4"/>
<path opacity="0.6" d="M191.837 266.32C210.711 266.32 226.012 251.02 226.012 232.145C226.012 213.27 210.711 197.969 191.837 197.969C172.962 197.969 157.661 213.27 157.661 232.145C157.661 251.02 172.962 266.32 191.837 266.32Z" fill="#6750A4"/>
<path opacity="0.2" d="M364.125 401.256C373.007 391.454 372.26 376.309 362.459 367.428C352.658 358.547 337.512 359.293 328.631 369.094C319.75 378.895 320.496 394.041 330.297 402.922C340.099 411.803 355.244 411.057 364.125 401.256Z" fill="#6750A4"/>
<path d="M508.247 397.779L427.37 355.707L458.433 262.702L492.624 290.683L504.46 276.225L381.113 175.278L297.276 122.428L287.31 138.22L335.055 168.317L245.576 251.648L129.266 337.692L140.366 352.641L175.186 326.883L216.859 540.568L235.181 536.995L191.821 314.632L220.738 293.167L249.455 313.099L379.166 351.537L404.341 364.661L377.632 419.811L340.375 521.847L357.915 528.256L394.881 427.063L420.946 373.293L499.646 414.292L508.247 397.779ZM257.581 296.08L236.545 281.499L257.029 266.351L257.443 266.029L351.322 178.636L370.104 190.487L442.902 250.053L410.551 346.922L386.203 334.242L257.581 296.08Z" fill="#6750A4"/>
<g style="mix-blend-mode:multiply" opacity="0.3">
<path d="M265.554 549.399L391.968 525.987L373.539 108.843L247.125 132.256L265.554 549.399Z" fill="#263238"/>
</g>
<path opacity="0.1" d="M191.837 266.32C210.711 266.32 226.012 251.02 226.012 232.145C226.012 213.27 210.711 197.969 191.837 197.969C172.962 197.969 157.661 213.27 157.661 232.145C157.661 251.02 172.962 266.32 191.837 266.32Z" fill="black"/>
<path opacity="0.7" d="M508.247 397.779L427.37 355.707L458.433 262.702L492.624 290.683L504.46 276.225L381.113 175.278L297.276 122.428L287.31 138.22L335.055 168.317L245.576 251.648L129.266 337.692L140.366 352.641L175.186 326.883L216.859 540.568L235.181 536.995L191.821 314.632L220.738 293.167L249.455 313.099L379.166 351.537L404.341 364.661L377.632 419.811L340.375 521.847L357.915 528.256L394.881 427.063L420.946 373.293L499.646 414.292L508.247 397.779ZM257.581 296.08L236.545 281.499L257.029 266.351L257.443 266.029L351.322 178.636L370.104 190.487L442.902 250.053L410.551 346.922L386.203 334.242L257.581 296.08Z" fill="black"/>
<path d="M502.191 114.992L372.159 109.349L245.729 132.746L115.835 127.104L134.494 549.675L264.542 555.333L390.971 531.92L520.881 537.578L502.191 114.992ZM391.799 513.292L389.683 513.2L387.598 513.598L263.269 536.597L152.402 531.767L135.383 146.622L244.917 151.375L247.048 151.467L249.133 151.084L373.462 128.085L484.298 132.9L501.363 518.029L391.799 513.292Z" fill="#6750A4"/>
<path opacity="0.7" d="M502.191 114.992L372.159 109.349L245.729 132.746L115.835 127.104L134.494 549.675L264.542 555.333L390.971 531.92L520.881 537.578L502.191 114.992ZM391.799 513.292L389.683 513.2L387.598 513.598L263.269 536.597L152.402 531.767L135.383 146.622L244.917 151.375L247.048 151.467L249.133 151.084L373.462 128.085L484.298 132.9L501.363 518.029L391.799 513.292Z" fill="black"/>
<path opacity="0.7" d="M177.982 121.596L177.92 123.021L203.409 124.129L203.471 122.704L177.982 121.596Z" fill="black"/>
<path opacity="0.7" d="M120.512 310.481L119.088 310.544L119.521 320.348L120.946 320.285L120.512 310.481Z" fill="black"/>
<path opacity="0.7" d="M121.294 327.515L119.87 327.578L120.844 349.635L122.269 349.572L121.294 327.515Z" fill="black"/>
<path d="M568.135 199.84C556.699 190.144 542.097 184.992 527.108 185.366C512.12 185.74 497.792 191.613 486.854 201.867C475.916 212.122 469.131 226.041 467.792 240.974C466.453 255.907 470.653 270.811 479.592 282.848L478.764 305.433L500.903 300.833C514.251 307.653 529.64 309.327 544.142 305.536C558.644 301.746 571.246 292.756 579.549 280.277C587.853 267.798 591.278 252.702 589.174 237.861C587.069 223.02 579.581 209.472 568.135 199.794V199.84Z" fill="#6750A4"/>
<path d="M532.531 292.474C557.92 290.333 576.767 268.015 574.626 242.626C572.485 217.236 550.167 198.39 524.778 200.531C499.389 202.672 480.542 224.989 482.683 250.379C484.824 275.768 507.142 294.615 532.531 292.474Z" fill="#6750A4"/>
<path opacity="0.3" d="M532.531 292.474C557.92 290.333 576.767 268.015 574.626 242.626C572.485 217.236 550.167 198.39 524.778 200.531C499.389 202.672 480.542 224.989 482.683 250.379C484.824 275.768 507.142 294.615 532.531 292.474Z" fill="black"/>
<path d="M554.995 545.811H543.741L542.622 519.731H553.876L554.995 545.811Z" fill="#E4897B"/>
<path d="M612.844 206.004C613.825 207.935 614.638 209.653 615.42 211.492C616.201 213.332 616.953 215.126 617.735 216.951C619.268 220.615 620.556 224.341 621.752 228.128C622.948 231.915 624.067 235.794 624.925 239.719C625.401 241.666 625.738 243.69 626.137 245.699C626.535 247.707 626.765 249.746 626.934 251.832L627.087 253.365V253.763V254.346C627.133 254.933 627.133 255.522 627.087 256.109C626.907 258.296 626.185 260.404 624.987 262.242C623.274 264.748 620.988 266.809 618.317 268.252C614.462 270.348 610.334 271.896 606.052 272.852C598.295 274.671 590.361 275.623 582.394 275.688L581.321 267.302C588.372 265.465 595.318 263.244 602.126 260.648C605.123 259.499 607.974 258.001 610.621 256.186C611.648 255.435 612.338 254.53 612.154 254.499C611.955 254.732 611.837 255.022 611.816 255.327C611.81 255.44 611.81 255.552 611.816 255.665C611.816 255.665 611.816 255.757 611.816 255.665V255.511V255.189L611.571 253.932C610.195 246.994 608.257 240.179 605.776 233.556C604.549 230.152 603.215 226.763 601.851 223.39C600.486 220.017 598.983 216.598 597.603 213.501L612.844 206.004Z" fill="#E4897B"/>
<path d="M610.851 197.785C620.632 202.385 626.183 233.203 626.183 233.203L602.31 242.724C598.825 234.19 596.006 225.399 593.878 216.429C590.597 202.232 600.869 193.032 610.851 197.785Z" fill="#6750A4"/>
<path opacity="0.7" d="M610.851 197.785C620.632 202.385 626.183 233.203 626.183 233.203L602.31 242.724C598.825 234.19 596.006 225.399 593.878 216.429C590.597 202.232 600.869 193.032 610.851 197.785Z" fill="white"/>
<path d="M639.568 545.811H628.299L620.541 519.731H631.81L639.568 545.811Z" fill="#E4897B"/>
<path d="M542.622 519.731L543.189 533.178H554.459L553.891 519.731H542.622Z" fill="#CE6F64"/>
<path d="M631.81 519.731H620.541L624.542 533.178H635.811L631.81 519.731Z" fill="#CE6F64"/>
<path d="M566.418 294.93C566.418 294.93 557.081 374.106 564.087 406.304C571.753 441.568 620.096 530.586 620.096 530.586H640.733C640.733 530.586 602.265 444.465 597.88 409.462C593.127 371.515 605.3 325.687 605.3 294.915L566.418 294.93Z" fill="#6750A4"/>
<path opacity="0.6" d="M566.418 294.93C566.418 294.93 557.081 374.106 564.087 406.304C571.753 441.568 620.096 530.586 620.096 530.586H640.733C640.733 530.586 602.265 444.465 597.88 409.462C593.127 371.515 605.3 325.687 605.3 294.915L566.418 294.93Z" fill="black"/>
<path d="M583.559 266.78L575.694 263.959L575.939 278.356C575.939 278.356 582.302 278.77 585.828 274.63L583.559 266.78Z" fill="#E4897B"/>
<path d="M565.759 263.438L566.525 275.32L575.939 278.341L575.694 263.959L565.759 263.438Z" fill="#E4897B"/>
<path d="M553.692 164.055C553.876 164.944 553.554 165.756 552.971 165.879C552.389 166.002 551.776 165.373 551.592 164.484C551.408 163.595 551.73 162.767 552.312 162.659C552.895 162.552 553.493 163.119 553.692 164.055Z" fill="#263238"/>
<path d="M553.631 165.695C553.113 168.633 552.195 171.486 550.902 174.174C551.593 174.495 552.347 174.661 553.109 174.661C553.872 174.661 554.626 174.495 555.317 174.174L553.631 165.695Z" fill="#DE5753"/>
<path d="M551.392 158.55C551.304 158.548 551.217 158.524 551.14 158.482C551.063 158.439 550.997 158.378 550.948 158.305C550.909 158.246 550.882 158.18 550.869 158.11C550.857 158.041 550.859 157.97 550.874 157.901C550.89 157.832 550.92 157.767 550.961 157.71C551.003 157.653 551.056 157.605 551.116 157.569C551.856 157.158 552.684 156.931 553.53 156.907C554.376 156.883 555.215 157.062 555.977 157.431C556.104 157.491 556.202 157.598 556.251 157.73C556.3 157.862 556.295 158.008 556.237 158.136C556.209 158.201 556.168 158.259 556.117 158.307C556.066 158.355 556.006 158.393 555.94 158.417C555.874 158.441 555.804 158.452 555.734 158.449C555.664 158.445 555.595 158.428 555.532 158.397C554.931 158.102 554.268 157.955 553.598 157.969C552.929 157.982 552.273 158.155 551.684 158.474C551.594 158.522 551.494 158.549 551.392 158.55Z" fill="#263238"/>
<path d="M586.12 165.588C584.494 173.821 582.885 188.923 588.65 194.428C588.65 194.428 586.396 202.784 571.094 202.784C554.229 202.784 563.045 194.428 563.045 194.428C572.244 192.22 571.999 185.412 570.389 179.003L586.12 165.588Z" fill="#E4897B"/>
<path d="M559.718 195.992L561.588 192.634C561.588 192.634 590.719 187.314 591.532 193.232C591.61 194.481 591.481 195.735 591.149 196.942L559.718 195.992Z" fill="#6750A4"/>
<path d="M623.576 546.394C623.097 546.456 622.609 546.422 622.143 546.293C621.677 546.164 621.242 545.943 620.862 545.642C620.726 545.461 620.652 545.241 620.652 545.014C620.652 544.787 620.726 544.566 620.862 544.385C620.947 544.227 621.065 544.089 621.207 543.98C621.35 543.872 621.515 543.795 621.69 543.757C623.346 543.358 626.443 545.504 626.581 545.596C626.625 545.625 626.66 545.665 626.68 545.713C626.701 545.761 626.706 545.814 626.696 545.865C626.686 545.916 626.661 545.963 626.625 546C626.588 546.037 626.541 546.062 626.489 546.072C625.532 546.279 624.556 546.387 623.576 546.394ZM622.166 544.247C622.054 544.231 621.94 544.231 621.828 544.247C621.726 544.268 621.63 544.31 621.545 544.371C621.461 544.432 621.39 544.51 621.338 544.6C621.092 545.045 621.246 545.228 621.338 545.29C621.813 545.918 624.113 545.934 625.799 545.658C624.705 544.938 623.463 544.472 622.166 544.293V544.247Z" fill="#6750A4"/>
<path d="M626.443 546.087C626.404 546.103 626.36 546.103 626.321 546.087C625.156 545.459 622.902 543.021 623.132 541.733C623.174 541.537 623.282 541.361 623.439 541.236C623.595 541.11 623.79 541.042 623.99 541.043C624.192 541.021 624.397 541.04 624.591 541.098C624.786 541.156 624.968 541.252 625.125 541.38C626.428 542.454 626.658 545.704 626.658 545.842C626.664 545.89 626.656 545.94 626.634 545.983C626.612 546.027 626.578 546.063 626.535 546.087C626.505 546.094 626.474 546.094 626.443 546.087ZM624.174 541.488H624.021C623.668 541.488 623.638 541.687 623.622 541.764C623.484 542.5 624.926 544.37 626.075 545.244C625.998 543.963 625.539 542.735 624.757 541.718C624.589 541.59 624.385 541.521 624.174 541.518V541.488Z" fill="#6750A4"/>
<path d="M539.218 546.394C537.762 546.394 536.367 546.194 535.907 545.535C535.787 545.365 535.722 545.161 535.722 544.953C535.722 544.744 535.787 544.54 535.907 544.37C536 544.217 536.122 544.084 536.267 543.978C536.411 543.873 536.576 543.798 536.75 543.757C538.636 543.235 542.561 545.489 542.73 545.581C542.779 545.606 542.819 545.647 542.844 545.697C542.869 545.746 542.877 545.802 542.868 545.857C542.859 545.911 542.833 545.96 542.795 545.999C542.756 546.037 542.707 546.063 542.653 546.072C541.519 546.277 540.37 546.385 539.218 546.394ZM537.425 544.201C537.256 544.184 537.087 544.184 536.919 544.201C536.808 544.226 536.704 544.272 536.611 544.338C536.519 544.404 536.441 544.488 536.382 544.585C536.198 544.907 536.275 545.075 536.382 545.167C536.903 545.903 539.755 545.918 541.856 545.612C540.483 544.861 538.979 544.382 537.425 544.201Z" fill="#6750A4"/>
<path d="M542.622 546.087H542.5C541.15 545.474 538.452 543.021 538.667 541.764C538.667 541.472 538.927 541.089 539.648 541.028C539.921 540.989 540.2 541.01 540.465 541.09C540.729 541.169 540.974 541.305 541.181 541.488C542.607 542.653 542.914 545.689 542.929 545.811C542.933 545.858 542.926 545.905 542.907 545.948C542.888 545.991 542.859 546.028 542.822 546.057C542.76 546.088 542.69 546.099 542.622 546.087ZM539.862 541.488H539.694C539.218 541.488 539.188 541.733 539.172 541.794C539.05 542.561 540.874 544.462 542.239 545.305C542.092 544.017 541.557 542.803 540.706 541.825C540.461 541.641 540.168 541.534 539.862 541.518V541.488Z" fill="#6750A4"/>
<path d="M624.159 545.827H639.353C639.605 545.817 639.854 545.89 640.061 546.033C640.268 546.177 640.424 546.384 640.503 546.624L643.156 556.942C643.2 557.214 643.181 557.493 643.1 557.756C643.018 558.019 642.877 558.26 642.687 558.459C642.496 558.658 642.262 558.81 642.003 558.904C641.744 558.997 641.467 559.029 641.193 558.997C635.903 558.997 633.328 558.66 626.673 558.66C622.58 558.66 614.132 559.028 608.489 559.028C602.847 559.028 602.081 554.213 604.396 553.769C614.791 551.806 618.701 549.169 622.028 546.547C622.64 546.08 623.389 545.826 624.159 545.827Z" fill="#263238"/>
<path d="M543.818 544.508H556.084C556.306 544.507 556.523 544.582 556.696 544.722C556.869 544.862 556.989 545.057 557.035 545.275L559.273 555.287C559.329 555.529 559.329 555.781 559.273 556.024C559.217 556.267 559.106 556.493 558.95 556.687C558.793 556.88 558.594 557.036 558.369 557.141C558.143 557.246 557.897 557.299 557.648 557.295C553.201 557.218 546.793 556.958 541.227 556.958C534.695 556.958 529.069 557.31 521.418 557.31C516.818 557.31 515.515 552.634 517.447 552.22C526.263 550.288 533.454 550.089 541.074 545.382C541.889 544.839 542.84 544.537 543.818 544.508Z" fill="#263238"/>
<path d="M558.782 214.068C553.462 220.309 548.05 226.334 542.53 232.467C537.011 238.6 531.368 244.426 525.588 250.298L521.295 254.622L520.636 255.266C520.266 255.629 519.877 255.972 519.471 256.293C518.718 256.878 517.912 257.391 517.063 257.826C515.611 258.589 514.065 259.156 512.464 259.513C507.622 260.49 502.64 260.552 497.775 259.697C489.275 258.312 480.992 255.823 473.137 252.292L475.651 244.211C483.319 245.475 491.065 246.202 498.833 246.389C500.605 246.399 502.376 246.311 504.138 246.128C505.598 245.997 507.035 245.683 508.416 245.193C508.813 245.042 509.189 244.841 509.535 244.595C509.612 244.518 509.658 244.472 509.643 244.441L509.796 244.273L510.041 243.981L513.997 239.382L529.881 220.983C535.201 214.85 540.614 208.717 545.98 202.738L558.782 214.068Z" fill="#E4897B"/>
<path opacity="0.2" d="M600.931 218.055L593.816 216.521C595.944 225.491 598.764 234.282 602.249 242.816L612.108 238.876C610.084 233.586 604.963 225.813 600.931 218.055Z" fill="#6750A4"/>
<path d="M540.46 223.252C540.138 229.17 540.077 236.392 540.46 245.193L550.932 219.649L540.46 223.252Z" fill="#6750A4"/>
<path d="M477.169 245.009L468.598 236.775L463.876 250.574C463.876 250.574 467.157 254.653 475.084 252.521L477.169 245.009Z" fill="#E4897B"/>
<path d="M462.097 233.923L458.77 245.99L463.876 250.605L468.598 236.775L462.097 233.923Z" fill="#E4897B"/>
<path d="M583.023 156.143C584.556 167.228 586.012 173.622 581.612 180.353C575.004 190.472 560.5 188.172 555.685 177.777C551.362 168.424 549.552 151.881 559.426 145.38C561.586 143.935 564.08 143.066 566.67 142.856C569.261 142.646 571.862 143.102 574.226 144.18C576.591 145.259 578.64 146.924 580.18 149.018C581.72 151.112 582.698 153.565 583.023 156.143Z" fill="#E4897B"/>
<path d="M595.227 150.256C595.38 143.095 590.259 137.882 587.653 138.649C584.586 125.816 562.661 132.332 562.661 132.332C562.661 132.332 567.767 125.049 557.862 125.019C547.958 124.988 550.733 132.915 550.733 132.915C550.733 132.915 544.707 127.012 540.782 133.405C536.857 139.799 545.382 142.022 545.382 142.022C545.382 142.022 538.268 140.382 537.333 149.688C536.397 158.995 549.062 151.574 549.062 151.574C551.208 155.53 553.738 156.312 556.191 155.99C557.489 155.842 558.798 156.151 559.893 156.865C560.987 157.579 561.798 158.652 562.186 159.9C565.728 170.632 572.505 180.307 582.609 177.348C590.689 174.956 594.997 160.727 595.227 150.256Z" fill="#263238"/>
<path d="M568.825 160.881C569.163 163.641 568.587 166.437 567.184 168.838C565.299 171.905 562.462 170.816 561.389 167.673C560.423 164.837 560.239 159.808 562.922 157.753C565.605 155.699 568.38 157.569 568.825 160.881Z" fill="#E4897B"/>
<path opacity="0.3" d="M572.06 322.145C570.189 316.656 566.709 322.329 563.091 331.482C561.818 349.636 560.883 371.346 561.925 388.671C566.111 367.314 576.184 334.242 572.06 322.145Z" fill="black"/>
<path d="M545.06 294.93C545.06 294.93 520.529 365.627 521.724 399.987C522.997 435.711 539.004 530.571 539.004 530.571H558.092C558.092 530.571 555.271 437.796 556.115 402.7C557.05 364.447 584.663 294.93 584.663 294.93H545.06Z" fill="#6750A4"/>
<path opacity="0.6" d="M545.06 294.93C545.06 294.93 520.529 365.627 521.724 399.987C522.997 435.711 539.004 530.571 539.004 530.571H558.092C558.092 530.571 555.271 437.796 556.115 402.7C557.05 364.447 584.663 294.93 584.663 294.93H545.06Z" fill="black"/>
<path d="M614.561 523.334C614.469 523.334 618.931 530.893 618.931 530.893H642.144L639.859 523.334H614.561Z" fill="#6750A4"/>
<path d="M535.324 522.981C535.232 522.981 536.397 530.893 536.397 530.893H559.626L560.254 523.825L535.324 522.981Z" fill="#6750A4"/>
<path d="M545.719 197.571C545.719 197.571 533.73 211.124 545.06 294.93H605.3C605.714 285.731 599.903 240.578 608.827 197.004C602.164 195.713 595.424 194.863 588.65 194.458C580.122 193.952 571.572 193.952 563.045 194.458C557.198 195.047 551.405 196.087 545.719 197.571Z" fill="#6750A4"/>
<path opacity="0.7" d="M545.719 197.571C545.719 197.571 533.73 211.124 545.06 294.93H605.3C605.714 285.731 599.903 240.578 608.827 197.004C602.164 195.713 595.424 194.863 588.65 194.458C580.122 193.952 571.572 193.952 563.045 194.458C557.198 195.047 551.405 196.087 545.719 197.571Z" fill="white"/>
<path d="M557.724 207.537C557.587 218.269 536.505 244.533 536.505 244.533L516.052 229.063C516.052 229.063 522.552 214.283 532.917 204.946C546.118 192.971 557.878 194.934 557.724 207.537Z" fill="#6750A4"/>
<path opacity="0.7" d="M557.724 207.537C557.587 218.269 536.505 244.533 536.505 244.533L516.052 229.063C516.052 229.063 522.552 214.283 532.917 204.946C546.118 192.971 557.878 194.934 557.724 207.537Z" fill="white"/>
</svg>
