<svg width="679" height="501" viewBox="0 0 679 501" fill="none" xmlns="http://www.w3.org/2000/svg">
<path d="M610.318 465.966H565.388V466.305H610.318V465.966Z" fill="#EBEBEB"/>
<path d="M449.321 469.656H437.532V469.995H449.321V469.656Z" fill="#EBEBEB"/>
<path d="M564.032 453.377H537.999V453.716H564.032V453.377Z" fill="#EBEBEB"/>
<path d="M129.755 455.656H71.1653V455.995H129.755V455.656Z" fill="#EBEBEB"/>
<path d="M150.429 455.656H141.842V455.995H150.429V455.656Z" fill="#EBEBEB"/>
<path d="M305.43 461.381H178.347V461.72H305.43V461.381Z" fill="#EBEBEB"/>
<path d="M321.505 383.636H59.5802C57.5258 383.636 55.5556 382.82 54.103 381.367C52.6503 379.915 51.8342 377.944 51.8342 375.89V7.67815C51.8521 5.63556 52.6761 3.68273 54.1268 2.24471C55.5775 0.806697 57.5375 -7.83089e-05 59.5802 5.70102e-09H321.505C323.56 5.70104e-09 325.53 0.816092 326.983 2.26874C328.435 3.7214 329.251 5.69161 329.251 7.74597V375.89C329.251 377.944 328.435 379.915 326.983 381.367C325.53 382.82 323.56 383.636 321.505 383.636ZM59.5802 0.271314C57.6169 0.2749 55.735 1.05641 54.3467 2.44468C52.9585 3.83296 52.177 5.71483 52.1734 7.67815V375.89C52.177 377.853 52.9585 379.735 54.3467 381.124C55.735 382.512 57.6169 383.293 59.5802 383.297H321.505C323.469 383.293 325.351 382.512 326.739 381.124C328.127 379.735 328.909 377.853 328.912 375.89V7.67815C328.909 5.71483 328.127 3.83296 326.739 2.44468C325.351 1.05641 323.469 0.2749 321.505 0.271314H59.5802Z" fill="#EBEBEB"/>
<path d="M614.944 383.636H352.991C350.938 383.632 348.97 382.815 347.518 381.363C346.066 379.911 345.249 377.943 345.245 375.89V7.67815C345.267 5.63667 346.092 3.68589 347.542 2.24863C348.992 0.811372 350.95 0.00345692 352.991 0H614.944C616.981 0.00706023 618.935 0.816989 620.379 2.25424C621.824 3.69149 622.645 5.64025 622.662 7.67815V375.89C622.662 377.94 621.85 379.906 620.403 381.358C618.956 382.81 616.993 383.629 614.944 383.636ZM352.991 0.271314C351.028 0.2749 349.146 1.05641 347.758 2.44468C346.369 3.83296 345.588 5.71483 345.584 7.67815V375.89C345.588 377.853 346.369 379.735 347.758 381.124C349.146 382.512 351.028 383.293 352.991 383.297H614.944C616.907 383.293 618.789 382.512 620.177 381.124C621.565 379.735 622.347 377.853 622.35 375.89V7.67815C622.347 5.71483 621.565 3.83296 620.177 2.44468C618.789 1.05641 616.907 0.2749 614.944 0.271314H352.991Z" fill="#EBEBEB"/>
<path d="M678.281 444.139H0V444.478H678.281V444.139Z" fill="#EBEBEB"/>
<path d="M560.057 322.536C544.66 334.406 540.21 360.398 539.437 378.712C539.437 380.38 536.724 380.394 536.833 378.712C537.647 359.313 542.069 333.145 558.741 320.285C560.098 319.267 561.359 321.519 560.098 322.536H560.057Z" fill="#F5F5F5"/>
<path d="M524.312 309.296C528.246 308.849 531.542 312.864 533.251 315.808C542.11 331.123 538.678 354.226 537.009 370.667C536.833 372.309 534.228 372.336 534.404 370.667C536.032 354.673 539.003 333.837 531.773 318.643C530.538 316.038 527.893 311.494 524.312 311.86C522.657 312.05 522.67 309.446 524.312 309.256V309.296Z" fill="#E6E6E6"/>
<path d="M514.775 330.282C531.244 326.213 533.306 362.731 533.767 370.613C533.875 372.282 531.271 372.282 531.162 370.613C530.511 359.95 529.982 344.689 522.277 336.143C520.717 334.406 518.017 332.168 515.494 332.792C515.201 332.787 514.917 332.688 514.685 332.508C514.454 332.329 514.286 332.079 514.209 331.796C514.131 331.514 514.146 331.213 514.253 330.941C514.36 330.668 514.553 330.437 514.802 330.282H514.775Z" fill="#E6E6E6"/>
<path d="M563.584 347.999C550.018 337.92 545.542 364.414 544.782 372.051C544.619 373.706 542.069 373.72 542.177 372.051C543.032 363.383 544.348 347.633 554.387 344.052C556.152 343.476 558.029 343.33 559.862 343.625C561.695 343.919 563.431 344.647 564.927 345.747C566.284 346.737 564.927 349.003 563.57 347.999H563.584Z" fill="#E6E6E6"/>
<path d="M509.43 352.788C510.462 351.694 511.736 350.858 513.149 350.344C514.562 349.831 516.076 349.655 517.569 349.83C525.872 351.187 528.178 363.762 529.439 370.26C529.751 371.902 527.242 372.594 526.93 370.952C525.844 365.336 520.608 345.177 511.302 354.673C511.046 354.808 510.754 354.857 510.468 354.813C510.182 354.769 509.917 354.636 509.713 354.431C509.508 354.227 509.375 353.962 509.331 353.676C509.288 353.39 509.336 353.098 509.471 352.842L509.43 352.788Z" fill="#F5F5F5"/>
<path d="M558.47 438.17H519.129C515.58 435.17 512.729 431.429 510.777 427.211C508.825 422.993 507.819 418.399 507.829 413.752C507.829 402.587 514.11 369.08 514.11 369.08H563.557C563.557 369.08 569.756 402.641 569.756 413.752C569.768 418.398 568.764 422.992 566.815 427.21C564.865 431.428 562.017 435.168 558.47 438.17Z" fill="#EBEBEB"/>
<path d="M564.737 360.846C552.854 360.846 541.228 356.03 538.773 350.102C536.317 344.174 543.955 339.344 555.825 339.344C559.655 339.348 563.47 339.836 567.179 340.796C570.468 339.781 573.897 339.291 577.34 339.344C589.21 339.344 600.835 344.16 603.291 350.102C605.746 356.044 598.122 360.846 586.239 360.846H564.737Z" fill="#F5F5F5"/>
<path d="M487.237 337.784C477.524 337.784 473.576 333.85 478.446 328.994C483.316 324.137 495.105 320.203 504.831 320.203C507.419 320.119 510 320.519 512.442 321.383C515.713 320.631 519.056 320.235 522.412 320.203C532.139 320.203 536.073 324.137 531.216 328.994C526.36 333.85 514.544 337.784 504.831 337.784H487.237Z" fill="#F0F0F0"/>
<path d="M576.539 329.034C564.33 329.034 549.408 324.083 543.331 317.965C537.253 311.847 542.177 306.895 554.4 306.895C558.63 306.937 562.842 307.442 566.962 308.401C570.03 307.298 573.28 306.787 576.539 306.895C588.748 306.895 603.671 311.86 609.734 317.965C615.798 324.069 610.887 329.034 598.665 329.034H576.539Z" fill="#EBEBEB"/>
<path d="M508.63 314.723C502.525 314.723 498.591 312.24 499.853 309.188C501.114 306.136 507.11 303.653 513.215 303.653C514.984 303.624 516.747 303.876 518.438 304.399C520.348 303.906 522.312 303.655 524.284 303.653C530.389 303.653 534.323 306.122 533.061 309.188C531.8 312.254 525.817 314.723 519.699 314.723H508.63Z" fill="#F0F0F0"/>
<path d="M501.589 359.014C495.471 359.014 489.489 356.532 488.227 353.48C486.965 350.427 490.94 347.945 497.004 347.945C498.972 347.953 500.931 348.203 502.837 348.691C504.534 348.175 506.3 347.924 508.073 347.945C514.178 347.945 520.16 350.427 521.422 353.48C522.684 356.532 518.709 359.014 512.645 359.014H501.589Z" fill="#EBEBEB"/>
<path d="M512.93 375.334C513.595 371.576 514.056 369.134 514.056 369.134H563.503C563.503 369.134 563.95 371.576 564.615 375.334H512.93Z" fill="#F5F5F5"/>
<path d="M510.773 323.567C510.773 323.567 497.207 328.085 492.921 335.546C492.921 335.546 493.599 324.693 510.773 323.567Z" fill="#FAFAFA"/>
<path d="M517.163 305.823C514.979 307.087 513.051 308.748 511.479 310.721C511.855 309.444 512.591 308.303 513.599 307.435C514.607 306.566 515.844 306.007 517.163 305.823Z" fill="#FAFAFA"/>
<path d="M569.756 310.721C569.756 310.721 584.462 316.147 593.51 326.28C593.523 326.28 586.51 312.132 569.756 310.721Z" fill="#FAFAFA"/>
<path d="M569.756 343.455C575.868 345.991 581.186 350.124 585.153 355.419C585.153 355.419 582.44 345.259 569.756 343.455Z" fill="#E6E6E6"/>
<path d="M503.081 350.916C504.171 351.488 505.096 352.329 505.768 353.36C506.44 354.39 506.837 355.576 506.92 356.803C505.125 355.23 503.797 353.193 503.081 350.916Z" fill="#FAFAFA"/>
<path d="M597.634 158.84V152.573H418.16V158.84H597.634Z" fill="#F5F5F5"/>
<path d="M465.993 158.854H435.972V172.921H450.989C450.988 172.074 451.153 171.236 451.476 170.453C451.799 169.67 452.274 168.959 452.873 168.361C453.471 167.762 454.182 167.287 454.965 166.964C455.748 166.641 456.586 166.476 457.433 166.477H465.993V158.854Z" fill="#E0E0E0"/>
<path d="M452.427 158.854H430.546V172.921H437.424C437.422 172.074 437.587 171.236 437.911 170.453C438.234 169.67 438.708 168.959 439.307 168.361C439.906 167.762 440.617 167.287 441.399 166.964C442.182 166.641 443.021 166.476 443.867 166.477H452.427V158.854Z" fill="#F5F5F5"/>
<path d="M549.801 158.854H579.836V172.921H564.819C564.819 171.212 564.14 169.573 562.931 168.365C561.723 167.156 560.084 166.477 558.375 166.477H549.801V158.854Z" fill="#EBEBEB"/>
<path d="M563.367 158.854H585.262V172.921H578.384C578.384 171.212 577.705 169.573 576.497 168.365C575.288 167.156 573.649 166.477 571.94 166.477H563.367V158.854Z" fill="#F5F5F5"/>
<path d="M529.372 153.183H544.999C546.408 151.996 547.54 150.515 548.315 148.844C549.091 147.173 549.492 145.353 549.489 143.511C549.489 139.088 546.993 112.758 546.993 112.758H527.377C527.377 112.758 524.881 139.088 524.881 143.511C524.879 145.353 525.28 147.173 526.056 148.844C526.831 150.515 527.963 151.996 529.372 153.183Z" fill="#EBEBEB"/>
<path d="M539.315 135.819C539.247 137.067 539.207 138.071 539.207 138.749C539.205 141.498 539.804 144.214 540.961 146.707C542.119 149.2 543.807 151.411 545.908 153.183H569.241C571.342 151.411 573.03 149.2 574.188 146.707C575.345 144.214 575.944 141.498 575.942 138.749C575.942 138.071 575.942 137.067 575.834 135.819H539.315Z" fill="#F5F5F5"/>
<path d="M529.344 135.995C529.338 135.197 529.021 134.433 528.462 133.864C527.903 133.294 527.144 132.964 526.346 132.943H508.006C507.2 132.943 506.426 133.26 505.852 133.827C505.278 134.393 504.951 135.162 504.94 135.968V136.185C504.281 135.977 503.596 135.867 502.905 135.86C499.907 135.86 497.899 138.193 497.899 141.679C497.899 145.166 501.399 147.499 504.533 147.499C504.852 147.495 505.169 147.463 505.482 147.404C506.205 149.643 507.54 151.635 509.335 153.156H524.99C526.398 151.969 527.53 150.488 528.306 148.817C529.082 147.146 529.482 145.326 529.48 143.484C529.439 142.303 529.399 139.482 529.344 135.995ZM504.519 145.573C502.403 145.573 499.839 143.85 499.839 141.707C499.839 140.798 500.056 137.827 502.891 137.827C503.585 137.842 504.268 137.999 504.899 138.288C504.899 140.689 504.831 142.588 504.831 143.511C504.839 144.193 504.902 144.874 505.021 145.546L504.519 145.573Z" fill="#E0E0E0"/>
<path d="M296.748 102.041H207.011V298.702H296.748V102.041Z" fill="#EBEBEB"/>
<path d="M207.012 102.041H117.275V298.702H207.012V102.041Z" fill="#EBEBEB"/>
<path d="M256.295 424.116H286.316V438.17H271.313C271.313 436.461 270.634 434.822 269.425 433.614C268.217 432.405 266.578 431.726 264.869 431.726H256.295V424.116Z" fill="#E0E0E0"/>
<path d="M157.741 424.116H127.707V438.17H142.724C142.724 436.461 143.403 434.822 144.611 433.614C145.82 432.405 147.459 431.726 149.168 431.726H157.741V424.116Z" fill="#E0E0E0"/>
<path d="M296.748 298.688H117.275V360.642H296.748V298.688Z" fill="#EBEBEB"/>
<path d="M296.748 360.642H117.275V422.597H296.748V360.642Z" fill="#EBEBEB"/>
<path d="M296.748 308.211V301.944H117.275V308.211H296.748Z" fill="#E0E0E0"/>
<path d="M207.025 111.021V104.754H117.288V111.021H207.025Z" fill="#E0E0E0"/>
<path d="M296.762 111.021V104.754H207.025V111.021H296.762Z" fill="#E0E0E0"/>
<path d="M296.748 369.677V363.41H117.275V369.677H296.748Z" fill="#E0E0E0"/>
<path d="M296.748 98.907H114.141V425.296H299.882V98.907H296.748ZM293.615 302.514V357.631H120.409V302.514H293.615ZM210.145 296.246V105.174H293.615V296.273L210.145 296.246ZM203.878 105.147V296.273H120.409V105.174L203.878 105.147ZM120.409 419.029V363.925H293.615V419.029H120.409Z" fill="#F5F5F5"/>
<path d="M144.176 424.116H114.141V438.17H129.158C129.158 436.461 129.837 434.822 131.046 433.614C132.254 432.405 133.893 431.726 135.602 431.726H144.176V424.116Z" fill="#F5F5F5"/>
<path d="M269.861 424.116H299.882V438.17H284.878C284.878 436.461 284.199 434.822 282.991 433.614C281.783 432.405 280.144 431.726 278.435 431.726H269.861V424.116Z" fill="#F5F5F5"/>
<path d="M214.703 335.071C214.703 336.592 214.252 338.08 213.407 339.344C212.562 340.609 211.361 341.595 209.955 342.177C208.55 342.76 207.003 342.912 205.511 342.615C204.019 342.318 202.648 341.586 201.573 340.51C200.497 339.434 199.764 338.064 199.468 336.572C199.171 335.08 199.323 333.533 199.905 332.128C200.487 330.722 201.473 329.521 202.738 328.676C204.003 327.831 205.49 327.379 207.012 327.379C209.052 327.379 211.008 328.19 212.45 329.632C213.893 331.075 214.703 333.031 214.703 335.071Z" fill="#E0E0E0"/>
<path d="M214.703 329.645C214.703 331.166 214.252 332.653 213.407 333.918C212.562 335.183 211.361 336.169 209.955 336.751C208.55 337.333 207.003 337.486 205.511 337.189C204.019 336.892 202.648 336.159 201.573 335.084C200.497 334.008 199.764 332.637 199.468 331.145C199.171 329.653 199.323 328.107 199.905 326.701C200.487 325.296 201.473 324.095 202.738 323.249C204.003 322.404 205.49 321.953 207.012 321.953C209.052 321.953 211.008 322.764 212.45 324.206C213.893 325.648 214.703 327.605 214.703 329.645Z" fill="#F5F5F5"/>
<path d="M214.703 397.039C214.701 398.559 214.247 400.045 213.4 401.308C212.554 402.571 211.351 403.555 209.946 404.135C208.54 404.715 206.994 404.866 205.503 404.567C204.011 404.269 202.642 403.536 201.568 402.459C200.494 401.383 199.762 400.012 199.467 398.521C199.171 397.029 199.324 395.483 199.907 394.079C200.489 392.674 201.475 391.473 202.74 390.629C204.004 389.784 205.491 389.333 207.012 389.333C208.023 389.333 209.024 389.533 209.958 389.92C210.892 390.308 211.741 390.875 212.455 391.591C213.17 392.307 213.736 393.156 214.122 394.091C214.507 395.026 214.705 396.028 214.703 397.039Z" fill="#E0E0E0"/>
<path d="M214.703 391.613C214.701 393.133 214.247 394.619 213.4 395.882C212.554 397.145 211.351 398.129 209.946 398.709C208.54 399.289 206.994 399.44 205.503 399.141C204.011 398.843 202.642 398.109 201.568 397.033C200.494 395.957 199.762 394.586 199.467 393.095C199.171 391.603 199.324 390.057 199.907 388.653C200.489 387.248 201.475 386.047 202.74 385.203C204.004 384.358 205.491 383.907 207.012 383.907C208.023 383.907 209.024 384.107 209.958 384.494C210.892 384.882 211.741 385.449 212.455 386.165C213.17 386.881 213.736 387.73 214.122 388.665C214.507 389.6 214.705 390.602 214.703 391.613Z" fill="#F5F5F5"/>
<path d="M196.851 196.525C196.882 196.001 196.806 195.476 196.626 194.982C196.447 194.489 196.169 194.037 195.809 193.655C195.449 193.272 195.014 192.968 194.532 192.76C194.05 192.551 193.53 192.444 193.005 192.444C192.48 192.444 191.96 192.551 191.478 192.76C190.996 192.968 190.561 193.272 190.201 193.655C189.841 194.037 189.563 194.489 189.384 194.982C189.204 195.476 189.128 196.001 189.159 196.525V209.643C189.217 210.624 189.648 211.545 190.363 212.219C191.078 212.892 192.023 213.267 193.005 213.267C193.987 213.267 194.932 212.892 195.647 212.219C196.362 211.545 196.793 210.624 196.851 209.643V196.525Z" fill="#E0E0E0"/>
<path d="M196.851 191.099C196.882 190.575 196.806 190.05 196.626 189.556C196.447 189.062 196.169 188.61 195.809 188.228C195.449 187.846 195.014 187.541 194.532 187.333C194.05 187.125 193.53 187.018 193.005 187.018C192.48 187.018 191.96 187.125 191.478 187.333C190.996 187.541 190.561 187.846 190.201 188.228C189.841 188.61 189.563 189.062 189.384 189.556C189.204 190.05 189.128 190.575 189.159 191.099V204.217C189.217 205.197 189.648 206.119 190.363 206.792C191.078 207.466 192.023 207.841 193.005 207.841C193.987 207.841 194.932 207.466 195.647 206.792C196.362 206.119 196.793 205.197 196.851 204.217V191.099Z" fill="#F5F5F5"/>
<path d="M225.108 196.525C225.139 196.001 225.063 195.476 224.884 194.982C224.704 194.489 224.426 194.037 224.066 193.655C223.706 193.272 223.271 192.968 222.789 192.76C222.307 192.551 221.787 192.444 221.262 192.444C220.737 192.444 220.217 192.551 219.735 192.76C219.253 192.968 218.818 193.272 218.458 193.655C218.098 194.037 217.82 194.489 217.641 194.982C217.462 195.476 217.385 196.001 217.416 196.525V209.643C217.475 210.624 217.905 211.545 218.62 212.219C219.335 212.892 220.28 213.267 221.262 213.267C222.244 213.267 223.19 212.892 223.904 212.219C224.619 211.545 225.05 210.624 225.108 209.643V196.525Z" fill="#E0E0E0"/>
<path d="M225.108 191.099C225.139 190.575 225.063 190.05 224.884 189.556C224.704 189.062 224.426 188.61 224.066 188.228C223.706 187.846 223.271 187.541 222.789 187.333C222.307 187.125 221.787 187.018 221.262 187.018C220.737 187.018 220.217 187.125 219.735 187.333C219.253 187.541 218.818 187.846 218.458 188.228C218.098 188.61 217.82 189.062 217.641 189.556C217.462 190.05 217.385 190.575 217.416 191.099V204.217C217.475 205.197 217.905 206.119 218.62 206.792C219.335 207.466 220.28 207.841 221.262 207.841C222.244 207.841 223.19 207.466 223.904 206.792C224.619 206.119 225.05 205.197 225.108 204.217V191.099Z" fill="#F5F5F5"/>
<path d="M597.634 217.416V211.149H418.16V217.416H597.634Z" fill="#F5F5F5"/>
<path d="M465.993 217.43H435.972V231.497H450.989C450.988 230.651 451.153 229.812 451.476 229.029C451.799 228.247 452.274 227.536 452.873 226.937C453.471 226.338 454.182 225.864 454.965 225.541C455.748 225.217 456.586 225.052 457.433 225.054H465.993V217.43Z" fill="#E0E0E0"/>
<path d="M452.427 217.43H430.546V231.497H437.424C437.422 230.651 437.587 229.812 437.911 229.029C438.234 228.247 438.708 227.536 439.307 226.937C439.906 226.338 440.617 225.864 441.399 225.541C442.182 225.217 443.021 225.052 443.867 225.054H452.427V217.43Z" fill="#F5F5F5"/>
<path d="M549.801 217.43H579.836V231.497H564.819C564.819 229.789 564.14 228.15 562.931 226.941C561.723 225.733 560.084 225.054 558.375 225.054H549.801V217.43Z" fill="#EBEBEB"/>
<path d="M563.367 217.43H585.262V231.497H578.384C578.384 229.789 577.705 228.15 576.497 226.941C575.288 225.733 573.649 225.054 571.94 225.054H563.367V217.43Z" fill="#F5F5F5"/>
<path d="M514.476 191.913C514.608 186.994 516.655 182.321 520.181 178.889C523.706 175.456 528.432 173.536 533.353 173.536C538.274 173.536 543 175.456 546.525 178.889C550.051 182.321 552.098 186.994 552.23 191.913V211.434H514.476V191.913Z" fill="#F0F0F0"/>
<path d="M547.686 195.28C549.557 187.354 544.648 179.412 536.722 177.541C528.796 175.67 520.854 180.579 518.983 188.505C517.112 196.431 522.021 204.373 529.947 206.244C537.873 208.115 545.815 203.206 547.686 195.28Z" fill="#FAFAFA"/>
<path d="M533.36 179.487C537.064 179.489 540.631 180.886 543.351 183.4C546.071 185.914 547.744 189.36 548.038 193.052C548.038 192.673 548.106 192.293 548.106 191.899C548.106 187.989 546.552 184.238 543.787 181.473C541.021 178.707 537.271 177.154 533.36 177.154C529.449 177.154 525.698 178.707 522.933 181.473C520.168 184.238 518.614 187.989 518.614 191.899C518.614 192.293 518.614 192.673 518.614 193.052C518.908 189.349 520.591 185.893 523.326 183.377C526.06 180.861 529.644 179.472 533.36 179.487Z" fill="#E0E0E0"/>
<path d="M542.625 191.9H534.879V184.154C534.879 183.74 534.715 183.343 534.422 183.05C534.13 182.758 533.733 182.594 533.319 182.594C532.905 182.594 532.509 182.758 532.216 183.05C531.923 183.343 531.759 183.74 531.759 184.154V193.46C531.757 193.665 531.796 193.869 531.874 194.059C531.952 194.249 532.067 194.421 532.212 194.567C532.357 194.712 532.53 194.827 532.72 194.905C532.91 194.982 533.114 195.021 533.319 195.02H542.625C543.039 195.02 543.436 194.855 543.728 194.563C544.021 194.27 544.185 193.873 544.185 193.46C544.185 193.046 544.021 192.649 543.728 192.356C543.436 192.064 543.039 191.9 542.625 191.9Z" fill="#E0E0E0"/>
<path d="M542.625 193.473C543.039 193.473 543.436 193.309 543.728 193.016C544.021 192.724 544.185 192.327 544.185 191.913C544.185 191.499 544.021 191.103 543.728 190.81C543.436 190.517 543.039 190.353 542.625 190.353H533.319C532.905 190.353 532.509 190.517 532.216 190.81C531.923 191.103 531.759 191.499 531.759 191.913C531.759 192.327 531.923 192.724 532.216 193.016C532.509 193.309 532.905 193.473 533.319 193.473H542.625Z" fill="#F5F5F5"/>
<path d="M534.92 182.594C534.92 182.18 534.756 181.783 534.463 181.49C534.17 181.198 533.774 181.033 533.36 181.033C532.946 181.033 532.549 181.198 532.257 181.49C531.964 181.783 531.8 182.18 531.8 182.594V191.913C531.8 192.327 531.964 192.724 532.257 193.016C532.549 193.309 532.946 193.473 533.36 193.473C533.774 193.473 534.17 193.309 534.463 193.016C534.756 192.724 534.92 192.327 534.92 191.913V182.594Z" fill="#EBEBEB"/>
<path d="M332.602 500.178C477.866 500.178 595.626 493.303 595.626 484.822C595.626 476.341 477.866 469.466 332.602 469.466C187.338 469.466 69.5781 476.341 69.5781 484.822C69.5781 493.303 187.338 500.178 332.602 500.178Z" fill="#F5F5F5"/>
<path d="M447.924 445.495H305.905C303.172 445.523 300.463 444.987 297.948 443.92C295.432 442.854 293.163 441.279 291.284 439.295C289.404 437.311 287.954 434.961 287.025 432.391C286.096 429.821 285.707 427.087 285.882 424.36L304.331 72.2778C304.684 66.5961 307.174 61.2585 311.301 57.3377C315.428 53.4169 320.887 51.2036 326.579 51.1425H468.584C471.318 51.1126 474.028 51.6474 476.546 52.7135C479.063 53.7795 481.333 55.3539 483.214 57.3379C485.095 59.3219 486.546 61.6729 487.476 64.2437C488.407 66.8144 488.796 69.5496 488.62 72.2778L470.171 424.36C469.815 430.041 467.324 435.377 463.198 439.297C459.071 443.217 453.615 445.431 447.924 445.495Z" fill="#6750A4"/>
<path d="M467.851 65.3186H325.833C322.225 65.3626 318.766 66.768 316.15 69.2533C313.534 71.7385 311.953 75.1203 311.725 78.7214L293.954 417.862C293.841 419.592 294.088 421.326 294.677 422.956C295.266 424.586 296.185 426.077 297.377 427.335C298.569 428.593 300.008 429.592 301.604 430.268C303.2 430.944 304.918 431.284 306.651 431.265H448.67C452.278 431.221 455.736 429.816 458.352 427.33C460.968 424.845 462.549 421.463 462.778 417.862L480.549 78.7214C480.661 76.9919 480.415 75.2578 479.826 73.6278C479.237 71.9978 478.317 70.507 477.125 69.2488C475.933 67.9906 474.494 66.9921 472.899 66.3158C471.303 65.6395 469.585 65.3 467.851 65.3186Z" fill="#6750A4"/>
<path opacity="0.8" d="M467.851 65.3186H325.833C322.225 65.3626 318.766 66.768 316.15 69.2533C313.534 71.7385 311.953 75.1203 311.725 78.7214L293.954 417.862C293.841 419.592 294.088 421.326 294.677 422.956C295.266 424.586 296.185 426.077 297.377 427.335C298.569 428.593 300.008 429.592 301.604 430.268C303.2 430.944 304.918 431.284 306.651 431.265H448.67C452.278 431.221 455.736 429.816 458.352 427.33C460.968 424.845 462.549 421.463 462.778 417.862L480.549 78.7214C480.661 76.9919 480.415 75.2578 479.826 73.6278C479.237 71.9978 478.317 70.507 477.125 69.2488C475.933 67.9906 474.494 66.9921 472.899 66.3158C471.303 65.6395 469.585 65.3 467.851 65.3186Z" fill="white"/>
<path d="M480.223 51.1425H468.625C471.358 51.1126 474.069 51.6474 476.586 52.7135C479.104 53.7795 481.374 55.3539 483.255 57.3379C485.136 59.3219 486.587 61.6729 487.517 64.2437C488.447 66.8144 488.837 69.5496 488.661 72.2778L470.212 424.36C469.859 430.042 467.369 435.379 463.242 439.3C459.115 443.221 453.657 445.434 447.964 445.495H459.563C465.255 445.434 470.713 443.221 474.841 439.3C478.968 435.379 481.458 430.042 481.81 424.36L500.26 72.2778C500.435 69.5496 500.046 66.8144 499.116 64.2437C498.185 61.6729 496.734 59.3219 494.854 57.3379C492.973 55.3539 490.702 53.7795 488.185 52.7135C485.667 51.6474 482.957 51.1126 480.223 51.1425Z" fill="#6750A4"/>
<path opacity="0.4" d="M480.223 51.1425H468.625C471.358 51.1126 474.069 51.6474 476.586 52.7135C479.104 53.7795 481.374 55.3539 483.255 57.3379C485.136 59.3219 486.587 61.6729 487.517 64.2437C488.447 66.8144 488.837 69.5496 488.661 72.2778L470.212 424.36C469.859 430.042 467.369 435.379 463.242 439.3C459.115 443.221 453.657 445.434 447.964 445.495H459.563C465.255 445.434 470.713 443.221 474.841 439.3C478.968 435.379 481.458 430.042 481.81 424.36L500.26 72.2778C500.435 69.5496 500.046 66.8144 499.116 64.2437C498.185 61.6729 496.734 59.3219 494.854 57.3379C492.973 55.3539 490.702 53.7795 488.185 52.7135C485.667 51.6474 482.957 51.1126 480.223 51.1425Z" fill="white"/>
<path opacity="0.4" d="M325.819 65.3186L345.11 431.387H395.302L376.012 65.3864H325.819V65.3186Z" fill="white"/>
<path opacity="0.4" d="M404.391 431.319H415.692L396.401 65.3186H385.101L404.391 431.319Z" fill="white"/>
<path d="M332.982 44.9702H337.961C338.122 44.9702 338.278 44.9059 338.392 44.7914C338.507 44.6769 338.571 44.5216 338.571 44.3597C338.571 44.1978 338.507 44.0426 338.392 43.9281C338.278 43.8136 338.122 43.7493 337.961 43.7493H332.982C332.82 43.7493 332.665 43.8136 332.55 43.9281C332.436 44.0426 332.371 44.1978 332.371 44.3597C332.371 44.5216 332.436 44.6769 332.55 44.7914C332.665 44.9059 332.82 44.9702 332.982 44.9702Z" fill="#6750A4"/>
<path d="M296.789 85.1516C297.101 79.3455 296.857 73.146 298.145 67.5162C301.021 54.439 312.769 45.4857 325.928 45.038C326.701 45.038 326.715 43.79 325.928 43.8171C320.167 43.9432 314.561 45.7002 309.759 48.884C304.956 52.0679 301.155 56.5482 298.797 61.8051C295.595 69.0627 296.083 77.4598 295.649 85.2194C295.649 86.0062 296.83 86.0062 296.87 85.2194L296.789 85.1516Z" fill="#6750A4"/>
<path d="M408.027 137.963H375.47C374.037 137.979 372.617 137.699 371.298 137.141C369.979 136.583 368.79 135.758 367.804 134.719C366.819 133.68 366.058 132.448 365.57 131.102C365.083 129.755 364.878 128.322 364.97 126.893L366.679 94.3356C366.861 91.3586 368.164 88.5612 370.327 86.5071C372.489 84.453 375.35 83.2948 378.332 83.266H410.889C412.321 83.2499 413.74 83.5297 415.059 84.088C416.377 84.6463 417.566 85.471 418.55 86.5104C419.535 87.5497 420.294 88.7813 420.78 90.1279C421.266 91.4745 421.469 92.907 421.376 94.3356L419.68 126.893C419.492 129.868 418.187 132.662 416.026 134.714C413.864 136.767 411.007 137.928 408.027 137.963Z" fill="white"/>
<path d="M387.244 115.525C384.962 113.026 383.615 109.815 383.433 106.436H383.297C381.94 106.436 380.991 104.984 381.086 103.207C381.181 101.43 382.32 99.9788 383.636 99.9788H383.975L384.219 99.1106C392.074 98.69 396.428 96.099 398.83 93.9828C399.328 95.0432 400.045 95.9864 400.934 96.7508C401.822 97.5152 402.861 98.0836 403.984 98.4187C404.107 98.9206 404.215 99.4497 404.296 99.9788H404.636C405.992 99.9788 406.955 101.417 406.86 103.207C406.765 104.998 405.612 106.436 404.296 106.436H404.161C403.61 109.691 402.103 112.708 399.833 115.104C401.69 115.695 403.648 115.893 405.585 115.688C413.521 115.227 409.329 98.9071 405.056 93.0603C402.452 89.479 400.986 87.8104 399.508 88.4751C397.853 87.5662 387.909 83.4694 381.479 95.5292C374.805 108.05 372.824 119.445 387.244 115.525Z" fill="#6750A4"/>
<path d="M409.099 124.302L400.891 121.684C400.891 121.684 393.797 124.397 392.101 131.18C391.124 124.397 384.314 121.684 384.314 121.684L375.836 124.302C370.749 125.007 368.28 129.362 367.086 133.866C368.072 135.148 369.343 136.183 370.798 136.889C372.253 137.595 373.852 137.953 375.469 137.935H408.027C409.702 137.928 411.357 137.56 412.878 136.858C414.399 136.156 415.752 135.136 416.845 133.866C416.126 129.362 414.104 125.007 409.099 124.302Z" fill="#6750A4"/>
<path d="M431.591 133.174C431.638 132.533 431.638 131.889 431.591 131.248L434.833 128.453C434.543 127.109 434.088 125.805 433.476 124.573L429.311 124.79C428.588 123.766 427.72 122.852 426.734 122.077L427.168 117.926C425.974 117.236 424.698 116.699 423.37 116.325L420.331 119.378C419.697 119.291 419.058 119.246 418.418 119.242C417.769 119.246 417.121 119.291 416.478 119.378L413.86 116.298C412.481 116.674 411.152 117.211 409.899 117.899V122.091C408.831 122.867 407.869 123.779 407.037 124.804L402.899 124.587C402.15 125.808 401.54 127.109 401.081 128.467L404.025 131.261C403.899 131.896 403.822 132.54 403.795 133.188C403.747 133.824 403.747 134.464 403.795 135.1L400.566 137.895C400.861 139.238 401.317 140.54 401.922 141.775L406.087 141.558C406.818 142.576 407.685 143.489 408.665 144.271L408.244 148.422C409.434 149.112 410.705 149.649 412.029 150.022L414.986 146.943C415.62 147.03 416.259 147.075 416.899 147.079C417.543 147.075 418.187 147.03 418.825 146.943L421.457 150.022C422.834 149.643 424.163 149.105 425.418 148.422V144.271C426.48 143.488 427.442 142.576 428.28 141.558L432.418 141.775C433.169 140.556 433.774 139.254 434.222 137.895L431.387 135.087C431.496 134.454 431.564 133.815 431.591 133.174ZM417.455 137.529C416.89 137.539 416.329 137.432 415.808 137.214C415.286 136.997 414.816 136.672 414.427 136.263C414.038 135.853 413.738 135.367 413.547 134.835C413.356 134.303 413.278 133.738 413.318 133.174C413.393 132 413.908 130.898 414.761 130.089C415.613 129.279 416.74 128.821 417.916 128.806C418.477 128.804 419.032 128.919 419.546 129.142C420.06 129.364 420.523 129.691 420.905 130.101C421.287 130.511 421.58 130.996 421.766 131.525C421.952 132.054 422.027 132.615 421.986 133.174C421.915 134.336 421.409 135.429 420.57 136.235C419.731 137.042 418.619 137.504 417.455 137.529Z" fill="#6750A4"/>
<path opacity="0.4" d="M431.591 133.174C431.638 132.533 431.638 131.889 431.591 131.248L434.833 128.453C434.543 127.109 434.088 125.805 433.476 124.573L429.311 124.79C428.588 123.766 427.72 122.852 426.734 122.077L427.168 117.926C425.974 117.236 424.698 116.699 423.37 116.325L420.331 119.378C419.697 119.291 419.058 119.246 418.418 119.242C417.769 119.246 417.121 119.291 416.478 119.378L413.86 116.298C412.481 116.674 411.152 117.211 409.899 117.899V122.091C408.831 122.867 407.869 123.779 407.037 124.804L402.899 124.587C402.15 125.808 401.54 127.109 401.081 128.467L404.025 131.261C403.899 131.896 403.822 132.54 403.795 133.188C403.747 133.824 403.747 134.464 403.795 135.1L400.566 137.895C400.861 139.238 401.317 140.54 401.922 141.775L406.087 141.558C406.818 142.576 407.685 143.489 408.665 144.271L408.244 148.422C409.434 149.112 410.705 149.649 412.029 150.022L414.986 146.943C415.62 147.03 416.259 147.075 416.899 147.079C417.543 147.075 418.187 147.03 418.825 146.943L421.457 150.022C422.834 149.643 424.163 149.105 425.418 148.422V144.271C426.48 143.488 427.442 142.576 428.28 141.558L432.418 141.775C433.169 140.556 433.774 139.254 434.222 137.895L431.387 135.087C431.496 134.454 431.564 133.815 431.591 133.174ZM417.455 137.529C416.89 137.539 416.329 137.432 415.808 137.214C415.286 136.997 414.816 136.672 414.427 136.263C414.038 135.853 413.738 135.367 413.547 134.835C413.356 134.303 413.278 133.738 413.318 133.174C413.393 132 413.908 130.898 414.761 130.089C415.613 129.279 416.74 128.821 417.916 128.806C418.477 128.804 419.032 128.919 419.546 129.142C420.06 129.364 420.523 129.691 420.905 130.101C421.287 130.511 421.58 130.996 421.766 131.525C421.952 132.054 422.027 132.615 421.986 133.174C421.915 134.336 421.409 135.429 420.57 136.235C419.731 137.042 418.619 137.504 417.455 137.529Z" fill="white"/>
<path d="M417.455 137.528C416.89 137.539 416.329 137.432 415.808 137.214C415.286 136.996 414.816 136.672 414.427 136.263C414.038 135.853 413.738 135.367 413.547 134.835C413.356 134.303 413.278 133.737 413.318 133.174C413.393 132 413.908 130.898 414.761 130.088C415.613 129.278 416.74 128.82 417.916 128.806C418.477 128.804 419.032 128.918 419.546 129.141C420.06 129.364 420.523 129.691 420.905 130.101C421.287 130.511 421.58 130.996 421.766 131.525C421.952 132.053 422.027 132.615 421.986 133.174C421.915 134.336 421.409 135.428 420.57 136.235C419.731 137.042 418.619 137.503 417.455 137.528Z" fill="white"/>
<path d="M389.483 288.093H384.857L385.277 280.144H389.89L389.483 288.093Z" fill="#6750A4"/>
<path d="M410.523 288.093H405.911L406.603 274.989H411.215L410.523 288.093Z" fill="#6750A4"/>
<path d="M431.577 288.093H426.965L427.914 269.834H432.54L431.577 288.093Z" fill="#6750A4"/>
<path d="M452.631 288.093H448.005L449.239 264.693H453.852L452.631 288.093Z" fill="white"/>
<path d="M325.684 288.093H349.152C352.314 288.062 355.346 286.834 357.639 284.657C359.932 282.48 361.315 279.515 361.51 276.359C361.608 274.845 361.391 273.326 360.875 271.899C360.358 270.472 359.552 269.167 358.508 268.066C357.464 266.964 356.204 266.09 354.806 265.498C353.409 264.906 351.904 264.609 350.387 264.625H326.932C323.77 264.657 320.738 265.884 318.445 268.062C316.152 270.239 314.769 273.203 314.573 276.359C314.476 277.873 314.692 279.39 315.208 280.816C315.724 282.242 316.528 283.547 317.571 284.648C318.614 285.749 319.872 286.623 321.268 287.216C322.664 287.809 324.167 288.108 325.684 288.093Z" fill="white"/>
<path d="M326.782 267.243H350.251C353.095 267.211 355.841 268.281 357.915 270.228C359.988 272.175 361.228 274.848 361.375 277.689C361.443 277.268 361.483 276.834 361.51 276.4C361.608 274.885 361.391 273.367 360.874 271.94C360.358 270.513 359.552 269.208 358.508 268.106C357.464 267.005 356.204 266.131 354.806 265.539C353.409 264.947 351.904 264.649 350.387 264.666H326.932C323.77 264.697 320.738 265.925 318.445 268.102C316.152 270.279 314.769 273.244 314.573 276.4C314.573 276.834 314.573 277.268 314.573 277.689C315.065 274.794 316.556 272.164 318.787 270.256C321.018 268.347 323.847 267.281 326.782 267.243Z" fill="#6750A4"/>
<path opacity="0.3" d="M326.782 267.243H350.251C353.095 267.211 355.841 268.281 357.915 270.228C359.988 272.175 361.228 274.848 361.375 277.689C361.443 277.268 361.483 276.834 361.51 276.4C361.608 274.885 361.391 273.367 360.874 271.94C360.358 270.513 359.552 269.208 358.508 268.106C357.464 267.005 356.204 266.131 354.806 265.539C353.409 264.947 351.904 264.649 350.387 264.666H326.932C323.77 264.697 320.738 265.925 318.445 268.102C316.152 270.279 314.769 273.244 314.573 276.4C314.573 276.834 314.573 277.268 314.573 277.689C315.065 274.794 316.556 272.164 318.787 270.256C321.018 268.347 323.847 267.281 326.782 267.243Z" fill="white"/>
<path d="M334.272 284.523C339.037 279.88 339.326 272.449 334.918 267.925C330.51 263.402 323.074 263.499 318.309 268.143C313.545 272.786 313.255 280.217 317.663 284.74C322.071 289.263 329.507 289.166 334.272 284.523Z" fill="#6750A4"/>
<path d="M312.457 389.252H307.845L308.401 378.725H313.013L312.457 389.252Z" fill="#6750A4"/>
<path d="M329.577 386.675H324.965L325.182 382.592H329.794L329.577 386.675Z" fill="#6750A4"/>
<path d="M346.493 387.963H341.881L342.22 381.303H346.846L346.493 387.963Z" fill="#6750A4"/>
<path d="M363.545 386.675H358.919L359.136 382.592H363.762L363.545 386.675Z" fill="#6750A4"/>
<path d="M380.394 389.252H375.768L376.324 378.725H380.936L380.394 389.252Z" fill="#6750A4"/>
<path d="M397.5 386.675H392.888L393.105 382.592H397.717L397.5 386.675Z" fill="#6750A4"/>
<path d="M414.416 387.963H409.804L410.157 381.303H414.769L414.416 387.963Z" fill="#6750A4"/>
<path d="M431.468 386.675H426.856L427.06 382.592H431.685L431.468 386.675Z" fill="#6750A4"/>
<path d="M448.317 389.252H443.705L444.247 378.725H448.873L448.317 389.252Z" fill="#6750A4"/>
<g opacity="0.3">
<path d="M312.457 389.252H307.845L308.401 378.725H313.013L312.457 389.252Z" fill="black"/>
<path d="M329.577 386.675H324.965L325.182 382.592H329.794L329.577 386.675Z" fill="black"/>
<path d="M346.493 387.963H341.881L342.22 381.303H346.846L346.493 387.963Z" fill="black"/>
<path d="M363.545 386.675H358.919L359.136 382.592H363.762L363.545 386.675Z" fill="black"/>
<path d="M380.394 389.252H375.768L376.324 378.725H380.936L380.394 389.252Z" fill="black"/>
<path d="M397.5 386.675H392.888L393.105 382.592H397.717L397.5 386.675Z" fill="black"/>
<path d="M414.416 387.963H409.804L410.157 381.303H414.769L414.416 387.963Z" fill="black"/>
<path d="M431.468 386.675H426.856L427.06 382.592H431.686L431.468 386.675Z" fill="black"/>
<path d="M448.317 389.252H443.705L444.247 378.725H448.873L448.317 389.252Z" fill="black"/>
</g>
<path d="M367.357 390.989C367.425 389.822 367.629 385.793 367.696 384.64C367.764 383.487 367.968 379.444 368.022 378.291C368.076 377.471 367.961 376.649 367.682 375.876C367.404 375.103 366.969 374.396 366.405 373.799C365.841 373.202 365.16 372.727 364.404 372.406C363.648 372.084 362.834 371.922 362.012 371.929C360.3 371.95 358.66 372.617 357.419 373.797C356.179 374.977 355.431 376.582 355.325 378.291C355.257 379.444 355.053 383.473 354.985 384.64C354.918 385.807 354.714 389.822 354.66 390.989C354.608 391.807 354.725 392.628 355.004 393.399C355.283 394.171 355.718 394.876 356.282 395.472C356.846 396.068 357.526 396.541 358.281 396.862C359.036 397.183 359.849 397.345 360.669 397.337C362.379 397.317 364.018 396.652 365.258 395.474C366.498 394.297 367.248 392.695 367.357 390.989Z" fill="#6750A4"/>
<path d="M322.713 344.662H346.195C349.355 344.63 352.386 343.402 354.677 341.224C356.967 339.047 358.348 336.082 358.54 332.928C358.639 331.414 358.424 329.896 357.909 328.469C357.394 327.042 356.59 325.736 355.547 324.635C354.504 323.533 353.244 322.659 351.847 322.067C350.45 321.474 348.946 321.177 347.429 321.194H323.947C320.786 321.225 317.753 322.453 315.46 324.63C313.168 326.807 311.784 329.772 311.589 332.928C311.492 334.442 311.708 335.961 312.225 337.388C312.741 338.815 313.547 340.12 314.591 341.221C315.635 342.323 316.896 343.197 318.293 343.789C319.691 344.381 321.195 344.678 322.713 344.662Z" fill="white"/>
<path d="M323.812 323.771H347.28C350.123 323.739 352.867 324.809 354.939 326.757C357.01 328.704 358.247 331.377 358.39 334.217C358.463 333.79 358.508 333.36 358.526 332.928C358.625 331.414 358.41 329.896 357.895 328.469C357.38 327.042 356.576 325.736 355.533 324.635C354.49 323.533 353.231 322.659 351.834 322.067C350.437 321.474 348.933 321.177 347.416 321.194H323.947C320.786 321.225 317.753 322.453 315.46 324.63C313.168 326.807 311.784 329.772 311.589 332.928C311.589 333.362 311.589 333.796 311.589 334.217C312.076 331.318 313.568 328.683 315.802 326.773C318.037 324.863 320.872 323.8 323.812 323.771Z" fill="#6750A4"/>
<path opacity="0.3" d="M323.812 323.771H347.28C350.123 323.739 352.867 324.809 354.939 326.757C357.01 328.704 358.247 331.377 358.39 334.217C358.463 333.79 358.508 333.36 358.526 332.928C358.625 331.414 358.41 329.896 357.895 328.469C357.38 327.042 356.576 325.736 355.533 324.635C354.49 323.533 353.231 322.659 351.834 322.067C350.437 321.474 348.933 321.177 347.416 321.194H323.947C320.786 321.225 317.753 322.453 315.46 324.63C313.168 326.807 311.784 329.772 311.589 332.928C311.589 333.362 311.589 333.796 311.589 334.217C312.076 331.318 313.568 328.683 315.802 326.773C318.037 324.863 320.872 323.8 323.812 323.771Z" fill="white"/>
<path d="M335.071 332.928C335.266 329.772 336.65 326.807 338.943 324.63C341.235 322.453 344.268 321.225 347.429 321.194C348.946 321.177 350.45 321.474 351.847 322.067C353.244 322.659 354.504 323.533 355.547 324.635C356.59 325.736 357.394 327.042 357.909 328.469C358.424 329.896 358.639 331.414 358.54 332.928C358.348 336.082 356.967 339.047 354.677 341.224C352.386 343.402 349.355 344.63 346.195 344.662C344.677 344.678 343.173 344.381 341.775 343.789C340.378 343.197 339.117 342.323 338.073 341.221C337.029 340.12 336.224 338.815 335.707 337.388C335.19 335.961 334.974 334.442 335.071 332.928Z" fill="#6750A4"/>
<path d="M325.019 180.423H453.092C454.77 180.406 456.38 179.754 457.598 178.599C458.816 177.444 459.552 175.871 459.658 174.196C459.708 173.393 459.592 172.588 459.318 171.831C459.044 171.075 458.616 170.383 458.062 169.799C457.509 169.214 456.841 168.751 456.1 168.436C455.359 168.121 454.562 167.963 453.757 167.97H325.67C323.993 167.987 322.385 168.639 321.169 169.794C319.954 170.95 319.221 172.522 319.118 174.196C319.063 175.001 319.176 175.807 319.449 176.566C319.722 177.324 320.149 178.018 320.704 178.603C321.258 179.188 321.928 179.652 322.671 179.965C323.413 180.278 324.213 180.434 325.019 180.423Z" fill="white"/>
<path d="M325.67 170.724H453.689C455.027 170.712 456.328 171.161 457.373 171.997C458.418 172.832 459.143 174.001 459.427 175.309C459.502 174.955 459.557 174.597 459.59 174.237C459.64 173.434 459.525 172.629 459.25 171.872C458.976 171.116 458.548 170.424 457.995 169.839C457.441 169.255 456.773 168.791 456.032 168.477C455.291 168.162 454.494 168.003 453.689 168.01H325.67C323.993 168.028 322.385 168.68 321.169 169.835C319.954 170.99 319.221 172.563 319.118 174.237C319.088 174.794 319.143 175.352 319.281 175.892C319.61 174.438 320.419 173.137 321.579 172.199C322.738 171.262 324.179 170.742 325.67 170.724Z" fill="#6750A4"/>
<path opacity="0.3" d="M325.67 170.724H453.689C455.027 170.712 456.328 171.161 457.373 171.997C458.418 172.832 459.143 174.001 459.427 175.309C459.502 174.955 459.557 174.597 459.59 174.237C459.64 173.434 459.525 172.629 459.25 171.872C458.976 171.116 458.548 170.424 457.995 169.839C457.441 169.255 456.773 168.791 456.032 168.477C455.291 168.162 454.494 168.003 453.689 168.01H325.67C323.993 168.028 322.385 168.68 321.169 169.835C319.954 170.99 319.221 172.563 319.118 174.237C319.088 174.794 319.143 175.352 319.281 175.892C319.61 174.438 320.419 173.137 321.579 172.199C322.738 171.262 324.179 170.742 325.67 170.724Z" fill="white"/>
<path d="M356.406 182.403C361.172 177.76 361.462 170.33 357.055 165.805C352.648 161.281 345.212 161.377 340.446 166.02C335.681 170.662 335.39 178.093 339.797 182.617C344.205 187.141 351.64 187.045 356.406 182.403Z" fill="#6750A4"/>
<path d="M450.854 325.711C450.891 325.127 450.808 324.542 450.608 323.993C450.409 323.443 450.099 322.941 449.696 322.516C449.294 322.092 448.808 321.756 448.27 321.528C447.731 321.301 447.152 321.187 446.567 321.193H408.773C407.556 321.208 406.39 321.681 405.507 322.519C404.624 323.356 404.09 324.496 404.012 325.711L403.252 340.145C403.215 340.728 403.298 341.313 403.497 341.863C403.696 342.412 404.007 342.915 404.409 343.339C404.812 343.763 405.297 344.099 405.836 344.327C406.374 344.555 406.954 344.669 407.539 344.662H445.332C446.549 344.647 447.716 344.174 448.599 343.336C449.481 342.499 450.015 341.359 450.094 340.145L450.854 325.711Z" fill="#6750A4"/>
<path d="M408.637 323.771H446.431C447.016 323.764 447.596 323.878 448.134 324.106C448.673 324.333 449.158 324.67 449.561 325.094C449.963 325.518 450.274 326.021 450.473 326.57C450.672 327.12 450.755 327.705 450.718 328.288L450.854 325.711C450.891 325.127 450.808 324.542 450.608 323.993C450.409 323.443 450.099 322.941 449.696 322.516C449.294 322.092 448.808 321.756 448.27 321.528C447.731 321.301 447.152 321.187 446.567 321.193H408.773C407.556 321.208 406.39 321.681 405.507 322.519C404.624 323.356 404.09 324.496 404.012 325.711L403.876 328.288C403.954 327.074 404.489 325.934 405.371 325.096C406.254 324.259 407.421 323.785 408.637 323.771Z" fill="#6750A4"/>
<path opacity="0.3" d="M408.637 323.771H446.431C447.016 323.764 447.596 323.878 448.134 324.106C448.673 324.333 449.158 324.67 449.561 325.094C449.963 325.518 450.274 326.021 450.473 326.57C450.672 327.12 450.755 327.705 450.718 328.288L450.854 325.711C450.891 325.127 450.808 324.542 450.608 323.993C450.409 323.443 450.099 322.941 449.696 322.516C449.294 322.092 448.808 321.756 448.27 321.528C447.731 321.301 447.152 321.187 446.567 321.193H408.773C407.556 321.208 406.39 321.681 405.507 322.519C404.624 323.356 404.09 324.496 404.012 325.711L403.876 328.288C403.954 327.074 404.489 325.934 405.371 325.096C406.254 324.259 407.421 323.785 408.637 323.771Z" fill="black"/>
<path d="M427.494 325.711C427.531 325.127 427.448 324.542 427.248 323.993C427.049 323.443 426.739 322.941 426.336 322.516C425.934 322.092 425.448 321.756 424.91 321.528C424.371 321.301 423.792 321.187 423.207 321.193H408.773C407.556 321.208 406.39 321.681 405.507 322.519C404.624 323.356 404.09 324.496 404.012 325.711L403.252 340.145C403.215 340.728 403.298 341.313 403.497 341.863C403.696 342.412 404.007 342.915 404.409 343.339C404.812 343.763 405.297 344.099 405.836 344.327C406.374 344.555 406.954 344.669 407.539 344.662H421.972C423.189 344.647 424.356 344.174 425.239 343.336C426.121 342.499 426.655 341.359 426.734 340.145L427.494 325.711Z" fill="white"/>
<path d="M417.469 336.903H412.856L413.277 328.953H417.889L417.469 336.903Z" fill="#6750A4"/>
<path d="M451.003 219.072H322.998C321.32 219.092 319.712 219.744 318.495 220.899C317.278 222.053 316.541 223.624 316.432 225.298C316.379 226.102 316.494 226.908 316.767 227.665C317.041 228.423 317.468 229.116 318.023 229.7C318.577 230.285 319.245 230.749 319.987 231.063C320.729 231.377 321.528 231.534 322.333 231.525H450.379C452.057 231.511 453.667 230.86 454.883 229.704C456.099 228.548 456.831 226.973 456.931 225.298C456.984 224.492 456.869 223.684 456.593 222.925C456.318 222.165 455.888 221.471 455.331 220.886C454.774 220.301 454.102 219.838 453.357 219.525C452.612 219.213 451.811 219.059 451.003 219.072Z" fill="#6750A4"/>
<path opacity="0.3" d="M322.998 221.785H451.003C452.339 221.77 453.64 222.216 454.686 223.049C455.731 223.882 456.457 225.05 456.741 226.356C456.83 226.01 456.885 225.655 456.904 225.298C456.956 224.494 456.842 223.689 456.568 222.931C456.295 222.174 455.867 221.481 455.313 220.896C454.759 220.311 454.09 219.848 453.349 219.534C452.607 219.22 451.808 219.062 451.003 219.072H322.998C322.018 219.05 321.047 219.253 320.158 219.665C319.269 220.076 318.485 220.685 317.868 221.446C317.25 222.206 316.814 223.098 316.594 224.052C316.373 225.007 316.373 225.999 316.595 226.953C316.929 225.499 317.742 224.199 318.903 223.262C320.064 222.325 321.506 221.805 322.998 221.785Z" fill="black"/>
<path d="M431.143 237.032H421.335C420.455 237.041 419.583 236.869 418.773 236.528C417.963 236.186 417.231 235.682 416.623 235.046C416.015 234.41 415.544 233.657 415.24 232.832C414.935 232.007 414.802 231.128 414.851 230.25L415.366 220.442C415.492 218.612 416.304 216.897 417.64 215.64C418.975 214.382 420.735 213.675 422.569 213.659H432.377C433.256 213.65 434.128 213.822 434.937 214.164C435.747 214.505 436.478 215.01 437.085 215.646C437.691 216.282 438.161 217.036 438.464 217.861C438.768 218.686 438.898 219.564 438.848 220.442L438.333 230.25C438.207 232.077 437.397 233.79 436.064 235.047C434.732 236.304 432.975 237.013 431.143 237.032Z" fill="white"/>
<path d="M429.461 229.273H424.848L425.269 221.323H429.881L429.461 229.273Z" fill="#6750A4"/>
<path d="M227.645 183.896L210.267 203.566C211.624 212.953 214.459 240.193 214.459 240.193C211.854 243.639 205.492 242.662 205.492 242.662C200.297 229.723 198.17 215.756 199.279 201.856C200.5 189.145 216.806 164.144 228.418 157.09C230.313 155.943 232.365 155.079 234.509 154.526L236.802 154.255L228.662 184.492L227.645 183.896Z" fill="#6750A4"/>
<path opacity="0.6" d="M227.645 183.896L210.267 203.566C211.624 212.953 214.459 240.193 214.459 240.193C211.854 243.639 205.492 242.662 205.492 242.662C200.297 229.723 198.17 215.756 199.279 201.856C200.5 189.145 216.806 164.144 228.418 157.09C230.313 155.943 232.365 155.079 234.509 154.526L236.802 154.255L228.662 184.492L227.645 183.896Z" fill="black"/>
<path d="M213.509 242.336L217.715 246.827C217.851 246.976 217.957 247.151 218.027 247.342L220.496 254.288C220.645 254.653 220.645 255.062 220.496 255.427L219.302 257.883C219.204 258.087 219.059 258.265 218.88 258.404C218.701 258.543 218.493 258.638 218.271 258.683L209.684 260.46C209.491 260.499 209.293 260.5 209.1 260.462C208.907 260.423 208.724 260.347 208.561 260.237C208.398 260.127 208.259 259.986 208.151 259.822C208.043 259.657 207.97 259.473 207.934 259.28L206.279 250.137C206.24 249.953 206.24 249.764 206.279 249.58L207.418 243.72C207.477 243.428 207.622 243.16 207.835 242.952C208.048 242.744 208.319 242.605 208.612 242.553L212.18 241.916C212.419 241.871 212.665 241.886 212.897 241.959C213.129 242.033 213.339 242.162 213.509 242.336Z" fill="#FAB27B"/>
<path d="M217.131 241.305L203.756 247.369L203.579 240.898L215.924 236.15L217.131 241.305Z" fill="#6750A4"/>
<path opacity="0.5" d="M217.131 241.305L203.756 247.369L203.579 240.898L215.924 236.15L217.131 241.305Z" fill="white"/>
<path d="M211.949 265.235C203.973 293.723 207.351 335.776 202.969 363.979C199.957 383.405 179.365 447.34 179.365 447.34L197.543 452.848C197.543 452.848 220.224 396.537 224.674 379.756C231.809 352.53 242.526 300.872 242.526 300.872C242.526 300.872 246.528 286.221 244.71 284.593C242.893 282.965 211.949 265.235 211.949 265.235Z" fill="#6750A4"/>
<path opacity="0.3" d="M231.972 284.797L245.117 289.056L240.193 312.118C240.193 312.118 242.608 290.06 231.972 284.797Z" fill="black"/>
<path d="M183.014 446.513L179.758 456.836L188.576 460.797L192.944 449.836L183.014 446.513Z" fill="#FAB27B"/>
<path opacity="0.2" d="M181.088 452.631L190.394 456.226L191.628 453.119L181.847 450.23L181.088 452.631Z" fill="black"/>
<path d="M179.555 441.683L201.789 447.761L197.76 454.923L178.307 449.185L179.555 441.683Z" fill="#6750A4"/>
<path opacity="0.5" d="M179.555 441.683L201.789 447.761L197.76 454.923L178.307 449.185L179.555 441.683Z" fill="white"/>
<path d="M190.461 462.208C190.417 462.176 190.382 462.133 190.36 462.083C190.339 462.032 190.332 461.977 190.339 461.923C190.35 461.871 190.377 461.823 190.415 461.787C190.454 461.75 190.504 461.727 190.556 461.72C190.76 461.72 195.182 461.041 196.729 462.194C196.875 462.298 196.999 462.428 197.095 462.58C197.19 462.731 197.255 462.9 197.285 463.076C197.337 463.275 197.325 463.485 197.252 463.677C197.179 463.869 197.049 464.034 196.878 464.148C195.749 464.423 194.558 464.279 193.527 463.741C192.462 463.32 191.437 462.808 190.461 462.208ZM191.384 462.208C193.229 463.212 195.847 464.216 196.593 463.727C196.702 463.727 196.824 463.551 196.756 463.171C196.744 463.061 196.705 462.956 196.644 462.864C196.582 462.772 196.5 462.696 196.403 462.642C196.273 462.538 196.126 462.455 195.969 462.398C194.468 462.034 192.912 461.961 191.384 462.181V462.208Z" fill="#6750A4"/>
<path d="M190.339 462.14C190.316 462.099 190.303 462.052 190.303 462.005C190.303 461.957 190.316 461.91 190.339 461.869C190.407 461.747 191.777 459.061 193.527 458.491C193.777 458.405 194.041 458.37 194.305 458.388C194.568 458.407 194.825 458.479 195.06 458.6C195.711 458.939 195.793 459.359 195.698 459.658C195.467 460.906 192.089 462.181 190.638 462.249C190.603 462.263 190.564 462.263 190.529 462.249C190.491 462.248 190.454 462.238 190.421 462.219C190.387 462.2 190.36 462.173 190.339 462.14ZM194.68 459.007C194.37 458.889 194.027 458.889 193.717 459.007C192.582 459.619 191.663 460.566 191.085 461.72C192.673 461.462 195.006 460.363 195.155 459.617C195.155 459.549 195.155 459.359 194.775 459.142H194.626L194.68 459.007Z" fill="#6750A4"/>
<path d="M189.919 460.336L178.591 455.9C178.384 455.814 178.154 455.803 177.939 455.867C177.724 455.931 177.538 456.067 177.411 456.253L171.754 464.677C171.513 465.034 171.422 465.472 171.5 465.896C171.579 466.32 171.821 466.696 172.175 466.942L172.487 467.105C176.557 468.625 180.314 469.818 185.401 471.826C191.397 474.186 189.593 474.309 196.607 477.171C200.839 478.894 203.512 474.363 201.802 473.427C193.961 469.154 194.083 466.318 192.049 462.127C191.587 461.285 190.827 460.647 189.919 460.336Z" fill="#263238"/>
<path d="M263.824 454.923L264.028 464.867L273.646 465.789L274.229 454.923H263.824Z" fill="#FAB27B"/>
<path opacity="0.2" d="M273.985 459.536L274.121 456.931L263.879 457.352L263.946 460.39L273.985 459.536Z" fill="black"/>
<path d="M211.949 265.235C214.961 250.883 226.98 238.104 226.98 238.104L273.103 241.061C273.103 241.061 276.006 270.689 276.685 280.592C278.041 300.587 283.657 331.639 283.806 351.689C284.01 378.82 277.797 450.813 277.797 450.813L260.379 452.875C260.379 452.875 260.636 386.281 257.788 361.171C255.631 342.179 242.635 290.006 242.635 290.006C242.635 290.006 206.916 289.301 211.949 265.235Z" fill="#6750A4"/>
<path d="M257.367 450.067L280.374 448.656L278.869 456.728L258.602 457.569L257.367 450.067Z" fill="#6750A4"/>
<path opacity="0.5" d="M257.367 450.067L280.374 448.656L278.869 456.728L258.602 457.569L257.367 450.067Z" fill="white"/>
<path d="M275.735 466.481C275.682 466.468 275.634 466.439 275.597 466.398C275.561 466.357 275.538 466.305 275.531 466.251C275.521 466.199 275.529 466.145 275.553 466.098C275.578 466.051 275.618 466.014 275.667 465.993C275.843 465.898 279.818 463.823 281.649 464.419C281.994 464.516 282.287 464.745 282.463 465.057C282.58 465.227 282.643 465.428 282.643 465.634C282.643 465.839 282.58 466.04 282.463 466.21C281.487 466.85 280.308 467.106 279.153 466.929C278.003 466.877 276.86 466.727 275.735 466.481ZM276.603 466.156C278.665 466.495 281.473 466.59 282.029 465.884C282.111 465.803 282.179 465.64 282.029 465.315C281.982 465.214 281.913 465.126 281.825 465.058C281.738 464.99 281.636 464.943 281.527 464.921C281.365 464.868 281.196 464.84 281.025 464.84C279.48 464.99 277.979 465.437 276.603 466.156Z" fill="#6750A4"/>
<path d="M275.586 466.454C275.551 466.424 275.523 466.387 275.504 466.344C275.485 466.302 275.476 466.256 275.477 466.21C275.477 466.074 275.925 463.09 277.39 461.978C277.596 461.814 277.834 461.695 278.089 461.628C278.343 461.56 278.608 461.545 278.869 461.584C279.588 461.679 279.805 462.059 279.818 462.357C280.008 463.619 277.241 465.939 275.884 466.427C275.868 466.437 275.849 466.442 275.83 466.442C275.811 466.442 275.792 466.437 275.776 466.427C275.747 466.444 275.716 466.455 275.683 466.46C275.651 466.465 275.618 466.463 275.586 466.454ZM278.679 462.072C278.341 462.06 278.01 462.166 277.743 462.371C276.878 463.299 276.315 464.467 276.128 465.722C277.485 464.962 279.384 463.144 279.343 462.385C279.343 462.317 279.343 462.127 278.828 462.072H278.679Z" fill="#6750A4"/>
<path d="M274.65 464.881L262.441 464.392C262.217 464.385 261.998 464.453 261.818 464.586C261.638 464.719 261.508 464.909 261.45 465.125L258.859 474.933C258.804 475.139 258.79 475.355 258.818 475.567C258.846 475.779 258.915 475.984 259.022 476.169C259.13 476.354 259.272 476.516 259.442 476.646C259.612 476.776 259.806 476.872 260.012 476.927C260.125 476.941 260.239 476.941 260.351 476.927C264.733 477.022 268.64 476.927 274.107 477.157C280.537 477.415 278.882 478.121 286.452 478.514C291.01 478.758 292.041 473.603 290.128 473.278C281.31 471.813 280.496 469.099 277.214 465.803C276.496 465.201 275.587 464.874 274.65 464.881Z" fill="#263238"/>
<path d="M260.229 142.819C259.429 145.383 257.421 149.71 260.229 153.577L246.379 152.22C246.379 152.22 247.858 142.005 248.712 138.654C249.268 136.497 249.987 134.151 257.272 136.185C261.45 137.393 260.772 141.083 260.229 142.819Z" fill="#FAB27B"/>
<path d="M247.735 139.034C240.112 133.147 223.996 117.193 239.46 103.262C252.334 91.6629 264.163 98.4457 268.192 106.287C272.71 115.064 282.952 138.519 260.229 142.819C256.051 143.606 251.697 142.086 247.735 139.034Z" fill="#FAB27B"/>
<path d="M236.842 152.681C236.842 152.681 247.532 143.294 267.84 155.679L267.555 158.582L237.032 155.625L236.842 152.681Z" fill="#6750A4"/>
<path opacity="0.5" d="M236.842 152.681C236.842 152.681 247.532 143.294 267.84 155.679L267.555 158.582L237.032 155.625L236.842 152.681Z" fill="white"/>
<path opacity="0.1" d="M257.313 140.052C257.313 143.185 258.276 144.813 259.402 145.627C259.611 144.673 259.888 143.734 260.229 142.819C257.503 141.625 257.313 140.052 257.313 140.052Z" fill="black"/>
<path d="M265.452 155.313C261.056 154.374 256.614 153.668 252.144 153.197C244.276 152.274 238.267 151.664 233.926 153.576C227.007 156.629 226.125 158.582 226.125 158.582L227.482 181.006C228.561 191.825 228.756 202.713 228.065 213.564C228.065 213.659 227.523 234.929 216.033 246.352C220.809 250.226 226.464 252.867 232.501 254.043L238.986 238.524L241.034 254.803C241.034 254.803 264.38 261.722 283.644 255.332C283.644 255.332 273.103 238.484 276.495 221.255C278.136 212.967 279.33 209.046 280.252 202.535C280.784 199.023 280.784 195.452 280.252 191.94L275.925 162.367C275.925 162.367 268.274 156.005 265.452 155.313Z" fill="#6750A4"/>
<path opacity="0.6" d="M265.452 155.313C261.056 154.374 256.614 153.668 252.144 153.197C244.276 152.274 238.267 151.664 233.926 153.576C227.007 156.629 226.125 158.582 226.125 158.582L227.482 181.006C228.561 191.825 228.756 202.713 228.065 213.564C228.065 213.659 227.523 234.929 216.033 246.352C220.809 250.226 226.464 252.867 232.501 254.043L238.986 238.524L241.034 254.803C241.034 254.803 264.38 261.722 283.644 255.332C283.644 255.332 273.103 238.484 276.495 221.255C278.136 212.967 279.33 209.046 280.252 202.535C280.784 199.023 280.784 195.452 280.252 191.94L275.925 162.367C275.925 162.367 268.274 156.005 265.452 155.313Z" fill="black"/>
<path d="M278.869 210.932C279.425 207.934 279.913 205.112 280.225 202.603C280.757 199.091 280.757 195.519 280.225 192.008L274.026 185.035C274.026 185.035 279.995 193.419 278.869 210.932Z" fill="black"/>
<path d="M334.23 179.066L338.517 166.857C338.6 166.611 338.775 166.407 339.005 166.288L345.72 162.855C345.902 162.769 346.105 162.737 346.305 162.764C346.505 162.79 346.693 162.874 346.846 163.005L351.635 167.21C351.824 167.378 351.943 167.61 351.968 167.862C351.993 168.113 351.923 168.365 351.77 168.567L346.819 175.078C346.763 175.153 346.717 175.235 346.683 175.322C346.303 176.285 343.753 182.376 338.327 183.896L338.123 183.977L336.305 184.94C336.084 185.075 335.82 185.119 335.567 185.064C335.314 185.008 335.093 184.857 334.949 184.642L332.629 181.4C332.542 181.279 332.482 181.139 332.455 180.992C332.428 180.845 332.435 180.694 332.474 180.55C332.513 180.406 332.583 180.272 332.681 180.158C332.778 180.045 332.899 179.954 333.036 179.894L333.647 179.609C333.778 179.567 333.898 179.497 333.999 179.403C334.1 179.309 334.179 179.194 334.23 179.066Z" fill="#FAB27B"/>
<path d="M265.33 155.299C273.456 157.304 280.582 162.18 285.394 169.028C291.432 176.651 298.252 183.621 305.742 189.824C305.742 189.824 321.424 186.487 331.313 177.927L337.119 186.595C337.119 186.595 313.298 204.556 303.599 203.62C295.324 202.82 280.239 192.049 280.239 192.049L274.026 185.076L265.33 155.299Z" fill="#6750A4"/>
<path opacity="0.6" d="M265.33 155.299C273.456 157.304 280.582 162.18 285.394 169.028C291.432 176.651 298.252 183.621 305.742 189.824C305.742 189.824 321.424 186.487 331.313 177.927L337.119 186.595C337.119 186.595 313.298 204.556 303.599 203.62C295.324 202.82 280.239 192.049 280.239 192.049L274.026 185.076L265.33 155.299Z" fill="black"/>
<path d="M331.856 176.842L340.565 187.653L334.732 189.2L327.786 179.039L331.856 176.842Z" fill="#6750A4"/>
<path opacity="0.5" d="M331.856 176.842L340.565 187.653L334.732 189.2L327.786 179.039L331.856 176.842Z" fill="white"/>
<path d="M273.849 125.034V129.24L276.685 128.846L273.849 125.034Z" fill="#E07F50"/>
<path d="M251.615 150.212C245.09 150.877 225.84 151.257 228.133 137.135C230.426 123.013 227.306 116.013 233.288 106.07C239.27 96.126 251.737 93.223 262.956 96.1667C272.303 98.6085 273.062 105.147 270.526 109.081C267.989 113.015 266.849 113.748 267.297 116.542C267.745 119.337 266.049 120.897 265.316 122.213C264.51 123.161 263.486 123.901 262.332 124.37C261.828 127.114 262 129.941 262.834 132.604C264.191 137.773 266.958 148.625 251.615 150.212Z" fill="black"/>
<path d="M260.297 96.3159C263.434 96.6409 266.488 97.5181 269.318 98.907C271.53 100.046 273.741 101.742 274.243 104.333C274.962 108.064 272.072 111.604 269.78 114.182C269.413 114.602 270.119 115.091 270.471 114.684C274.541 110.126 277.688 103.723 271.72 99.3546C268.327 97.1261 264.426 95.7915 260.379 95.4749C260.267 95.4641 260.156 95.498 260.069 95.5693C259.983 95.6405 259.928 95.7432 259.917 95.8547C259.907 95.9662 259.941 96.0775 260.012 96.164C260.083 96.2505 260.186 96.3051 260.297 96.3159Z" fill="black"/>
<path d="M233.329 105.988C229.028 111.564 228.825 118.848 227.903 125.496C227.292 130.189 222.001 139.346 225.746 143.768C226.098 144.189 226.777 143.66 226.424 143.239C223.86 140.214 226.424 135.765 227.292 132.631C228.113 129.55 228.671 126.405 228.961 123.23C229.544 117.546 230.317 111.197 233.966 106.504C234.305 106.07 233.614 105.554 233.275 105.988H233.329Z" fill="black"/>
<path d="M270.933 117.031C270.851 117.207 271 116.895 271.028 116.854C271.111 116.692 271.216 116.541 271.34 116.407C271.526 116.182 271.775 116.017 272.056 115.935C272.336 115.853 272.635 115.857 272.913 115.945C273.429 116.068 273.646 115.281 273.13 115.159C272.516 115.007 271.867 115.094 271.313 115.401C270.76 115.708 270.343 116.212 270.146 116.814C269.942 117.288 270.729 117.506 270.933 117.031Z" fill="black"/>
<path d="M267.596 123.217C268.464 125.821 267.596 128.453 265.737 129.091C263.879 129.728 261.667 128.127 260.718 125.509C259.768 122.891 260.718 120.273 262.576 119.635C264.435 118.998 266.714 120.598 267.596 123.217Z" fill="#FAB27B"/>
<path d="M274.026 116.664C273.904 117.641 272.954 117.845 272.466 117.926C271.977 118.007 271.937 118.563 272.032 119.282C272.126 120.001 272.466 120.517 272.791 120.463C273.117 120.408 273.32 119.825 273.239 119.106C273.205 118.911 273.15 118.72 273.076 118.536C274.609 117.614 274.026 116.664 274.026 116.664Z" fill="black"/>
</svg>
