<svg width="679" height="506" viewBox="0 0 679 506" fill="none" xmlns="http://www.w3.org/2000/svg">
<path d="M678.281 444.139H0V444.478H678.281V444.139Z" fill="#EBEBEB"/>
<path d="M610.318 465.966H565.388V466.305H610.318V465.966Z" fill="#EBEBEB"/>
<path d="M449.321 469.656H437.532V469.995H449.321V469.656Z" fill="#EBEBEB"/>
<path d="M564.032 453.377H537.999V453.716H564.032V453.377Z" fill="#EBEBEB"/>
<path d="M129.755 455.656H71.1653V455.995H129.755V455.656Z" fill="#EBEBEB"/>
<path d="M150.429 455.656H141.842V455.995H150.429V455.656Z" fill="#EBEBEB"/>
<path d="M305.43 461.381H178.347V461.72H305.43V461.381Z" fill="#EBEBEB"/>
<path d="M321.505 383.636H59.5666C57.5146 383.632 55.5479 382.815 54.0982 381.362C52.6485 379.91 51.8342 377.942 51.8342 375.89V7.67815C51.8521 5.63791 52.6742 3.68711 54.122 2.24948C55.5698 0.811846 57.5263 0.00349503 59.5666 0H321.505C323.56 0 325.53 0.816092 326.983 2.26874C328.435 3.7214 329.251 5.69161 329.251 7.74597V375.89C329.251 377.944 328.435 379.915 326.983 381.367C325.53 382.82 323.56 383.636 321.505 383.636ZM59.5666 0.271314C57.6046 0.274907 55.7241 1.05685 54.338 2.44551C52.9519 3.83417 52.1734 5.71608 52.1734 7.67815V375.89C52.1734 377.852 52.9519 379.734 54.338 381.123C55.7241 382.511 57.6046 383.293 59.5666 383.297H321.505C323.469 383.293 325.351 382.512 326.739 381.123C328.127 379.735 328.909 377.853 328.912 375.89V7.67815C328.909 5.71483 328.127 3.83296 326.739 2.44468C325.351 1.05641 323.469 0.2749 321.505 0.271314H59.5666Z" fill="#EBEBEB"/>
<path d="M614.944 383.636H352.991C350.938 383.632 348.97 382.815 347.518 381.363C346.066 379.911 345.249 377.943 345.245 375.89V7.67815C345.267 5.63667 346.092 3.68589 347.542 2.24863C348.992 0.811372 350.95 0.00345692 352.991 0H614.944C616.981 0.00706023 618.935 0.816989 620.379 2.25424C621.824 3.69149 622.645 5.64025 622.662 7.67815V375.89C622.662 377.94 621.85 379.906 620.403 381.358C618.956 382.81 616.993 383.629 614.944 383.636ZM352.991 0.271314C351.028 0.2749 349.146 1.05641 347.758 2.44468C346.369 3.83296 345.588 5.71483 345.584 7.67815V375.89C345.588 377.853 346.369 379.735 347.758 381.123C349.146 382.512 351.028 383.293 352.991 383.297H614.944C616.907 383.293 618.789 382.512 620.177 381.123C621.565 379.735 622.347 377.853 622.35 375.89V7.67815C622.347 5.71483 621.565 3.83296 620.177 2.44468C618.789 1.05641 616.907 0.2749 614.944 0.271314H352.991Z" fill="#EBEBEB"/>
<path d="M182.308 110.519H107.006L108.159 100.331H183.462L182.308 110.519Z" fill="#F5F5F5"/>
<path d="M176.909 158.107H101.607L102.76 147.92H178.062L176.909 158.107Z" fill="#F5F5F5"/>
<path d="M171.524 205.696H96.2209L97.374 195.521H172.677L171.524 205.696Z" fill="#F5F5F5"/>
<path d="M166.125 253.284H90.8219L91.975 243.11H167.278L166.125 253.284Z" fill="#F5F5F5"/>
<path d="M160.739 300.872H85.4363L86.5894 290.698H161.892L160.739 300.872Z" fill="#F5F5F5"/>
<path d="M155.354 348.474H80.0508L81.2039 338.286H156.493L155.354 348.474Z" fill="#F5F5F5"/>
<path d="M149.954 396.062H74.6516L75.8047 385.874H151.107L149.954 396.062Z" fill="#F5F5F5"/>
<path d="M74.3532 444.478H62.5647L103.845 80.0779H115.633L74.3532 444.478Z" fill="#EBEBEB"/>
<path d="M151.08 444.478H139.292L180.572 80.0779H192.361L151.08 444.478Z" fill="#EBEBEB"/>
<path d="M602.775 59.1869H460.743V444.478H602.775V59.1869Z" fill="#F5F5F5"/>
<path d="M595.002 67.6519H468.53V130.501H595.002V67.6519Z" fill="#EBEBEB"/>
<path d="M523.443 91.3916H484.334V130.501H523.443V91.3916Z" fill="#F0F0F0"/>
<path d="M565.334 102.665H537.497V130.501H565.334V102.665Z" fill="#F0F0F0"/>
<path d="M595.002 137.094H468.53V199.944H595.002V137.094Z" fill="#EBEBEB"/>
<path d="M503.163 160.834H484.334V199.944H503.163V160.834Z" fill="#F0F0F0"/>
<path d="M565.348 183.909H523.457V199.944H565.348V183.909Z" fill="#F0F0F0"/>
<path d="M556.164 159.993H515.494V183.909H556.164V159.993Z" fill="#F0F0F0"/>
<path d="M595.002 206.537H468.53V269.386H595.002V206.537Z" fill="#EBEBEB"/>
<path d="M523.457 230.277H515.494V269.386H523.457V230.277Z" fill="#F0F0F0"/>
<path d="M586.334 216.453H537.497V269.386H586.334V216.453Z" fill="#F0F0F0"/>
<path d="M595.002 275.979H468.53V338.829H595.002V275.979Z" fill="#EBEBEB"/>
<path d="M523.443 299.719H484.334V338.829H523.443V299.719Z" fill="#F0F0F0"/>
<path d="M565.334 310.992H537.497V338.829H565.334V310.992Z" fill="#F0F0F0"/>
<path d="M595.002 345.422H468.53V408.271H595.002V345.422Z" fill="#EBEBEB"/>
<path d="M523.443 369.148H484.334V408.258H523.443V369.148Z" fill="#F0F0F0"/>
<path d="M565.334 380.435H537.497V408.271H565.334V380.435Z" fill="#F0F0F0"/>
<path d="M523.457 39.8151H480.617V59.1868H523.457V39.8151Z" fill="#F0F0F0"/>
<path d="M561.915 49.501H539.871V59.1868H561.915V49.501Z" fill="#F0F0F0"/>
<path d="M132.089 444.478H255.088V334.176H132.089V444.478Z" fill="#EBEBEB"/>
<path d="M212.275 444.478H255.088V334.176H212.275V444.478Z" fill="#E0E0E0"/>
<path d="M107.603 336.455H230.602V246.664H107.603L107.603 336.455Z" fill="#F5F5F5"/>
<path d="M187.789 336.455H230.602V246.664H187.789V336.455Z" fill="#EBEBEB"/>
<path d="M136.47 246.65L255.088 246.65V202.698H136.47V246.65Z" fill="#FAFAFA"/>
<path d="M213.794 246.65H255.075V202.698H213.794V246.65Z" fill="#F0F0F0"/>
<path d="M257.123 39.8151H89.099V49.5009H257.123V39.8151Z" fill="#F0F0F0"/>
<path d="M126.011 26.1139H101.607V39.8152H126.011V26.1139Z" fill="#F5F5F5"/>
<path d="M157.497 13.959H131.641V39.8151H157.497V13.959Z" fill="#F0F0F0"/>
<path d="M179.745 26.8871H166.817V39.8151H179.745V26.8871Z" fill="#EBEBEB"/>
<path d="M201.64 33.575C201.642 34.9015 201.251 36.199 200.516 37.3032C199.78 38.4073 198.734 39.2683 197.509 39.7772C196.284 40.2861 194.935 40.42 193.634 40.1618C192.333 39.9037 191.138 39.2652 190.2 38.3271C189.261 37.3891 188.623 36.1938 188.365 34.8926C188.107 33.5913 188.241 32.2428 188.749 31.0177C189.258 29.7926 190.119 28.7462 191.223 28.0108C192.328 27.2755 193.625 26.8844 194.952 26.8871C196.724 26.8907 198.423 27.5964 199.677 28.8499C200.93 30.1033 201.636 31.8023 201.64 33.575Z" fill="#F5F5F5"/>
<path d="M210.104 39.8151L218.23 13.959H231.647L239.067 40.2763L210.104 39.8151Z" fill="#EBEBEB"/>
<path d="M339.141 505.401C484.405 505.401 602.165 498.526 602.165 490.045C602.165 481.564 484.405 474.688 339.141 474.688C193.877 474.688 76.1167 481.564 76.1167 490.045C76.1167 498.526 193.877 505.401 339.141 505.401Z" fill="#F5F5F5"/>
<path d="M444.437 85.9654V488.146C444.439 488.925 444.286 489.697 443.986 490.417C443.687 491.136 443.247 491.789 442.693 492.337C442.139 492.885 441.481 493.317 440.758 493.608C440.035 493.9 439.261 494.044 438.482 494.033H251.276C250.583 494.044 249.895 493.916 249.252 493.658C248.609 493.399 248.025 493.015 247.532 492.527C247.022 492.017 246.619 491.409 246.346 490.741C246.073 490.072 245.937 489.356 245.945 488.634V85.4635C245.897 84.2063 246.35 82.9815 247.205 82.0582C248.06 81.135 249.246 80.5886 250.503 80.5392H303.667C304.409 80.5534 305.13 80.7879 305.739 81.213C306.348 81.6382 306.816 82.2347 307.085 82.9267L309.296 88.353C309.566 89.0435 310.035 89.6382 310.644 90.061C311.253 90.4838 311.974 90.7157 312.715 90.727H377.83C378.567 90.7226 379.286 90.4981 379.895 90.0825C380.505 89.6668 380.976 89.0787 381.248 88.3937L383.46 82.9674C383.726 82.2728 384.194 81.6734 384.803 81.2458C385.412 80.8181 386.134 80.5816 386.878 80.5663H439.269C440.658 80.6324 441.969 81.2294 442.931 82.2341C443.892 83.2389 444.432 84.5746 444.437 85.9654Z" fill="#6750A4"/>
<path opacity="0.6" d="M270.648 96.7501H273.415V93.0603H270.648V96.7501Z" fill="white"/>
<path opacity="0.6" d="M266.131 96.7501H268.898V91.8394H266.131V96.7501Z" fill="white"/>
<path opacity="0.6" d="M261.64 96.7501H264.408V90.6049H261.64V96.7501Z" fill="white"/>
<path opacity="0.6" d="M257.123 96.7501H259.89V89.3704H257.123V96.7501Z" fill="white"/>
<path opacity="0.6" d="M419.097 91.7173H417.455V95.4071H419.097V91.7173Z" fill="white"/>
<path opacity="0.6" d="M420.236 96.7501H433.3V90.3743H420.236V96.7501Z" fill="white"/>
<g opacity="0.1">
<path d="M335.261 90.727L278.095 304.738L277.458 307.153L276.427 311.019L275.776 313.42L245.931 425.174V289.925L301.835 80.5256H303.653C304.396 80.538 305.118 80.7718 305.727 81.1972C306.336 81.6226 306.804 82.2201 307.072 82.9132L309.283 88.3394C309.551 89.0311 310.019 89.6267 310.629 90.0498C311.238 90.4728 311.96 90.704 312.701 90.7134L335.261 90.727Z" fill="white"/>
<path d="M444.437 200.025V335.275L408.814 468.76L407.946 472.003L402.058 494.033H365.96L371.834 472.016L372.783 468.489L377.491 450.799L378.44 447.259L380.34 440.191L381.276 436.651L383.161 429.583L384.097 426.042L413.806 314.777V314.763L415.176 309.636V309.622L444.437 200.025Z" fill="white"/>
<path d="M354.823 90.727L298.05 303.409L297.698 304.684L294.591 316.337L294.252 317.612L247.559 492.527C247.049 492.017 246.646 491.409 246.373 490.741C246.101 490.072 245.964 489.356 245.972 488.634V468.014L286.14 317.558L286.479 316.283L289.585 304.63L289.925 303.355L346.71 90.6727L354.823 90.727Z" fill="white"/>
</g>
<path opacity="0.3" d="M444.437 106.762H245.972V476.221H444.437V106.762Z" fill="white"/>
<path d="M406.25 269.115C408.085 269.115 409.845 268.386 411.142 267.089C412.439 265.791 413.168 264.031 413.168 262.197V153.061C413.165 151.228 412.434 149.472 411.137 148.178C409.84 146.883 408.082 146.156 406.25 146.156C404.417 146.156 402.66 146.883 401.363 148.178C400.066 149.472 399.335 151.228 399.331 153.061V262.197C399.331 264.031 400.06 265.791 401.358 267.089C402.655 268.386 404.415 269.115 406.25 269.115Z" fill="#6750A4"/>
<path opacity="0.3" d="M406.25 266.402C405.135 266.402 404.065 265.959 403.276 265.17C402.488 264.382 402.045 263.312 402.045 262.197V153.061C402.045 151.946 402.488 150.876 403.276 150.087C404.065 149.299 405.135 148.856 406.25 148.856C407.365 148.856 408.435 149.299 409.224 150.087C410.012 150.876 410.455 151.946 410.455 153.061V262.197C410.455 263.312 410.012 264.382 409.224 265.17C408.435 265.959 407.365 266.402 406.25 266.402Z" fill="black"/>
<path d="M416.162 165.439C417.049 159.974 413.338 154.824 407.872 153.937C402.407 153.05 397.258 156.761 396.371 162.226C395.484 167.691 399.195 172.841 404.66 173.728C410.125 174.615 415.275 170.904 416.162 165.439Z" fill="#6750A4"/>
<path d="M365.553 269.115C366.462 269.115 367.361 268.936 368.201 268.588C369.04 268.241 369.803 267.731 370.445 267.089C371.088 266.446 371.597 265.683 371.945 264.844C372.293 264.005 372.471 263.105 372.471 262.197V153.061C372.468 151.228 371.737 149.472 370.44 148.178C369.143 146.883 367.386 146.156 365.553 146.156C363.72 146.156 361.963 146.883 360.666 148.178C359.369 149.472 358.638 151.228 358.635 153.061V262.197C358.635 264.031 359.363 265.791 360.661 267.089C361.958 268.386 363.718 269.115 365.553 269.115Z" fill="#6750A4"/>
<path opacity="0.3" d="M365.553 266.402C364.438 266.402 363.368 265.959 362.579 265.17C361.791 264.382 361.348 263.312 361.348 262.197V153.061C361.348 151.946 361.791 150.876 362.579 150.087C363.368 149.299 364.438 148.856 365.553 148.856C366.668 148.856 367.738 149.299 368.527 150.087C369.315 150.876 369.758 151.946 369.758 153.061V262.197C369.758 263.312 369.315 264.382 368.527 265.17C367.738 265.959 366.668 266.402 365.553 266.402Z" fill="black"/>
<path d="M375.462 246.827C376.349 241.362 372.638 236.213 367.173 235.325C361.708 234.438 356.558 238.15 355.671 243.615C354.784 249.08 358.495 254.229 363.96 255.116C369.426 256.004 374.575 252.292 375.462 246.827Z" fill="#6750A4"/>
<path d="M324.856 269.115C326.691 269.115 328.451 268.386 329.748 267.089C331.046 265.791 331.775 264.031 331.775 262.197V153.061C331.771 151.228 331.04 149.472 329.743 148.178C328.446 146.883 326.689 146.156 324.856 146.156C323.024 146.156 321.266 146.883 319.969 148.178C318.672 149.472 317.941 151.228 317.938 153.061V262.197C317.938 264.031 318.667 265.791 319.964 267.089C321.261 268.386 323.021 269.115 324.856 269.115Z" fill="#6750A4"/>
<path opacity="0.3" d="M324.856 266.402C323.741 266.402 322.671 265.959 321.882 265.17C321.094 264.382 320.651 263.312 320.651 262.197V153.061C320.651 151.946 321.094 150.876 321.882 150.087C322.671 149.299 323.741 148.856 324.856 148.856C325.971 148.856 327.041 149.299 327.83 150.087C328.618 150.876 329.061 151.946 329.061 153.061V262.197C329.061 263.312 328.618 264.382 327.83 265.17C327.041 265.959 325.971 266.402 324.856 266.402Z" fill="black"/>
<path d="M334.765 192.569C335.652 187.104 331.941 181.955 326.476 181.068C321.011 180.18 315.861 183.892 314.974 189.357C314.087 194.822 317.798 199.971 323.264 200.858C328.729 201.746 333.878 198.034 334.765 192.569Z" fill="#6750A4"/>
<path d="M284.159 269.115C285.994 269.115 287.754 268.386 289.051 267.089C290.349 265.791 291.078 264.031 291.078 262.197V153.061C291.074 151.228 290.344 149.472 289.047 148.178C287.749 146.883 285.992 146.156 284.159 146.156C282.327 146.156 280.569 146.883 279.272 148.178C277.975 149.472 277.244 151.228 277.241 153.061V262.197C277.241 264.031 277.97 265.791 279.267 267.089C280.565 268.386 282.324 269.115 284.159 269.115Z" fill="#6750A4"/>
<path opacity="0.3" d="M284.159 266.402C283.044 266.402 281.974 265.959 281.186 265.17C280.397 264.382 279.954 263.312 279.954 262.197V153.061C279.954 151.946 280.397 150.876 281.186 150.087C281.974 149.299 283.044 148.856 284.159 148.856C285.275 148.856 286.344 149.299 287.133 150.087C287.921 150.876 288.365 151.946 288.365 153.061V262.197C288.365 263.312 287.921 264.382 287.133 265.17C286.344 265.959 285.275 266.402 284.159 266.402Z" fill="black"/>
<path d="M294.063 233.265C294.95 227.8 291.238 222.65 285.773 221.763C280.308 220.876 275.159 224.587 274.272 230.053C273.384 235.518 277.096 240.667 282.561 241.554C288.026 242.441 293.175 238.73 294.063 233.265Z" fill="#6750A4"/>
<path opacity="0.6" d="M416.162 165.439C417.049 159.974 413.338 154.824 407.872 153.937C402.407 153.05 397.258 156.761 396.371 162.226C395.484 167.691 399.195 172.841 404.66 173.728C410.125 174.615 415.275 170.904 416.162 165.439Z" fill="white"/>
<path opacity="0.6" d="M406.25 171.13C404.804 171.13 403.39 170.702 402.188 169.898C400.985 169.095 400.048 167.953 399.495 166.617C398.941 165.281 398.796 163.81 399.078 162.392C399.361 160.974 400.057 159.671 401.08 158.648C402.102 157.626 403.405 156.929 404.823 156.647C406.242 156.365 407.712 156.51 409.048 157.063C410.384 157.617 411.526 158.554 412.329 159.756C413.133 160.959 413.562 162.372 413.562 163.819C413.558 165.757 412.787 167.614 411.416 168.985C410.046 170.355 408.188 171.127 406.25 171.13Z" fill="white"/>
<path opacity="0.6" d="M375.462 246.827C376.349 241.362 372.638 236.213 367.173 235.325C361.708 234.438 356.558 238.15 355.671 243.615C354.784 249.08 358.495 254.229 363.96 255.116C369.426 256.004 374.575 252.292 375.462 246.827Z" fill="white"/>
<path opacity="0.6" d="M365.553 252.524C364.107 252.524 362.693 252.095 361.491 251.292C360.288 250.489 359.351 249.347 358.798 248.011C358.244 246.674 358.099 245.204 358.382 243.786C358.664 242.368 359.36 241.065 360.383 240.042C361.405 239.02 362.708 238.323 364.126 238.041C365.545 237.759 367.015 237.904 368.351 238.457C369.687 239.011 370.829 239.948 371.633 241.15C372.436 242.353 372.865 243.766 372.865 245.212C372.861 247.151 372.09 249.008 370.719 250.379C369.349 251.749 367.491 252.521 365.553 252.524Z" fill="white"/>
<path opacity="0.6" d="M334.765 192.569C335.652 187.104 331.941 181.955 326.476 181.068C321.011 180.18 315.861 183.892 314.974 189.357C314.087 194.822 317.798 199.971 323.264 200.858C328.729 201.746 333.878 198.034 334.765 192.569Z" fill="white"/>
<path opacity="0.6" d="M324.856 198.262C323.41 198.262 321.996 197.833 320.794 197.029C319.591 196.226 318.654 195.084 318.101 193.748C317.547 192.412 317.403 190.942 317.685 189.523C317.967 188.105 318.663 186.802 319.686 185.78C320.708 184.757 322.011 184.061 323.43 183.778C324.848 183.496 326.318 183.641 327.654 184.195C328.99 184.748 330.132 185.685 330.936 186.888C331.739 188.09 332.168 189.504 332.168 190.95C332.164 192.888 331.393 194.746 330.022 196.116C328.652 197.487 326.794 198.258 324.856 198.262Z" fill="white"/>
<path opacity="0.6" d="M294.063 233.265C294.95 227.8 291.238 222.65 285.773 221.763C280.308 220.876 275.159 224.587 274.272 230.053C273.384 235.518 277.096 240.667 282.561 241.554C288.026 242.441 293.175 238.73 294.063 233.265Z" fill="white"/>
<path opacity="0.6" d="M284.159 238.959C282.713 238.959 281.299 238.53 280.097 237.726C278.895 236.923 277.957 235.781 277.404 234.445C276.851 233.109 276.706 231.639 276.988 230.22C277.27 228.802 277.966 227.499 278.989 226.476C280.012 225.454 281.314 224.757 282.733 224.475C284.151 224.193 285.621 224.338 286.957 224.891C288.293 225.445 289.435 226.382 290.239 227.584C291.042 228.787 291.471 230.201 291.471 231.647C291.468 233.585 290.696 235.443 289.326 236.813C287.955 238.183 286.097 238.955 284.159 238.959Z" fill="white"/>
<path d="M431.116 293.777H259.293C257.233 293.777 255.563 295.448 255.563 297.508V457.989C255.563 460.05 257.233 461.72 259.293 461.72H431.116C433.176 461.72 434.846 460.05 434.846 457.989V297.508C434.846 295.448 433.176 293.777 431.116 293.777Z" fill="#6750A4"/>
<path opacity="0.3" d="M431.116 293.777H259.293C257.233 293.777 255.563 295.448 255.563 297.508V457.989C255.563 460.05 257.233 461.72 259.293 461.72H431.116C433.176 461.72 434.846 460.05 434.846 457.989V297.508C434.846 295.448 433.176 293.777 431.116 293.777Z" fill="black"/>
<path opacity="0.6" d="M329.034 402.642V417.075L336.428 417.822C337.413 422.572 339.291 427.093 341.962 431.143L337.187 436.922L347.402 447.123L353.168 442.348C357.221 445.026 361.746 446.909 366.503 447.897L367.194 455.33H381.642L382.334 447.897C387.09 446.909 391.616 445.026 395.669 442.348L401.434 447.123L411.649 436.922L406.969 431.102C409.639 427.05 411.521 422.531 412.517 417.781L419.951 417.075V402.642L412.517 401.936C411.521 397.182 409.639 392.658 406.969 388.601L411.744 382.836L401.543 372.621L395.777 377.396C391.721 374.727 387.196 372.85 382.442 371.861L381.75 364.427H367.235L366.543 371.861C361.789 372.85 357.265 374.727 353.208 377.396L347.443 372.621L337.228 382.836L342.003 388.601C339.333 392.658 337.45 397.182 336.455 401.936L329.034 402.642ZM374.411 390.31C378.278 390.31 382.057 391.457 385.272 393.605C388.486 395.753 390.992 398.806 392.471 402.378C393.951 405.95 394.338 409.88 393.584 413.672C392.83 417.464 390.968 420.947 388.234 423.681C385.5 426.415 382.017 428.277 378.225 429.031C374.433 429.785 370.503 429.398 366.931 427.919C363.359 426.439 360.306 423.934 358.158 420.719C356.01 417.504 354.863 413.725 354.863 409.859C354.863 407.291 355.369 404.749 356.351 402.378C357.334 400.006 358.774 397.851 360.589 396.036C362.404 394.221 364.559 392.781 366.931 391.798C369.302 390.816 371.844 390.31 374.411 390.31Z" fill="white"/>
<path opacity="0.4" d="M270.512 361.185V372.499L276.345 373.041C277.115 376.767 278.589 380.313 280.686 383.487L276.942 387.977L284.946 395.967L289.463 392.223C292.639 394.321 296.184 395.798 299.909 396.578L300.465 402.397H311.779L312.321 396.578C316.048 395.801 319.592 394.323 322.767 392.223L327.284 395.967L335.288 387.977L331.544 383.446C333.646 380.273 335.124 376.728 335.899 373.001L341.718 372.458V361.144L335.899 360.588C335.119 356.863 333.641 353.319 331.544 350.143L335.288 345.625L327.284 337.622L322.767 341.366C319.589 339.276 316.045 337.803 312.321 337.025L311.779 331.191H300.465L299.909 337.025C296.186 337.806 292.643 339.278 289.463 341.366L284.946 337.622L276.942 345.625L280.686 350.143C278.593 353.319 277.12 356.864 276.345 360.588L270.512 361.185ZM306.122 351.526C309.151 351.526 312.112 352.425 314.631 354.107C317.15 355.79 319.113 358.182 320.272 360.981C321.431 363.779 321.734 366.859 321.143 369.83C320.552 372.801 319.094 375.53 316.952 377.672C314.81 379.814 312.081 381.272 309.11 381.863C306.139 382.454 303.06 382.151 300.261 380.992C297.462 379.832 295.07 377.869 293.388 375.351C291.705 372.832 290.806 369.871 290.806 366.842C290.806 362.78 292.42 358.884 295.292 356.012C298.164 353.14 302.06 351.526 306.122 351.526Z" fill="white"/>
<path opacity="0.2" d="M333.606 326.253V335.749L338.503 336.211C339.162 339.338 340.399 342.315 342.152 344.988L339.005 348.772L345.788 355.555L349.573 352.408C352.245 354.161 355.222 355.399 358.35 356.057L358.811 360.954H368.307L368.768 356.057C371.896 355.401 374.874 354.163 377.545 352.408L381.343 355.555L388.058 348.772L384.911 344.988C386.664 342.315 387.902 339.338 388.56 336.211L393.458 335.749V326.253L388.56 325.792C387.904 322.664 386.667 319.687 384.911 317.015L388.058 313.217L381.343 306.502L377.545 309.649C374.88 307.883 371.9 306.644 368.768 306L368.307 301.103H358.811L358.35 306C355.218 306.646 352.239 307.885 349.573 309.649L345.788 306.502L339.005 313.217L342.152 317.015C340.397 319.687 339.159 322.664 338.503 325.792L333.606 326.253ZM363.518 318.114C366.065 318.114 368.555 318.869 370.672 320.285C372.789 321.7 374.439 323.711 375.413 326.064C376.387 328.418 376.641 331.007 376.144 333.504C375.646 336.002 374.418 338.296 372.617 340.096C370.815 341.896 368.52 343.121 366.021 343.616C363.523 344.111 360.934 343.854 358.582 342.878C356.23 341.901 354.22 340.249 352.807 338.13C351.394 336.011 350.642 333.521 350.644 330.974C350.65 329.284 350.988 327.611 351.64 326.051C352.292 324.491 353.245 323.075 354.444 321.883C355.643 320.691 357.065 319.748 358.629 319.106C360.193 318.464 361.868 318.136 363.559 318.141L363.518 318.114Z" fill="white"/>
<path opacity="0.6" d="M317.015 363.912L309.039 355.935L298.145 358.865L295.215 369.758L303.192 377.735L314.099 374.818L317.015 363.912Z" fill="white"/>
<path opacity="0.8" d="M376.216 395.994L363.328 401.394L361.578 415.258L372.702 423.723L385.589 418.31L387.353 404.446L376.216 395.994Z" fill="white"/>
<path opacity="0.4" d="M371.522 335.627V326.375L363.518 321.75L355.501 326.375V335.627L363.518 340.253L371.522 335.627Z" fill="white"/>
<path d="M557.805 247.722L572.239 259.443C572.239 259.443 575.766 259.524 576.878 260.691C577.991 261.857 582.305 270.512 581.64 271.692C580.975 272.873 573.921 275.206 572.415 273.809C570.909 272.411 568.346 264.394 568.346 263.539L549.896 251.168L557.805 247.722Z" fill="#B97964"/>
<path d="M565.809 252.877L562.58 259.917C562.58 259.917 542.734 250.625 538.433 245.212C537.335 243.856 535.815 241.59 534.174 239.053C531.461 234.862 528.422 229.815 526.306 226.275C524.732 223.562 523.674 221.825 523.674 221.825L534.906 204.108C537.362 205.994 544.877 236.272 546.22 237.9C547.563 239.528 565.809 252.877 565.809 252.877Z" fill="#263238"/>
<path opacity="0.2" d="M534.174 239.053C531.461 234.862 528.422 229.815 526.306 226.275L531.528 213.387C531.528 213.387 534.364 228.174 534.174 239.053Z" fill="black"/>
<path d="M442.687 180.491L427.466 169.638C427.466 169.638 425.649 166.613 424.089 166.22C422.529 165.826 412.897 166.423 412.164 167.576C411.432 168.729 412.938 176.028 414.878 176.638C416.817 177.248 425.093 175.553 425.812 175.092L441.263 185.768L442.687 180.491Z" fill="#B97964"/>
<path d="M562.77 484.008L554.251 485.514L550.764 473.902L547.577 463.253L557.398 459.821L560.247 472.627L562.77 484.008Z" fill="#B97964"/>
<path opacity="0.2" d="M560.288 472.884L550.805 474.132L547.59 463.361L557.398 459.875L560.288 472.884Z" fill="black"/>
<path d="M505.917 484.225H497.275L495.851 472.627L494.562 461.801L504.831 460.228L505.415 472.952L505.917 484.225Z" fill="#B97964"/>
<path opacity="0.2" d="M505.415 473.725L495.851 473.305L494.562 462.127L504.831 460.404L505.415 473.725Z" fill="black"/>
<path d="M561.088 463.578L547.088 466.047C532.966 430.844 522.914 401.461 515.819 377.084C511.994 363.925 508.969 352.232 506.69 341.813L507.273 380.122V466.658H493.151C458.572 302.514 483.086 264.353 483.086 264.353L524.447 257.435C526.086 265.101 527.246 272.862 527.92 280.673L529.778 294.374L545.962 377.898L561.088 463.578Z" fill="#6750A4"/>
<path d="M544.904 464.311L562.268 458.559L562.024 465.939L547.672 470.524L544.904 464.311Z" fill="#6750A4"/>
<path opacity="0.6" d="M544.904 464.311L562.268 458.559L562.024 465.939L547.672 470.524L544.904 464.311Z" fill="white"/>
<path d="M491.306 465.111L509.403 462.466L507.884 469.696L492.948 471.718L491.306 465.111Z" fill="#6750A4"/>
<path opacity="0.6" d="M491.306 465.111L509.403 462.466L507.884 469.696L492.948 471.718L491.306 465.111Z" fill="white"/>
<path opacity="0.2" d="M517.732 383.527C517.081 381.343 516.376 379.2 515.765 377.084C512.306 365.146 509.986 354.402 507.273 344.77L505.917 327.026C505.917 327.026 514.761 307.533 511.451 293.804C511.763 294.591 517.61 309.54 515.317 324.463C514.781 344.183 515.588 363.917 517.732 383.527Z" fill="black"/>
<path d="M518.912 186.297C518.803 186.377 518.684 186.446 518.56 186.5C516.818 187.49 514.902 188.135 512.916 188.399C507.151 188.956 503.42 187.694 501.25 184.832C498.252 180.572 498.252 173.721 499.798 165.663C500.305 162.435 501.321 159.307 502.81 156.398C502.81 156.398 502.81 156.29 502.81 156.262C502.81 156.235 502.919 156.032 502.986 155.937C503.897 154.308 505.201 152.932 506.779 151.935C508.357 150.937 510.159 150.35 512.021 150.226C513.643 150.079 515.275 150.106 516.891 150.307C532.804 152.206 532.247 178.822 518.912 186.297Z" fill="#B97964"/>
<path opacity="0.2" d="M518.56 186.5C516.814 187.419 514.907 187.991 512.943 188.182C507.178 188.739 503.448 187.287 501.304 184.398C504.549 185.66 508.117 185.827 511.465 184.872C512.693 184.587 513.971 184.585 515.2 184.867C516.43 185.149 517.578 185.708 518.56 186.5Z" fill="black"/>
<path d="M519.74 199.415C521.164 203.851 515.48 206.265 515.48 206.265C505.482 203.118 503.203 198.126 503.203 198.126C510.8 193.161 507.273 181.576 507.273 181.576L508.982 182.227L520.622 183.339C520.622 183.339 518.058 189.729 517.773 191.167C516.376 198.791 519.74 199.415 519.74 199.415Z" fill="#B97964"/>
<path d="M502.81 156.29C502.81 156.29 500.49 167.291 510.393 173.437C510.393 173.437 513.418 185.564 520.052 186.595C529.1 187.952 538.786 176.136 537.348 162.57C535.49 144.976 509.823 140.228 502.81 156.29Z" fill="#263238"/>
<path d="M505.482 169.57C505.713 167.834 507.477 165.107 510.122 165.853C512.767 166.599 513.513 173.694 506.459 174.345C505.442 174.427 504.994 173.165 505.482 169.57Z" fill="#B97964"/>
<path d="M496.353 482.584H505.998C506.197 482.587 506.389 482.658 506.544 482.783C506.699 482.908 506.807 483.081 506.853 483.275L508.833 492.229C508.914 492.612 508.839 493.011 508.625 493.339C508.411 493.667 508.077 493.897 507.694 493.979C507.585 493.992 507.476 493.992 507.368 493.979C503.407 493.911 503.095 493.667 498.13 493.667C495.078 493.667 485.921 493.992 481.648 493.992C477.374 493.992 476.872 489.828 478.595 489.434C486.341 487.752 492.161 485.364 494.657 483.18C495.124 482.771 495.732 482.557 496.353 482.584Z" fill="#263238"/>
<path d="M493.029 484.293C492.349 484.347 491.67 484.17 491.103 483.791C490.911 483.641 490.764 483.442 490.675 483.216C490.587 482.989 490.561 482.742 490.601 482.502C490.599 482.364 490.637 482.229 490.709 482.111C490.781 481.994 490.884 481.899 491.008 481.838C492.12 481.268 495.376 483.194 495.729 483.493C495.77 483.514 495.804 483.548 495.826 483.589C495.847 483.63 495.856 483.677 495.851 483.723C495.842 483.772 495.819 483.817 495.786 483.853C495.752 483.889 495.709 483.915 495.661 483.927C494.8 484.144 493.917 484.267 493.029 484.293ZM491.537 482.217C491.435 482.19 491.327 482.19 491.225 482.217C491.225 482.217 491.089 482.312 491.076 482.502C491.056 482.661 491.076 482.821 491.132 482.97C491.189 483.119 491.281 483.252 491.401 483.357C492.528 483.872 493.808 483.94 494.983 483.547C493.925 482.907 492.756 482.474 491.537 482.272V482.217Z" fill="#6750A4"/>
<path d="M495.607 483.994H495.485C494.454 483.438 492.446 481.281 492.649 480.155C492.684 479.977 492.781 479.817 492.922 479.703C493.064 479.589 493.241 479.528 493.423 479.531C493.602 479.514 493.784 479.532 493.956 479.586C494.128 479.64 494.288 479.727 494.426 479.843C495.593 480.779 495.783 483.669 495.783 483.818C495.78 483.861 495.767 483.902 495.746 483.94C495.725 483.977 495.696 484.01 495.661 484.035C495.641 484.025 495.622 484.011 495.607 483.994ZM493.585 479.925H493.463C493.165 479.925 493.138 480.115 493.124 480.169C492.989 480.82 494.277 482.502 495.308 483.275C495.236 482.13 494.82 481.033 494.114 480.128C493.968 479.997 493.781 479.921 493.585 479.911V479.925Z" fill="#6750A4"/>
<path d="M553.925 482.584H563.57C563.771 482.583 563.965 482.651 564.121 482.777C564.277 482.903 564.384 483.079 564.425 483.275L566.419 492.229C566.459 492.419 566.46 492.616 566.424 492.807C566.387 492.999 566.313 493.181 566.206 493.343C566.099 493.506 565.961 493.646 565.8 493.755C565.638 493.864 565.457 493.94 565.266 493.979C565.158 493.992 565.049 493.992 564.941 493.979C560.993 493.911 560.667 493.667 555.716 493.667C552.664 493.667 543.507 493.992 539.22 493.992C534.933 493.992 534.459 489.828 536.181 489.434C543.927 487.752 549.747 485.365 552.23 483.18C552.698 482.773 553.305 482.56 553.925 482.584Z" fill="#263238"/>
<path d="M550.602 484.293C549.921 484.349 549.242 484.172 548.675 483.791C548.484 483.641 548.336 483.442 548.248 483.216C548.16 482.989 548.134 482.742 548.173 482.502C548.17 482.364 548.207 482.228 548.279 482.11C548.351 481.992 548.456 481.898 548.58 481.838C549.693 481.268 552.935 483.194 553.301 483.493C553.341 483.515 553.374 483.549 553.393 483.59C553.412 483.632 553.418 483.678 553.41 483.723C553.404 483.771 553.384 483.815 553.352 483.852C553.321 483.888 553.28 483.914 553.233 483.927C552.372 484.143 551.49 484.265 550.602 484.293ZM549.11 482.217C549.007 482.19 548.9 482.19 548.797 482.217C548.73 482.217 548.662 482.312 548.648 482.502C548.626 482.659 548.643 482.82 548.697 482.969C548.751 483.118 548.842 483.251 548.96 483.357C550.087 483.872 551.367 483.94 552.542 483.547C551.49 482.905 550.325 482.472 549.11 482.272V482.217Z" fill="#6750A4"/>
<path d="M553.166 483.995H553.057C552.013 483.438 550.005 481.281 550.222 480.156C550.257 479.98 550.351 479.821 550.49 479.707C550.628 479.593 550.802 479.531 550.982 479.531C551.163 479.512 551.347 479.53 551.522 479.584C551.697 479.637 551.859 479.726 551.999 479.843C553.152 480.78 553.356 483.669 553.356 483.818C553.355 483.86 553.344 483.901 553.326 483.939C553.307 483.976 553.28 484.009 553.247 484.035C553.217 484.027 553.19 484.013 553.166 483.995ZM551.144 479.925H551.036C550.724 479.925 550.697 480.115 550.683 480.169C550.561 480.82 551.836 482.502 552.881 483.276C552.809 482.13 552.393 481.033 551.687 480.128C551.537 479.995 551.345 479.919 551.144 479.911V479.925Z" fill="#6750A4"/>
<path d="M483.086 264.435C483.086 264.435 475.19 216.358 488.756 194.789C488.756 194.789 515.887 193.107 534.879 204.108C534.879 204.108 526.998 225.515 525.831 264.435H483.086Z" fill="#263238"/>
<path opacity="0.2" d="M480.617 227.645C480.033 221.12 481.973 214.839 482.244 209.304C485.637 206.307 488.633 202.888 491.157 199.13C491.157 199.13 493.626 218.61 480.617 227.645Z" fill="black"/>
<path d="M492.107 194.694C492.107 194.694 465.301 191.56 461.231 189.919C458.708 188.847 438.97 175.96 438.97 175.96L434.344 182.851C434.344 182.851 454.543 199.13 457.948 201.029C465.952 205.424 483.954 211.624 483.954 211.624C483.954 211.624 494.806 204.013 492.107 194.694Z" fill="#263238"/>
<path d="M531.528 153.902C531.528 153.902 540.74 146.061 549.883 150.985C559.026 155.91 548.377 174.888 551.049 180.708C553.722 186.527 559.514 186.134 552.202 189.919C544.891 193.704 551.972 196.919 551.972 196.919C551.972 196.919 545.433 199.143 544.891 193.744C544.348 188.345 541.988 183.909 539.871 182.987C537.755 182.064 543.466 171.836 541.486 166.776C539.505 161.716 533.767 162.136 533.767 162.136L531.528 153.902Z" fill="#263238"/>
<path d="M516.932 150.307C516.932 150.307 505.32 143.036 499.853 148.204C491.415 156.195 503.448 167.671 516.131 173.111L516.932 150.307Z" fill="#263238"/>
<path d="M270.675 297.345L175.526 191.397C177.304 187.536 177.985 183.259 177.496 179.036C177.006 174.813 175.363 170.806 172.748 167.453C170.133 164.101 166.645 161.534 162.668 160.031C158.691 158.529 154.377 158.149 150.199 158.935C149.908 158.982 149.635 159.106 149.41 159.296C149.184 159.486 149.014 159.733 148.918 160.011C148.822 160.29 148.804 160.589 148.864 160.877C148.925 161.165 149.063 161.432 149.263 161.648L161.743 175.553C161.983 175.818 162.149 176.143 162.223 176.493C162.297 176.843 162.276 177.207 162.164 177.547L159.45 185.835C159.337 186.174 159.138 186.478 158.871 186.716C158.605 186.954 158.281 187.118 157.931 187.192L149.398 188.996C149.047 189.069 148.684 189.048 148.343 188.936C148.003 188.825 147.698 188.625 147.458 188.359L134.978 174.467C134.781 174.267 134.536 174.121 134.266 174.044C133.996 173.967 133.71 173.96 133.437 174.026C133.164 174.091 132.913 174.226 132.707 174.418C132.502 174.609 132.349 174.851 132.265 175.119C131.037 179.188 130.952 183.516 132.02 187.63C133.088 191.744 135.268 195.484 138.321 198.442C141.374 201.399 145.181 203.46 149.327 204.397C153.473 205.334 157.796 205.112 161.824 203.756L256.974 309.703C255.197 313.564 254.516 317.839 255.005 322.061C255.495 326.282 257.136 330.288 259.749 333.64C262.363 336.991 265.848 339.559 269.823 341.063C273.798 342.567 278.11 342.948 282.287 342.166C282.579 342.121 282.853 341.998 283.081 341.809C283.308 341.62 283.479 341.373 283.577 341.094C283.675 340.816 283.694 340.516 283.635 340.226C283.575 339.937 283.437 339.67 283.237 339.453L270.716 325.575C270.475 325.307 270.31 324.98 270.236 324.628C270.162 324.275 270.183 323.909 270.295 323.567L273.008 315.292C273.119 314.952 273.318 314.647 273.585 314.409C273.852 314.17 274.177 314.007 274.528 313.936L283.047 312.131C283.398 312.057 283.762 312.077 284.103 312.189C284.443 312.301 284.748 312.501 284.987 312.769L297.481 326.66C297.676 326.864 297.921 327.014 298.192 327.093C298.463 327.173 298.75 327.18 299.024 327.115C299.299 327.049 299.552 326.912 299.757 326.718C299.962 326.524 300.113 326.28 300.194 326.009C301.417 321.941 301.498 317.614 300.428 313.503C299.358 309.391 297.178 305.653 294.127 302.697C291.075 299.741 287.27 297.681 283.127 296.742C278.984 295.803 274.662 296.021 270.634 297.372L270.675 297.345Z" fill="#6750A4"/>
<path opacity="0.7" d="M270.675 297.345L175.526 191.397C177.304 187.536 177.985 183.259 177.496 179.036C177.006 174.813 175.363 170.806 172.748 167.453C170.133 164.101 166.645 161.534 162.668 160.031C158.691 158.529 154.377 158.149 150.199 158.935C149.908 158.982 149.635 159.106 149.41 159.296C149.184 159.486 149.014 159.733 148.918 160.011C148.822 160.29 148.804 160.589 148.864 160.877C148.925 161.165 149.063 161.432 149.263 161.648L161.743 175.553C161.983 175.818 162.149 176.143 162.223 176.493C162.297 176.843 162.276 177.207 162.164 177.547L159.45 185.835C159.337 186.174 159.138 186.478 158.871 186.716C158.605 186.954 158.281 187.118 157.931 187.192L149.398 188.996C149.047 189.069 148.684 189.048 148.343 188.936C148.003 188.825 147.698 188.625 147.458 188.359L134.978 174.467C134.781 174.267 134.536 174.121 134.266 174.044C133.996 173.967 133.71 173.96 133.437 174.026C133.164 174.091 132.913 174.226 132.707 174.418C132.502 174.609 132.349 174.851 132.265 175.119C131.037 179.188 130.952 183.516 132.02 187.63C133.088 191.744 135.268 195.484 138.321 198.442C141.374 201.399 145.181 203.46 149.327 204.397C153.473 205.334 157.796 205.112 161.824 203.756L256.974 309.703C255.197 313.564 254.516 317.839 255.005 322.061C255.495 326.282 257.136 330.288 259.749 333.64C262.363 336.991 265.848 339.559 269.823 341.063C273.798 342.567 278.11 342.948 282.287 342.166C282.579 342.121 282.853 341.998 283.081 341.809C283.308 341.62 283.479 341.373 283.577 341.094C283.675 340.816 283.694 340.516 283.635 340.226C283.575 339.937 283.437 339.67 283.237 339.453L270.716 325.575C270.475 325.307 270.31 324.98 270.236 324.628C270.162 324.275 270.183 323.909 270.295 323.567L273.008 315.292C273.119 314.952 273.318 314.647 273.585 314.409C273.852 314.17 274.177 314.007 274.528 313.936L283.047 312.131C283.398 312.057 283.762 312.077 284.103 312.189C284.443 312.301 284.748 312.501 284.987 312.769L297.481 326.66C297.676 326.864 297.921 327.014 298.192 327.093C298.463 327.173 298.75 327.18 299.024 327.115C299.299 327.049 299.552 326.912 299.757 326.718C299.962 326.524 300.113 326.28 300.194 326.009C301.417 321.941 301.498 317.614 300.428 313.503C299.358 309.391 297.178 305.653 294.127 302.697C291.075 299.741 287.27 297.681 283.127 296.742C278.984 295.803 274.662 296.021 270.634 297.372L270.675 297.345Z" fill="white"/>
<path d="M163.181 172.5C163.181 172.5 134.924 176.204 131.261 181.237C127.598 186.27 127.395 190.95 144.094 195.752L148.991 192.184C148.991 192.184 142.059 189.539 142.873 187.911C143.687 186.283 163.222 186.894 163.222 186.894L163.181 172.5Z" fill="#E4897B"/>
<path d="M173.789 172.134L169.855 185.849L163.249 186.853L149.412 188.956L149.005 183.421L148.204 172.487C148.204 172.487 161.797 169.76 173.789 172.134Z" fill="#6750A4"/>
<path opacity="0.2" d="M166.857 177.94L163.289 186.866L149.452 188.969L149.046 183.434C156.005 177.967 166.857 177.94 166.857 177.94Z" fill="black"/>
<path d="M164.103 483.927L175.092 485.08L175.661 478.704L177.154 461.353L166.152 460.187L164.483 479.355L164.103 483.927Z" fill="#E4897B"/>
<path d="M109.176 482.529H119.839L119.947 480.115V479.816L120.503 464.351V464.04L120.734 458.111H110.058L109.176 482.529Z" fill="#E4897B"/>
<path opacity="0.2" d="M166.152 460.187L164.483 479.355L175.661 478.704L177.154 461.353L166.152 460.187Z" fill="black"/>
<path opacity="0.2" d="M109.244 481.173H109.271L119.947 479.816L120.503 464.894L109.8 465.749L109.271 480.712L109.244 481.173Z" fill="black"/>
<path d="M121.317 481.892H108.362C108.149 481.89 107.943 481.963 107.777 482.096C107.612 482.23 107.497 482.416 107.453 482.624L105.351 492.12C105.266 492.529 105.348 492.954 105.577 493.302C105.806 493.651 106.163 493.894 106.572 493.979C106.684 493.992 106.798 493.992 106.911 493.979C111.102 493.911 114.155 493.653 119.418 493.653C122.66 493.653 132.441 493.992 136.918 493.992C141.395 493.992 141.978 489.57 140.147 489.163C131.926 487.372 125.74 484.89 123.108 482.53C122.616 482.094 121.974 481.866 121.317 481.892Z" fill="#263238"/>
<path d="M176.258 481.58H163.303C163.09 481.578 162.884 481.65 162.718 481.784C162.552 481.917 162.438 482.104 162.394 482.312L160.291 491.808C160.207 492.216 160.289 492.642 160.517 492.99C160.746 493.338 161.104 493.582 161.512 493.667C161.625 493.68 161.739 493.68 161.852 493.667C166.043 493.599 169.096 493.341 174.359 493.341C177.601 493.341 187.382 493.68 191.859 493.68C196.335 493.68 196.919 489.258 195.087 488.851C186.867 487.06 180.681 484.578 178.049 482.217C177.556 481.782 176.915 481.554 176.258 481.58Z" fill="#263238"/>
<path d="M178.171 477.103H162.53C162.53 477.103 158.04 341.854 141.083 296.409C143.158 380.964 123.23 478.46 123.23 478.46H107.82C107.82 478.46 114.887 402.126 114.887 368.741C114.887 309.581 98.6086 280.7 114.453 242.418H171.049C184.913 325.914 190.244 384.857 178.171 477.103Z" fill="#263238"/>
<path d="M179.921 472.694L179.161 477.103H160.671V473.033L179.921 472.694Z" fill="#6750A4"/>
<path d="M125.048 474.39L123.271 478.46H107.765L106.748 474.39H125.048Z" fill="#6750A4"/>
<path d="M219.763 177.099C219.343 177.438 218.922 177.75 218.488 178.035C216.001 179.711 213.062 180.587 210.064 180.545C209.305 180.536 208.548 180.473 207.798 180.355C204.914 179.922 202.249 178.561 200.208 176.478C198.166 174.395 196.859 171.703 196.485 168.811C195.413 161.295 199.198 156.371 205.031 147.54C206.35 145.453 208.181 143.739 210.35 142.561C212.519 141.382 214.953 140.779 217.421 140.807C219.889 140.836 222.309 141.496 224.45 142.724C226.591 143.952 228.382 145.708 229.653 147.825C235.499 157.361 227.292 170.832 219.763 177.099Z" fill="#E4897B"/>
<path opacity="0.2" d="M210.104 180.545C209.346 180.536 208.589 180.473 207.839 180.355C205.862 180.058 203.976 179.322 202.319 178.203C200.662 177.083 199.276 175.608 198.262 173.884C199.393 173.147 200.615 172.558 201.897 172.134C205.383 174.092 208.232 177.012 210.104 180.545Z" fill="black"/>
<path d="M184.913 178.89C186.27 185.781 197.543 191.954 197.543 191.954C197.543 191.954 205.221 194.938 205.356 191.954C202.046 188.549 201.531 185.442 202.44 182.634C203.065 180.94 204.02 179.386 205.248 178.062C205.899 177.301 206.597 176.58 207.337 175.906L201.64 157.171C198.709 164.578 192.32 177.452 184.913 178.89Z" fill="#E4897B"/>
<path d="M234.401 149.113C233.247 142.683 229.992 142.33 229.992 142.33C229.68 137.203 217.579 132.021 209.643 133.689C201.707 135.358 196.322 142.344 194.151 148.774C191.004 158.148 192.903 169.774 192.903 169.774C199.32 174.657 205.994 175.553 208.015 171.944C210.037 168.336 215.056 167.088 215.056 167.088C218.108 169.733 222.938 167.088 222.938 167.088C222.938 167.088 228.364 165.202 229.354 159.857C230.344 154.512 235.364 154.54 234.401 149.113Z" fill="#263238"/>
<path d="M214.839 164.144C214.401 165.059 214.173 166.06 214.173 167.074C214.173 168.088 214.401 169.09 214.839 170.004C216.019 172.012 218.909 170.425 220.591 167.685C222.029 165.256 223.222 161.214 221.065 160.264C218.909 159.315 215.924 161.431 214.839 164.144Z" fill="#E4897B"/>
<path d="M216.223 133.676C228.12 130.135 237.697 149.656 237.236 160.007C236.842 168.417 228.011 167.4 228.011 167.4C228.011 167.4 232.895 167.074 232.42 161.173C232.42 161.173 230.304 168.404 225.569 163.656C220.835 158.908 226.451 147.594 226.451 147.594L216.223 133.676Z" fill="#263238"/>
<path opacity="0.2" d="M139.821 351.689C138.494 338.581 136.497 325.55 133.838 312.647C117.817 292.516 126.567 273.931 126.567 273.931C128.711 286.859 141.083 296.409 141.083 296.409C141.571 314.6 141.001 333.389 139.821 351.689Z" fill="black"/>
<path d="M184.886 175.797C184.886 175.797 188.318 173.247 194.68 177.004C198.662 179.581 201.64 183.445 203.118 187.952L184.886 175.797Z" fill="#6750A4"/>
<path d="M177.154 269.115C177.154 269.115 177.154 236.11 211.665 196.159C211.665 196.159 196.173 174.535 173.789 172.134C173.789 172.134 132.468 186.31 109.963 246.745L177.154 269.115Z" fill="#6750A4"/>
<path opacity="0.6" d="M211.624 196.159C208.006 200.391 204.728 204.534 201.789 208.585C196.641 215.672 192.103 223.183 188.223 231.036C177.126 253.637 177.126 269.115 177.126 269.115L109.922 246.732C132.428 186.31 173.749 172.121 173.749 172.121C196.173 174.535 211.624 196.159 211.624 196.159Z" fill="white"/>
<path d="M177.574 264.38C177.425 265.493 177.33 266.415 177.276 267.094L110.872 244.344C111.198 243.489 111.537 242.648 111.876 241.821L177.574 264.38Z" fill="#6750A4"/>
<path d="M178.741 257.666C178.537 258.629 178.347 259.524 178.198 260.379C155.137 251.493 128.996 241.577 114.168 236.449C114.535 235.608 114.914 234.794 115.294 233.98C131.831 239.664 160.454 250.598 178.741 257.666Z" fill="#6750A4"/>
<path d="M180.491 250.856C180.219 251.765 179.975 252.646 179.745 253.487C161.431 245.538 133.961 233.994 117.872 228.676C118.292 227.848 118.713 227.048 119.133 226.248C135.521 231.701 162.435 243.028 180.491 250.856Z" fill="#6750A4"/>
<path d="M182.756 243.896C182.444 244.792 182.132 245.66 181.847 246.501C164.022 237.9 138.437 226.153 121.996 221.12C122.457 220.306 122.932 219.505 123.352 218.732C140.147 223.914 165.162 235.404 182.756 243.896Z" fill="#6750A4"/>
<path d="M185.564 236.883C185.184 237.738 184.832 238.579 184.506 239.42C167.454 230.304 143.809 218.583 126.554 213.767C127.083 212.967 127.625 212.166 128.168 211.393C145.627 216.426 168.77 227.903 185.564 236.883Z" fill="#6750A4"/>
<path d="M188.874 229.788C188.454 230.629 188.047 231.47 187.653 232.298C171.619 222.802 149.805 211.325 131.641 206.605C132.238 205.804 132.835 205.031 133.445 204.258C151.745 209.223 173.084 220.469 188.874 229.788Z" fill="#6750A4"/>
<path d="M192.632 222.707C192.157 223.534 191.709 224.348 191.275 225.149C176.353 215.544 156.303 204.366 137.298 199.591C137.976 198.804 138.654 198.045 139.36 197.298C158.419 202.304 178.049 213.225 192.632 222.707Z" fill="#6750A4"/>
<path d="M196.919 215.775C196.417 216.535 195.942 217.294 195.467 218.054C181.793 208.436 163.317 197.705 143.741 192.781C144.515 192.021 145.274 191.289 146.034 190.583C165.338 195.738 183.434 206.306 196.919 215.775Z" fill="#6750A4"/>
<path d="M201.639 208.911L200.079 211.108C187.667 201.612 170.737 191.343 151.026 186.242C151.921 185.51 152.79 184.804 153.644 184.14C172.894 189.43 189.417 199.51 201.639 208.911Z" fill="#6750A4"/>
<path d="M206.808 202.019C206.238 202.738 205.682 203.444 205.139 204.163C191.77 192.948 176.188 184.675 159.41 179.88C160.454 179.175 161.458 178.524 162.421 177.94C178.672 182.933 193.762 191.12 206.808 202.019Z" fill="#6750A4"/>
<path d="M211.624 196.159L210.552 197.421C198.633 186.768 184.558 178.81 169.286 174.088C170.954 173.26 172.216 172.731 172.962 172.433C185.591 176.703 197.37 183.164 207.758 191.519C209.13 192.994 210.421 194.543 211.624 196.159Z" fill="#6750A4"/>
<path opacity="0.2" d="M201.829 208.585C196.682 215.672 192.144 223.183 188.264 231.036C188.178 225.902 189.26 220.816 191.426 216.161C193.593 211.505 196.788 207.403 200.771 204.163L201.829 208.585Z" fill="black"/>
<path d="M211.624 206.36V248.251L227.903 277.309L234.563 284.729C234.563 284.729 226.777 289.531 224.633 286.452C222.901 283.556 221.464 280.493 220.347 277.309C220.347 277.309 204.258 255.699 201.734 250.544C199.211 245.389 198.302 214.174 198.302 214.174L211.624 206.36Z" fill="#E4897B"/>
<path d="M211.624 196.159C214.174 203.213 214.161 227.251 214.161 227.251L196.078 228.839L194.64 219.343C195.073 213.172 197.225 207.247 200.853 202.236C202.117 200.52 203.731 199.092 205.587 198.044C207.444 196.997 209.501 196.354 211.624 196.159Z" fill="#6750A4"/>
</svg>
